<svg xmlns="http://www.w3.org/2000/svg" width="37" height="37" viewBox="0 0 37 37">
  <g id="accounting-coins-bill" transform="translate(0.75 0.75)">
    <ellipse id="Ellipse_43" data-name="Ellipse 43" cx="7.717" cy="1.543" rx="7.717" ry="1.543" transform="translate(20.059 13.891)" fill="none" stroke="#3d467b" stroke-linecap="round" stroke-linejoin="round" stroke-width="1.5"/>
    <path id="Path_3810" data-name="Path 3810" d="M.5,10.5v4.63c0,.854,3.454,1.543,7.717,1.543s7.717-.69,7.717-1.543V10.5" transform="translate(19.565 4.935)" fill="none" stroke="#3d467b" stroke-linecap="round" stroke-linejoin="round" stroke-width="1.5"/>
    <path id="Path_3811" data-name="Path 3811" d="M.5,13.5v4.63c0,.854,3.454,1.543,7.717,1.543s7.717-.69,7.717-1.543V13.5" transform="translate(19.565 6.565)" fill="none" stroke="#3d467b" stroke-linecap="round" stroke-linejoin="round" stroke-width="1.5"/>
    <path id="Path_3812" data-name="Path 3812" d="M.5,16.5v4.63c0,.854,3.454,1.543,7.717,1.543s7.717-.69,7.717-1.543V16.5" transform="translate(19.565 8.196)" fill="none" stroke="#3d467b" stroke-linecap="round" stroke-linejoin="round" stroke-width="1.5"/>
    <path id="Path_3813" data-name="Path 3813" d="M.5,19.5v4.63c0,.854,3.454,1.543,7.717,1.543s7.717-.69,7.717-1.543V19.5" transform="translate(19.565 9.826)" fill="none" stroke="#3d467b" stroke-linecap="round" stroke-linejoin="round" stroke-width="1.5"/>
    <path id="Path_3814" data-name="Path 3814" d="M36,11.3V2.043A1.543,1.543,0,0,0,34.457.5H2.043A1.543,1.543,0,0,0,.5,2.043V20.565a1.543,1.543,0,0,0,1.543,1.543H16.707" transform="translate(-0.5 -0.5)" fill="none" stroke="#3d467b" stroke-linecap="round" stroke-linejoin="round" stroke-width="1.5"/>
    <path id="Path_3815" data-name="Path 3815" d="M18.262,9.13A4.63,4.63,0,1,0,12.088,13.5" transform="translate(4.119 1.674)" fill="none" stroke="#fff" stroke-linecap="round" stroke-linejoin="round" stroke-width="1.5"/>
    <path id="Path_3816" data-name="Path 3816" d="M5.136,4.75a.386.386,0,1,0,.386.386.386.386,0,0,0-.386-.386" transform="translate(23.418 1.81)" fill="none" stroke="#fff" stroke-linecap="round" stroke-linejoin="round" stroke-width="1.5"/>
    <path id="Path_3817" data-name="Path 3817" d="M19.136,9.75a.386.386,0,1,0,.386.386.386.386,0,0,0-.386-.386" transform="translate(-12.19 4.527)" fill="none" stroke="#fff" stroke-linecap="round" stroke-linejoin="round" stroke-width="1.5"/>
    <path id="Path_3818" data-name="Path 3818" d="M31.826,10.217V3.272a.772.772,0,0,0-.772-.772H3.272a.772.772,0,0,0-.772.772V17.163a.772.772,0,0,0,.772.772H15.62" transform="translate(0.587 0.587)" fill="none" stroke="#fff" stroke-linecap="round" stroke-linejoin="round" stroke-width="1.5"/>
  </g>
</svg>
