<svg xmlns="http://www.w3.org/2000/svg" width="15" height="15" viewBox="0 0 15 15">
  <g id="app-window-add" transform="translate(-11.018 -11.006)">
    <path id="Path_4693" data-name="Path 4693" d="M18.518,26.006a7.5,7.5,0,1,1,7.5-7.5A7.509,7.509,0,0,1,18.518,26.006Zm0-13.846a6.346,6.346,0,1,0,6.346,6.346A6.353,6.353,0,0,0,18.518,12.16Z" transform="translate(0)" fill="#3c3951"/>
    <path id="Path_4694" data-name="Path 4694" d="M18.518,23.006a.643.643,0,0,1-.643-.643V19.149H14.661a.643.643,0,1,1,0-1.286h3.214V14.649a.643.643,0,0,1,1.286,0v3.214h3.214a.643.643,0,0,1,0,1.286H19.161v3.214A.644.644,0,0,1,18.518,23.006Z" transform="translate(0 0)" fill="#3c3951"/>
  </g>
</svg>
