<svg xmlns="http://www.w3.org/2000/svg" width="31.145" height="30.942" viewBox="0 0 31.145 30.942"><g transform="translate(5993.029 6750.401) rotate(-2)"><g transform="translate(64.363 176.75)"><g transform="translate(-5811.202 -7131.951) rotate(17)"><g transform="translate(4.121 4.113)" fill="none" stroke="#3c3951" stroke-width="1"><ellipse cx="3.804" cy="3.796" rx="3.804" ry="3.796" stroke="none"/><ellipse cx="3.804" cy="3.796" rx="3.304" ry="3.296" fill="none"/></g><g transform="translate(13.313 4.113)" fill="none" stroke="#3c3951" stroke-width="1"><ellipse cx="3.804" cy="3.796" rx="3.804" ry="3.796" stroke="none"/><ellipse cx="3.804" cy="3.796" rx="3.304" ry="3.296" fill="none"/></g><g transform="translate(4.121 13.286)" fill="none" stroke="#3c3951" stroke-width="1"><ellipse cx="3.804" cy="3.796" rx="3.804" ry="3.796" stroke="none"/><ellipse cx="3.804" cy="3.796" rx="3.304" ry="3.296" fill="none"/></g><g transform="translate(13.313 13.286)" fill="none" stroke="#3c3951" stroke-width="1"><ellipse cx="3.804" cy="3.796" rx="3.804" ry="3.796" stroke="none"/><ellipse cx="3.804" cy="3.796" rx="3.304" ry="3.296" fill="none"/></g><ellipse cx="1.585" cy="1.582" rx="1.585" ry="1.582" transform="translate(11.094 10.756)" fill="none" stroke="#3c3951" stroke-width="0.7"/><g fill="none" stroke="#3c3951" stroke-width="1"><ellipse cx="12.521" cy="12.496" rx="12.521" ry="12.496" stroke="none"/><ellipse cx="12.521" cy="12.496" rx="12.021" ry="11.996" fill="none"/></g></g></g><path d="M-5704.631-6947.884s.506-3.146,2.445-4.3,5.268,0,5.268,0a11.293,11.293,0,0,0-4.363,1.492A9.007,9.007,0,0,0-5704.631-6947.884Z" transform="translate(-44.169 -0.856)" fill="none" stroke="#3c3951" stroke-linecap="round" stroke-linejoin="round" stroke-width="0.7"/><path d="M-5704.631-6952.7s.506,3.146,2.445,4.3,5.268,0,5.268,0a11.293,11.293,0,0,1-4.363-1.492A9.007,9.007,0,0,1-5704.631-6952.7Z" transform="translate(-3520.281 1775.885) rotate(25)" fill="none" stroke="#3c3951" stroke-linecap="round" stroke-linejoin="round" stroke-width="0.7"/><path d="M-5704.631-6947.884s.506-3.146,2.445-4.3,5.268,0,5.268,0a11.293,11.293,0,0,0-4.363,1.492A9.007,9.007,0,0,0-5704.631-6947.884Z" transform="matrix(0.174, 0.985, -0.985, 0.174, -11582.689, -126.387)" fill="none" stroke="#3c3951" stroke-linecap="round" stroke-linejoin="round" stroke-width="0.7"/><path d="M0,0S.506,3.146,2.445,4.3s5.269,0,5.269,0A11.3,11.3,0,0,1,3.35,2.808,9.007,9.007,0,0,1,0,0Z" transform="matrix(0.407, -0.914, 0.914, 0.407, -5734.53, -6926.094)" fill="none" stroke="#3c3951" stroke-linecap="round" stroke-linejoin="round" stroke-width="0.7"/></g></svg>