<svg id="artificial_intelligence" xmlns="http://www.w3.org/2000/svg" width="34.673" height="34.672" viewBox="0 0 34.673 34.672">
  <g id="Group_1162" data-name="Group 1162">
    <path id="Path_4086" data-name="Path 4086" d="M34.409,14.345a.578.578,0,0,0-.569-.476H30.76A13.5,13.5,0,0,0,29.279,10.3l2.179-2.179a.577.577,0,0,0,.065-.739,17.029,17.029,0,0,0-4.229-4.229.578.578,0,0,0-.739.065L24.376,5.393A13.5,13.5,0,0,0,20.8,3.912V.832a.578.578,0,0,0-.476-.569,17.208,17.208,0,0,0-5.982,0,.562.562,0,0,0-.123.045A5.475,5.475,0,0,0,6.94,5.232c-.137.015-.271.038-.4.064-.024,0-.05.007-.074.012-.163.034-.324.075-.481.124-.05.015-.1.035-.147.052-.107.037-.213.073-.317.116-.059.024-.115.053-.172.08-.091.042-.181.083-.269.13-.06.032-.118.068-.176.1-.081.048-.163.1-.241.147-.058.038-.114.08-.171.12-.075.054-.149.108-.221.166-.055.044-.108.09-.161.137-.069.06-.136.12-.2.183s-.1.1-.15.152-.123.132-.182.2-.092.109-.136.165c-.056.071-.11.144-.163.217-.041.058-.082.117-.121.177-.05.076-.1.155-.142.234-.036.062-.071.123-.1.186-.043.082-.082.166-.121.25-.029.064-.06.128-.086.193-.036.088-.067.178-.1.268-.023.065-.047.13-.067.2C2.5,9,2.482,9.1,2.458,9.2c-.015.064-.033.127-.046.192-.022.11-.037.222-.051.335-.007.055-.018.109-.024.165-.017.169-.026.341-.026.514a5.1,5.1,0,0,0,.411,2.028c-.036.023-.068.05-.1.074-.094.062-.184.128-.274.2a5.783,5.783,0,0,0-.591.5c-.021.021-.044.039-.065.061-.109.108-.209.223-.308.339-.033.039-.066.077-.1.117-.1.119-.188.241-.275.367-.024.035-.046.072-.069.107a5.7,5.7,0,0,0-.6,1.229c-.036.1-.071.2-.1.309s-.052.193-.075.291c-.031.134-.057.27-.079.407-.012.079-.027.157-.036.237s-.014.139-.019.208c0,.012-.009.021-.01.033C0,17.047,0,17.191,0,17.336a5.79,5.79,0,0,0,1.967,4.34,5.45,5.45,0,0,0-.589,1.34c-.008.027-.016.053-.023.08a5.5,5.5,0,0,0-.138.659c-.005.037-.009.074-.013.111a5.58,5.58,0,0,0-.047.695A5.462,5.462,0,0,0,5.4,29.909c.017.064.039.126.057.189s.036.123.056.184c.045.14.1.277.151.412.018.043.033.087.052.13a6.329,6.329,0,0,0,.916,1.507c.023.028.047.055.07.082q.151.178.313.344c.036.036.072.072.109.108q.152.148.313.285c.043.037.086.074.13.11.109.088.222.172.337.252.044.031.086.064.131.094.157.1.318.2.484.294.03.017.063.03.093.046.137.072.275.14.417.2.071.031.143.057.215.085.107.042.213.082.323.118.079.026.159.049.239.072q.163.047.33.085c.079.018.158.036.238.051.125.024.251.042.377.058.068.009.136.02.205.026.2.019.4.03.6.03a6.32,6.32,0,0,0,2.432-.486.572.572,0,0,0,.355.222,17.126,17.126,0,0,0,5.982,0,.578.578,0,0,0,.476-.569V30.76a13.5,13.5,0,0,0,3.573-1.481l2.179,2.179a.577.577,0,0,0,.739.065,17.029,17.029,0,0,0,4.229-4.229.577.577,0,0,0-.065-.739l-2.179-2.179A13.5,13.5,0,0,0,30.76,20.8h3.08a.578.578,0,0,0,.569-.476A17.129,17.129,0,0,0,34.409,14.345ZM11.557,33.516c-.168,0-.334-.01-.5-.025-.059-.006-.117-.016-.176-.023-.1-.013-.206-.028-.307-.047-.069-.013-.138-.03-.206-.046-.089-.021-.177-.043-.264-.068-.07-.021-.14-.043-.209-.066s-.166-.059-.248-.091c-.066-.026-.133-.053-.2-.082-.085-.038-.167-.078-.25-.12-.058-.029-.116-.058-.173-.09-.1-.054-.189-.112-.281-.171-.039-.025-.079-.048-.117-.074a5.242,5.242,0,0,1-.746-.617l-.022-.023q-.158-.16-.3-.333c-.017-.021-.033-.042-.05-.063-.084-.1-.165-.211-.241-.322-.02-.028-.038-.058-.057-.086q-.1-.158-.2-.324l-.057-.1c-.057-.107-.109-.217-.159-.329-.018-.04-.036-.08-.053-.12-.045-.11-.086-.223-.124-.337-.014-.044-.03-.086-.044-.13-.036-.119-.066-.24-.093-.363-.009-.04-.02-.079-.029-.119A5.2,5.2,0,0,1,7.4,25.195a.578.578,0,0,0-.924-.694A6.3,6.3,0,0,0,5.2,28.316c0,.114.011.226.017.339a4.312,4.312,0,0,1-2.907-4.095,4.382,4.382,0,0,1,.058-.711c0-.025.013-.048.018-.073a4.253,4.253,0,0,1,.826-1.856c0-.005,0-.012.008-.017a4.316,4.316,0,0,1,2.149-1.488.578.578,0,1,0-.34-1.1A5.486,5.486,0,0,0,2.678,20.76a4.631,4.631,0,0,1-1.522-3.424,4.7,4.7,0,0,1,.04-.58c.008-.061.018-.122.028-.182.022-.131.05-.261.083-.389.017-.065.031-.13.05-.194a4.585,4.585,0,0,1,.17-.467c.038-.089.082-.174.125-.259s.073-.142.112-.212c.053-.093.107-.185.167-.274.034-.051.072-.1.108-.15a4.67,4.67,0,0,1,.365-.443c.051-.055.1-.11.156-.162.071-.069.144-.135.219-.2s.169-.137.257-.2c.07-.052.139-.1.211-.151a4.727,4.727,0,0,1,.415-.242,4.59,4.59,0,0,1,2.117-.518.578.578,0,0,0,0-1.156,5.74,5.74,0,0,0-2.013.369,3.971,3.971,0,0,1-.3-1.525A4.046,4.046,0,0,1,11.016,8.38a.578.578,0,1,0,1-.579A5.22,5.22,0,0,0,8.1,5.24a4.331,4.331,0,0,1,8.655.249V9.061l-2.509,3.513-2.123-.931c0-.029.009-.056.009-.085a1.751,1.751,0,1,0-.449,1.153l2.1.921a1.147,1.147,0,0,0,.46.1,1.163,1.163,0,0,0,.945-.483l1.568-2.2V15.6H12.029a1.734,1.734,0,1,0,0,1.156h4.729V19.07H15.5a1.734,1.734,0,1,0,0,1.156h1.262v2.311H12.031a1.158,1.158,0,0,0-1.133.929l-.408,2.039a1.722,1.722,0,1,0,1.167.059l.374-1.872h4.727v4.623A5.206,5.206,0,0,1,11.557,33.516ZM10.98,11.557a.578.578,0,1,1-.578-.578A.578.578,0,0,1,10.98,11.557Zm0,4.623A.578.578,0,1,1,10.4,15.6.578.578,0,0,1,10.98,16.18Zm3.467,3.467a.578.578,0,1,1-.578-.578A.578.578,0,0,1,14.447,19.647ZM11.557,27.16a.578.578,0,1,1-.578-.578A.578.578,0,0,1,11.557,27.16Zm21.791-7.512H30.3a.578.578,0,0,0-.564.454,12.377,12.377,0,0,1-1.679,4.048.578.578,0,0,0,.078.721l2.155,2.155a15.864,15.864,0,0,1-3.268,3.268L24.87,28.138a.578.578,0,0,0-.721-.078A12.38,12.38,0,0,1,20.1,29.739a.578.578,0,0,0-.454.564v3.045a16.106,16.106,0,0,1-4.274.038,6.344,6.344,0,0,0,2.54-5.071V25.4a8.081,8.081,0,0,0,0-16.122V5.489a5.48,5.48,0,0,0-2.035-4.261,16.086,16.086,0,0,1,3.769.094V4.368a.578.578,0,0,0,.454.564,12.377,12.377,0,0,1,4.048,1.679.577.577,0,0,0,.721-.078l2.155-2.155a15.864,15.864,0,0,1,3.268,3.268L28.138,9.8a.578.578,0,0,0-.078.721,12.38,12.38,0,0,1,1.679,4.048.578.578,0,0,0,.564.454h3.045A16.023,16.023,0,0,1,33.349,19.647ZM21.381,17.336a4.048,4.048,0,0,0-3.467-4V10.431a6.929,6.929,0,0,1,0,13.81V21.335A4.048,4.048,0,0,0,21.381,17.336Zm-3.467,2.831V14.5a2.889,2.889,0,0,1,0,5.662Z" transform="translate(0 0)" fill="#fff"/>
  </g>
</svg>
