<svg xmlns="http://www.w3.org/2000/svg" width="23.926" height="34.629" viewBox="0 0 23.926 34.629">
  <g id="money-bag-dollar" transform="translate(0 0)">
    <path id="Path_3659" data-name="Path 3659" d="M15.963,30.51C7.689,30.51,4,27.743,4,21.538c0-4.022,3.688-9.007,7.157-11.656a1.525,1.525,0,0,1,.9-.3h7.822a1.5,1.5,0,0,1,.9.3c3.466,2.648,7.146,7.631,7.146,11.659C27.926,27.744,24.237,30.51,15.963,30.51Zm-3.9-19.434C8.834,13.538,5.5,18.126,5.5,21.538c0,5.311,3.033,7.477,10.467,7.477S26.43,26.85,26.43,21.538c0-3.418-3.332-8.006-6.553-10.466l-7.818,0Z" transform="translate(-4 4.119)" fill="#3c3951"/>
    <path id="Path_3660" data-name="Path 3660" d="M8.752,9.072a.748.748,0,0,1,0-1.5H19.219a.748.748,0,0,1,0,1.5Z" transform="translate(-2.017 3.127)" fill="#3c3951"/>
    <path id="Path_3661" data-name="Path 3661" d="M11.1,9.627a1.5,1.5,0,0,1-1.489-1.31,14.658,14.658,0,0,0-1.72-4.6,1.522,1.522,0,0,1-.07-1.331,1.495,1.495,0,0,1,1.968-.776l2.433,1.042.52-1.3a1.5,1.5,0,0,1,2.778,0l.516,1.292,2.436-1.044a1.465,1.465,0,0,1,.591-.121,1.5,1.5,0,0,1,.724.185A1.494,1.494,0,0,1,20.376,3.7a14.658,14.658,0,0,0-1.711,4.658,1.48,1.48,0,0,1-1.483,1.267H11.1ZM9.194,2.987a16.15,16.15,0,0,1,1.895,5.1l.013.049h6.079a16.37,16.37,0,0,1,1.889-5.159L15.922,4.329a.737.737,0,0,1-.582,0,.749.749,0,0,1-.407-.413l-.8-2-.806,2.01a.752.752,0,0,1-.408.413.777.777,0,0,1-.286.055.738.738,0,0,1-.295-.061L9.194,2.987Z" transform="translate(-2.166 -0.419)" fill="#3c3951"/>
  </g>
</svg>
