<svg id="bill" xmlns="http://www.w3.org/2000/svg" width="22.678" height="33.836" viewBox="0 0 22.678 33.836">
  <g id="receipt-slip-1">
    <path id="Path_3666" data-name="Path 3666" d="M15.339,33.9a1.428,1.428,0,0,1-.85-.282L9.7,30.025,6.34,32.9A1.418,1.418,0,0,1,4,31.826V2.187A2.129,2.129,0,0,1,6.126.061H24.551a2.129,2.129,0,0,1,2.126,2.126V31.826A1.417,1.417,0,0,1,24.339,32.9l-3.36-2.88-4.789,3.592A1.428,1.428,0,0,1,15.339,33.9ZM9.669,28.408a.707.707,0,0,1,.425.142l5.244,3.932,5.244-3.932a.709.709,0,0,1,.886.028l3.791,3.249V2.187a.709.709,0,0,0-.709-.709H6.126a.709.709,0,0,0-.709.709V31.826l3.791-3.249A.714.714,0,0,1,9.669,28.408Z" transform="translate(-4 -0.061)" fill="#fff"/>
    <path id="Path_3667" data-name="Path 3667" d="M7.209,6.478a.709.709,0,0,1,0-1.417h5.669a.709.709,0,1,1,0,1.417Z" transform="translate(-2.957 2.026)" fill="#fff"/>
    <path id="Path_3668" data-name="Path 3668" d="M7.209,9.478a.709.709,0,0,1,0-1.417H15a.709.709,0,0,1,0,1.417Z" transform="translate(-2.957 3.278)" fill="#fff"/>
    <path id="Path_3669" data-name="Path 3669" d="M7.209,12.478a.709.709,0,0,1,0-1.417h8.5a.709.709,0,0,1,0,1.417Z" transform="translate(-2.957 4.53)" fill="#fff"/>
    <path id="Path_3670" data-name="Path 3670" d="M7.209,15.478a.709.709,0,1,1,0-1.417h6.378a.709.709,0,1,1,0,1.417Z" transform="translate(-2.957 5.782)" fill="#fff"/>
    <path id="Path_3671" data-name="Path 3671" d="M16.813,6.937a1.063,1.063,0,1,1,1.063-1.063A1.063,1.063,0,0,1,16.813,6.937Z" transform="translate(0.904 1.921)" fill="#fff"/>
    <path id="Path_3672" data-name="Path 3672" d="M16.813,9.937a1.063,1.063,0,1,1,1.063-1.063A1.063,1.063,0,0,1,16.813,9.937Z" transform="translate(0.904 3.173)" fill="#fff"/>
    <path id="Path_3673" data-name="Path 3673" d="M16.813,12.937a1.063,1.063,0,1,1,1.063-1.063A1.063,1.063,0,0,1,16.813,12.937Z" transform="translate(0.904 4.425)" fill="#fff"/>
    <path id="Path_3674" data-name="Path 3674" d="M16.813,15.937a1.063,1.063,0,0,1-1.063-1.063,1.049,1.049,0,0,1,.308-.748,1.063,1.063,0,1,1,.755,1.811Z" transform="translate(0.904 5.677)" fill="#fff"/>
  </g>
</svg>
