<svg id="bill" xmlns="http://www.w3.org/2000/svg" width="14.677" height="22.836" viewBox="0 0 14.677 22.836">
  <g id="receipt-slip-1">
    <path id="Path_3666" data-name="Path 3666" d="M11.339,22.9a.9.9,0,0,1-.55-.19l-3.1-2.423L5.515,22.226a.892.892,0,0,1-1.293-.1A.981.981,0,0,1,4,21.5V1.5A1.408,1.408,0,0,1,5.376.061H17.3A1.408,1.408,0,0,1,18.677,1.5v20a.938.938,0,0,1-.917.957.9.9,0,0,1-.6-.23l-2.175-1.944-3.1,2.424A.9.9,0,0,1,11.339,22.9Zm-3.669-3.7a.445.445,0,0,1,.275.1l3.394,2.653,3.394-2.653a.441.441,0,0,1,.275-.1.446.446,0,0,1,.3.115L17.76,21.5V1.5a.469.469,0,0,0-.459-.478H5.376a.469.469,0,0,0-.459.478v20l2.454-2.192A.451.451,0,0,1,7.669,19.192Z" transform="translate(-4 -0.061)" fill="#ffcbf3"/>
  </g>
</svg>
