<svg xmlns="http://www.w3.org/2000/svg" width="22.782" height="22.782" viewBox="0 0 22.782 22.782">
  <g id="calendar" transform="translate(0 0)">
    <path id="Path_4194" data-name="Path 4194" d="M1.424,22.783A1.426,1.426,0,0,1,0,21.359V3.323A1.426,1.426,0,0,1,1.424,1.9H4.746V.476a.475.475,0,1,1,.949,0V1.9H17.087V.476a.475.475,0,0,1,.949,0V1.9h3.322a1.426,1.426,0,0,1,1.424,1.424V21.359a1.426,1.426,0,0,1-1.424,1.424ZM.949,21.359a.475.475,0,0,0,.475.475H21.358a.475.475,0,0,0,.475-.475V7.6H.949ZM21.833,6.646V3.323a.475.475,0,0,0-.475-.475H18.036V5.222a.475.475,0,0,1-.949,0V2.849H5.7V5.222a.475.475,0,1,1-.949,0V2.849H1.424a.475.475,0,0,0-.475.475V6.646Z" transform="translate(0 -0.001)" fill="#fff"/>
  </g>
</svg>
