<svg xmlns="http://www.w3.org/2000/svg" width="17" height="17" viewBox="0 0 17 17">
  <g id="calendar-clock" transform="translate(0 -0.003)">
    <path id="Path_3789" data-name="Path 3789" d="M15.333,19.668a4.333,4.333,0,1,1,4.333-4.333A4.338,4.338,0,0,1,15.333,19.668Zm0-8A3.667,3.667,0,1,0,19,15.334,3.671,3.671,0,0,0,15.333,11.668Z" transform="translate(-2.667 -2.667)" fill="#3c3951"/>
    <path id="Path_3790" data-name="Path 3790" d="M17.333,16.668A.333.333,0,0,1,17,16.334v-2a.333.333,0,1,1,.667,0V16h1a.333.333,0,1,1,0,.667Z" transform="translate(-4.857 -3.967)" fill="#3c3951"/>
    <path id="Path_3791" data-name="Path 3791" d="M1.071,12.667a1.039,1.039,0,0,1-1.071-1V2.334a1.039,1.039,0,0,1,1.071-1h2.5v-1a.358.358,0,0,1,.714,0v1h6.429v-1a.358.358,0,0,1,.714,0v1h2.5a1.039,1.039,0,0,1,1.071,1V6.667a.358.358,0,0,1-.714,0V5.334H.714v6.333A.346.346,0,0,0,1.071,12H6.786a.334.334,0,1,1,0,.667Zm13.214-8V2.334A.346.346,0,0,0,13.929,2h-2.5V3.668a.358.358,0,0,1-.714,0V2H4.286V3.668a.358.358,0,0,1-.714,0V2h-2.5a.346.346,0,0,0-.357.333V4.668Z" fill="#3c3951"/>
  </g>
</svg>
