<svg xmlns="http://www.w3.org/2000/svg" width="42.288" height="42.288" viewBox="0 0 42.288 42.288">
  <g id="Vector_Smart_Object" data-name="Vector Smart Object" transform="translate(0 0)">
    <g id="Vector_Smart_Object-2" data-name="Vector Smart Object" transform="translate(0 0)">
      <g id="Group_203" data-name="Group 203" transform="translate(0)">
        <path id="Path_141" data-name="Path 141" d="M280.278,150.192a21.144,21.144,0,1,0,21.144,21.144A21.144,21.144,0,0,0,280.278,150.192Zm.22,37.869a16.623,16.623,0,1,1,16.623-16.623A16.623,16.623,0,0,1,280.5,188.061Z" transform="translate(-259.134 -150.192)"/>
        <path id="Path_142" data-name="Path 142" d="M292.94,171.258A12.74,12.74,0,1,0,305.68,184,12.74,12.74,0,0,0,292.94,171.258Zm6.6,8.774a2.1,2.1,0,1,1,2.1-2.1A2.1,2.1,0,0,1,299.543,180.032Z" transform="translate(-271.796 -162.854)"/>
      </g>
    </g>
    <path id="Color_Overlay" data-name="Color Overlay" d="M0,21.144A21.144,21.144,0,1,1,21.144,42.288,21.144,21.144,0,0,1,0,21.144Zm4.741.1A16.623,16.623,0,1,0,21.364,4.623,16.623,16.623,0,0,0,4.741,21.246Zm3.663-.1A12.74,12.74,0,1,1,21.144,33.884,12.74,12.74,0,0,1,8.4,21.144Zm17.238-6.07a2.1,2.1,0,1,0,2.1-2.1A2.1,2.1,0,0,0,25.642,15.074Z" transform="translate(0)" fill="#fff"/>
  </g>
</svg>
