<svg xmlns="http://www.w3.org/2000/svg" width="24.68" height="18.51" viewBox="0 0 24.68 18.51">
  <g id="card_tab_bar_pardakht" data-name="card_tab bar_pardakht" transform="translate(0 0)">
    <path id="Path_3633" data-name="Path 3633" d="M3.089,26.51A3.089,3.089,0,0,1,0,23.425V11.085A3.088,3.088,0,0,1,3.089,8H21.6a3.089,3.089,0,0,1,3.085,3.085v12.34A3.089,3.089,0,0,1,21.6,26.51Zm0-17.276a1.853,1.853,0,0,0-1.851,1.851v12.34a1.853,1.853,0,0,0,1.851,1.851H21.6a1.853,1.853,0,0,0,1.851-1.851V11.085A1.853,1.853,0,0,0,21.6,9.234Z" transform="translate(-0.004 -8)" fill="#fff"/>
    <path id="Path_3635" data-name="Path 3635" d="M2.646,17.284a.642.642,0,0,1,0-1.284h6.42a.642.642,0,0,1,0,1.284Z" transform="translate(0.564 -6.723)" fill="#fff"/>
    <path id="Path_3636" data-name="Path 3636" d="M2.646,19.284a.642.642,0,0,1,0-1.284H7.782a.642.642,0,0,1,0,1.284Z" transform="translate(0.564 -6.073)" fill="#fff"/>
    <path id="Path_3796" data-name="Path 3796" d="M3.583,17.151c-.872,0-1.579-.258-1.579-.576S2.711,16,3.583,16H19.371c.872,0,1.579.258,1.579.576s-.707.576-1.579.576Z" transform="translate(0.564 -9.723)" fill="#fff"/>
  </g>
</svg>
