<svg id="card_tab_bar_pardakht" data-name="card_tab bar_pardakht" xmlns="http://www.w3.org/2000/svg" width="22.68" height="17.51" viewBox="0 0 22.68 17.51">
  <path id="Path_3633" data-name="Path 3633" d="M2.839,25.51A2.881,2.881,0,0,1,0,22.592V10.918A2.88,2.88,0,0,1,2.839,8h17.01a2.881,2.881,0,0,1,2.835,2.918V22.592a2.882,2.882,0,0,1-2.835,2.918Zm0-16.343a1.729,1.729,0,0,0-1.7,1.751V22.592a1.729,1.729,0,0,0,1.7,1.751h17.01a1.729,1.729,0,0,0,1.7-1.751V10.918a1.729,1.729,0,0,0-1.7-1.751Z" transform="translate(-0.004 -8)" fill="#ffcbf3"/>
  <path id="Path_3635" data-name="Path 3635" d="M2.646,17.284a.642.642,0,0,1,0-1.284h6.42a.642.642,0,0,1,0,1.284Z" transform="translate(0.564 -7.262)" fill="#ffcbf3"/>
  <path id="Path_3636" data-name="Path 3636" d="M2.646,19.284a.642.642,0,0,1,0-1.284H7.782a.642.642,0,0,1,0,1.284Z" transform="translate(0.564 -6.766)" fill="#ffcbf3"/>
  <path id="Path_3796" data-name="Path 3796" d="M3.416,17.151c-.78,0-1.412-.258-1.412-.576S2.637,16,3.416,16H17.538c.78,0,1.412.258,1.412.576s-.633.576-1.412.576Z" transform="translate(0.564 -10.085)" fill="#ffcbf3"/>
</svg>
