<svg xmlns="http://www.w3.org/2000/svg" width="20.13" height="21.347" viewBox="0 0 20.13 21.347">
  <g id="cog-square" transform="translate(0)">
    <path id="Path_4221" data-name="Path 4221" d="M13.058,17.617a4.058,4.058,0,1,1,4.058-4.058A4.063,4.063,0,0,1,13.058,17.617Zm0-6.763a2.705,2.705,0,1,0,2.705,2.705A2.708,2.708,0,0,0,13.058,10.854Z" transform="translate(-2.991 -2.884)" fill="#ffcbf3"/>
    <path id="Path_4222" data-name="Path 4222" d="M13.921,26.347a2.137,2.137,0,0,1-2.135-2.135v-.623A8.561,8.561,0,0,1,9.74,22.405L9.2,22.72a2.138,2.138,0,0,1-1.065.287,2.174,2.174,0,0,1-.556-.074,2.123,2.123,0,0,1-1.3-.995l-1.067-1.85a2.134,2.134,0,0,1,.781-2.916l.545-.315a8.441,8.441,0,0,1,0-2.365l-.548-.32a2.136,2.136,0,0,1-.776-2.915l1.067-1.85A2.135,2.135,0,0,1,9.2,8.626l.549.32A8.479,8.479,0,0,1,11.79,7.775v-.64A2.137,2.137,0,0,1,13.924,5h2.135a2.137,2.137,0,0,1,2.135,2.135v.618a8.536,8.536,0,0,1,2.049,1.185l.545-.315a2.137,2.137,0,0,1,2.916.783l1.067,1.85a2.138,2.138,0,0,1-.781,2.916l-.545.319a8.428,8.428,0,0,1,0,2.371l.542.313a2.134,2.134,0,0,1,.781,2.916L23.7,21.941a2.122,2.122,0,0,1-1.3.995,2.116,2.116,0,0,1-1.62-.213l-.549-.32a8.448,8.448,0,0,1-2.044,1.178v.632a2.137,2.137,0,0,1-2.135,2.135ZM9.814,20.83a.711.711,0,0,1,.471.178,7.138,7.138,0,0,0,2.442,1.415.712.712,0,0,1,.484.675v1.116a.712.712,0,0,0,.712.712h2.135a.712.712,0,0,0,.712-.712V23.084a.708.708,0,0,1,.487-.675A7.027,7.027,0,0,0,19.694,21a.711.711,0,0,1,.828-.081l.978.569a.707.707,0,0,0,.352.094.715.715,0,0,0,.618-.356l1.067-1.85a.712.712,0,0,0-.26-.972l-.973-.561a.709.709,0,0,1-.342-.76,6.992,6.992,0,0,0,0-2.819.71.71,0,0,1,.339-.757l.975-.569a.713.713,0,0,0,.262-.973l-1.067-1.85a.715.715,0,0,0-.618-.356.708.708,0,0,0-.354.1l-.975.561a.712.712,0,0,1-.827-.083,7.122,7.122,0,0,0-2.444-1.415.712.712,0,0,1-.484-.675V7.135a.712.712,0,0,0-.712-.712H13.923a.712.712,0,0,0-.712.712V8.273a.712.712,0,0,1-.488.676,6.991,6.991,0,0,0-2.436,1.4.713.713,0,0,1-.828.08l-.976-.569a.684.684,0,0,0-.349-.094.715.715,0,0,0-.618.356l-1.067,1.85a.713.713,0,0,0,.259.972l.976.571a.713.713,0,0,1,.339.756,7,7,0,0,0,0,2.815.712.712,0,0,1-.342.759l-.975.562a.712.712,0,0,0-.26.972l1.067,1.85a.712.712,0,0,0,.972.26l.973-.562A.722.722,0,0,1,9.814,20.83Z" transform="translate(-4.927 -5)" fill="#ffcbf3"/>
  </g>
</svg>
