<svg xmlns="http://www.w3.org/2000/svg" xmlns:xlink="http://www.w3.org/1999/xlink" width="26.156" height="20.551" viewBox="0 0 26.156 20.551">
  <defs>
    <linearGradient id="linear-gradient" x1="1" y1="0.5" x2="-0.761" y2="0.5" gradientUnits="objectBoundingBox">
      <stop offset="0" stop-color="#bd2cdb"/>
      <stop offset="1" stop-color="#e583f8"/>
    </linearGradient>
  </defs>
  <g id="credit-card-smartphone-exchange" transform="translate(-7.004 -6)">
    <path id="Path_4518" data-name="Path 4518" d="M4.675,20.551A4.675,4.675,0,0,1,0,15.88V4.671A4.675,4.675,0,0,1,4.675,0H21.489A4.676,4.676,0,0,1,26.16,4.671V15.88a4.676,4.676,0,0,1-4.671,4.671Zm-2.8-4.671a2.806,2.806,0,0,0,2.8,2.8H21.489a2.806,2.806,0,0,0,2.8-2.8V7.473H1.872V15.88ZM24.291,5.6V4.671a2.806,2.806,0,0,0-2.8-2.8H4.675a2.806,2.806,0,0,0-2.8,2.8V5.6Z" transform="translate(7 6)" fill="url(#linear-gradient)"/>
    <path id="Path_4519" data-name="Path 4519" d="M3.438,6.868A.934.934,0,0,1,3.438,5h8.407a.934.934,0,0,1,0,1.868Z" transform="translate(9.171 10.341)" fill="url(#linear-gradient)"/>
    <path id="Path_4520" data-name="Path 4520" d="M3.438,8.868A.934.934,0,1,1,3.438,7H7.175a.934.934,0,1,1,0,1.868Z" transform="translate(9.171 12.078)" fill="url(#linear-gradient)"/>
  </g>
</svg>
