<svg xmlns="http://www.w3.org/2000/svg" width="33" height="24.75" viewBox="0 0 33 24.75">
  <g id="Component" transform="translate(0 0)">
    <path id="Path_3633" data-name="Path 3633" d="M4.129,32.75A4.13,4.13,0,0,1,0,28.625v-16.5A4.129,4.129,0,0,1,4.129,8h24.75A4.13,4.13,0,0,1,33,12.125v16.5a4.131,4.131,0,0,1-4.125,4.125Zm0-23.1a2.478,2.478,0,0,0-2.475,2.475v16.5A2.478,2.478,0,0,0,4.129,31.1h24.75a2.478,2.478,0,0,0,2.475-2.475v-16.5A2.478,2.478,0,0,0,28.879,9.65Z" transform="translate(-0.004 -8)" fill="#fff"/>
    <path id="Path_3635" data-name="Path 3635" d="M2.646,17.284a.642.642,0,0,1,0-1.284h6.42a.642.642,0,0,1,0,1.284Z" transform="translate(1.564 -3.363)" fill="#c8078c" stroke="#c8078c" stroke-width="0.5"/>
    <path id="Path_3636" data-name="Path 3636" d="M2.389,19.284C2.177,19.284,2,19,2,18.642S2.177,18,2.389,18H5.471c.213,0,.385.288.385.642s-.173.642-.385.642Z" transform="translate(1.564 -1.753)" fill="#c8078c" stroke="#c8078c" stroke-width="0.5"/>
    <line id="Line_103" data-name="Line 103" x2="30" transform="translate(1.5 7.998)" fill="none" stroke="#fff" stroke-width="2"/>
  </g>
</svg>
