<svg xmlns="http://www.w3.org/2000/svg" width="30" height="30" viewBox="0 0 30 30">
  <g id="Group_1500" data-name="Group 1500" transform="translate(-358 -328)">
    <rect id="Rectangle_292" data-name="Rectangle 292" width="30" height="30" rx="8" transform="translate(358 328)" fill="#fd7a7a" opacity="0.206"/>
    <g id="recycling-bin" transform="translate(365.722 334.01)">
      <path id="Path_4145" data-name="Path 4145" d="M57.252,3.267H56.99V2.733a.828.828,0,0,0-.827-.827H53.108L52.735.6a.831.831,0,0,0-.8-.6h-2.99a.831.831,0,0,0-.8.6l-.373,1.306H44.727a.828.828,0,0,0-.827.827v.534h-.262a.283.283,0,0,0,0,.565h.556l.988,12.352a1.379,1.379,0,0,0,1.367,1.262H54.34a1.379,1.379,0,0,0,1.367-1.262L56.7,3.833h.556a.283.283,0,0,0,0-.565ZM48.7.755a.263.263,0,0,1,.252-.19h2.99a.263.263,0,0,1,.252.19l.329,1.151H48.369ZM44.727,2.471H56.162a.262.262,0,0,1,.262.262v.534H44.465V2.733A.262.262,0,0,1,44.727,2.471ZM55.144,16.139a.811.811,0,0,1-.8.742H46.549a.811.811,0,0,1-.8-.742L44.761,3.833H56.129Z" transform="translate(-43.355)" fill="#fc6262"/>
      <path id="Path_4146" data-name="Path 4146" d="M224.283,141.248a.283.283,0,0,0,.283-.283V130.347a.283.283,0,1,0-.565,0v10.619A.283.283,0,0,0,224.283,141.248Z" transform="translate(-217.193 -125.163)" fill="#fc6262"/>
      <path id="Path_4147" data-name="Path 4147" d="M145.06,140.98a.283.283,0,0,0,.282.268h.015a.283.283,0,0,0,.268-.3l-.545-10.619a.283.283,0,1,0-.564.029Z" transform="translate(-140.703 -125.163)" fill="#fc6262"/>
      <path id="Path_4148" data-name="Path 4148" d="M289.3,141.248h.015a.283.283,0,0,0,.282-.268l.545-10.619a.283.283,0,0,0-.565-.029l-.545,10.619A.283.283,0,0,0,289.3,141.248Z" transform="translate(-279.774 -125.163)" fill="#fc6262"/>
    </g>
  </g>
</svg>
