<svg xmlns="http://www.w3.org/2000/svg" width="15.886" height="15.454" viewBox="0 0 15.886 15.454">
  <g id="tools" transform="translate(-0.057 4.861) rotate(-47)">
    <path id="Path_4730" data-name="Path 4730" d="M6.72,3.123A3.346,3.346,0,0,0,4.78.078L3.994.618V2.365l-.639.426-.629-.4V.618L1.94.078a3.36,3.36,0,0,0-.33,5.914v5.271a2.493,2.493,0,1,0,3.5,0V5.992A3.34,3.34,0,0,0,6.72,3.123ZM1.777,13.039a1.579,1.579,0,0,1,.578-1.223l.166-.137V5.442l-.252-.126a2.452,2.452,0,0,1-.453-4.1V2.889l1.55.99L4.9,2.852V1.22a2.452,2.452,0,0,1-.453,4.1L4.2,5.442v6.238l.166.137a1.583,1.583,0,1,1-2.589,1.223Zm0,0" transform="translate(0)" fill="#3c3951"/>
    <path id="Path_4731" data-name="Path 4731" d="M95.719,412.168h.91v.911h-.91Zm0,0" transform="translate(-92.814 -399.584)" fill="#3c3951"/>
  </g>
</svg>
