<svg id="email-action-download" xmlns="http://www.w3.org/2000/svg" width="20" height="24" viewBox="0 0 20 24">
  <path id="Path_4184" data-name="Path 4184" d="M4,24a2,2,0,0,1-2-2V13a1.994,1.994,0,0,1,.54-1.364.2.2,0,0,1,.036-.036A1.986,1.986,0,0,1,4,11H20a1.981,1.981,0,0,1,1.434.609l.026.028A1.987,1.987,0,0,1,22,13v9a2,2,0,0,1-2,2ZM3.055,12.676A.989.989,0,0,0,3,13v9a1,1,0,0,0,1,1H20a1,1,0,0,0,1-1V13a1.015,1.015,0,0,0-.054-.324L12.307,19.4a.506.506,0,0,1-.307.1.5.5,0,0,1-.307-.106ZM12,18.367l8.167-6.352A.934.934,0,0,0,20,12H4a.934.934,0,0,0-.167.015Z" transform="translate(-2)" fill="#e0e0e0"/>
  <path id="Path_4185" data-name="Path 4185" d="M12,9.5a.5.5,0,0,1-.353-.146l-4.5-4.5a.5.5,0,0,1,.707-.708L11.5,7.793V.5a.5.5,0,0,1,1,0V7.793l3.646-3.646a.5.5,0,0,1,.708.707l-4.5,4.5a.5.5,0,0,1-.162.108A.509.509,0,0,1,12,9.5Z" transform="translate(-2)" fill="#e0e0e0"/>
</svg>
