<svg id="qr-code-scan" xmlns="http://www.w3.org/2000/svg" width="36.169" height="30.141" viewBox="0 0 36.169 30.141">
  <path id="Path_3587" data-name="Path 3587" d="M1.644,22.381A1.646,1.646,0,0,1,0,20.737V18.579a.548.548,0,1,1,1.1,0v2.158a.548.548,0,0,0,.548.548H3.8a.548.548,0,1,1,0,1.1Z" transform="translate(0 7.76)" fill="#3c3951"/>
  <path id="Path_3588" data-name="Path 3588" d="M.548,6.35A.548.548,0,0,1,0,5.8V3.644A1.646,1.646,0,0,1,1.644,2H3.8a.548.548,0,0,1,0,1.1H1.644a.548.548,0,0,0-.548.548V5.8A.548.548,0,0,1,.548,6.35Z" transform="translate(0 -2)" fill="#3c3951"/>
  <path id="Path_3589" data-name="Path 3589" d="M23.833,6.35a.548.548,0,0,1-.548-.548V3.644a.548.548,0,0,0-.548-.548H20.579a.548.548,0,1,1,0-1.1h2.158a1.646,1.646,0,0,1,1.644,1.644V5.8A.548.548,0,0,1,23.833,6.35Z" transform="translate(11.788 -2)" fill="#3c3951"/>
  <path id="Path_3590" data-name="Path 3590" d="M20.579,22.381a.548.548,0,1,1,0-1.1h2.158a.548.548,0,0,0,.548-.548V18.579a.548.548,0,1,1,1.1,0v2.158a1.646,1.646,0,0,1-1.644,1.644Z" transform="translate(11.788 7.76)" fill="#3c3951"/>
  <g id="Group_883" data-name="Group 883" transform="translate(6.462 3.271)">
    <path id="Path_3591" data-name="Path 3591" d="M5.8,11.434a.8.8,0,0,1-.8-.8V5.8A.8.8,0,0,1,5.8,5h4.826a.8.8,0,0,1,.8.8V10.63a.8.8,0,0,1-.8.8ZM9.823,9.826V6.609H6.606V9.826Z" transform="translate(-4.997 -4.931)" fill="#3c3951"/>
    <path id="Path_3592" data-name="Path 3592" d="M15.8,11.434a.8.8,0,0,1-.8-.8V5.8a.8.8,0,0,1,.8-.8h4.826a.8.8,0,0,1,.8.8V10.63a.8.8,0,0,1-.8.8Zm4.022-1.609V6.609H16.606V9.826Z" transform="translate(1.893 -4.931)" fill="#3c3951"/>
    <path id="Path_3593" data-name="Path 3593" d="M5.8,21.434a.8.8,0,0,1-.8-.8V15.8a.8.8,0,0,1,.8-.8h4.826a.8.8,0,0,1,.8.8V20.63a.8.8,0,0,1-.8.8Zm4.022-1.609V16.609H6.606v3.217Z" transform="translate(-4.997 2.181)" fill="#3c3951"/>
    <path id="Path_3594" data-name="Path 3594" d="M15.8,21.434a.8.8,0,0,1-.8-.8V15.8a.8.8,0,1,1,1.609,0v4.022h3.217V16.609h-.8a.8.8,0,1,1,0-1.609h1.609a.8.8,0,0,1,.8.8V20.63a.8.8,0,0,1-.8.8Z" transform="translate(1.893 2.181)" fill="#3c3951"/>
    <path id="Path_3595" data-name="Path 3595" d="M10.8,10.63a.8.8,0,0,1-.8-.8V5.8a.8.8,0,0,1,.8-.8h4.826a.8.8,0,1,1,0,1.609H11.606V9.826A.8.8,0,0,1,10.8,10.63Z" transform="translate(-1.552 -5)" fill="#3c3951"/>
    <path id="Path_3596" data-name="Path 3596" d="M13.8,14.239a.8.8,0,0,1-.8-.8V7.8a.8.8,0,1,1,1.609,0v5.63A.8.8,0,0,1,13.8,14.239Z" transform="translate(0.451 -3.483)" fill="#3c3951"/>
    <path id="Path_3597" data-name="Path 3597" d="M5.8,16.13a.8.8,0,1,1,0-1.609H13.04V11.3a.8.8,0,0,1,1.609,0v4.022a.8.8,0,0,1-.8.8Z" transform="translate(-4.595 -1.053)" fill="#3c3951"/>
    <path id="Path_3598" data-name="Path 3598" d="M10.8,21.434a.8.8,0,0,1-.8-.8V15.8a.8.8,0,1,1,1.609,0v4.022h4.022a.8.8,0,1,1,0,1.609Z" transform="translate(-1.552 2.181)" fill="#3c3951"/>
    <path id="Path_3599" data-name="Path 3599" d="M12.8,16.609A.8.8,0,1,1,12.8,15H14.41a.8.8,0,0,1,0,1.609Z" transform="translate(-0.226 2.089)" fill="#3c3951"/>
    <path id="Path_3600" data-name="Path 3600" d="M5.8,11.609A.8.8,0,1,1,5.8,10h4.826a.8.8,0,1,1,0,1.609Z" transform="translate(-4.997 -1.567)" fill="#3c3951"/>
    <path id="Path_3601" data-name="Path 3601" d="M15.8,13.217a.8.8,0,0,1-.8-.8V10.8a.8.8,0,0,1,.8-.8h4.826a.8.8,0,0,1,0,1.609H16.606v.8A.8.8,0,0,1,15.8,13.217Z" transform="translate(1.893 -1.502)" fill="#3c3951"/>
    <path id="Path_3602" data-name="Path 3602" d="M12.8,14.609A.8.8,0,0,1,12.8,13h9.652a.8.8,0,0,1,0,1.609Z" transform="translate(-0.571 0.626)" fill="#3c3951"/>
  </g>
</svg>
