<svg xmlns="http://www.w3.org/2000/svg" width="21.996" height="22" viewBox="0 0 21.996 22">
  <g id="file-code-upload" transform="translate(0.5 0.5)">
    <circle id="Ellipse_36" data-name="Ellipse 36" cx="6" cy="6" r="6" transform="translate(8.996 9)" stroke-width="1" stroke="#ec008c" stroke-linecap="round" stroke-linejoin="round" fill="none"/>
    <g id="Group_953" data-name="Group 953" transform="translate(11.997 17.656) rotate(-90)">
      <line id="Line_54" data-name="Line 54" y1="6" transform="translate(2.25 0)" fill="none" stroke="#ec008c" stroke-linecap="round" stroke-linejoin="round" stroke-width="1"/>
      <line id="Line_55" data-name="Line 55" x1="2.25" y2="2.25" transform="translate(0 0)" fill="none" stroke="#ec008c" stroke-linecap="round" stroke-linejoin="round" stroke-width="1"/>
      <line id="Line_56" data-name="Line 56" x2="2.25" y2="2.25" transform="translate(2.25 0)" fill="none" stroke="#ec008c" stroke-linecap="round" stroke-linejoin="round" stroke-width="1"/>
    </g>
    <path id="Path_3769" data-name="Path 3769" d="M9.461,21.5H1.411a.9.9,0,0,1-.895-.913V1.413A.9.9,0,0,1,1.411.5H13.3a.886.886,0,0,1,.632.274L17.25,4.151a.922.922,0,0,1,.262.645V7.8" transform="translate(-0.516 -0.5)" fill="none" stroke="#ec008c" stroke-linecap="round" stroke-linejoin="round" stroke-width="1"/>
    <line id="Line_57" data-name="Line 57" y2="4" transform="translate(3 4.476)" fill="none" stroke="#ec008c" stroke-linecap="round" stroke-linejoin="round" stroke-width="1"/>
    <line id="Line_58" data-name="Line 58" y2="4" transform="translate(10.955 4.476)" fill="none" stroke="#ec008c" stroke-linecap="round" stroke-linejoin="round" stroke-width="1"/>
    <line id="Line_59" data-name="Line 59" y2="4" transform="translate(8.216 10.738)" fill="none" stroke="#ec008c" stroke-linecap="round" stroke-linejoin="round" stroke-width="1"/>
    <line id="Line_60" data-name="Line 60" y2="4" transform="translate(13.693 4.476)" fill="none" stroke="#ec008c" stroke-linecap="round" stroke-linejoin="round" stroke-width="1"/>
    <path id="Path_3770" data-name="Path 3770" d="M8.016,5.5A1.5,1.5,0,0,1,9.516,7V8a1.5,1.5,0,0,1-3,0V7a1.5,1.5,0,0,1,1.5-1.5Z" transform="translate(-1.117 -1.027)" fill="none" stroke="#ec008c" stroke-linecap="round" stroke-linejoin="round" stroke-width="1"/>
    <path id="Path_3771" data-name="Path 3771" d="M5.016,12.5a1.5,1.5,0,0,1,1.5,1.5v1a1.5,1.5,0,0,1-3,0V14a1.5,1.5,0,0,1,1.5-1.5Z" transform="translate(-0.516 -1.765)" fill="none" stroke="#ec008c" stroke-linecap="round" stroke-linejoin="round" stroke-width="1"/>
  </g>
</svg>
