<svg xmlns="http://www.w3.org/2000/svg" width="21.022" height="23.5" viewBox="0 0 21.022 23.5">
  <g id="filter" transform="translate(0.253 0.5)">
    <path id="Union_10" data-name="Union 10" d="M.247,3.029h0A3,3,0,0,1,3.214,0,3,3,0,0,1,6.182,3.029h0A3,3,0,0,1,3.214,6.057,3,3,0,0,1,.247,3.029Z" fill="none" stroke="#fff" stroke-width="1"/>
    <path id="Union_11" data-name="Union 11" d="M8.035,3.029h0a2.968,2.968,0,1,1,5.935,0h0a2.968,2.968,0,1,1-5.935,0Z" transform="translate(0 7.789)" fill="none" stroke="#fff" stroke-width="1"/>
    <path id="Union_12" data-name="Union 12" d="M1.978,3.029h0A3,3,0,0,1,4.945,0,3,3,0,0,1,7.912,3.029h0A3,3,0,0,1,4.945,6.057,3,3,0,0,1,1.978,3.029Z" transform="translate(0 16.442)" fill="none" stroke="#fff" stroke-width="1"/>
  </g>
</svg>
