<svg xmlns="http://www.w3.org/2000/svg" width="97.976" height="82" viewBox="0 0 97.976 82">
    <defs>
        <style>
            .cls-3,.cls-4{fill:none;stroke-linecap:round;stroke-linejoin:round}.cls-3{stroke:#cbcbd9}.cls-4,.cls-5{stroke:#e4488a}.cls-5{fill:#e4488a}
        </style>
    </defs>
    <g id="Component_23_1" transform="translate(.5)">
        <circle id="Ellipse_27" cx="41" cy="41" r="41" fill="rgba(228,72,138,0.04)" transform="translate(10.976)"/>
        <circle id="Ellipse_26" cx="33" cy="33" r="33" fill="rgba(228,72,138,0.07)" transform="translate(18.976 8)"/>
        <path id="Path_3773" d="M17.972 14.331a5.073 5.073 0 0 1-4.462-4.955 4.948 4.948 0 0 1 5.137-4.943 6.873 6.873 0 0 1 6.26-3.92 7.113 7.113 0 0 1 7.148 6.456 3.714 3.714 0 0 1 4.489 3.645 3.763 3.763 0 0 1-3.964 3.717z" class="cls-3" transform="translate(60.432 10.097)"/>
        <path id="Path_3774" d="M4.986 17.823a5.073 5.073 0 0 1-4.462-4.948 4.946 4.946 0 0 1 5.135-4.946 6.878 6.878 0 0 1 6.26-3.92 7.111 7.111 0 0 1 7.148 6.456 3.719 3.719 0 0 1 4.482 3.635 3.763 3.763 0 0 1-3.943 3.719z" class="cls-3" transform="translate(-.524 10.662)"/>
        <g id="cloud-wifi" transform="rotate(90 24.05 53.488)">
            <path id="Path_3776" d="M16.277 2.929a8.491 8.491 0 0 0-9.429 0" class="cls-4"/>
            <path id="Path_3777" d="M14.059 5.5a4.5 4.5 0 0 0-4.992 0" class="cls-4"/>
        </g>
        <g id="cloud-wifi-2" transform="rotate(90 -2.624 33.663)">
            <path id="Path_3776-2" d="M9.429 0A8.491 8.491 0 0 1 0 0" class="cls-4" transform="translate(0 2.571)"/>
            <path id="Path_3777-2" d="M4.992 0A4.5 4.5 0 0 1 0 0" class="cls-4" transform="translate(2.219)"/>
        </g>
        <g id="shield-check-1" transform="translate(36.976 22.002)">
            <path id="Path_3781" d="M13.34 15.814a1.568 1.568 0 0 1-.951-.317l-2.572-1.929a.793.793 0 0 1-.159-1.111.8.8 0 0 1 .635-.317.791.791 0 0 1 .476.159l2.571 1.928 7.452-8.942A.794.794 0 0 1 22.013 6.3l-7.452 8.942a1.586 1.586 0 0 1-1.221.572z" class="cls-5" transform="translate(-.875 2.954)"/>
            <path id="Path_3782" d="M14.75 30a4.809 4.809 0 0 1-1.665-.3l-1.4-.517A16.059 16.059 0 0 1 1 14.272V4.718a2.54 2.54 0 0 1 1.547-2.333A30.714 30.714 0 0 1 14.442 0h.617a30.688 30.688 0 0 1 11.887 2.384A2.536 2.536 0 0 1 28.5 4.717v9.549A16.072 16.072 0 0 1 17.809 29.19l-1.392.514A4.82 4.82 0 0 1 14.75 30zm-.28-28.752A29.548 29.548 0 0 0 3.032 3.537 1.29 1.29 0 0 0 2.25 4.72v9.544a14.806 14.806 0 0 0 9.856 13.745l1.41.52a3.563 3.563 0 0 0 2.469 0l1.4-.517a14.814 14.814 0 0 0 9.865-13.755V4.718a1.291 1.291 0 0 0-.786-1.182 29.419 29.419 0 0 0-11.382-2.289h-.612z" class="cls-5"/>
        </g>
    </g>
</svg>
