<svg xmlns="http://www.w3.org/2000/svg" width="29.041" height="21.779" viewBox="0 0 29.041 21.779">
  <g id="Group_1003" data-name="Group 1003" transform="translate(0 -0.001)">
    <g id="Group_982" data-name="Group 982" transform="translate(0 0)">
      <path id="Path_3633" data-name="Path 3633" d="M3.634,29.78A3.634,3.634,0,0,1,0,26.15V11.63A3.633,3.633,0,0,1,3.634,8h21.78a3.634,3.634,0,0,1,3.63,3.63V26.15a3.635,3.635,0,0,1-3.63,3.63Zm0-20.328A2.181,2.181,0,0,0,1.456,11.63V26.15a2.181,2.181,0,0,0,2.178,2.178h21.78a2.181,2.181,0,0,0,2.178-2.178V11.63a2.181,2.181,0,0,0-2.178-2.178Z" transform="translate(-0.004 -8)" fill="rgba(255,255,255,0.75)"/>
      <path id="Path_3635" data-name="Path 3635" d="M2.759,17.511a.755.755,0,1,1,0-1.511h7.554a.755.755,0,1,1,0,1.511Z" transform="translate(1.018 -5.084)" fill="rgba(255,255,255,0.75)"/>
      <path id="Path_3636" data-name="Path 3636" d="M2.759,19.511a.755.755,0,1,1,0-1.511H8.8a.755.755,0,1,1,0,1.511Z" transform="translate(1.018 -3.966)" fill="rgba(255,255,255,0.75)"/>
      <path id="Path_3796" data-name="Path 3796" d="M3.862,17.355c-1.026,0-1.858-.3-1.858-.677S2.836,16,3.862,16H22.44c1.026,0,1.858.3,1.858.677s-.832.677-1.858.677Z" transform="translate(1.018 -8.614)" fill="rgba(255,255,255,0.75)"/>
    </g>
    <g id="Group_1001" data-name="Group 1001" transform="translate(16.713 12.273)">
      <line id="Line_69" data-name="Line 69" x1="5.845" transform="matrix(1, -0.017, 0.017, 1, 0.032, 1.877)" fill="none" stroke="rgba(255,255,255,0.75)" stroke-linecap="round" stroke-linejoin="round" stroke-width="1"/>
      <path id="Path_3809" data-name="Path 3809" d="M1.846,0,0,1.846,1.846,3.691" transform="matrix(1, -0.017, 0.017, 1, 0, 0.032)" fill="none" stroke="rgba(255,255,255,0.75)" stroke-linecap="round" stroke-linejoin="round" stroke-width="1"/>
    </g>
  </g>
</svg>
