<svg xmlns="http://www.w3.org/2000/svg" width="39.261" height="41.564" viewBox="0 0 39.261 41.564">
  <g id="hotel_5star" transform="translate(0.375 0.375)">
    <line id="Line_107" data-name="Line 107" x1="38.511" transform="translate(0 40.814)" fill="none" stroke="#fff" stroke-linecap="round" stroke-linejoin="round" stroke-width="0.75"/>
    <path id="Path_4065" data-name="Path 4065" d="M8.5,45.7V15.11A1.472,1.472,0,0,1,9.775,13.5h15.3a1.472,1.472,0,0,1,1.275,1.61V45.7" transform="translate(-4.064 -4.884)" fill="none" stroke="#fff" stroke-linecap="round" stroke-linejoin="round" stroke-width="0.75"/>
    <path id="Path_4072" data-name="Path 4072" d="M10.5,28.149V21.775A1.275,1.275,0,0,1,11.775,20.5h5.1a1.275,1.275,0,0,1,1.275,1.275v6.375" transform="translate(-0.964 12.664)" fill="none" stroke="#fff" stroke-linecap="round" stroke-linejoin="round" stroke-width="0.75"/>
    <path id="Path_4074" data-name="Path 4074" d="M2.589,12.433a.233.233,0,0,1,.421,0l.73,1.46H4.928a.233.233,0,0,1,.143.423l-.969.74.4,1.468a.233.233,0,0,1-.368.25l-1.335-1-1.262.946a.233.233,0,0,1-.363-.266l.489-1.4L.6,14.32a.233.233,0,0,1,.131-.427H1.86Z" transform="translate(9.409 -12.3)" fill="none" stroke="#fff" stroke-linecap="round" stroke-linejoin="round" stroke-width="0.75"/>
    <path id="Path_4076" data-name="Path 4076" d="M3.076,12.433a.233.233,0,0,0-.421,0l-.73,1.46H.737a.233.233,0,0,0-.143.423l.969.74-.4,1.468a.233.233,0,0,0,.368.25l1.335-1,1.262.946a.233.233,0,0,0,.363-.266L4,15.055l1.064-.735a.233.233,0,0,0-.131-.427H3.806Z" transform="translate(23.263 -12.3)" fill="none" stroke="#fff" stroke-linecap="round" stroke-linejoin="round" stroke-width="0.75"/>
    <path id="Path_4077" data-name="Path 4077" d="M24.424,21.389h9.951l1.215,1.3V46.592" transform="translate(-2.139 -5.827)" fill="none" stroke="#fff" stroke-linecap="round" stroke-linejoin="round" stroke-width="0.75"/>
    <line id="Line_110" data-name="Line 110" x2="9.593" transform="translate(8.811 14.025)" fill="none" stroke="#fff" stroke-linecap="round" stroke-width="0.75"/>
    <line id="Line_111" data-name="Line 111" x2="9.593" transform="translate(8.811 18.223)" fill="none" stroke="#fff" stroke-linecap="round" stroke-width="0.75"/>
    <line id="Line_112" data-name="Line 112" x2="9.593" transform="translate(8.811 26.618)" fill="none" stroke="#fff" stroke-linecap="round" stroke-width="0.75"/>
    <line id="Line_113" data-name="Line 113" x2="6.395" transform="translate(24.799 24.019)" fill="none" stroke="#fff" stroke-linecap="round" stroke-width="0.75"/>
    <line id="Line_115" data-name="Line 115" x2="6.395" transform="translate(24.799 33.612)" fill="none" stroke="#fff" stroke-linecap="round" stroke-width="0.75"/>
    <line id="Line_116" data-name="Line 116" y2="6.395" transform="translate(13.607 33.612)" fill="none" stroke="#fff" stroke-linecap="round" stroke-width="0.75"/>
    <line id="Line_117" data-name="Line 117" x2="6.395" transform="translate(24.799 29.414)" fill="none" stroke="#fff" stroke-linecap="round" stroke-width="0.75"/>
    <line id="Line_118" data-name="Line 118" x2="6.395" transform="translate(24.799 19.821)" fill="none" stroke="#fff" stroke-linecap="round" stroke-width="0.75"/>
    <line id="Line_119" data-name="Line 119" x2="9.593" transform="translate(8.811 22.42)" fill="none" stroke="#fff" stroke-linecap="round" stroke-width="0.75"/>
    <path id="Path_4078" data-name="Path 4078" d="M3.076,12.433a.233.233,0,0,0-.421,0l-.73,1.46H.737a.233.233,0,0,0-.143.423l.969.74-.4,1.468a.233.233,0,0,0,.368.25l1.335-1,1.262.946a.233.233,0,0,0,.363-.266L4,15.055l1.064-.735a.233.233,0,0,0-.131-.427H3.806Z" transform="translate(16.263 -12.3)" fill="none" stroke="#fff" stroke-linecap="round" stroke-linejoin="round" stroke-width="0.75"/>
    <path id="Path_4079" data-name="Path 4079" d="M3.076,12.433a.233.233,0,0,0-.421,0l-.73,1.46H.737a.233.233,0,0,0-.143.423l.969.74-.4,1.468a.233.233,0,0,0,.368.25l1.335-1,1.262.946a.233.233,0,0,0,.363-.266L4,15.055l1.064-.735a.233.233,0,0,0-.131-.427H3.806Z" transform="translate(30.263 -12.3)" fill="none" stroke="#fff" stroke-linecap="round" stroke-linejoin="round" stroke-width="0.75"/>
    <path id="Path_4080" data-name="Path 4080" d="M3.076,12.433a.233.233,0,0,0-.421,0l-.73,1.46H.737a.233.233,0,0,0-.143.423l.969.74-.4,1.468a.233.233,0,0,0,.368.25l1.335-1,1.262.946a.233.233,0,0,0,.363-.266L4,15.055l1.064-.735a.233.233,0,0,0-.131-.427H3.806Z" transform="translate(2.263 -12.3)" fill="none" stroke="#fff" stroke-linecap="round" stroke-linejoin="round" stroke-width="0.75"/>
  </g>
</svg>
