<svg xmlns="http://www.w3.org/2000/svg" width="31.5" height="31.5" viewBox="0 0 31.5 31.5">
  <g id="id-person" transform="translate(0.75 0.75)">
    <g id="face-id-4" transform="translate(-0.5 -0.5)">
      <path id="Path_4033" data-name="Path 4033" d="M.5,6.5v-3a3,3,0,0,1,3-3h3" fill="none" stroke="#3d467b" stroke-linecap="round" stroke-linejoin="round" stroke-width="1.5"/>
      <path id="Path_4034" data-name="Path 4034" d="M23.5,6.5v-3a3,3,0,0,0-3-3h-3" transform="translate(7)" fill="none" stroke="#3d467b" stroke-linecap="round" stroke-linejoin="round" stroke-width="1.5"/>
      <path id="Path_4035" data-name="Path 4035" d="M.5,17.5v3a3,3,0,0,0,3,3h3" transform="translate(0 7)" fill="none" stroke="#3d467b" stroke-linecap="round" stroke-linejoin="round" stroke-width="1.5"/>
      <path id="Path_4036" data-name="Path 4036" d="M23.5,17.5v3a3,3,0,0,1-3,3h-3" transform="translate(7 7)" fill="none" stroke="#3d467b" stroke-linecap="round" stroke-linejoin="round" stroke-width="1.5"/>
    </g>
    <g id="single-neutral" transform="translate(4.5 5.803)">
      <path id="Path_3820" data-name="Path 3820" d="M11.053,10.855A5.053,5.053,0,1,1,16.105,5.8,5.059,5.059,0,0,1,11.053,10.855Zm0-9.263A4.211,4.211,0,1,0,15.263,5.8,4.215,4.215,0,0,0,11.053,1.592Z" transform="translate(-0.553)" fill="#fff" stroke="#fff" stroke-width="0.5"/>
      <path id="Path_3821" data-name="Path 3821" d="M2.921,21.671A.421.421,0,0,1,2.5,21.25a8,8,0,0,1,16,0,.421.421,0,0,1-.421.421Zm14.725-.842a7.158,7.158,0,0,0-14.291,0Z" transform="translate(0 -1.974)" fill="#fff" stroke="#fff" stroke-width="0.5"/>
    </g>
  </g>
</svg>
