<svg xmlns="http://www.w3.org/2000/svg" width="33.25" height="31.875" viewBox="0 0 33.25 31.875">
  <g id="router-signal" transform="translate(0.125 0.125)">
    <path id="Path_3609" data-name="Path 3609" d="M14.181,8.613a.619.619,0,0,1-.438-1.058,1.241,1.241,0,0,0,0-1.753.621.621,0,0,1,.878-.878,2.484,2.484,0,0,1,0,3.506A.62.62,0,0,1,14.181,8.613Z" transform="translate(5.203 1.181)" fill="#3c3951" stroke="#3c3951" stroke-width="0.25"/>
    <path id="Path_3610" data-name="Path 3610" d="M16.3,11.751a.619.619,0,0,1-.439-1.058,4.958,4.958,0,0,0,0-7.014.621.621,0,0,1,.878-.878,6.2,6.2,0,0,1,0,8.768A.619.619,0,0,1,16.3,11.751Z" transform="translate(6.107 0.009)" fill="#3c3951" stroke="#3c3951" stroke-width="0.25"/>
    <path id="Path_3611" data-name="Path 3611" d="M18.42,14.891a.621.621,0,0,1-.439-1.059,8.68,8.68,0,0,0,0-12.274.62.62,0,0,1,.878-.877,9.92,9.92,0,0,1,0,14.028A.615.615,0,0,1,18.42,14.891Z" transform="translate(7.513 -0.5)" fill="#3c3951" stroke="#3c3951" stroke-width="0.25"/>
    <path id="Path_3612" data-name="Path 3612" d="M10.164,8.612a.619.619,0,0,1-.439-.181,2.481,2.481,0,0,1,0-3.506A.621.621,0,0,1,10.6,5.8a1.241,1.241,0,0,0,0,1.753.618.618,0,0,1-.439,1.056Z" transform="translate(3.453 1.182)" fill="#3c3951" stroke="#3c3951" stroke-width="0.25"/>
    <path id="Path_3613" data-name="Path 3613" d="M8.254,11.751a.619.619,0,0,1-.439-.181,6.208,6.208,0,0,1,0-8.768.62.62,0,0,1,.878.877,4.967,4.967,0,0,0,0,7.014.621.621,0,0,1-.439,1.059Z" transform="translate(2.337 0.009)" fill="#3c3951" stroke="#3c3951" stroke-width="0.25"/>
    <path id="Path_3614" data-name="Path 3614" d="M6.346,14.891a.621.621,0,0,1-.454-.2A9.932,9.932,0,0,1,5.907.681a.623.623,0,0,1,.878,0,.621.621,0,0,1,0,.878,8.68,8.68,0,0,0,0,12.274.62.62,0,0,1-.16.993A.638.638,0,0,1,6.346,14.891Z" transform="translate(0.721 -0.5)" fill="#3c3951" stroke="#3c3951" stroke-width="0.25"/>
    <path id="Path_3615" data-name="Path 3615" d="M29.563,26.858a.717.717,0,0,1-.55-.248l-1.856-2.232H5.844L3.988,26.61a.719.719,0,0,1-.55.248.73.73,0,0,1-.413-.124.607.607,0,0,1-.268-.408.572.572,0,0,1,.131-.46l1.237-1.488H3.438A3.285,3.285,0,0,1,0,21.279V18.8a3.285,3.285,0,0,1,3.438-3.1H15.813V10.12a.691.691,0,0,1,1.375,0V15.7H29.563A3.286,3.286,0,0,1,33,18.8v2.48a3.286,3.286,0,0,1-3.437,3.1h-.687l1.237,1.488a.569.569,0,0,1,.131.459.61.61,0,0,1-.268.409A.736.736,0,0,1,29.563,26.858ZM3.438,16.939A1.971,1.971,0,0,0,1.375,18.8v2.48a1.971,1.971,0,0,0,2.063,1.86H29.563a1.971,1.971,0,0,0,2.063-1.86V18.8a1.971,1.971,0,0,0-2.062-1.86Z" transform="translate(0 4.767)" fill="#3c3951" stroke="#3c3951" stroke-width="0.25"/>
    <ellipse id="Ellipse_23" data-name="Ellipse 23" cx="0.93" cy="0.93" rx="0.93" ry="0.93" transform="translate(5.536 23.189)" fill="#3c3951" stroke="#3c3951" stroke-width="0.25"/>
    <ellipse id="Ellipse_24" data-name="Ellipse 24" cx="0.93" cy="0.93" rx="0.93" ry="0.93" transform="translate(10.38 23.189)" fill="#3c3951" stroke="#3c3951" stroke-width="0.25"/>
  </g>
</svg>
