<svg xmlns="http://www.w3.org/2000/svg" width="30.058" height="29.804" viewBox="0 0 30.058 29.804">
  <g id="landing-white" transform="translate(0 0)">
    <g id="plane-take-off" transform="translate(13.072 -2.984) rotate(39)">
      <path id="Path_4107" data-name="Path 4107" d="M10.686,21.045a1.041,1.041,0,0,1-.976-1.407l2.247-5.991-6.4,2.561a1.041,1.041,0,0,1-1.125-.23l-3.9-3.9a1.042,1.042,0,0,1,.325-1.695l2.718-1.17a1.031,1.031,0,0,1,.411-.084,1.045,1.045,0,0,1,.468.112l2.692,1.35,4.442-1.933L6.859,6.7a1.042,1.042,0,0,1,0-1.926L9.348,3.74a1.043,1.043,0,0,1,.8,0l6.537,2.7,4.483-1.95.052-.02.047-.019a2.588,2.588,0,0,1,.947-.179,2.627,2.627,0,0,1,2.43,1.656A2.61,2.61,0,0,1,23.163,9.3l-4.715,1.755-4,8a1.052,1.052,0,0,1-.465.466l-2.832,1.414A1.064,1.064,0,0,1,10.686,21.045ZM12.859,12.2a.521.521,0,0,1,.489.7L10.687,20l2.83-1.414,4.091-8.182a.518.518,0,0,1,.285-.255l4.9-1.824a1.544,1.544,0,0,0,.854-.827,1.564,1.564,0,0,0-2-2.083l-.056.023a.4.4,0,0,1-.047.018L7.335,11.639a.514.514,0,0,1-.207.043.536.536,0,0,1-.233-.054L3.982,10.168,1.264,11.337l3.9,3.9,7.5-3A.508.508,0,0,1,12.859,12.2Zm-5.6-6.468,5.656,2.34,2.438-1.06L9.747,4.7Z" transform="translate(0 0)" fill="#fff"/>
    </g>
    <line id="Line_208" data-name="Line 208" x2="19" transform="translate(8.229 29.304)" fill="none" stroke="#fff" stroke-linecap="round" stroke-width="1"/>
  </g>
</svg>
