<svg xmlns="http://www.w3.org/2000/svg" width="22.985" height="21.94" viewBox="0 0 22.985 21.94"><g transform="translate(-1 -2)"><path d="M1.522,23.627A.523.523,0,0,1,1,23.1V9.522A.523.523,0,0,1,1.522,9H6.746a.523.523,0,0,1,.522.522V23.1a.523.523,0,0,1-.522.522Zm4.7-1.045V10.045H2.045V22.582Z" transform="translate(0 0.313)"/><path d="M4.134,8.269A3.134,3.134,0,1,1,7.269,5.134,3.138,3.138,0,0,1,4.134,8.269Zm0-5.224a2.09,2.09,0,1,0,2.09,2.09A2.092,2.092,0,0,0,4.134,3.045Z"/><path d="M17.925,23.627A.523.523,0,0,1,17.4,23.1V15.791a1.567,1.567,0,0,0-3.134,0V23.1a.523.523,0,0,1-.522.522H8.522A.523.523,0,0,1,8,23.1V9.523A.523.523,0,0,1,8.522,9h5.224a.523.523,0,0,1,.522.522v.529A7.08,7.08,0,0,1,17.908,8.99c3.556,0,5.764,2.745,5.764,7.162V23.1a.523.523,0,0,1-.522.522Zm4.7-1.045V16.152c0-3.83-1.761-6.117-4.712-6.117a6.081,6.081,0,0,0-3.831,1.438.52.52,0,0,1-.337.124.522.522,0,0,1-.522-.522V10.045H9.045V22.582h4.179V15.791a2.612,2.612,0,0,1,5.224,0v6.791Z" transform="translate(0.313 0.313)"/></g></svg>