<svg id="logout-2" xmlns="http://www.w3.org/2000/svg" width="20.799" height="23.383" viewBox="0 0 20.799 23.383">
  <g id="Group_3509" data-name="Group 3509">
    <path id="Path_7500" data-name="Path 7500" d="M27.66,22.043h-6.1a3.006,3.006,0,0,1-3-3V4.342a3.006,3.006,0,0,1,3-3h6.2a.67.67,0,0,0,0-1.34h-6.2a4.347,4.347,0,0,0-4.342,4.342v14.7a4.347,4.347,0,0,0,4.342,4.342h6.1a.67.67,0,0,0,0-1.34Z" transform="translate(-17.219 0)"/>
    <path id="Path_7501" data-name="Path 7501" d="M136.87,140.78l-4.258-4.258a.67.67,0,0,0-.948.948l3.116,3.116-8.807-.071a.67.67,0,1,0,0,1.34l8.807.071-3.116,3.116a.672.672,0,0,0,.471,1.146.654.654,0,0,0,.471-.2l4.258-4.258A.669.669,0,0,0,136.87,140.78Z" transform="translate(-116.393 -129.56)" fill="#ae68bb" stroke="#ae68bb" stroke-width="0.25"/>
  </g>
</svg>
