<svg xmlns="http://www.w3.org/2000/svg" width="14.95" height="18" viewBox="0 0 14.95 18">
  <g id="matches-fire" transform="translate(-2.014)">
    <path id="Path_4023" data-name="Path 4023" d="M9.486,18a7.461,7.461,0,0,1-7.465-7.138c-.007-.129-.007-.263-.007-.4A7.42,7.42,0,0,1,4.69,4.736a.374.374,0,0,1,.6.181,6.565,6.565,0,0,0,.978,2,6.746,6.746,0,0,0,.607-2.8A7.248,7.248,0,0,0,5.934.558.373.373,0,0,1,6.259,0a.418.418,0,0,1,.068.006A9.778,9.778,0,0,1,14.339,9.19a6.427,6.427,0,0,0,1.709-1.043.372.372,0,0,1,.242-.089.381.381,0,0,1,.1.015.373.373,0,0,1,.253.25,7.339,7.339,0,0,1,.316,2.141A7.475,7.475,0,0,1,9.554,18Zm.077-8.043a5.269,5.269,0,0,0-2.691,4.537v.058A2.63,2.63,0,0,0,9.49,17.191H9.6A2.559,2.559,0,0,0,12.1,14.583a2.412,2.412,0,0,0-1.15-2.258,2.346,2.346,0,0,1-.782.931.37.37,0,0,1-.214.067.385.385,0,0,1-.088-.01.373.373,0,0,1-.241-.188A3.531,3.531,0,0,1,9.563,9.957ZM4.758,5.682a6.705,6.705,0,0,0-2,4.781c0,.123,0,.242.007.36a6.686,6.686,0,0,0,4.164,5.931,3.357,3.357,0,0,1-.809-2.207v-.064A6.013,6.013,0,0,1,9.829,9a.561.561,0,0,1,.434,0,.558.558,0,0,1,.3.308.565.565,0,0,1-.075.547,2.768,2.768,0,0,0-.395,2.455,1.6,1.6,0,0,0,.238-.431.562.562,0,0,1,.691-.356.563.563,0,0,1,.085.033A3.129,3.129,0,0,1,12.85,14.6a3.23,3.23,0,0,1-.741,2.121,6.735,6.735,0,0,0,4.106-6.255,6.608,6.608,0,0,0-.145-1.391,7.179,7.179,0,0,1-1.99,1,.374.374,0,0,1-.487-.392,1.463,1.463,0,0,0,.006-.152A8.972,8.972,0,0,0,6.946.91a8.013,8.013,0,0,1,.674,3.2,7.473,7.473,0,0,1-.96,3.674.373.373,0,0,1-.289.188l-.039,0a.375.375,0,0,1-.282-.13A7.311,7.311,0,0,1,4.758,5.682Z" transform="translate(0)" fill="#fff"/>
  </g>
</svg>
