<svg xmlns="http://www.w3.org/2000/svg" width="23.2" height="23.2" viewBox="0 0 23.2 23.2"><g transform="translate(0.1 0.1)"><path d="M17.229,23.458a6.229,6.229,0,1,1,6.229-6.229A6.236,6.236,0,0,1,17.229,23.458Zm0-11.5A5.271,5.271,0,1,0,22.5,17.229,5.276,5.276,0,0,0,17.229,11.958Z" transform="translate(-0.458 -0.458)" fill="#3c3951" stroke="#3c3951" stroke-width="0.2"/><path d="M2.634,6.708a.463.463,0,0,1-.183-.037.457.457,0,0,1-.156-.1L.14,4.411a.48.48,0,0,1,.679-.678l1.337,1.34V.479a.479.479,0,1,1,.958,0V5.072L4.451,3.735a.48.48,0,0,1,.678.678L2.974,6.569a.476.476,0,0,1-.156.1A.517.517,0,0,1,2.634,6.708Z" transform="matrix(-0.017, -1, 1, -0.017, 13.464, 19.464)" fill="#3c3951" stroke="#3c3951" stroke-width="0.2"/><path d="M4.313,18.208a.485.485,0,0,1-.184-.036.477.477,0,0,1-.3-.443V14.375h-2.4A1.439,1.439,0,0,1,0,12.938V1.438A1.439,1.439,0,0,1,1.438,0H19.646a1.439,1.439,0,0,1,1.438,1.438V9.1a.479.479,0,1,1-.958,0V1.438a.479.479,0,0,0-.479-.479H1.438a.479.479,0,0,0-.479.479v11.5a.479.479,0,0,0,.479.479H4.313a.479.479,0,0,1,.479.479v2.677l3.015-3.015a.475.475,0,0,1,.339-.141H9.1a.479.479,0,1,1,0,.958h-.76L4.651,18.068A.475.475,0,0,1,4.313,18.208Z" fill="#3c3951" stroke="#3c3951" stroke-width="0.2"/></g></svg>