<svg xmlns="http://www.w3.org/2000/svg" width="27.5" height="27.5" viewBox="0 0 27.5 27.5">
  <g id="messages-bubble-square-download" transform="translate(0.25 0.25)">
    <path id="Path_7490" data-name="Path 7490" d="M18.313,25.625a7.313,7.313,0,1,1,7.313-7.312A7.321,7.321,0,0,1,18.313,25.625Zm0-13.5A6.188,6.188,0,1,0,24.5,18.313,6.194,6.194,0,0,0,18.313,12.125Z" transform="translate(1.375 1.375)" fill="#3c3951" stroke="#3c3951" stroke-width="0.5"/>
    <path id="Path_7491" data-name="Path 7491" d="M17.844,21.875a.544.544,0,0,1-.215-.044.536.536,0,0,1-.183-.123l-2.53-2.53a.563.563,0,0,1,.8-.8l1.569,1.573V14.563a.563.563,0,0,1,1.125,0v5.392l1.57-1.57a.563.563,0,0,1,.8.8l-2.531,2.531a.558.558,0,0,1-.183.123A.607.607,0,0,1,17.844,21.875Z" transform="translate(1.844 1.75)" fill="#ae68bb" stroke="#ae68bb" stroke-width="0.5"/>
    <path id="Path_7492" data-name="Path 7492" d="M5.063,21.375a.569.569,0,0,1-.216-.043.56.56,0,0,1-.346-.52V16.875H1.688A1.69,1.69,0,0,1,0,15.188V1.688A1.69,1.69,0,0,1,1.688,0H23.063A1.69,1.69,0,0,1,24.75,1.688v9a.563.563,0,0,1-1.125,0v-9a.563.563,0,0,0-.562-.562H1.688a.563.563,0,0,0-.562.563v13.5a.563.563,0,0,0,.563.563H5.063a.563.563,0,0,1,.563.563v3.142l3.539-3.539a.558.558,0,0,1,.4-.165h1.125a.563.563,0,0,1,0,1.125H9.8L5.46,21.211A.557.557,0,0,1,5.063,21.375Z" fill="#3c3951" stroke="#3c3951" stroke-width="0.5"/>
  </g>
</svg>
