<svg id="mobile-phone-2" xmlns="http://www.w3.org/2000/svg" width="14" height="24" viewBox="0 0 14 24">
  <path id="Path_3767" data-name="Path 3767" d="M12,22.25a.749.749,0,0,1-.054-1.5h.008l.046,0a.75.75,0,0,1,0,1.5Z" transform="translate(-5)" fill="#ec008c"/>
  <path id="Path_3768" data-name="Path 3768" d="M7.5,24A2.5,2.5,0,0,1,5,21.5V2.5A2.5,2.5,0,0,1,7.5,0h9A2.5,2.5,0,0,1,19,2.5v19A2.5,2.5,0,0,1,16.5,24ZM6,21.5A1.5,1.5,0,0,0,7.5,23h9A1.5,1.5,0,0,0,18,21.5V20H6ZM18,19V2.5A1.5,1.5,0,0,0,16.5,1h-9A1.5,1.5,0,0,0,6,2.5V19Z" transform="translate(-5)" fill="#ec008c"/>
</svg>
