<svg id="mobile-phone-blue" xmlns="http://www.w3.org/2000/svg" width="19" height="32.572" viewBox="0 0 19 32.572">
  <path id="Path_3767" data-name="Path 3767" d="M12,22.25a.749.749,0,0,1-.054-1.5h.008l.046,0a.75.75,0,0,1,0,1.5Z" transform="translate(-2.5 8.571)" fill="#3c3951"/>
  <path id="Path_3768" data-name="Path 3768" d="M8.393,32.571A3.4,3.4,0,0,1,5,29.179V3.393A3.4,3.4,0,0,1,8.393,0H20.607A3.4,3.4,0,0,1,24,3.393V29.179a3.4,3.4,0,0,1-3.393,3.393ZM6.357,29.179a2.038,2.038,0,0,0,2.036,2.036H20.607a2.038,2.038,0,0,0,2.036-2.036V27.143H6.357Zm16.286-3.393V3.393a2.038,2.038,0,0,0-2.036-2.036H8.393A2.038,2.038,0,0,0,6.357,3.393V25.786Z" transform="translate(-5)" fill="#3c3951"/>
</svg>
