<svg xmlns="http://www.w3.org/2000/svg" width="97.976" height="82" viewBox="0 0 97.976 82">
    <defs>
        <style>
            .cls-3,.cls-4,.cls-5{fill:none;stroke-linecap:round;stroke-linejoin:round}.cls-3,.cls-5{stroke:#e4488a}.cls-3{stroke-width:2px}.cls-4{stroke:#cbcbd9}
        </style>
    </defs>
    <g id="Group_1048" transform="translate(-135.524 -167)">
        <g id="Component_22_1" transform="translate(136.024 167)">
            <circle id="Ellipse_27" cx="41" cy="41" r="41" fill="rgba(228,72,138,0.04)" transform="translate(10.976)"/>
            <circle id="Ellipse_26" cx="33" cy="33" r="33" fill="rgba(228,72,138,0.07)" transform="translate(18.976 8)"/>
            <g id="mobile-phone-2" transform="translate(32.069 13.5)">
                <path id="Line_9" d="M27 0L0 0" class="cls-3" transform="translate(5.907 40.5)"/>
                <rect id="Rectangle_154" width="27" height="48" class="cls-3" rx="9" transform="translate(5.907 .5)"/>
            </g>
            <path id="Path_3773" d="M17.972 14.331a5.073 5.073 0 0 1-4.462-4.955 4.948 4.948 0 0 1 5.137-4.943 6.873 6.873 0 0 1 6.26-3.92 7.113 7.113 0 0 1 7.148 6.456 3.714 3.714 0 0 1 4.489 3.645 3.763 3.763 0 0 1-3.964 3.717z" class="cls-4" transform="translate(60.432 10.097)"/>
            <path id="Path_3774" d="M4.986 17.823a5.073 5.073 0 0 1-4.462-4.948 4.946 4.946 0 0 1 5.135-4.946 6.878 6.878 0 0 1 6.26-3.92 7.111 7.111 0 0 1 7.148 6.456 3.719 3.719 0 0 1 4.482 3.635 3.763 3.763 0 0 1-3.943 3.719z" class="cls-4" transform="translate(-.524 10.662)"/>
            <g id="cloud-wifi" transform="rotate(90 24.05 53.488)">
                <path id="Path_3776" d="M16.277 2.929a8.491 8.491 0 0 0-9.429 0" class="cls-5"/>
                <path id="Path_3777" d="M14.059 5.5a4.5 4.5 0 0 0-4.992 0" class="cls-5"/>
            </g>
            <g id="cloud-wifi-2" transform="rotate(90 -2.624 33.663)">
                <path id="Path_3776-2" d="M9.429 0A8.491 8.491 0 0 1 0 0" class="cls-5" transform="translate(0 2.571)"/>
                <path id="Path_3777-2" d="M4.992 0A4.5 4.5 0 0 1 0 0" class="cls-5" transform="translate(2.219)"/>
            </g>
        </g>
    </g>
</svg>
