<svg xmlns="http://www.w3.org/2000/svg" width="24.334" height="21.56" viewBox="0 0 24.334 21.56">
  <g id="money-wallet" transform="translate(0 0)">
    <path id="Path_3616" data-name="Path 3616" d="M18.51,14.408a.76.76,0,1,1,.76-.76A.761.761,0,0,1,18.51,14.408Z" transform="translate(0.244 -1.211)" fill="#fff"/>
    <path id="Path_3617" data-name="Path 3617" d="M3.511,8.651a.507.507,0,0,1,0-1.014H5.538a.507.507,0,0,1,0,1.014Z" transform="translate(0.041 -1.283)" fill="#fff"/>
    <path id="Path_3618" data-name="Path 3618" d="M7.511,8.651a.507.507,0,0,1,0-1.014H9.538a.507.507,0,0,1,0,1.014Z" transform="translate(0.096 -1.283)" fill="#fff"/>
    <path id="Path_3619" data-name="Path 3619" d="M11.511,8.651a.507.507,0,0,1,0-1.014h2.027a.507.507,0,0,1,0,1.014Z" transform="translate(0.151 -1.283)" fill="#fff"/>
    <path id="Path_3620" data-name="Path 3620" d="M15.511,8.651a.507.507,0,0,1,0-1.014h2.027a.507.507,0,0,1,0,1.014Z" transform="translate(0.206 -1.283)" fill="#fff"/>
    <path id="Path_3621" data-name="Path 3621" d="M3.511,19.651a.507.507,0,0,1,0-1.014H5.538a.507.507,0,0,1,0,1.014Z" transform="translate(0.041 -1.132)" fill="#fff"/>
    <path id="Path_3622" data-name="Path 3622" d="M7.511,19.651a.507.507,0,0,1,0-1.014H9.538a.507.507,0,0,1,0,1.014Z" transform="translate(0.096 -1.132)" fill="#fff"/>
    <path id="Path_3623" data-name="Path 3623" d="M11.511,19.651a.507.507,0,0,1,0-1.014h2.027a.507.507,0,0,1,0,1.014Z" transform="translate(0.151 -1.132)" fill="#fff"/>
    <path id="Path_3624" data-name="Path 3624" d="M15.511,19.651a.507.507,0,0,1,0-1.014h2.027a.507.507,0,0,1,0,1.014Z" transform="translate(0.206 -1.132)" fill="#fff"/>
    <path id="Path_3625" data-name="Path 3625" d="M2.534,22.929A2.537,2.537,0,0,1,0,20.395V7.216A2.537,2.537,0,0,1,2.534,4.682H4.495L16.616,1.42a1.624,1.624,0,0,1,.4-.051,1.491,1.491,0,0,1,.777.216,1.506,1.506,0,0,1,.692.935l.563,2.246A4.031,4.031,0,0,1,22.3,8.737v2.078A2.529,2.529,0,0,1,24.333,13.3v1.014A2.529,2.529,0,0,1,22.3,16.8v2.078a4.059,4.059,0,0,1-4.055,4.055Zm0-17.233A1.522,1.522,0,0,0,1.014,7.216V20.395a1.522,1.522,0,0,0,1.521,1.521H18.247a3.045,3.045,0,0,0,3.041-3.041V16.847H17.744a2.538,2.538,0,0,1-2.534-2.534V13.3a2.538,2.538,0,0,1,2.534-2.534h3.544V8.737A3.045,3.045,0,0,0,18.247,5.7H2.534Zm15.21,6.082A1.522,1.522,0,0,0,16.224,13.3v1.014a1.522,1.522,0,0,0,1.521,1.521H21.8a1.522,1.522,0,0,0,1.521-1.521V13.3A1.522,1.522,0,0,0,21.8,11.778Zm.238-7.1L17.5,2.765a.51.51,0,0,0-.491-.384.51.51,0,0,0-.124.015L8.4,4.682Z" transform="translate(0 -1.369)" fill="#fff"/>
  </g>
</svg>
