<svg xmlns="http://www.w3.org/2000/svg" width="33" height="29.238" viewBox="0 0 33 29.238">
  <g id="money-wallet" transform="translate(0 0)">
    <path id="Path_3616" data-name="Path 3616" d="M18.781,14.949a1.031,1.031,0,1,1,1.031-1.031A1.031,1.031,0,0,1,18.781,14.949Z" transform="translate(6.652 2.948)" fill="#fff"/>
    <path id="Path_3617" data-name="Path 3617" d="M3.691,9.012a.687.687,0,0,1,0-1.375h2.75a.687.687,0,0,1,0,1.375Z" transform="translate(1.126 0.98)" fill="#fff"/>
    <path id="Path_3618" data-name="Path 3618" d="M7.691,9.012a.687.687,0,0,1,0-1.375h2.75a.687.687,0,0,1,0,1.375Z" transform="translate(2.625 0.98)" fill="#c8078c"/>
    <path id="Path_3619" data-name="Path 3619" d="M11.691,9.012a.687.687,0,0,1,0-1.375h2.75a.687.687,0,0,1,0,1.375Z" transform="translate(4.124 0.98)" fill="#c8078c"/>
    <path id="Path_3620" data-name="Path 3620" d="M15.691,9.012a.687.687,0,0,1,0-1.375h2.75a.687.687,0,0,1,0,1.375Z" transform="translate(5.623 0.98)" fill="#fff"/>
    <path id="Path_3621" data-name="Path 3621" d="M3.691,20.012a.687.687,0,0,1,0-1.375h2.75a.687.687,0,0,1,0,1.375Z" transform="translate(1.126 5.103)" fill="#c8078c"/>
    <path id="Path_3622" data-name="Path 3622" d="M7.691,20.012a.687.687,0,0,1,0-1.375h2.75a.687.687,0,0,1,0,1.375Z" transform="translate(2.625 5.103)" fill="#c8078c"/>
    <path id="Path_3623" data-name="Path 3623" d="M11.691,20.012a.687.687,0,0,1,0-1.375h2.75a.687.687,0,0,1,0,1.375Z" transform="translate(4.124 5.103)" fill="#fff"/>
    <path id="Path_3624" data-name="Path 3624" d="M15.691,20.012a.687.687,0,0,1,0-1.375h2.75a.687.687,0,0,1,0,1.375Z" transform="translate(5.623 5.103)" fill="#fff"/>
    <path id="Path_3625" data-name="Path 3625" d="M3.437,30.608A3.441,3.441,0,0,1,0,27.171V9.3A3.44,3.44,0,0,1,3.437,5.862H6.1L22.534,1.438a2.2,2.2,0,0,1,.543-.069,2.021,2.021,0,0,1,1.053.293,2.042,2.042,0,0,1,.939,1.268l.763,3.046a5.467,5.467,0,0,1,4.413,5.385v2.818A3.43,3.43,0,0,1,33,17.547v1.375a3.43,3.43,0,0,1-2.755,3.368v2.818a5.5,5.5,0,0,1-5.5,5.5Zm0-23.371A2.065,2.065,0,0,0,1.375,9.3V27.171a2.065,2.065,0,0,0,2.062,2.062H24.746a4.129,4.129,0,0,0,4.124-4.124v-2.75H24.064a3.442,3.442,0,0,1-3.437-3.437V17.547a3.442,3.442,0,0,1,3.437-3.437H28.87v-2.75a4.129,4.129,0,0,0-4.124-4.124H3.437Zm20.627,8.249A2.065,2.065,0,0,0,22,17.547v1.375a2.065,2.065,0,0,0,2.062,2.062h5.5a2.065,2.065,0,0,0,2.062-2.062V17.547a2.065,2.065,0,0,0-2.062-2.062Zm.323-9.623-.649-2.6a.691.691,0,0,0-.665-.521.692.692,0,0,0-.168.021l-11.519,3.1Z" transform="translate(0 -1.369)" fill="#fff"/>
  </g>
</svg>
