<svg xmlns="http://www.w3.org/2000/svg" width="17.444" height="17.55" viewBox="0 0 17.444 17.55">
  <g id="Group_1257" data-name="Group 1257" transform="translate(-210.657 -603.218)">
    <g id="official-building-2" transform="translate(211.157 603.717)">
      <path id="Path_4024" data-name="Path 4024" d="M1.5,22.36l.643-2.589a.357.357,0,0,1,.35-.271H15.52a.357.357,0,0,1,.347.271l.647,2.589" transform="translate(-0.785 -5.916)" fill="none" stroke="#fff" stroke-linecap="round" stroke-linejoin="round" stroke-width="1"/>
      <line id="Line_85" data-name="Line 85" y2="6.435" transform="translate(2.145 7.15)" fill="none" stroke="#fff" stroke-linecap="round" stroke-linejoin="round" stroke-width="1"/>
      <line id="Line_86" data-name="Line 86" y2="6.435" transform="translate(3.575 7.15)" fill="none" stroke="#fff" stroke-linecap="round" stroke-linejoin="round" stroke-width="1"/>
      <line id="Line_87" data-name="Line 87" y2="6.435" transform="translate(5.72 7.15)" fill="none" stroke="#fff" stroke-linecap="round" stroke-linejoin="round" stroke-width="1"/>
      <line id="Line_88" data-name="Line 88" y2="6.435" transform="translate(7.15 7.15)" fill="none" stroke="#fff" stroke-linecap="round" stroke-linejoin="round" stroke-width="1"/>
      <line id="Line_89" data-name="Line 89" y2="6.435" transform="translate(9.294 7.15)" fill="none" stroke="#fff" stroke-linecap="round" stroke-linejoin="round" stroke-width="1"/>
      <line id="Line_90" data-name="Line 90" y2="6.435" transform="translate(10.724 7.15)" fill="none" stroke="#fff" stroke-linecap="round" stroke-linejoin="round" stroke-width="1"/>
      <line id="Line_91" data-name="Line 91" y2="6.435" transform="translate(12.869 7.15)" fill="none" stroke="#fff" stroke-linecap="round" stroke-linejoin="round" stroke-width="1"/>
      <line id="Line_92" data-name="Line 92" y2="6.435" transform="translate(14.299 7.15)" fill="none" stroke="#fff" stroke-linecap="round" stroke-linejoin="round" stroke-width="1"/>
      <path id="Path_4025" data-name="Path 4025" d="M15.869,5.5c0-1.975-1.43-5-6.435-5S3,3.53,3,5.5" transform="translate(-1.213 -0.5)" fill="none" stroke="#fff" stroke-linecap="round" stroke-linejoin="round" stroke-width="1"/>
      <path id="Path_4026" data-name="Path 4026" d="M16.413,7.97a.357.357,0,0,0-.34-.47H2.051a.357.357,0,0,0-.34.47L2.189,9.4a.357.357,0,0,0,.339.245H15.6a.357.357,0,0,0,.339-.245Z" transform="translate(-0.84 -2.495)" fill="none" stroke="#fff" stroke-linecap="round" stroke-linejoin="round" stroke-width="1"/>
      <line id="Line_93" data-name="Line 93" x2="16.444" transform="translate(0 16.444)" fill="none" stroke="#fff" stroke-linecap="round" stroke-linejoin="round" stroke-width="1"/>
      <line id="Line_94" data-name="Line 94" x2="14.299" transform="translate(1.072 15.014)" fill="none" stroke="#fff" stroke-linecap="round" stroke-linejoin="round" stroke-width="1"/>
    </g>
  </g>
</svg>
