<svg xmlns="http://www.w3.org/2000/svg" width="27.5" height="33.674" viewBox="0 0 27.5 33.674">
  <g id="my_credit_card_payment" transform="translate(0.5 0.514)">
    <path id="Path_3753" data-name="Path 3753" d="M1.915,4.5A1.434,1.434,0,0,0,.5,5.952V29.179a2.868,2.868,0,0,0,2.831,2.9" transform="translate(-0.5 0.329)" fill="none" stroke="#fff" stroke-linecap="round" stroke-linejoin="round" stroke-width="1"/>
    <path id="Path_3754" data-name="Path 3754" d="M.5,7.5H18.9" transform="translate(-0.5 2.264)" fill="none" stroke="#fff" stroke-linecap="round" stroke-linejoin="round" stroke-width="1"/>
    <path id="Path_3755" data-name="Path 3755" d="M.5,11.5H13.185" transform="translate(-0.5 3.926)" fill="none" stroke="#fff" stroke-linecap="round" stroke-linejoin="round" stroke-width="1"/>
    <line id="Line_36" data-name="Line 36" x2="1.238" transform="translate(2.866 25.334)" fill="none" stroke="#fff" stroke-linecap="round" stroke-linejoin="round" stroke-width="1"/>
    <line id="Line_37" data-name="Line 37" x2="1.238" transform="translate(7.156 25.334)" fill="none" stroke="#fff" stroke-linecap="round" stroke-linejoin="round" stroke-width="1"/>
    <line id="Line_39" data-name="Line 39" x2="1.238" transform="translate(2.866 28.696)" fill="none" stroke="#fff" stroke-linecap="round" stroke-linejoin="round" stroke-width="1"/>
    <line id="Line_40" data-name="Line 40" x2="1.238" transform="translate(7.156 28.696)" fill="none" stroke="#fff" stroke-linecap="round" stroke-linejoin="round" stroke-width="1"/>
    <line id="Line_42" data-name="Line 42" x2="1.238" transform="translate(2.866 22.503)" fill="none" stroke="#fff" stroke-linecap="round" stroke-linejoin="round" stroke-width="1"/>
    <line id="Line_43" data-name="Line 43" x2="1.238" transform="translate(7.156 22.503)" fill="none" stroke="#fff" stroke-linecap="round" stroke-linejoin="round" stroke-width="1"/>
    <line id="Line_45" data-name="Line 45" x2="2.477" transform="translate(2.901 19.672)" fill="none" stroke="#fff" stroke-linecap="round" stroke-linejoin="round" stroke-width="1"/>
    <line id="Line_46" data-name="Line 46" x2="1.238" transform="translate(8.587 19.672)" fill="none" stroke="#fff" stroke-linecap="round" stroke-linejoin="round" stroke-width="1"/>
    <path id="Path_3756" data-name="Path 3756" d="M3.5,9.145V1.478a.6.6,0,0,1,.373-.53A.967.967,0,0,1,4.641.924l1.993.79L8.556.7a.96.96,0,0,1,.868,0l1.91,1.009L13.34.924A.967.967,0,0,1,14.1.951a.6.6,0,0,1,.372.527V9.145" transform="translate(0.215 -0.601)" fill="none" stroke="#fff" stroke-linecap="round" stroke-linejoin="round" stroke-width="1"/>
    <line id="Line_49" data-name="Line 49" x2="3.715" transform="translate(7.348 3.59)" fill="none" stroke="#fff" stroke-linecap="round" stroke-linejoin="round" stroke-width="1"/>
    <line id="Line_50" data-name="Line 50" x2="1.238" transform="translate(7.156 6.934)" fill="none" stroke="#fff" stroke-linecap="round" stroke-linejoin="round" stroke-width="1"/>
    <path id="Path_4046" data-name="Path 4046" d="M1.915,4.5c.782,0,1.415.372,1.415.83v5.933" transform="translate(15.5 0.328)" fill="none" stroke="#fff" stroke-linecap="round" stroke-linejoin="round" stroke-width="1"/>
    <g id="app-window-user" transform="translate(-1 3.752)">
      <path id="Path_4051" data-name="Path 4051" d="M13.682,26.182A.682.682,0,0,1,13,25.5a7.5,7.5,0,1,1,15,0,.682.682,0,0,1-.682.682ZM26.6,24.818a6.136,6.136,0,0,0-12.2,0Z" transform="translate(0 2.726)" fill="#fff"/>
      <path id="Path_4052" data-name="Path 4052" d="M19.773,20.049a4.773,4.773,0,1,1,4.773-4.773A4.778,4.778,0,0,1,19.773,20.049Zm0-8.182a3.409,3.409,0,1,0,3.409,3.409A3.413,3.413,0,0,0,19.773,11.868Z" transform="translate(0.727)" fill="#fff"/>
    </g>
    <line id="Line_104" data-name="Line 104" x2="5" transform="translate(4.5 32.66)" fill="none" stroke="#fff" stroke-linecap="round" stroke-width="1"/>
  </g>
</svg>
