<svg id="passel_" data-name="passel+" xmlns="http://www.w3.org/2000/svg" width="32.525" height="32.525" viewBox="0 0 32.525 32.525">
  <g id="passel_plus">
    <path id="Shape" d="M55.842,64.684a8.842,8.842,0,1,1,8.842-8.842A8.852,8.852,0,0,1,55.842,64.684Zm0-16.323a7.482,7.482,0,1,0,7.482,7.482A7.49,7.49,0,0,0,55.842,48.36Z" transform="translate(-32.158 -32.158)" fill="#fff"/>
    <path id="Path" d="M64.737,69.473a.677.677,0,0,1-.677-.677V65.413H60.677a.677.677,0,1,1,0-1.353H64.06V60.677a.677.677,0,1,1,1.353,0V64.06H68.8a.677.677,0,1,1,0,1.353H65.413V68.8A.678.678,0,0,1,64.737,69.473Z" transform="translate(-41.053 -41.053)" fill="#fff"/>
    <circle id="Oval" cx="0.947" cy="0.947" r="0.947" transform="translate(16.421 5.684)" fill="#fff"/>
    <g id="Group" transform="translate(3.474 4.737)">
      <path id="Shape-2" data-name="Shape" d="M.474,28A.488.488,0,0,1,0,27.5,5.367,5.367,0,0,1,5.21,22a5.367,5.367,0,0,1,5.21,5.5.488.488,0,0,1-.474.5Zm8.973-1A4.352,4.352,0,0,0,5.21,23,4.352,4.352,0,0,0,.974,27Z" transform="translate(0 -15.053)" fill="#fff"/>
      <path id="Shape-3" data-name="Shape" d="M10.316,6.631a3.316,3.316,0,1,1,3.316-3.316A3.319,3.319,0,0,1,10.316,6.631Zm0-5.684a2.368,2.368,0,1,0,2.368,2.368A2.371,2.371,0,0,0,10.316.947Z" transform="translate(-4.79)" fill="#fff"/>
    </g>
    <path id="Path-2" data-name="Path" d="M61.947,19.895A.947.947,0,0,1,61.882,18l.042,0a.947.947,0,1,1,.023,1.895Z" transform="translate(-41.737 -12.316)" fill="#fff"/>
    <path id="Path-3" data-name="Path" d="M69.947,19.895a.947.947,0,1,1,.947-.948A.948.948,0,0,1,69.947,19.895Z" transform="translate(-47.211 -12.316)" fill="#fff"/>
    <path id="Shape-4" data-name="Shape" d="M1.353,5.429V19.662A2.034,2.034,0,0,0,3.383,21.7H11.5a.678.678,0,0,1,0,1.356H3.383A3.391,3.391,0,0,1,0,19.662V3.39A3.39,3.39,0,0,1,3.383,0H25.037A3.391,3.391,0,0,1,28.42,3.39v8.136a.677.677,0,1,1-1.353,0v-6.1m0,0V3.39a2.034,2.034,0,0,0-2.03-2.034H3.383A2.034,2.034,0,0,0,1.353,3.39V5.429" fill="#fff"/>
  </g>
</svg>
