<svg id="phone-action-cart-1" xmlns="http://www.w3.org/2000/svg" width="27.664" height="33.195" viewBox="0 0 27.664 33.195">
  <ellipse id="Ellipse_22" data-name="Ellipse 22" cx="0.909" cy="0.909" rx="0.909" ry="0.909" transform="translate(8.732 29.258)" fill="#3c3951"/>
  <path id="Path_3603" data-name="Path 3603" d="M5.642,33.2A3.558,3.558,0,0,1,2,29.737V3.458A3.557,3.557,0,0,1,5.642,0h7.283a.711.711,0,0,1,.728.692.711.711,0,0,1-.728.692H5.642A2.135,2.135,0,0,0,3.457,3.458V26.279h17.48V21.438a.729.729,0,0,1,1.457,0v8.3A3.558,3.558,0,0,1,18.752,33.2ZM3.457,29.737a2.135,2.135,0,0,0,2.185,2.075h13.11a2.135,2.135,0,0,0,2.185-2.075V27.663H3.457Z" transform="translate(-2)" fill="#3c3951"/>
  <path id="Path_3604" data-name="Path 3604" d="M13.817,14.634a1.817,1.817,0,1,1,1.817-1.817A1.819,1.819,0,0,1,13.817,14.634Zm0-2.423a.606.606,0,1,0,.606.606A.606.606,0,0,0,13.817,12.211Z" transform="translate(2.134 4.484)" fill="#3c3951"/>
  <path id="Path_3605" data-name="Path 3605" d="M17.817,14.634a1.817,1.817,0,1,1,1.817-1.817A1.819,1.819,0,0,1,17.817,14.634Zm0-2.423a.606.606,0,1,0,.606.606A.606.606,0,0,0,17.817,12.211Z" transform="translate(3.788 4.484)" fill="#3c3951"/>
  <path id="Path_3606" data-name="Path 3606" d="M13.029,12.115a.6.6,0,0,1-.574-.414L10.031,4.432a.605.605,0,0,1,.574-.8H22.463L23.348.443a.608.608,0,0,1,.746-.422.607.607,0,0,1,.423.746S23.5,4.415,23.5,4.435l-2.009,7.236a.61.61,0,0,1-.585.443ZM20.444,10.9l1.683-6.057H11.448l2.02,6.057Z" transform="translate(3.125)" fill="#3c3951"/>
</svg>
