<svg xmlns="http://www.w3.org/2000/svg" width="48.876" height="32.56" viewBox="0 0 48.876 32.56">
    <defs>
        <style>
            .cls-1,.cls-2{fill:#02021d}.cls-2{fill-rule:evenodd}
        </style>
    </defs>
    <g id="Page-1" transform="translate(0 -.04)">
        <g id="Desktop-HD" transform="translate(0 .04)">
            <g id="pgpal-logo">
                <path id="Path" d="M20.981 42.9A16.986 16.986 0 0 1 12 40.334l1.067-1.7A14.966 14.966 0 0 0 35.933 26h2.014a16.949 16.949 0 0 1-16.966 16.9z" class="cls-1" transform="translate(-4.759 -10.336)"/>
                <path id="Rectangle" d="M0 0H6.638V1.81H0z" class="cls-1" transform="translate(25.947 15.061)"/>
                <path id="Path-2" d="M15.949 32.981a15.99 15.99 0 0 1 0-31.981v.443a15.547 15.547 0 1 0 15.593 15.551c0-.154 0-.314-.01-.492H28.14v-.443h3.813l.01.209c.01.272.017.5.017.723a16.027 16.027 0 0 1-16.031 15.99z" class="cls-1" transform="translate(0 -.421)"/>
                <g id="Group" transform="translate(33.447 15.894)">
                    <path id="Shape" d="M3.86 1.092a2.626 2.626 0 0 1 1.94.825 2.706 2.706 0 0 1 .8 1.97 2.713 2.713 0 0 1-.8 1.973 2.639 2.639 0 0 1-1.945.825A2.645 2.645 0 0 1 1.782 5.7c-.01-.02-.03-.027-.063-.017a.065.065 0 0 0-.023.041v2.707h-.574V3.846a2.654 2.654 0 0 1 .8-1.94 2.622 2.622 0 0 1 1.938-.814zm0 .591a2.068 2.068 0 0 0-1.533.642A2.155 2.155 0 0 0 1.7 3.887a2.154 2.154 0 0 0 .631 1.551 2.062 2.062 0 0 0 1.529.642 2.047 2.047 0 0 0 1.533-.642 2.136 2.136 0 0 0 .637-1.551 2.148 2.148 0 0 0-.637-1.561 2.059 2.059 0 0 0-1.533-.643z" class="cls-1" transform="translate(-.704 -.663)"/>
                    <path id="Shape-2" d="M1.846 8.579H.429V3.564a3.087 3.087 0 0 1 .926-2.244A3.032 3.032 0 0 1 3.588.381a3.028 3.028 0 0 1 2.24.95A3.139 3.139 0 0 1 6.755 3.6a3.139 3.139 0 0 1-.926 2.274 3.047 3.047 0 0 1-2.24.95 2.991 2.991 0 0 1-1.742-.534v2.289zM3.585 1.83a1.648 1.648 0 0 0-1.235.517A1.725 1.725 0 0 0 1.843 3.6a1.729 1.729 0 0 0 .511 1.254 1.645 1.645 0 0 0 1.231.514 1.647 1.647 0 0 0 1.235-.51 1.709 1.709 0 0 0 .518-1.25 1.718 1.718 0 0 0-.514-1.257 1.636 1.636 0 0 0-1.239-.521zM1.269 4.77v.24l.046-.017a.478.478 0 0 1 .066-.017c-.039-.067-.076-.135-.112-.206z" class="cls-1" transform="translate(-.429 -.381)"/>
                </g>
                <g id="Group-2" transform="translate(40.131 15.89)">
                    <path id="Shape-3" d="M3.942 1.072a2.65 2.65 0 0 1 1.945.81 2.617 2.617 0 0 1 .8 1.935v2.668H6.1v-.862c0-.007-.01-.017-.03-.04a.037.037 0 0 0-.046.017 2.668 2.668 0 0 1-2.084.966A2.624 2.624 0 0 1 2 5.755a2.635 2.635 0 0 1-.8-1.938A2.628 2.628 0 0 1 2 1.882a2.63 2.63 0 0 1 1.942-.81zm0 .581a2.086 2.086 0 0 0-1.533.631 2.1 2.1 0 0 0-.631 1.533 2.1 2.1 0 0 0 .631 1.523 2.081 2.081 0 0 0 1.533.631 2.023 2.023 0 0 0 1.524-.631A2.079 2.079 0 0 0 6.1 3.817a2.09 2.09 0 0 0-.637-1.533 2.077 2.077 0 0 0-1.521-.631z" class="cls-1" transform="translate(-.783 -.651)"/>
                    <path id="Shape-4" d="M3.665 6.706a3.056 3.056 0 0 1-2.237-.933A3.059 3.059 0 0 1 .506 3.54a3.065 3.065 0 0 1 .923-2.234A3.043 3.043 0 0 1 3.662.374a3.055 3.055 0 0 1 2.24.933 3.031 3.031 0 0 1 .923 2.233v3.087H5.4v-.445a2.986 2.986 0 0 1-1.735.524zm0-4.908a1.663 1.663 0 0 0-1.235.508 1.678 1.678 0 0 0-.507 1.234 1.682 1.682 0 0 0 .511 1.231 1.66 1.66 0 0 0 1.231.5 1.6 1.6 0 0 0 1.221-.5 1.667 1.667 0 0 0 .521-1.231 1.672 1.672 0 0 0-.514-1.235A1.649 1.649 0 0 0 3.665 1.8zm2.2 3.093c.01 0 .02 0 .03.007l.093.023v-.249a1.817 1.817 0 0 1-.122.219z" class="cls-1" transform="translate(-.506 -.374)"/>
                </g>
                <g id="Group-3" transform="translate(47.197 14.07)">
                    <path id="Path-3" d="M1.609 8.284H.972V1.07h.637z" class="cls-1" transform="translate(-.516 -.64)"/>
                    <path id="Rectangle-2" d="M0 0H1.553V8.069H0z" class="cls-1"/>
                </g>
                <path id="Path-4" d="M14.006 49.659l.011.358A15.56 15.56 0 0 1 11 48.51l.011-1.51z" class="cls-1" transform="translate(-4.362 -18.664)"/>
                <path id="Path-5" d="M66.432 14h5.773c.239 0 .432.274.432.6 0 .334-.2.6-.432.6h-5.773c-.239 0-.432-.274-.432-.6 0-.334.193-.6.432-.6z" class="cls-2" transform="translate(-26.175 -5.577)"/>
                <path id="Rectangle-3" d="M0 0h1.091v1.091H0z" class="cls-2" transform="rotate(-45 24.793 -32.124)"/>
                <path id="Path-6" d="M49 18.607l.605.6.6-.6-.6-.607z" class="cls-2" transform="translate(-19.433 -7.163)"/>
                <path id="Rectangle-4" d="M0 0h1.683v1.683H0z" class="cls-2" transform="rotate(-45 26.92 -38.617)"/>
                <path id="Path-7" d="M53.6 7.207l.609-.611L53.6 6l-.6.6z" class="cls-2" transform="translate(-21.019 -2.404)"/>
                <path id="Path-8" d="M60.608 4.207l.6-.608-.6-.6L60 3.6z" class="cls-2" transform="translate(-23.795 -1.214)"/>
                <path id="Path-9" d="M47.6 2l.609.6-.609.609L47 2.6z" class="cls-2" transform="translate(-18.64 -.818)"/>
                <path id="Rectangle-5" d="M0 0h.8v.8H0z" class="cls-2" transform="rotate(-45 19.358 -35.231)"/>
                <path id="Path-10" d="M60.907 18l-.907.9.907.911.9-.911z" class="cls-2" transform="translate(-23.795 -7.163)"/>
                <path id="Rectangle-6" d="M0 0h2.2v2.2H0z" class="cls-2" transform="rotate(-45 20.568 -31.351)"/>
                <path id="Rectangle-7" d="M0 0h1.683v1.683H0z" class="cls-2" transform="rotate(-45 28.02 -34.552)"/>
                <path id="Path-11" d="M69.438 1h-11.31l.5.491-.628.617h.721l.835-.821.835.821h9.048a1.306 1.306 0 0 1 .928.389 1.384 1.384 0 0 1 .4 1.175h-10.3l1.356 1.333-.685.673h9.629v4.391a1.326 1.326 0 0 1-1.324 1.3h-8.5l.7.673-.428.421h8.238a2.417 2.417 0 0 0 2.437-2.4V3.409A2.43 2.43 0 0 0 69.438 1z" class="cls-2" transform="translate(-23.002 -.421)"/>
                <path id="Path-12" d="M58.5 6h-.782l-.115.1-1.53 1.268v-.009L56 7.418l.487.392H58.8l-.73-.61.947-.78z" class="cls-2" transform="translate(-22.209 -2.404)"/>
                <path id="Rectangle-8" d="M0 0h1.282v1.282H0z" class="cls-2" transform="rotate(-45 18.052 -39.45)"/>
                <path id="Rectangle-9" d="M0 0h1.683v1.683H0z" class="cls-2" transform="rotate(-45 24.406 -36.176)"/>
                <path id="Rectangle-10" d="M0 0h1.122v1.122H0z" class="cls-2" transform="rotate(-45 23.934 -41.748)"/>
                <g id="Group-4" transform="translate(6.782)">
                    <path id="Shape-5" d="M11.726.584a10.648 10.648 0 0 1 7.761 3.19 10.349 10.349 0 0 1 3.2 7.639 10.343 10.343 0 0 1-3.2 7.639 10.642 10.642 0 0 1-7.761 3.19 10.683 10.683 0 0 1-8.29-3.8c-.042-.08-.123-.1-.247-.063a.241.241 0 0 0-.092.153v12.533L.8 30.03V11.262A10.142 10.142 0 0 1 4 3.746 10.593 10.593 0 0 1 11.726.584zm0 2.3A8.383 8.383 0 0 0 5.609 5.37a8.248 8.248 0 0 0-2.515 6.045 8.28 8.28 0 0 0 2.515 6.015 8.377 8.377 0 0 0 6.117 2.486 8.321 8.321 0 0 0 6.117-2.486 8.161 8.161 0 0 0 2.547-6.014 8.2 8.2 0 0 0-2.547-6.046 8.321 8.321 0 0 0-6.117-2.485z" class="cls-1" transform="translate(-.462 -.256)"/>
                    <path id="Shape-6" d="M3.206 31.369L.24 30.03V11.047a10.491 10.491 0 0 1 3.3-7.75A10.959 10.959 0 0 1 11.5.04a11.017 11.017 0 0 1 8 3.288 10.709 10.709 0 0 1 3.3 7.872 10.7 10.7 0 0 1-3.3 7.873 11.017 11.017 0 0 1-8 3.288 10.99 10.99 0 0 1-8.29-3.647v12.655zM.91 29.6l1.626.732V18.316a.568.568 0 0 1 .19-.387l.056-.056.074-.024a.509.509 0 0 1 .628.181A10.392 10.392 0 0 0 11.5 21.7a10.379 10.379 0 0 0 7.524-3.092 10.076 10.076 0 0 0 3.1-7.405 10.076 10.076 0 0 0-3.1-7.405A10.366 10.366 0 0 0 11.5.7a10.317 10.317 0 0 0-7.493 3.067 9.868 9.868 0 0 0-3.1 7.283V29.6zm10.59-9.572a8.738 8.738 0 0 1-6.35-2.584A8.627 8.627 0 0 1 2.536 11.2a8.6 8.6 0 0 1 2.61-6.275A8.738 8.738 0 0 1 11.5 2.338a8.67 8.67 0 0 1 6.353 2.583A8.546 8.546 0 0 1 20.5 11.2a8.512 8.512 0 0 1-2.642 6.248 8.656 8.656 0 0 1-6.358 2.58zM11.5 3a8.073 8.073 0 0 0-5.874 2.389A7.965 7.965 0 0 0 3.21 11.2a7.989 7.989 0 0 0 2.42 5.78 8.078 8.078 0 0 0 5.877 2.385 8.01 8.01 0 0 0 5.877-2.388 7.872 7.872 0 0 0 2.448-5.78 7.9 7.9 0 0 0-2.448-5.808A8.054 8.054 0 0 0 11.5 3z" class="cls-1" transform="translate(-.24 -.04)"/>
                </g>
                <path id="Path-13" d="M58.414 18h-1.127l-1.126 1.056h.008l-.169.151h2.108l-.5-.464z" class="cls-2" transform="translate(-22.209 -7.163)"/>
            </g>
        </g>
    </g>
</svg>
