<svg xmlns="http://www.w3.org/2000/svg" width="24" height="20.919" viewBox="0 0 24 20.919">
  <g id="mobile-phone-2" transform="translate(0.5 0.509)">
    <path id="Path_4031" data-name="Path 4031" d="M21,2.955a3.186,3.186,0,0,1,2.5,3v2a2.015,2.015,0,0,1-2,2h-3a2.016,2.016,0,0,1-2-2v-1.5a46.029,46.029,0,0,0-9,0v1.5a2.016,2.016,0,0,1-2,2h-3a2.015,2.015,0,0,1-2-2v-2a3.186,3.186,0,0,1,2.5-3,44.979,44.979,0,0,1,18,0Z" transform="translate(-0.5 -2.045)" fill="none" stroke="#3d467b" stroke-linecap="round" stroke-linejoin="round" stroke-width="1"/>
    <path id="Path_4032" data-name="Path 4032" d="M21.5,20.955a1,1,0,0,1-1,1H3.5a1,1,0,0,1-1-1v-2a8.023,8.023,0,0,1,8-8h3a8.023,8.023,0,0,1,8,8Z" transform="translate(-0.5 -2.045)" fill="none" stroke="#3d467b" stroke-linecap="round" stroke-linejoin="round" stroke-width="1"/>
    <line id="Line_100" data-name="Line 100" y2="2" transform="translate(10 6.91)" fill="none" stroke="#3d467b" stroke-linecap="round" stroke-linejoin="round" stroke-width="1"/>
    <line id="Line_101" data-name="Line 101" y2="2" transform="translate(13 6.91)" fill="none" stroke="#3d467b" stroke-linecap="round" stroke-linejoin="round" stroke-width="1"/>
    <circle id="Ellipse_45" data-name="Ellipse 45" cx="3.5" cy="3.5" r="3.5" transform="translate(8 10.91)" stroke-width="1" stroke="#3d467b" stroke-linecap="round" stroke-linejoin="round" fill="none"/>
  </g>
</svg>
