<svg xmlns="http://www.w3.org/2000/svg" width="24.019" height="24.012" viewBox="0 0 24.019 24.012">
  <g id="phone-circle" transform="translate(0.515 0.511)">
    <path id="Path_4225" data-name="Path 4225" d="M10.227,9.028a1.55,1.55,0,0,0,.115-2.181L8.792,5.3a1.548,1.548,0,0,0-2.181.115l-.944.943a2.383,2.383,0,0,0-.444,2.926,30.614,30.614,0,0,0,9.5,9.5,2.384,2.384,0,0,0,2.925-.443l.944-.944a1.549,1.549,0,0,0,.114-2.182l-1.549-1.549a1.549,1.549,0,0,0-2.18.114l-.575.574A31.261,31.261,0,0,1,9.653,9.6Z" transform="translate(-0.5 -0.5)" fill="none" stroke="#ffcbf3" stroke-linecap="round" stroke-linejoin="round" stroke-width="1"/>
    <path id="Path_4226" data-name="Path 4226" d="M18,18c.5.5,1.56,5.5-6,5.5a11.5,11.5,0,1,1,9.488-5" transform="translate(-0.5 -0.5)" fill="none" stroke="#ffcbf3" stroke-linecap="round" stroke-linejoin="round" stroke-width="1"/>
  </g>
</svg>
