<svg id="pin-location-2" xmlns="http://www.w3.org/2000/svg" width="19" height="19" viewBox="0 0 19 19">
  <path id="Path_4044" data-name="Path 4044" d="M10.563,16.625a.4.4,0,0,1-.4-.4V7.1a3.563,3.563,0,1,1,.792,0v9.13A.4.4,0,0,1,10.563,16.625Zm0-15.833a2.771,2.771,0,1,0,2.771,2.771A2.774,2.774,0,0,0,10.563.792Z" transform="translate(-1.458)" fill="rgba(255,255,255,0.75)"/>
  <path id="Path_4045" data-name="Path 4045" d="M9.5,22.968a43.531,43.531,0,0,1-6.083-.4C1.118,22.217,0,21.7,0,20.989c0-1.333,4.192-1.762,6.69-1.9h.029a.4.4,0,0,1,.015.791C2.591,20.107.963,20.763.8,21c.189.323,3.084,1.179,8.7,1.179,5.575,0,8.467-.842,8.7-1.186-.188-.254-2.085-.972-6.737-1.153a.4.4,0,0,1-.38-.411.4.4,0,0,1,.393-.38h.02c2.254.088,7.5.452,7.5,1.942,0,.712-1.118,1.228-3.417,1.576A43.531,43.531,0,0,1,9.5,22.968Z" transform="translate(0 -3.968)" fill="rgba(255,255,255,0.75)"/>
</svg>
