<svg id="plane_takeoff" xmlns="http://www.w3.org/2000/svg" width="37.579" height="26.557" viewBox="0 0 37.579 26.557">
  <path id="Path_4085" data-name="Path 4085" d="M16.208,30.217a1.59,1.59,0,0,1-1.49-2.15l3.433-9.153L8.369,22.827a1.59,1.59,0,0,1-1.718-.352L.689,16.512a1.592,1.592,0,0,1,.5-2.589l4.153-1.787a1.575,1.575,0,0,1,.627-.129,1.6,1.6,0,0,1,.715.17l4.113,2.062,6.786-2.952L10.361,8.3a1.592,1.592,0,0,1,0-2.943l3.8-1.576a1.593,1.593,0,0,1,1.218,0L25.366,7.9l6.848-2.979c.025-.011.053-.021.08-.03l.072-.029a3.953,3.953,0,0,1,1.447-.274,4.013,4.013,0,0,1,3.712,2.53,3.987,3.987,0,0,1-2.258,5.159l-7.2,2.681L21.954,27.181a1.607,1.607,0,0,1-.71.712l-4.326,2.161A1.625,1.625,0,0,1,16.208,30.217Zm3.32-13.507a.8.8,0,0,1,.747,1.075l-4.065,10.84,4.323-2.161,6.25-12.5a.792.792,0,0,1,.435-.39L34.7,10.788A2.358,2.358,0,0,0,36,9.525a2.389,2.389,0,0,0-3.059-3.181l-.086.035a.615.615,0,0,1-.072.027l-21.7,9.442a.785.785,0,0,1-.317.065.819.819,0,0,1-.357-.083L5.966,13.6,1.815,15.387,7.776,21.35l11.457-4.583A.776.776,0,0,1,19.528,16.71ZM10.971,6.83,19.61,10.4l3.724-1.619L14.773,5.253Z" transform="translate(-0.221 -3.661)" fill="#fff"/>
</svg>
