<svg xmlns="http://www.w3.org/2000/svg" width="36.541" height="28.012" viewBox="0 0 36.541 28.012">
  <g id="Component_71_1" data-name="Component 71 – 1" transform="translate(0)">
    <g id="Group_1174" data-name="Group 1174" transform="translate(0)" opacity="0.398">
      <g id="Group_982" data-name="Group 982" transform="translate(0 0)">
        <path id="Path_3633" data-name="Path 3633" d="M4.451,34.683A4.452,4.452,0,0,1,0,30.236V12.447A4.451,4.451,0,0,1,4.451,8H31.134a4.452,4.452,0,0,1,4.447,4.447V30.236a4.453,4.453,0,0,1-4.447,4.447Zm0-24.9a2.672,2.672,0,0,0-2.668,2.668V30.236A2.672,2.672,0,0,0,4.451,32.9H31.134A2.672,2.672,0,0,0,33.8,30.236V12.447a2.672,2.672,0,0,0-2.668-2.668Z" transform="translate(-0.004 -8)" fill="#fff"/>
        <path id="Path_3635" data-name="Path 3635" d="M2.929,17.851a.925.925,0,1,1,0-1.851h9.254a.925.925,0,1,1,0,1.851Z" transform="translate(1.698 -4.627)" fill="#fff"/>
        <path id="Path_3636" data-name="Path 3636" d="M2.929,19.851a.925.925,0,1,1,0-1.851h7.4a.925.925,0,1,1,0,1.851Z" transform="translate(1.698 -2.807)" fill="#fff"/>
        <path id="Path_3796" data-name="Path 3796" d="M4.28,17.66C3.024,17.66,2,17.288,2,16.83S3.024,16,4.28,16H27.04c1.256,0,2.276.372,2.276.83s-1.02.83-2.276.83Z" transform="translate(1.698 -9.952)" fill="#fff"/>
        <path id="Subtraction_15" data-name="Subtraction 15" d="M10397,18408a9,9,0,1,1,9-9A9.01,9.01,0,0,1,10397,18408Zm-4.07-10.367a.929.929,0,1,0,0,1.857h3.729l.064,3.725a.918.918,0,0,0,.924.91h.019a.928.928,0,0,0,.91-.943l-.064-3.691h3.7a.929.929,0,0,0,0-1.857h-3.728l-.065-3.723a.923.923,0,0,0-.932-.914h-.011a.927.927,0,0,0-.91.941l.065,3.7Z" transform="translate(-10369.457 -18379.988)" fill="#fff"/>
      </g>
    </g>
  </g>
</svg>
