<svg xmlns="http://www.w3.org/2000/svg" width="24.475" height="25.519" viewBox="0 0 24.475 25.519">
  <g id="rain-umbrella" transform="translate(0.75 0.75)">
    <path id="Path_4513" data-name="Path 4513" d="M12.487,14.5c0-1.1-1.4-2-3.133-2s-3.133.9-3.133,2a2.372,2.372,0,0,0-2.611-2A2.372,2.372,0,0,0,1,14.5V14A11.314,11.314,0,0,1,12.487,2.5,11.314,11.314,0,0,1,23.975,14v.5a2.372,2.372,0,0,0-2.611-2,2.372,2.372,0,0,0-2.611,2c0-1.1-1.4-2-3.133-2S12.487,13.4,12.487,14.5Z" transform="translate(-1 -0.5)" fill="none" stroke="#9f9aa7" stroke-linecap="round" stroke-linejoin="round" stroke-width="1.5"/>
    <line id="Line_308" data-name="Line 308" y1="2" transform="translate(11)" fill="none" stroke="#9f9aa7" stroke-linecap="round" stroke-linejoin="round" stroke-width="1.5"/>
    <line id="Line_309" data-name="Line 309" y2="7.5" transform="translate(11.487 15.019)" fill="none" stroke="#9f9aa7" stroke-linecap="round" stroke-linejoin="round" stroke-width="1.5"/>
    <path id="Path_4514" data-name="Path 4514" d="M15,22a1.5,1.5,0,0,1-3,0v-.5" transform="translate(-3.59 0.519)" fill="none" stroke="#9f9aa7" stroke-linecap="round" stroke-linejoin="round" stroke-width="1.5"/>
  </g>
</svg>
