<svg xmlns="http://www.w3.org/2000/svg" width="17.75" height="16.924" viewBox="0 0 17.75 16.924">
  <g id="rating-star-1" transform="translate(0 0)">
    <path id="Path_3841" data-name="Path 3841" d="M8.758,21.886a1.248,1.248,0,0,1-.362-.055,1.2,1.2,0,0,1-.825-1.352l.8-4.619L4.987,12.591a1.206,1.206,0,0,1-.028-1.7,1.219,1.219,0,0,1,.693-.354l4.675-.676,2.094-4.22a1.2,1.2,0,0,1,1.606-.555,1.213,1.213,0,0,1,.558.558l2.082,4.21,4.673.676a1.2,1.2,0,0,1,.665,2.055l-3.382,3.269.8,4.619a1.2,1.2,0,0,1-.983,1.39,1.141,1.141,0,0,1-.2.018h0a1.2,1.2,0,0,1-.556-.137L13.5,19.561,9.314,21.749A1.2,1.2,0,0,1,8.758,21.886Zm2.506-11.211a.6.6,0,0,1-.452.328l-4.988.722,3.61,3.489a.6.6,0,0,1,.174.534l-.852,4.933,4.465-2.333a.59.59,0,0,1,.278-.069.6.6,0,0,1,.278.067l4.458,2.327-.852-4.933a.6.6,0,0,1,.174-.534l3.61-3.489L16.182,11a.6.6,0,0,1-.452-.328L13.5,6.166Z" transform="translate(-4.621 -4.962)" fill="#fff"/>
  </g>
</svg>
