<svg xmlns="http://www.w3.org/2000/svg" width="41.115" height="32.654" viewBox="0 0 41.115 32.654">
  <g id="receipt_police" transform="translate(0.5 0.5)">
    <line id="Line_126" data-name="Line 126" x2="8.151" transform="translate(4.003 8.023)" fill="none" stroke="#fff" stroke-linecap="round" stroke-linejoin="round" stroke-width="1"/>
    <line id="Line_127" data-name="Line 127" x2="5.434" transform="translate(4.003 12.099)" fill="none" stroke="#fff" stroke-linecap="round" stroke-linejoin="round" stroke-width="1"/>
    <line id="Line_128" data-name="Line 128" x2="6.793" transform="translate(4.003 16.174)" fill="none" stroke="#fff" stroke-linecap="round" stroke-linejoin="round" stroke-width="1"/>
    <line id="Line_129" data-name="Line 129" x2="4.076" transform="translate(4.003 20.25)" fill="none" stroke="#fff" stroke-linecap="round" stroke-linejoin="round" stroke-width="1"/>
    <line id="Line_130" data-name="Line 130" x2="1.359" transform="translate(16.229 8.023)" fill="none" stroke="#fff" stroke-linecap="round" stroke-linejoin="round" stroke-width="1"/>
    <line id="Line_131" data-name="Line 131" x2="1.359" transform="translate(16.229 12.099)" fill="none" stroke="#fff" stroke-linecap="round" stroke-linejoin="round" stroke-width="1"/>
    <line id="Line_132" data-name="Line 132" x2="1.359" transform="translate(16.229 16.174)" fill="none" stroke="#fff" stroke-linecap="round" stroke-linejoin="round" stroke-width="1"/>
    <path id="Path_4090" data-name="Path 4090" d="M5129.651-5071.187v-13.393l-2.739,2.276-2.611-2.849-2.748,2.849-2.792-2.849-2.461,2.849-2.853-2.849-2.939,2.849-2.436-2.276v29.763h0l2.793-1.837,2.582,2.577,2.853-2.577,2.9,2.577,2.921-2.577,2.555,2.577,1.655-1.227" transform="translate(-5108.073 5085.153)" fill="none" stroke="#fff" stroke-linecap="round" stroke-linejoin="round" stroke-width="1"/>
    <g id="police-hat-1" transform="translate(17.468 13.83)">
      <path id="Path_4087" data-name="Path 4087" d="M11.574,20.823c-7.937,0-9.546-4.451-9.618-4.665a.209.209,0,0,1-.007-.023A.449.449,0,0,1,1.93,16V13.733L.154,10.991a1.026,1.026,0,0,1-.081-.154A.964.964,0,0,1,.6,9.578a9.289,9.289,0,0,0,4.192-4.24A.975.975,0,0,1,5.3,4.879l5.929-2.315a.982.982,0,0,1,.35-.065.97.97,0,0,1,.343.063l5.934,2.316a.965.965,0,0,1,.5.438,9.34,9.34,0,0,0,4.232,4.267.879.879,0,0,1,.124.068.964.964,0,0,1,.287,1.333l-1.776,2.748V16a.481.481,0,0,1-.025.152v0h0C21.127,16.349,19.531,20.823,11.574,20.823ZM3.09,16.289c.642,1.091,2.739,3.571,8.484,3.571,3.821,0,5.993-1.109,7.142-2.04a5.669,5.669,0,0,0,1.344-1.53,25.956,25.956,0,0,0-7.971-1.257c-.169,0-.338,0-.506,0s-.346,0-.514,0A25.935,25.935,0,0,0,3.09,16.289Zm-.2-.95a26.952,26.952,0,0,1,8.175-1.271c.171,0,.342,0,.513,0s.329,0,.5,0a26.938,26.938,0,0,1,8.172,1.271V13.811a11.466,11.466,0,0,0-4.882-1.441.482.482,0,0,1,.058-.961.465.465,0,0,1,.063,0,13.209,13.209,0,0,1,5.123,1.474l1.567-2.425A10.316,10.316,0,0,1,17.5,5.779L11.572,3.463,5.647,5.778A10.257,10.257,0,0,1,.994,10.454l-.03.017,1.567,2.416a13.213,13.213,0,0,1,5.125-1.475.424.424,0,0,1,.062,0,.482.482,0,0,1,.476.422.481.481,0,0,1-.419.538A11.47,11.47,0,0,0,2.894,13.81v1.529Z" transform="translate(0 -2.5)" fill="#fff"/>
      <path id="Path_4088" data-name="Path 4088" d="M14.028,12.718a.491.491,0,0,1-.3-.1l-1.874-1.471L9.984,12.6a.482.482,0,0,1-.76-.509l.643-2.311L8.162,8.256a.482.482,0,0,1,.321-.842h2.089l.841-2.028a.483.483,0,0,1,.891,0l.841,2.028h2.089a.482.482,0,0,1,.32.842L13.849,9.773l.643,2.335a.481.481,0,0,1-.2.529A.473.473,0,0,1,14.028,12.718Zm-2.17-2.667a.486.486,0,0,1,.3.1l1.018.8L12.84,9.74a.478.478,0,0,1,.144-.488l.982-.874H12.822a.481.481,0,0,1-.446-.3L11.858,6.83l-.519,1.251a.478.478,0,0,1-.445.3H9.748l.985.878a.481.481,0,0,1,.144.489l-.334,1.2,1.02-.791A.482.482,0,0,1,11.859,10.052Z" transform="translate(-0.285 -2.592)" fill="#fff"/>
    </g>
  </g>
</svg>
