<svg id="recycling-bin" xmlns="http://www.w3.org/2000/svg" width="17.126" height="21.072" viewBox="0 0 17.126 21.072">
  <path id="Path_4145" data-name="Path 4145" d="M60.14,3.946h-.316V3.3a1,1,0,0,0-1-1H55.135L54.685.725A1,1,0,0,0,53.724,0H50.112a1,1,0,0,0-.961.725L48.7,2.3H45.012a1,1,0,0,0-1,1v.645H43.7a.341.341,0,1,0,0,.683h.671l1.194,14.919a1.665,1.665,0,0,0,1.652,1.525h9.41a1.665,1.665,0,0,0,1.652-1.525L59.468,4.629h.671a.341.341,0,0,0,0-.683ZM49.808.912a.318.318,0,0,1,.3-.229h3.612a.318.318,0,0,1,.3.229l.4,1.39H49.411Zm-4.8,2.073H58.824a.317.317,0,0,1,.316.316v.645H44.7V3.3A.317.317,0,0,1,45.012,2.985ZM57.594,19.493a.979.979,0,0,1-.971.9h-9.41a.979.979,0,0,1-.971-.9L45.053,4.629H58.783Z" transform="translate(-43.355)" fill="#fc6262"/>
  <path id="Path_4146" data-name="Path 4146" d="M224.341,143.572a.341.341,0,0,0,.341-.341V130.405a.341.341,0,1,0-.683,0v12.826A.341.341,0,0,0,224.341,143.572Z" transform="translate(-215.778 -124.144)" fill="#fc6262"/>
  <path id="Path_4147" data-name="Path 4147" d="M145.173,143.249a.341.341,0,0,0,.341.324h.018a.341.341,0,0,0,.323-.358l-.658-12.826a.341.341,0,1,0-.682.035Z" transform="translate(-139.911 -124.144)" fill="#fc6262"/>
  <path id="Path_4148" data-name="Path 4148" d="M289.355,143.572h.018a.341.341,0,0,0,.341-.324l.658-12.826a.341.341,0,0,0-.682-.035l-.658,12.826A.341.341,0,0,0,289.355,143.572Z" transform="translate(-277.85 -124.144)" fill="#fc6262"/>
</svg>
