<svg xmlns="http://www.w3.org/2000/svg" width="28.289" height="42.055" viewBox="0 0 28.289 42.055">
  <g id="road_sign" transform="translate(0 0.5)">
    <path id="Path_4091" data-name="Path 4091" d="M5.09,26.323a.588.588,0,0,1-.582-.686L6.865,11.493A.59.59,0,0,1,7.447,11a.675.675,0,0,1,.1.007.59.59,0,0,1,.486.679L5.671,25.831A.588.588,0,0,1,5.09,26.323Z" transform="translate(0.804 15.23)" fill="#fff"/>
    <path id="Path_4092" data-name="Path 4092" d="M19.447,26.323a.587.587,0,0,1-.581-.493L16.508,11.686a.59.59,0,0,1,.484-.678.544.544,0,0,1,.1-.008.588.588,0,0,1,.581.493l2.357,14.145a.589.589,0,0,1-.484.679A.643.643,0,0,1,19.447,26.323Z" transform="translate(2.949 15.23)" fill="#fff"/>
    <path id="Path_4093" data-name="Path 4093" d="M12.089,24.894A.59.59,0,0,1,11.5,24.3V19.589a.589.589,0,0,1,1.179,0V24.3A.59.59,0,0,1,12.089,24.894Z" transform="translate(2.055 16.66)" fill="#fff"/>
    <path id="Path_4094" data-name="Path 4094" d="M12.089,16.715a.59.59,0,0,1-.589-.589V12.589a.589.589,0,0,1,1.179,0v3.536A.59.59,0,0,1,12.089,16.715Z" transform="translate(2.055 15.409)" fill="#fff"/>
    <path id="Path_4095" data-name="Path 4095" d="M12.089,2.357a.59.59,0,0,1-.589-.589V.589a.589.589,0,0,1,1.179,0V1.768A.59.59,0,0,1,12.089,2.357Z" transform="translate(2.055 13.265)" fill="#fff"/>
    <path id="Path_4096" data-name="Path 4096" d="M24.663,18.859a1.175,1.175,0,0,1-1.162-.984l-1.016-6.088H5.8L4.789,17.874a1.174,1.174,0,0,1-1.162.985H1.179A1.18,1.18,0,0,1,0,17.681V7.072A1.181,1.181,0,0,1,1.179,5.894H8.946L10.031.474A.589.589,0,0,1,10.607,0a.557.557,0,0,1,.116.012A.589.589,0,0,1,11.185.7L10.149,5.894H18.14L17.1.7a.59.59,0,0,1,.462-.693A.56.56,0,0,1,17.682,0a.589.589,0,0,1,.576.474l1.084,5.42H27.11a1.18,1.18,0,0,1,1.179,1.179V17.681a1.179,1.179,0,0,1-1.179,1.179Zm-2.178-8.251a1.174,1.174,0,0,1,1.162.985l1.016,6.087H27.11V7.072H1.179V17.681H3.627l1.014-6.087A1.174,1.174,0,0,1,5.8,10.608Z" transform="translate(0 13.265)" fill="#fff"/>
    <g id="car-actions-wifi-1" transform="translate(2.5 3.054)">
      <path id="Path_4101" data-name="Path 4101" d="M18,2.623a9.539,9.539,0,0,0-12,0" fill="none" stroke="#fff" stroke-linecap="round" stroke-linejoin="round" stroke-width="1"/>
      <path id="Path_4102" data-name="Path 4102" d="M8.5,5.738a5.566,5.566,0,0,1,7,0" fill="none" stroke="#fff" stroke-linecap="round" stroke-linejoin="round" stroke-width="1"/>
      <path id="Path_4103" data-name="Path 4103" d="M23.429,4.177A12.164,12.164,0,0,0,6,4.177" transform="translate(-2.429 -3.554)" fill="none" stroke="#fff" stroke-linecap="round" stroke-linejoin="round" stroke-width="1"/>
    </g>
  </g>
</svg>
