<svg xmlns="http://www.w3.org/2000/svg" width="52.113" height="32.861" viewBox="0 0 52.113 32.861">
  <g id="scaner_barcode" transform="translate(-63.5 -181.194)">
    <g id="barcode-scan" transform="translate(65.601 181.194)">
      <path id="Path_4157" data-name="Path 4157" d="M.967,11.232A.967.967,0,0,1,0,10.266V6.4A2.9,2.9,0,0,1,2.9,3.5H6.766a.967.967,0,0,1,0,1.933H2.9a.967.967,0,0,0-.967.967v3.866A.967.967,0,0,1,.967,11.232Z" transform="translate(0 -3.5)" fill="#fff"/>
      <path id="Path_4158" data-name="Path 4158" d="M2.9,24.232a2.9,2.9,0,0,1-2.9-2.9V17.467a.967.967,0,0,1,1.933,0v3.866A.967.967,0,0,0,2.9,22.3H6.766a.967.967,0,0,1,0,1.933Z" transform="translate(0 8.629)" fill="#fff"/>
      <path id="Path_4159" data-name="Path 4159" d="M20.967,24.232a.967.967,0,0,1,0-1.933h3.866a.967.967,0,0,0,.967-.967V17.467a.967.967,0,1,1,1.933,0v3.866a2.9,2.9,0,0,1-2.9,2.9Z" transform="translate(18.66 8.629)" fill="#fff"/>
      <path id="Path_4160" data-name="Path 4160" d="M26.766,11.232a.967.967,0,0,1-.967-.967V6.4a.967.967,0,0,0-.967-.967H20.967a.967.967,0,0,1,0-1.933h3.866a2.9,2.9,0,0,1,2.9,2.9v3.866A.967.967,0,0,1,26.766,11.232Z" transform="translate(18.66 -3.5)" fill="#fff"/>
      <path id="Path_4161" data-name="Path 4161" d="M5.967,22.748A.967.967,0,0,1,5,21.781V9.217a.967.967,0,1,1,1.933,0V21.781A.967.967,0,0,1,5.967,22.748Z" transform="translate(4.665 0.932)" fill="#fff"/>
      <path id="Path_4162" data-name="Path 4162" d="M18.967,22.748A.967.967,0,0,1,18,21.781V9.217a.967.967,0,0,1,1.933,0V21.781A.967.967,0,0,1,18.967,22.748Z" transform="translate(16.794 0.932)" fill="#fff"/>
      <path id="Path_4163" data-name="Path 4163" d="M7.967,17.915A.967.967,0,0,1,7,16.949V9.217a.967.967,0,1,1,1.933,0v7.732A.967.967,0,0,1,7.967,17.915Z" transform="translate(6.531 0.932)" fill="#fff"/>
      <path id="Path_4164" data-name="Path 4164" d="M12.967,17.915A.967.967,0,0,1,12,16.949V9.217a.967.967,0,1,1,1.933,0v7.732A.967.967,0,0,1,12.967,17.915Z" transform="translate(11.196 0.932)" fill="#fff"/>
      <path id="Path_4165" data-name="Path 4165" d="M14.967,17.915A.967.967,0,0,1,14,16.949V9.217a.967.967,0,0,1,1.933,0v7.732A.967.967,0,0,1,14.967,17.915Z" transform="translate(13.062 0.932)" fill="#fff"/>
      <path id="Path_4166" data-name="Path 4166" d="M9.967,17.915A.967.967,0,0,1,9,16.949V9.217a.967.967,0,1,1,1.933,0v7.732A.967.967,0,0,1,9.967,17.915Z" transform="translate(8.397 0.932)" fill="#fff"/>
      <path id="Path_4167" data-name="Path 4167" d="M16.967,17.915A.967.967,0,0,1,16,16.949V9.217a.967.967,0,1,1,1.933,0v7.732A.967.967,0,0,1,16.967,17.915Z" transform="translate(14.928 0.932)" fill="#fff"/>
      <path id="Path_4168" data-name="Path 4168" d="M7.967,17.15A.967.967,0,0,1,7,16.183v-.967a.967.967,0,0,1,1.933,0v.967A.967.967,0,0,1,7.967,17.15Z" transform="translate(6.531 6.53)" fill="#fff"/>
      <path id="Path_4169" data-name="Path 4169" d="M9.967,17.15A.967.967,0,0,1,9,16.183v-.967a.967.967,0,0,1,1.933,0v.967A.967.967,0,0,1,9.967,17.15Z" transform="translate(8.397 6.53)" fill="#fff"/>
      <path id="Path_4170" data-name="Path 4170" d="M12.967,17.15A.967.967,0,0,1,12,16.183v-.967a.967.967,0,1,1,1.933,0v.967A.967.967,0,0,1,12.967,17.15Z" transform="translate(11.196 6.53)" fill="#fff"/>
      <path id="Path_4171" data-name="Path 4171" d="M14.967,17.15A.967.967,0,0,1,14,16.183v-.967a.967.967,0,0,1,1.933,0v.967A.967.967,0,0,1,14.967,17.15Z" transform="translate(13.062 6.53)" fill="#fff"/>
      <path id="Path_4172" data-name="Path 4172" d="M16.967,17.15A.967.967,0,0,1,16,16.183v-.967a.967.967,0,1,1,1.933,0v.967A.967.967,0,0,1,16.967,17.15Z" transform="translate(14.928 6.53)" fill="#fff"/>
    </g>
    <line id="Line_186" data-name="Line 186" x2="52.114" transform="translate(63.5 197.422)" fill="none" stroke="#fff" stroke-width="1.5"/>
  </g>
</svg>
