<svg xmlns="http://www.w3.org/2000/svg" width="21.241" height="21.242" viewBox="0 0 21.241 21.242">
  <g id="keyboard-arrow-previous" transform="translate(0 0.001)">
    <path id="Path_3808" data-name="Path 3808" d="M17.232,21.218a3.972,3.972,0,0,1-3.724-5.348l-6.2-3.1a4.023,4.023,0,0,1-1.559,1.4,3.931,3.931,0,0,1-1.773.421A3.981,3.981,0,0,1,2.194,7.045a3.919,3.919,0,0,1,1.768-.418A3.994,3.994,0,0,1,7.307,8.445l6.2-3.1a3.988,3.988,0,0,1,3.74-5.369,3.988,3.988,0,0,1,2.812,6.815A3.987,3.987,0,0,1,13.9,6.137l-6.193,3.1a3.972,3.972,0,0,1,0,2.745l6.193,3.1a3.929,3.929,0,0,1,3.336-1.816h0a3.979,3.979,0,1,1-.008,7.959Zm-2.766-5.354a3.092,3.092,0,1,0,4.155-1.395,3.113,3.113,0,0,0-1.383-.326l0-.221v.221a3.076,3.076,0,0,0-2.765,1.713A.036.036,0,0,1,14.466,15.865ZM3.966,7.511a3.095,3.095,0,0,0-.974,6.03,3.094,3.094,0,0,0,.983.161,3.058,3.058,0,0,0,1.379-.328A3.122,3.122,0,0,0,6.74,11.989l0-.009A3.095,3.095,0,0,0,3.966,7.511ZM17.245.862a3.1,3.1,0,0,0-2.774,4.495,3.1,3.1,0,1,0,4.973-3.58A3.079,3.079,0,0,0,17.252.863L17.244.642v.22Z" transform="translate(0.008 0.023)" fill="#fff"/>
  </g>
</svg>
