<svg xmlns="http://www.w3.org/2000/svg" width="21" height="24.01" viewBox="0 0 21 24.01">
  <g id="shield-check" transform="translate(0.5 0.5)">
    <path id="Path_4223" data-name="Path 4223" d="M17.5,7l-6.035,8.732-4.578-4.58" transform="translate(-2 -0.499)" fill="none" stroke="#ffcbf3" stroke-linecap="round" stroke-linejoin="round" stroke-width="1"/>
    <path id="Path_4224" data-name="Path 4224" d="M2,3.775v7.637A12.285,12.285,0,0,0,9.828,22.88l1.067.414a3.063,3.063,0,0,0,2.21,0l1.067-.414A12.285,12.285,0,0,0,22,11.412V3.775a1.536,1.536,0,0,0-.89-1.406A22.143,22.143,0,0,0,12,.5,22.143,22.143,0,0,0,2.89,2.369,1.536,1.536,0,0,0,2,3.775Z" transform="translate(-2 -0.499)" fill="none" stroke="#ffcbf3" stroke-linecap="round" stroke-linejoin="round" stroke-width="1"/>
  </g>
</svg>
