<svg id="sim-card" xmlns="http://www.w3.org/2000/svg" width="21.092" height="28.123" viewBox="0 0 21.092 28.123">
  <path id="Path_3607" data-name="Path 3607" d="M4.758,28.122A1.76,1.76,0,0,1,3,26.365V1.758A1.76,1.76,0,0,1,4.758,0H17.093a1.752,1.752,0,0,1,1.358.641l5.24,6.377a1.751,1.751,0,0,1,.4,1.117v18.23a1.76,1.76,0,0,1-1.758,1.758Zm0-26.951a.586.586,0,0,0-.586.586V26.365a.586.586,0,0,0,.586.586H22.334a.586.586,0,0,0,.586-.586V8.133a.579.579,0,0,0-.132-.369L17.546,1.385a.588.588,0,0,0-.452-.213H14.718v4.1a.586.586,0,1,1-1.172,0v-4.1H11.2v4.1a.586.586,0,0,1-1.172,0v-4.1H7.687v4.1a.586.586,0,0,1-1.172,0v-4.1Z" transform="translate(-3)" fill="#fff"/>
  <path id="Path_3608" data-name="Path 3608" d="M8.929,22.718A2.933,2.933,0,0,1,6,19.788V13.929A2.932,2.932,0,0,1,8.929,11h8.2a2.933,2.933,0,0,1,2.929,2.929v5.859a2.933,2.933,0,0,1-2.929,2.929Zm8.2-1.172a1.76,1.76,0,0,0,1.758-1.758V19.2H16.546v2.344Zm-1.758,0V12.172H10.687v9.374Zm-8.2-1.758a1.76,1.76,0,0,0,1.758,1.758h.586V19.2H7.172Zm11.718-1.758V15.687H16.546v2.344Zm-9.374,0V15.687H7.172v2.344Zm9.374-3.515v-.586a1.76,1.76,0,0,0-1.758-1.758h-.586v2.344Zm-9.374,0V12.172H8.929a1.76,1.76,0,0,0-1.758,1.758v.586Z" transform="translate(-2.485 1.889)" fill="#fff"/>
</svg>
