<svg id="single-neutral-phone-book" xmlns="http://www.w3.org/2000/svg" width="19.598" height="19.598" viewBox="0 0 19.598 19.598">
  <path id="Path_3838" data-name="Path 3838" d="M1.225,19.6A1.226,1.226,0,0,1,0,18.372V1.225A1.226,1.226,0,0,1,1.225,0h14.7a1.226,1.226,0,0,1,1.225,1.225h.408A2.051,2.051,0,0,1,19.6,3.265V16.331a2.051,2.051,0,0,1-2.041,2.041h-.409A1.226,1.226,0,0,1,15.923,19.6Zm14.7-.817a.408.408,0,0,0,.408-.408V1.225a.408.408,0,0,0-.408-.408H3.266V18.781ZM1.225.817a.408.408,0,0,0-.408.408V18.372a.408.408,0,0,0,.408.408H2.45V.817ZM17.556,17.556a1.232,1.232,0,0,0,1.225-1.226V14.29H17.148v3.266Zm1.225-4.083V10.207H17.148v3.266Zm0-4.083V6.124H17.148V9.39Zm0-4.083V3.266a1.232,1.232,0,0,0-1.226-1.225h-.407V5.308Z" fill="#fff"/>
  <path id="Path_3839" data-name="Path 3839" d="M6.408,16.9A.408.408,0,0,1,6,16.491a4.491,4.491,0,1,1,8.982,0,.408.408,0,0,1-.408.408Zm7.734-.817a3.675,3.675,0,0,0-7.3,0Z" transform="translate(-1.101 -2.201)" fill="#fff"/>
  <path id="Path_3840" data-name="Path 3840" d="M10.858,10.216a2.858,2.858,0,1,1,2.858-2.858A2.861,2.861,0,0,1,10.858,10.216Zm0-4.9A2.041,2.041,0,1,0,12.9,7.358,2.043,2.043,0,0,0,10.858,5.317Z" transform="translate(-1.468 -0.826)" fill="#fff"/>
</svg>
