<svg xmlns="http://www.w3.org/2000/svg" width="50" height="50" viewBox="0 0 50 50">
  <g id="single-neutral" transform="translate(-2.5 -0.75)">
    <path id="Path_3820" data-name="Path 3820" d="M11.053,10.855A5.053,5.053,0,1,1,16.105,5.8,5.059,5.059,0,0,1,11.053,10.855Zm0-9.263A4.211,4.211,0,1,0,15.263,5.8,4.215,4.215,0,0,0,11.053,1.592Z" transform="translate(-0.553)" fill="#04044d"/>
    <path id="Path_3821" data-name="Path 3821" d="M2.921,21.671A.421.421,0,0,1,2.5,21.25a8,8,0,0,1,16,0,.421.421,0,0,1-.421.421Zm14.725-.842a7.158,7.158,0,0,0-14.291,0Z" transform="translate(0 -1.974)" fill="#04044d"/>
  </g>
</svg>
