<svg xmlns="http://www.w3.org/2000/svg" width="24" height="23.995" viewBox="0 0 24 23.995">
  <g id="task-list-check-1" transform="translate(0 0)">
    <path id="Path_4177" data-name="Path 4177" d="M3.5,19a.5.5,0,0,1-.5-.5V5.5A.5.5,0,0,1,3.5,5h11a.5.5,0,0,1,.5.5v4a.5.5,0,0,1-1,0V6H4V18H8.5a.5.5,0,0,1,0,1Z" transform="translate(0 -0.007)" fill="#e0e0e0"/>
    <path id="Path_4178" data-name="Path 4178" d="M1.5,22A1.5,1.5,0,0,1,0,20.5V3.5A1.5,1.5,0,0,1,1.5,2H5.641a3.829,3.829,0,0,1,6.722,0H16.5A1.5,1.5,0,0,1,18,3.5v5a.5.5,0,1,1-1,0v-5a.5.5,0,0,0-.5-.5H12.052a.5.5,0,0,1-.458-.3,2.829,2.829,0,0,0-5.184,0,.5.5,0,0,1-.458.3H1.5a.5.5,0,0,0-.5.5v17a.5.5,0,0,0,.5.5h8a.5.5,0,0,1,0,1h-8Z" transform="translate(0 -0.007)" fill="#e0e0e0"/>
    <path id="Path_4179" data-name="Path 4179" d="M6.5,9a.5.5,0,0,1,0-1h5a.5.5,0,0,1,0,1Z" transform="translate(0 -0.007)" fill="#e0e0e0"/>
    <path id="Path_4180" data-name="Path 4180" d="M6.5,12a.5.5,0,0,1,0-1h5a.5.5,0,0,1,0,1Z" transform="translate(0 -0.007)" fill="#e0e0e0"/>
    <path id="Path_4181" data-name="Path 4181" d="M6.5,15a.5.5,0,0,1,0-1h3a.5.5,0,0,1,0,1Z" transform="translate(0 -0.007)" fill="#e0e0e0"/>
    <path id="Path_4182" data-name="Path 4182" d="M17.5,24A6.5,6.5,0,1,1,24,17.5,6.508,6.508,0,0,1,17.5,24Zm0-12A5.5,5.5,0,1,0,23,17.5,5.506,5.506,0,0,0,17.5,12Z" transform="translate(0 -0.007)" fill="#e0e0e0"/>
    <path id="Path_4183" data-name="Path 4183" d="M16.667,20.43a1.242,1.242,0,0,1-.75-.251,1.275,1.275,0,0,1-.13-.112l-1.5-1.5a.5.5,0,0,1,.708-.707l1.5,1.5a.2.2,0,0,0,.027.023.246.246,0,0,0,.149.051l.037,0a.248.248,0,0,0,.166-.1l2.905-3.873a.5.5,0,0,1,.7-.1.5.5,0,0,1,.1.7l-2.905,3.874a1.246,1.246,0,0,1-.825.488A1.564,1.564,0,0,1,16.667,20.43Z" transform="translate(0 -0.007)" fill="#e0e0e0"/>
  </g>
</svg>
