<svg xmlns="http://www.w3.org/2000/svg" width="25.264" height="25.258" viewBox="0 0 25.264 25.258">
  <g id="task-list-check-1-blue" transform="translate(0 0)">
    <path id="Path_4177" data-name="Path 4177" d="M3.526,19.737A.527.527,0,0,1,3,19.21V5.528A.527.527,0,0,1,3.526,5H15.105a.527.527,0,0,1,.526.526V9.739a.526.526,0,1,1-1.053,0V6.055H4.053V18.684H8.789a.526.526,0,0,1,0,1.053Z" transform="translate(0.158 0.256)" fill="#414a9b"/>
    <path id="Path_4178" data-name="Path 4178" d="M1.579,23.16A1.581,1.581,0,0,1,0,21.581V3.686A1.581,1.581,0,0,1,1.579,2.107H5.938a4.03,4.03,0,0,1,7.076,0h4.355a1.581,1.581,0,0,1,1.579,1.579V8.949a.526.526,0,1,1-1.053,0V3.686a.527.527,0,0,0-.526-.526H12.686a.527.527,0,0,1-.482-.316,2.978,2.978,0,0,0-5.457,0,.527.527,0,0,1-.482.316H1.579a.527.527,0,0,0-.526.526V21.581a.527.527,0,0,0,.526.526H10a.526.526,0,0,1,0,1.053H1.579Z" transform="translate(0 -0.007)" fill="#414a9b"/>
    <path id="Path_4179" data-name="Path 4179" d="M6.526,9.055A.526.526,0,0,1,6.526,8h5.263a.526.526,0,0,1,0,1.053Z" transform="translate(0.316 0.414)" fill="#414a9b"/>
    <path id="Path_4180" data-name="Path 4180" d="M6.526,12.055a.526.526,0,1,1,0-1.053h5.263a.526.526,0,0,1,0,1.053Z" transform="translate(0.316 0.572)" fill="#414a9b"/>
    <path id="Path_4181" data-name="Path 4181" d="M6.526,15.055a.526.526,0,0,1,0-1.053H9.684a.526.526,0,0,1,0,1.053Z" transform="translate(0.316 0.73)" fill="#414a9b"/>
    <path id="Path_4182" data-name="Path 4182" d="M17.842,24.686a6.842,6.842,0,1,1,6.842-6.842A6.85,6.85,0,0,1,17.842,24.686Zm0-12.632a5.789,5.789,0,1,0,5.789,5.789A5.8,5.8,0,0,0,17.842,12.055Z" transform="translate(0.579 0.572)" fill="#414a9b"/>
    <path id="Path_4183" data-name="Path 4183" d="M16.8,20.7a1.307,1.307,0,0,1-.789-.264,1.343,1.343,0,0,1-.137-.118l-1.582-1.582a.527.527,0,0,1,.745-.744l1.579,1.579a.215.215,0,0,0,.028.024.259.259,0,0,0,.157.054.253.253,0,0,0,.039,0,.261.261,0,0,0,.175-.1l3.058-4.077a.526.526,0,0,1,.737-.105.526.526,0,0,1,.105.737l-3.058,4.078a1.312,1.312,0,0,1-.868.514A1.646,1.646,0,0,1,16.8,20.7Z" transform="translate(0.744 0.796)" fill="#414a9b"/>
  </g>
</svg>
