<svg xmlns="http://www.w3.org/2000/svg" width="31.5" height="31.5" viewBox="0 0 31.5 31.5">
  <g id="ticket-check" transform="translate(0.75 0.75)">
    <path id="Path_4037" data-name="Path 4037" d="M11.587,21.37H1.8a1.3,1.3,0,0,1-1.3-1.3V16.112a.652.652,0,0,1,.57-.652,4.565,4.565,0,0,0,0-9.06A.652.652,0,0,1,.5,5.747V1.8A1.3,1.3,0,0,1,1.8.5H29.2a1.3,1.3,0,0,1,1.3,1.3V5.758a.652.652,0,0,1-.57.652,4.565,4.565,0,0,0-3.946,5.206" transform="translate(-0.5 -0.5)" fill="none" stroke="#3d467b" stroke-linecap="round" stroke-linejoin="round" stroke-width="1.5"/>
    <path id="Path_4038" data-name="Path 4038" d="M16.4,3.076a.326.326,0,1,1-.326-.326.326.326,0,0,1,.326.326" transform="translate(4.141 0.185)" fill="none" stroke="#fff" stroke-linecap="round" stroke-linejoin="round" stroke-width="1.5"/>
    <path id="Path_4039" data-name="Path 4039" d="M16.4,6.076a.326.326,0,1,1-.326-.326.326.326,0,0,1,.326.326" transform="translate(4.141 1.098)" fill="none" stroke="#fff" stroke-linecap="round" stroke-linejoin="round" stroke-width="1.5"/>
    <path id="Path_4040" data-name="Path 4040" d="M16.4,9.076a.326.326,0,1,1-.326-.326.326.326,0,0,1,.326.326" transform="translate(4.141 2.011)" fill="none" stroke="#fff" stroke-linecap="round" stroke-linejoin="round" stroke-width="1.5"/>
    <circle id="Ellipse_46" data-name="Ellipse 46" cx="7.826" cy="7.826" r="7.826" transform="translate(14.348 14.348)" stroke-width="1.5" stroke="#fff" stroke-linecap="round" stroke-linejoin="round" fill="none"/>
    <path id="Path_4041" data-name="Path 4041" d="M21.859,15.756,18.07,20.808a.981.981,0,0,1-1.475.106l-1.957-1.957" transform="translate(3.803 4.143)" fill="none" stroke="#fff" stroke-linecap="round" stroke-linejoin="round" stroke-width="1.5"/>
  </g>
</svg>
