<svg id="ticket_bus" xmlns="http://www.w3.org/2000/svg" width="29.863" height="30.879" viewBox="0 0 29.863 30.879">
  <path id="Path_4062" data-name="Path 4062" d="M199.988,265.8h-8.553a.435.435,0,1,0,0,.87h8.553a.435.435,0,0,0,0-.87Z" transform="translate(-180.867 -241.71)" fill="#fff"/>
  <path id="Path_4063" data-name="Path 4063" d="M199.988,247.233h-8.553a.435.435,0,1,0,0,.87h8.553a.435.435,0,0,0,0-.87Z" transform="translate(-180.867 -225.162)" fill="#fff"/>
  <path id="Path_4064" data-name="Path 4064" d="M125.764,46.638v-.406a2,2,0,0,0-2-2h-22.1a2,2,0,0,0-2,2v.411a2.13,2.13,0,0,0-1.87,2.111V56.84a1.529,1.529,0,0,0,1.527,1.527h.343V69.678a3.261,3.261,0,0,0,1.685,2.852v2.146a.435.435,0,0,0,.435.435H105.6a.435.435,0,0,0,.435-.435v-1.74H119.4v1.74a.435.435,0,0,0,.435.435h3.805a.435.435,0,0,0,.435-.435V72.53a3.261,3.261,0,0,0,1.685-2.852V58.367h.372a1.529,1.529,0,0,0,1.527-1.527V48.753A2.131,2.131,0,0,0,125.764,46.638Zm1.029,2.116V49.82a1.516,1.516,0,0,0-.658-.151h-.372V47.517A1.26,1.26,0,0,1,126.794,48.753ZM101.668,45.1h22.1a1.13,1.13,0,0,1,1.129,1.129v.828H100.54v-.828A1.13,1.13,0,0,1,101.668,45.1Zm20.888,23.92V67.174h2.338v1.848Zm-3.207,0V67.174h2.338v1.848Zm-.435-2.718a.435.435,0,0,0-.435.435v2.718a.871.871,0,0,1-.87.87h-9.785a.871.871,0,0,1-.87-.87V66.739a.435.435,0,0,0-.435-.435h-5.98V64.347h24.355V66.3Zm-18.375.87h2.338v1.848H100.54Zm3.207,0h2.338v1.848h-2.338Zm14.98-19.245-5.766,15.548h-7.288l5.766-15.548Zm-4.838,15.548,5.766-15.548h1.459l-5.766,15.548ZM99.67,47.522v2.148h-.343a1.516,1.516,0,0,0-.658.151V48.753A1.261,1.261,0,0,1,99.67,47.522Zm-1,9.318V51.2a.658.658,0,0,1,.658-.658h1.729a.658.658,0,0,1,.658.658V56.84a.658.658,0,0,1-.658.658H99.327A.658.658,0,0,1,98.67,56.84Zm2.387,1.527a1.529,1.529,0,0,0,1.527-1.527V51.2a1.529,1.529,0,0,0-1.527-1.527h-.517V47.93h9.972l-5.766,15.548H100.54v-5.11h.517Zm4.1,15.874h-2.936V72.859a3.254,3.254,0,0,0,.7.077h2.232Zm18.049,0h-2.936v-1.3h2.232a3.254,3.254,0,0,0,.7-.077Zm-.7-2.175H102.929a2.392,2.392,0,0,1-2.379-2.175h5.592a1.741,1.741,0,0,0,1.682,1.3h9.785a1.741,1.741,0,0,0,1.682-1.3h5.592A2.392,2.392,0,0,1,122.506,72.067Zm2.389-8.589h-8.618l5.766-15.548h2.852v1.74h-.488A1.529,1.529,0,0,0,122.88,51.2V56.84a1.529,1.529,0,0,0,1.527,1.527h.488Zm1.9-6.638a.658.658,0,0,1-.658.658h-1.729a.658.658,0,0,1-.658-.658V51.2a.658.658,0,0,1,.658-.658h1.729a.658.658,0,0,1,.658.658Z" transform="translate(-97.8 -44.233)" fill="#fff"/>
</svg>
