<svg xmlns="http://www.w3.org/2000/svg" width="37.089" height="31.794" viewBox="0 0 37.089 31.794">
  <g id="wallet_" data-name="wallet+" transform="translate(0 0)">
    <g id="Group_1151" data-name="Group 1151">
      <g id="money-wallet" transform="translate(0 0)">
        <path id="Path_3616" data-name="Path 3616" d="M.991,1.982A.991.991,0,1,1,1.982.991.991.991,0,0,1,.991,1.982Z" transform="translate(28.825 15.218)" fill="#fff"/>
        <path id="Path_3617" data-name="Path 3617" d="M.661,1.321A.661.661,0,1,1,.661,0H3.3a.661.661,0,1,1,0,1.321Z" transform="translate(9.342 8.282)" fill="#fff"/>
        <path id="Path_3618" data-name="Path 3618" d="M.661,1.321A.661.661,0,1,1,.661,0H3.3a.661.661,0,1,1,0,1.321Z" transform="translate(14.627 8.282)" fill="#e0007a"/>
        <path id="Path_3619" data-name="Path 3619" d="M.661,1.321A.661.661,0,1,1,.661,0H3.3a.661.661,0,0,1,0,1.321Z" transform="translate(19.912 8.282)" fill="#e0007a"/>
        <path id="Path_3620" data-name="Path 3620" d="M.661,1.321A.661.661,0,1,1,.661,0H3.3a.661.661,0,1,1,0,1.321Z" transform="translate(25.197 8.282)" fill="#fff"/>
        <path id="Path_3621" data-name="Path 3621" d="M.661,1.321A.661.661,0,1,1,.661,0H3.3a.661.661,0,1,1,0,1.321Z" transform="translate(9.342 22.815)" fill="#3d467b"/>
        <path id="Path_3622" data-name="Path 3622" d="M.661,1.321A.661.661,0,1,1,.661,0H3.3a.661.661,0,1,1,0,1.321Z" transform="translate(14.627 22.815)" fill="#e0007a"/>
        <path id="Path_3623" data-name="Path 3623" d="M.661,1.321A.661.661,0,1,1,.661,0H3.3a.661.661,0,0,1,0,1.321Z" transform="translate(19.912 22.815)" fill="#fff"/>
        <path id="Path_3624" data-name="Path 3624" d="M.661,1.321A.661.661,0,1,1,.661,0H3.3a.661.661,0,1,1,0,1.321Z" transform="translate(25.197 22.815)" fill="#fff"/>
        <path id="Path_3625" data-name="Path 3625" d="M3.3,28.1A3.307,3.307,0,0,1,0,24.8V7.621a3.306,3.306,0,0,1,3.3-3.3H5.858L21.657.066A2.117,2.117,0,0,1,22.179,0a1.943,1.943,0,0,1,1.012.281,1.962,1.962,0,0,1,.9,1.218l.733,2.928A5.254,5.254,0,0,1,29.068,9.6v2.709a3.3,3.3,0,0,1,2.648,3.237V16.87a3.3,3.3,0,0,1-2.648,3.237v2.709A5.29,5.29,0,0,1,23.783,28.1Zm0-22.461A1.984,1.984,0,0,0,1.321,7.621V24.8A1.984,1.984,0,0,0,3.3,26.779H23.783a3.969,3.969,0,0,0,3.964-3.964V20.173H23.127a3.308,3.308,0,0,1-3.3-3.3V15.549a3.308,3.308,0,0,1,3.3-3.3h4.619V9.6a3.969,3.969,0,0,0-3.964-3.964H3.3Zm19.824,7.928a1.984,1.984,0,0,0-1.982,1.982V16.87a1.984,1.984,0,0,0,1.982,1.982h5.285a1.984,1.984,0,0,0,1.982-1.982V15.549a1.984,1.984,0,0,0-1.982-1.982Zm.31-9.249-.624-2.5a.664.664,0,0,0-.639-.5.665.665,0,0,0-.161.02L10.943,4.318Z" transform="translate(5.373 0)" fill="#fff"/>
        <g id="Ellipse_50" data-name="Ellipse 50" transform="translate(0 15.648)" fill="#210d3a" stroke="#e0007a" stroke-width="1">
          <circle cx="8.073" cy="8.073" r="8.073" stroke="none"/>
          <circle cx="8.073" cy="8.073" r="7.573" fill="none"/>
        </g>
      </g>
    </g>
    <g id="like-plus-bubble" transform="translate(4.306 19.954)">
      <line id="Line_73" data-name="Line 73" y2="7.535" transform="translate(3.588 0)" fill="none" stroke="#fff" stroke-linecap="round" stroke-linejoin="round" stroke-width="1"/>
      <line id="Line_74" data-name="Line 74" x1="7.535" transform="translate(0 3.947)" fill="none" stroke="#fff" stroke-linecap="round" stroke-linejoin="round" stroke-width="1"/>
    </g>
  </g>
</svg>
