<svg xmlns="http://www.w3.org/2000/svg" width="19.917" height="20.688" viewBox="0 0 19.917 20.688">
  <g id="water-protection-faucet" transform="translate(0 -0.016)">
    <path id="Path_4027" data-name="Path 4027" d="M22.1,21.563a1.3,1.3,0,0,1-2.606,0,7.323,7.323,0,0,1,.926-2.232.429.429,0,0,1,.752,0,7.32,7.32,0,0,1,.927,2.232Z" transform="translate(-2.686 -2.629)" fill="none" stroke="#fff" stroke-linecap="round" stroke-linejoin="round" stroke-width="1"/>
    <path id="Path_4028" data-name="Path 4028" d="M.5,7.092H3.934A2.576,2.576,0,0,1,6.51,4.516H9.086a2.576,2.576,0,0,1,2.576,2.576c2.576,0,7.728.859,7.728,6.01V14.39a.429.429,0,0,1-.429.429H16.384a.429.429,0,0,1-.429-.429V13.1a1.717,1.717,0,0,0-1.717-1.717H11.662a2.576,2.576,0,0,1-2.576,2.576H6.51a2.576,2.576,0,0,1-2.576-2.576H.5" transform="translate(0 -0.566)" fill="none" stroke="#fff" stroke-linecap="round" stroke-linejoin="round" stroke-width="1"/>
    <path id="Path_4029" data-name="Path 4029" d="M10.076,3.95V.945A.429.429,0,0,0,9.647.516H7.929A.429.429,0,0,0,7.5.945V3.95" transform="translate(-0.99)" fill="none" stroke="#fff" stroke-linecap="round" stroke-linejoin="round" stroke-width="1"/>
    <line id="Line_95" data-name="Line 95" x1="4.722" transform="translate(1.788 2.233)" fill="none" stroke="#fff" stroke-linecap="round" stroke-linejoin="round" stroke-width="1"/>
    <line id="Line_96" data-name="Line 96" x1="4.722" y1="0.005" transform="translate(9.086 2.214)" fill="none" stroke="#fff" stroke-linecap="round" stroke-linejoin="round" stroke-width="1"/>
    <line id="Line_97" data-name="Line 97" y2="4.293" transform="translate(3.934 6.526)" fill="none" stroke="#fff" stroke-linecap="round" stroke-linejoin="round" stroke-width="1"/>
    <line id="Line_98" data-name="Line 98" y2="4.293" transform="translate(11.662 6.526)" fill="none" stroke="#fff" stroke-linecap="round" stroke-linejoin="round" stroke-width="1"/>
  </g>
</svg>
