<svg xmlns="http://www.w3.org/2000/svg" width="16" height="17.586" viewBox="0 0 16 17.586"><g transform="translate(-1.201 -0.001)"><path d="M2.061,5.677a.357.357,0,0,1-.255-.105.361.361,0,0,1,0-.51A10.442,10.442,0,0,1,12.172,2.429a.355.355,0,0,1,.214.174.36.36,0,0,1-.42.518A9.72,9.72,0,0,0,2.315,5.572.356.356,0,0,1,2.061,5.677Z" transform="translate(0 -0.417)" fill="none" stroke="#3c3951" stroke-width="1"/><path d="M4.891,9.834a.361.361,0,0,1-.255-.615A7.6,7.6,0,0,1,9.982,7c.125,0,.251,0,.377.009a.36.36,0,0,1-.017.72h-.02c-.112-.005-.224-.008-.336-.008A6.884,6.884,0,0,0,5.146,9.728.357.357,0,0,1,4.891,9.834Z" transform="translate(-0.789 -1.812)" fill="none" stroke="#3c3951" stroke-width="1"/><path d="M11.4,21.106a1.8,1.8,0,1,1,1.8-1.8A1.8,1.8,0,0,1,11.4,21.106Zm0-2.885A1.082,1.082,0,1,0,12.486,19.3,1.083,1.083,0,0,0,11.4,18.221Z" transform="translate(-2.203 -4.74)" fill="none" stroke="#3c3951" stroke-width="1"/><path d="M21.467,6.976a.357.357,0,0,1-.255-.106,9.757,9.757,0,0,0-.982-.86.36.36,0,1,1,.436-.574,10.47,10.47,0,0,1,1.057.925.36.36,0,0,1-.255.615Z" transform="translate(-5.127 -1.356)" fill="none" stroke="#3c3951" stroke-width="1"/><path d="M18.535,10.256a.357.357,0,0,1-.255-.106,6.943,6.943,0,0,0-1.222-.973.36.36,0,0,1,.191-.666.355.355,0,0,1,.19.055,7.618,7.618,0,0,1,1.35,1.075.36.36,0,0,1-.255.614Z" transform="translate(-4.235 -2.233)" fill="none" stroke="#3c3951" stroke-width="1"/><path d="M15.436,14.54a.357.357,0,0,1-.255-.106A3.956,3.956,0,0,0,13.356,13.4a.361.361,0,0,1,.089-.71.363.363,0,0,1,.088.011,4.665,4.665,0,0,1,2.158,1.229.359.359,0,0,1,.105.255.355.355,0,0,1-.106.255A.36.36,0,0,1,15.436,14.54Z" transform="translate(-3.174 -3.397)" fill="none" stroke="#3c3951" stroke-width="1"/><path d="M2.462,17.087a.36.36,0,0,1-.273-.6L15.892.626A.36.36,0,0,1,16.4.589a.355.355,0,0,1,.124.245.361.361,0,0,1-.087.263L2.735,16.963A.361.361,0,0,1,2.462,17.087Z" transform="translate(-0.112 0)" fill="none" stroke="#3c3951" stroke-width="1"/></g></svg>