<svg xmlns="http://www.w3.org/2000/svg" width="260.235" height="28.667" viewBox="0 0 260.235 28.667">
  <g id="Group_2723" data-name="Group 2723" transform="translate(-48 -130)">
    <g id="Group_2723-2" data-name="Group 2723" transform="translate(-113.154 -223.164)">
      <rect id="Rectangle_787" data-name="Rectangle 787" width="2.835" height="28.667" transform="translate(161.154 353.164)" fill="#b4eae1"/>
      <rect id="Rectangle_788" data-name="Rectangle 788" width="8.977" height="28.667" transform="translate(165.667 353.164)" fill="#b4eae1"/>
      <rect id="Rectangle_789" data-name="Rectangle 789" width="2.835" height="28.667" transform="translate(176.322 353.164)" fill="#b4eae1"/>
      <rect id="Rectangle_790" data-name="Rectangle 790" width="2.835" height="28.667" transform="translate(191.489 353.164)" fill="#b4eae1"/>
      <rect id="Rectangle_791" data-name="Rectangle 791" width="1.417" height="28.667" transform="translate(203.854 353.164)" fill="#b4eae1"/>
      <rect id="Rectangle_792" data-name="Rectangle 792" width="1.417" height="28.667" transform="translate(207.212 353.164)" fill="#b4eae1"/>
      <rect id="Rectangle_793" data-name="Rectangle 793" width="1.417" height="28.667" transform="translate(210.57 353.164)" fill="#b4eae1"/>
      <rect id="Rectangle_794" data-name="Rectangle 794" width="1.417" height="28.667" transform="translate(222.155 353.164)" fill="#b4eae1"/>
      <rect id="Rectangle_795" data-name="Rectangle 795" width="2.835" height="28.667" transform="translate(198.982 353.164)" fill="#b4eae1"/>
      <rect id="Rectangle_796" data-name="Rectangle 796" width="2.835" height="28.667" transform="translate(225.554 353.164)" fill="#b4eae1"/>
      <rect id="Rectangle_797" data-name="Rectangle 797" width="5.906" height="28.667" transform="translate(214.036 353.164)" fill="#b4eae1"/>
      <rect id="Rectangle_798" data-name="Rectangle 798" width="8.977" height="28.667" transform="translate(180.834 353.164)" fill="#b4eae1"/>
      <rect id="Rectangle_799" data-name="Rectangle 799" width="8.977" height="28.667" transform="translate(230.652 353.164)" fill="#b4eae1"/>
      <rect id="Rectangle_800" data-name="Rectangle 800" width="2.835" height="28.667" transform="translate(323.419 381.831) rotate(180)" fill="#b4eae1"/>
      <rect id="Rectangle_801" data-name="Rectangle 801" width="8.977" height="28.667" transform="translate(315.812 381.831) rotate(180)" fill="#b4eae1"/>
      <rect id="Rectangle_802" data-name="Rectangle 802" width="8.977" height="28.667" transform="translate(353.802 381.831) rotate(180)" fill="#b4eae1"/>
      <rect id="Rectangle_803" data-name="Rectangle 803" width="2.835" height="28.667" transform="translate(304.355 381.831) rotate(180)" fill="#b4eae1"/>
      <rect id="Rectangle_804" data-name="Rectangle 804" width="2.835" height="28.667" transform="translate(332.444 381.831) rotate(180)" fill="#b4eae1"/>
      <rect id="Rectangle_805" data-name="Rectangle 805" width="2.835" height="28.667" transform="translate(287.89 381.831) rotate(180)" fill="#b4eae1"/>
      <rect id="Rectangle_806" data-name="Rectangle 806" width="2.835" height="28.667" transform="translate(336.957 381.831) rotate(180)" fill="#b4eae1"/>
      <rect id="Rectangle_807" data-name="Rectangle 807" width="1.417" height="28.667" transform="translate(278.141 381.831) rotate(180)" fill="#b4eae1"/>
      <rect id="Rectangle_808" data-name="Rectangle 808" width="1.417" height="28.667" transform="translate(340.052 381.831) rotate(180)" fill="#b4eae1"/>
      <rect id="Rectangle_809" data-name="Rectangle 809" width="1.417" height="28.667" transform="translate(274.783 381.831) rotate(180)" fill="#b4eae1"/>
      <rect id="Rectangle_810" data-name="Rectangle 810" width="1.417" height="28.667" transform="translate(343.148 381.831) rotate(180)" fill="#b4eae1"/>
      <rect id="Rectangle_811" data-name="Rectangle 811" width="1.417" height="28.667" transform="translate(271.425 381.831) rotate(180)" fill="#b4eae1"/>
      <rect id="Rectangle_812" data-name="Rectangle 812" width="1.417" height="28.667" transform="translate(259.839 381.831) rotate(180)" fill="#b4eae1"/>
      <rect id="Rectangle_813" data-name="Rectangle 813" width="2.835" height="28.667" transform="translate(282.991 381.831) rotate(180)" fill="#b4eae1"/>
      <rect id="Rectangle_814" data-name="Rectangle 814" width="2.835" height="28.667" transform="translate(327.931 381.831) rotate(180)" fill="#b4eae1"/>
      <rect id="Rectangle_815" data-name="Rectangle 815" width="2.835" height="28.667" transform="translate(256.42 381.831) rotate(180)" fill="#b4eae1"/>
      <rect id="Rectangle_816" data-name="Rectangle 816" width="5.906" height="28.667" transform="translate(267.891 381.831) rotate(180)" fill="#b4eae1"/>
      <rect id="Rectangle_817" data-name="Rectangle 817" width="8.977" height="28.667" transform="translate(299.3 381.831) rotate(180)" fill="#b4eae1"/>
      <rect id="Rectangle_818" data-name="Rectangle 818" width="8.977" height="28.667" transform="translate(251.228 381.831) rotate(180)" fill="#b4eae1"/>
    </g>
    <g id="Group_2724" data-name="Group 2724" transform="translate(79.846 -223.164)">
      <rect id="Rectangle_787-2" data-name="Rectangle 787" width="2.835" height="28.667" transform="translate(161.154 353.164)" fill="#b4eae1"/>
      <rect id="Rectangle_788-2" data-name="Rectangle 788" width="8.977" height="28.667" transform="translate(165.667 353.164)" fill="#b4eae1"/>
      <rect id="Rectangle_789-2" data-name="Rectangle 789" width="2.835" height="28.667" transform="translate(176.322 353.164)" fill="#b4eae1"/>
      <rect id="Rectangle_790-2" data-name="Rectangle 790" width="2.835" height="28.667" transform="translate(191.489 353.164)" fill="#b4eae1"/>
      <rect id="Rectangle_791-2" data-name="Rectangle 791" width="1.417" height="28.667" transform="translate(203.854 353.164)" fill="#b4eae1"/>
      <rect id="Rectangle_792-2" data-name="Rectangle 792" width="1.417" height="28.667" transform="translate(207.212 353.164)" fill="#b4eae1"/>
      <rect id="Rectangle_793-2" data-name="Rectangle 793" width="1.417" height="28.667" transform="translate(210.57 353.164)" fill="#b4eae1"/>
      <rect id="Rectangle_794-2" data-name="Rectangle 794" width="1.417" height="28.667" transform="translate(222.155 353.164)" fill="#b4eae1"/>
      <rect id="Rectangle_795-2" data-name="Rectangle 795" width="2.835" height="28.667" transform="translate(198.982 353.164)" fill="#b4eae1"/>
      <rect id="Rectangle_796-2" data-name="Rectangle 796" width="2.835" height="28.667" transform="translate(225.554 353.164)" fill="#b4eae1"/>
      <rect id="Rectangle_797-2" data-name="Rectangle 797" width="5.906" height="28.667" transform="translate(214.036 353.164)" fill="#b4eae1"/>
      <rect id="Rectangle_798-2" data-name="Rectangle 798" width="8.977" height="28.667" transform="translate(180.834 353.164)" fill="#b4eae1"/>
    </g>
  </g>
</svg>
