<svg xmlns="http://www.w3.org/2000/svg" xmlns:xlink="http://www.w3.org/1999/xlink" width="328" height="147.176" viewBox="0 0 328 147.176"><defs><clipPath id="a"><path d="M10,0H318c5.523,0,10,5.491,10,12.265V134.911c0,6.774-4.477,12.265-10,12.265H10c-5.523,0-10-5.491-10-12.265V12.265C0,5.491,4.477,0,10,0Z" transform="translate(18 270)" fill="rgba(164,171,191,0.23)"/></clipPath><linearGradient id="b" x1="-69.584" y1="17.482" x2="-68.584" y2="17.482" gradientUnits="objectBoundingBox"><stop offset="0" stop-color="#fff"/><stop offset="1" stop-color="#bbbcbf"/></linearGradient><linearGradient id="c" x1="-20.972" y1="-40.48" x2="-19.972" y2="-40.48" xlink:href="#b"/><linearGradient id="d" x1="-104.676" y1="-29.111" x2="-103.676" y2="-29.111" xlink:href="#b"/><linearGradient id="e" x1="-43.655" y1="-44.128" x2="-42.655" y2="-44.128" xlink:href="#b"/><linearGradient id="f" x1="-42.484" y1="-42.714" x2="-41.483" y2="-42.714" xlink:href="#b"/></defs><g transform="translate(-18 -270)" clip-path="url(#a)"><g transform="translate(-105.28 130.777)" opacity="0.166"><path d="M369.4,139.223l-30.569,30.569-30.569-30.569Z" fill="#ae68bb"/><rect width="43.231" height="43.231" transform="translate(247.126 261.499) rotate(-135)" fill="#c773d6"/><rect width="43.231" height="43.231" transform="translate(216.557 230.93) rotate(-135)" fill="#ae68bb"/><rect width="43.231" height="43.231" transform="translate(155.418 169.792) rotate(135)" fill="#ae68bb"/><path d="M94.28,169.792l30.569,30.569L94.28,230.93Z" fill="#f5b02e"/><path d="M155.418,169.792l-30.569-30.569h61.138Z" fill="#ae68bb"/><rect width="43.231" height="43.231" transform="translate(185.988 139.223) rotate(45)" fill="#c0a2c6"/><rect width="43.231" height="43.231" transform="translate(338.833 169.792) rotate(135)" fill="#7b5c81"/><rect width="43.231" height="43.231" transform="translate(308.264 200.361) rotate(135)" fill="#ae68bb"/><rect width="43.231" height="43.231" transform="translate(164.988 276.499) rotate(135)" fill="#b87dc3"/><path d="M94.28,292.068l30.569,30.569L94.28,353.207Z" fill="#fac932"/><rect width="21.616" height="43.231" transform="matrix(-0.707, 0.707, -0.707, -0.707, 140.134, 307.353)" fill="url(#b)" style="mix-blend-mode:multiply;isolation:isolate"/><rect width="21.616" height="43.231" transform="translate(109.565 154.507) rotate(-45)" fill="url(#c)" style="mix-blend-mode:multiply;isolation:isolate"/><rect width="21.616" height="43.231" transform="translate(201.272 154.507) rotate(45)" fill="url(#d)" style="mix-blend-mode:multiply;isolation:isolate"/><rect width="21.616" height="43.231" transform="translate(231.841 215.646) rotate(-45)" fill="url(#e)" style="mix-blend-mode:multiply;isolation:isolate"/><rect width="21.616" height="43.231" transform="translate(292.98 154.507) rotate(-45)" fill="url(#f)" style="mix-blend-mode:multiply;isolation:isolate"/></g></g></svg>