<svg xmlns="http://www.w3.org/2000/svg" width="225" height="92.171" viewBox="0 0 225 92.171">
  <g id="Group_2715" data-name="Group 2715" transform="translate(-46 -383.004)">
    <g id="Group_2706" data-name="Group 2706" transform="translate(46.5 383.004)">
      <path id="Subtraction_3" data-name="Subtraction 3" d="M41,84.621a58.7,58.7,0,0,1-3.95-11.774q-.436-1.975-.736-3.991h-33a3.319,3.319,0,0,1,0-6.637h39.93a3.318,3.318,0,0,0-.108-6.635H35.846v0H16.592a3.319,3.319,0,0,1,0-6.638H36.739a58.453,58.453,0,0,1,3.79-12.21,59.737,59.737,0,0,1,5.7-10.218,60.82,60.82,0,0,1,7.547-8.9A61.936,61.936,0,0,1,73.423,4.727,62.916,62.916,0,0,1,97.481,0,63.964,63.964,0,0,1,107.77.826h39.074a3.319,3.319,0,1,1,0,6.638H127.326l0,0h-7.863a3.318,3.318,0,0,0-.108,6.635h40.76a3.319,3.319,0,1,1,0,6.637H144.176l0,0H104.533a3.318,3.318,0,1,0,0,6.637H149.32a59.7,59.7,0,0,1,5.112,9.358,58.769,58.769,0,0,1-.473,47.885H41Z" transform="translate(17.837 0)" fill="rgba(234,171,247,0.29)"/>
      <rect id="Rectangle_768" data-name="Rectangle 768" width="10" height="6" rx="3" transform="translate(177.5 1.171)" fill="rgba(234,171,247,0.29)"/>
      <rect id="Rectangle_769" data-name="Rectangle 769" width="11" height="7" rx="3.5" transform="translate(188.5 9.171)" fill="rgba(234,171,247,0.63)"/>
      <line id="Line_331" data-name="Line 331" x2="194.963" transform="translate(19.911 85.034)" fill="none" stroke="#3c3951" stroke-linecap="round" stroke-width="1"/>
      <line id="Line_332" data-name="Line 332" x2="43.141" transform="translate(0 88.352)" fill="none" stroke="#3c3951" stroke-linecap="round" stroke-width="1"/>
      <line id="Line_333" data-name="Line 333" x2="4.978" transform="translate(46.459 88.352)" fill="none" stroke="#3c3951" stroke-linecap="round" stroke-width="1"/>
      <line id="Line_336" data-name="Line 336" x2="4.978" transform="translate(160.119 88.352)" fill="none" stroke="#3c3951" stroke-linecap="round" stroke-width="1"/>
      <line id="Line_334" data-name="Line 334" x2="82.133" transform="translate(53.926 88.352)" fill="none" stroke="#3c3951" stroke-linecap="round" stroke-width="1"/>
      <line id="Line_337" data-name="Line 337" x2="82.133" transform="translate(102.044 91.671)" fill="none" stroke="#3c3951" stroke-linecap="round" stroke-width="1"/>
      <line id="Line_338" data-name="Line 338" x2="24.059" transform="translate(71.348 91.671)" fill="none" stroke="#3c3951" stroke-linecap="round" stroke-width="1"/>
      <line id="Line_339" data-name="Line 339" x2="48.119" transform="translate(10.785 91.671)" fill="none" stroke="#3c3951" stroke-linecap="round" stroke-width="1"/>
      <line id="Line_335" data-name="Line 335" x2="54.756" transform="translate(169.244 88.352)" fill="none" stroke="#3c3951" stroke-linecap="round" stroke-width="1"/>
    </g>
    <g id="Group_2707" data-name="Group 2707" transform="translate(139.592 403.011)">
      <path id="Path_3607" data-name="Path 3607" d="M7,63.926a4,4,0,0,1-4-4V4A4,4,0,0,1,7,0h28.04a3.983,3.983,0,0,1,3.087,1.457l11.912,14.5a3.979,3.979,0,0,1,.911,2.538v41.44a4,4,0,0,1-4,4ZM7,2.664A1.332,1.332,0,0,0,5.664,4V59.931A1.332,1.332,0,0,0,7,61.263H46.949a1.332,1.332,0,0,0,1.332-1.332V18.488a1.316,1.316,0,0,0-.3-.839L36.066,3.148a1.336,1.336,0,0,0-1.028-.485h-5.4v9.323a1.332,1.332,0,0,1-2.664,0V2.664H21.645v9.323a1.332,1.332,0,0,1-2.664,0V2.664H13.654v9.323a1.332,1.332,0,0,1-2.664,0V2.664Z" transform="translate(-3 0)" fill="#ae68bc" stroke="#ae68bc" stroke-linecap="round" stroke-linejoin="round" stroke-width="2"/>
      <path id="Path_3608" data-name="Path 3608" d="M12.714,37.636A6.694,6.694,0,0,1,6,30.977V17.659A6.692,6.692,0,0,1,12.714,11h18.8a6.694,6.694,0,0,1,6.714,6.659V30.977a6.7,6.7,0,0,1-6.714,6.659Zm18.8-2.664a4.017,4.017,0,0,0,4.028-4V29.645H30.169v5.327Zm-4.028,0V13.664H16.742V34.972Zm-18.8-4a4.017,4.017,0,0,0,4.028,4h1.343V29.645H8.685Zm26.855-4V21.654H30.169v5.327Zm-21.484,0V21.654H8.685v5.327ZM35.54,18.991V17.659a4.017,4.017,0,0,0-4.028-4H30.169v5.327Zm-21.484,0V13.664H12.714a4.017,4.017,0,0,0-4.028,4v1.332Z" transform="translate(2.056 18.3)" fill="#ae68bc" stroke="#ae68bc" stroke-linecap="round" stroke-linejoin="round" stroke-width="1"/>
    </g>
  </g>
</svg>
