<svg xmlns="http://www.w3.org/2000/svg" width="225" height="99.518" viewBox="0 0 225 99.518">
  <g id="bill-report-emty" transform="translate(-75 -265.482)">
    <g id="Group_2715" data-name="Group 2715" transform="translate(29 -110.176)">
      <g id="Group_2706" data-name="Group 2706" transform="translate(46.5 383.004)">
        <path id="Subtraction_3" data-name="Subtraction 3" d="M41,84.621a58.7,58.7,0,0,1-3.95-11.774q-.436-1.975-.736-3.991h-33a3.319,3.319,0,0,1,0-6.637h39.93a3.318,3.318,0,0,0-.108-6.635H35.846v0H16.592a3.319,3.319,0,0,1,0-6.638H36.739a58.453,58.453,0,0,1,3.79-12.21,59.737,59.737,0,0,1,5.7-10.218,60.82,60.82,0,0,1,7.547-8.9A61.936,61.936,0,0,1,73.423,4.727,62.916,62.916,0,0,1,97.481,0,63.964,63.964,0,0,1,107.77.826h39.074a3.319,3.319,0,1,1,0,6.638H127.326l0,0h-7.863a3.318,3.318,0,0,0-.108,6.635h40.76a3.319,3.319,0,1,1,0,6.637H144.176l0,0H104.533a3.318,3.318,0,1,0,0,6.637H149.32a59.7,59.7,0,0,1,5.112,9.358,58.769,58.769,0,0,1-.473,47.885H41Z" transform="translate(17.837 0)" fill="rgba(234,171,247,0.29)"/>
        <rect id="Rectangle_768" data-name="Rectangle 768" width="10" height="6" rx="3" transform="translate(177.5 1.171)" fill="rgba(234,171,247,0.29)"/>
        <rect id="Rectangle_769" data-name="Rectangle 769" width="11" height="7" rx="3.5" transform="translate(188.5 9.171)" fill="rgba(234,171,247,0.63)"/>
        <line id="Line_331" data-name="Line 331" x2="194.963" transform="translate(19.911 85.034)" fill="none" stroke="#3c3951" stroke-linecap="round" stroke-width="1"/>
        <line id="Line_332" data-name="Line 332" x2="43.141" transform="translate(0 88.352)" fill="none" stroke="#3c3951" stroke-linecap="round" stroke-width="1"/>
        <line id="Line_333" data-name="Line 333" x2="4.978" transform="translate(46.459 88.352)" fill="none" stroke="#3c3951" stroke-linecap="round" stroke-width="1"/>
        <line id="Line_336" data-name="Line 336" x2="4.978" transform="translate(160.119 88.352)" fill="none" stroke="#3c3951" stroke-linecap="round" stroke-width="1"/>
        <line id="Line_334" data-name="Line 334" x2="82.133" transform="translate(53.926 88.352)" fill="none" stroke="#3c3951" stroke-linecap="round" stroke-width="1"/>
        <line id="Line_337" data-name="Line 337" x2="82.133" transform="translate(102.044 91.671)" fill="none" stroke="#3c3951" stroke-linecap="round" stroke-width="1"/>
        <line id="Line_338" data-name="Line 338" x2="24.059" transform="translate(71.348 91.671)" fill="none" stroke="#3c3951" stroke-linecap="round" stroke-width="1"/>
        <line id="Line_339" data-name="Line 339" x2="48.119" transform="translate(10.785 91.671)" fill="none" stroke="#3c3951" stroke-linecap="round" stroke-width="1"/>
        <line id="Line_335" data-name="Line 335" x2="54.756" transform="translate(169.244 88.352)" fill="none" stroke="#3c3951" stroke-linecap="round" stroke-width="1"/>
      </g>
    </g>
    <g id="Group_3075" data-name="Group 3075" transform="translate(0 -5)">
      <g id="Group_3073" data-name="Group 3073" transform="translate(163.962 265.634)">
        <g id="Group_2922" data-name="Group 2922" transform="translate(0 6.249)">
          <g id="credit-card-payment">
            <path id="Path_4733" data-name="Path 4733" d="M5108.072-5073.121v-5.752l7.255,4.618,6.917-5.781,7.275,5.781,7.4-5.781,6.518,5.781,7.556-5.781,7.784,5.781,6.45-4.618v8.8" transform="translate(-5108.072 5080.037)" fill="none" stroke="#b16fbe" stroke-linecap="round" stroke-linejoin="round" stroke-width="2.8"/>
            <path id="Path_4734" data-name="Path 4734" d="M5143.774-5074.253l-7.4-5.782-6.518,5.782-7.556-5.782-7.783,5.782-6.45-4.62v60.46" transform="translate(-5108.072 5080.036)" fill="none" stroke="#b16fbe" stroke-linecap="round" stroke-linejoin="round" stroke-width="2.8"/>
            <g id="Ellipse_179" data-name="Ellipse 179" transform="translate(24.038 25.117)" fill="none" stroke="#ae68bb" stroke-width="3">
              <circle cx="25.5" cy="25.5" r="25.5" stroke="none"/>
              <circle cx="25.5" cy="25.5" r="24" fill="none"/>
            </g>
          </g>
        </g>
      </g>
      <g id="Group_3074" data-name="Group 3074" transform="translate(163.962 294.883)">
        <g id="Group_2922-2" data-name="Group 2922" transform="translate(0 0)">
          <g id="credit-card-payment-2" data-name="credit-card-payment">
            <path id="Path_4734-2" data-name="Path 4734" d="M5129.861-5024.195l-7.556,5.782-7.783-5.782-6.45,4.62v-60.46" transform="translate(-5108.072 5080.036)" fill="none" stroke="#b16fbe" stroke-linecap="round" stroke-linejoin="round" stroke-width="2.8"/>
          </g>
        </g>
      </g>
    </g>
    <line id="Path-Copy" y1="0.006" x2="19.358" stroke-width="4" transform="translate(204.142 317.5)" stroke="#ae68bb" stroke-linecap="round" stroke-linejoin="round" fill="none"/>
  </g>
</svg>
