<svg xmlns="http://www.w3.org/2000/svg" width="225" height="92.171" viewBox="0 0 225 92.171">
  <g id="Group_2947" data-name="Group 2947" transform="translate(-75 -272.828)">
    <g id="Group_2715" data-name="Group 2715" transform="translate(29 -110.176)">
      <g id="Group_2706" data-name="Group 2706" transform="translate(46.5 383.004)">
        <path id="Subtraction_3" data-name="Subtraction 3" d="M41,84.621a58.7,58.7,0,0,1-3.95-11.774q-.436-1.975-.736-3.991h-33a3.319,3.319,0,0,1,0-6.637h39.93a3.318,3.318,0,0,0-.108-6.635H35.846v0H16.592a3.319,3.319,0,0,1,0-6.638H36.739a58.453,58.453,0,0,1,3.79-12.21,59.737,59.737,0,0,1,5.7-10.218,60.82,60.82,0,0,1,7.547-8.9A61.936,61.936,0,0,1,73.423,4.727,62.916,62.916,0,0,1,97.481,0,63.964,63.964,0,0,1,107.77.826h39.074a3.319,3.319,0,1,1,0,6.638H127.326l0,0h-7.863a3.318,3.318,0,0,0-.108,6.635h40.76a3.319,3.319,0,1,1,0,6.637H144.176l0,0H104.533a3.318,3.318,0,1,0,0,6.637H149.32a59.7,59.7,0,0,1,5.112,9.358,58.769,58.769,0,0,1-.473,47.885H41Z" transform="translate(17.837 0)" fill="rgba(234,171,247,0.29)"/>
        <rect id="Rectangle_768" data-name="Rectangle 768" width="10" height="6" rx="3" transform="translate(177.5 1.171)" fill="rgba(234,171,247,0.29)"/>
        <rect id="Rectangle_769" data-name="Rectangle 769" width="11" height="7" rx="3.5" transform="translate(188.5 9.171)" fill="rgba(234,171,247,0.63)"/>
        <line id="Line_331" data-name="Line 331" x2="194.963" transform="translate(19.911 85.034)" fill="none" stroke="#3c3951" stroke-linecap="round" stroke-width="1"/>
        <line id="Line_332" data-name="Line 332" x2="43.141" transform="translate(0 88.352)" fill="none" stroke="#3c3951" stroke-linecap="round" stroke-width="1"/>
        <line id="Line_333" data-name="Line 333" x2="4.978" transform="translate(46.459 88.352)" fill="none" stroke="#3c3951" stroke-linecap="round" stroke-width="1"/>
        <line id="Line_336" data-name="Line 336" x2="4.978" transform="translate(160.119 88.352)" fill="none" stroke="#3c3951" stroke-linecap="round" stroke-width="1"/>
        <line id="Line_334" data-name="Line 334" x2="82.133" transform="translate(53.926 88.352)" fill="none" stroke="#3c3951" stroke-linecap="round" stroke-width="1"/>
        <line id="Line_337" data-name="Line 337" x2="82.133" transform="translate(102.044 91.671)" fill="none" stroke="#3c3951" stroke-linecap="round" stroke-width="1"/>
        <line id="Line_338" data-name="Line 338" x2="24.059" transform="translate(71.348 91.671)" fill="none" stroke="#3c3951" stroke-linecap="round" stroke-width="1"/>
        <line id="Line_339" data-name="Line 339" x2="48.119" transform="translate(10.785 91.671)" fill="none" stroke="#3c3951" stroke-linecap="round" stroke-width="1"/>
        <line id="Line_335" data-name="Line 335" x2="54.756" transform="translate(169.244 88.352)" fill="none" stroke="#3c3951" stroke-linecap="round" stroke-width="1"/>
      </g>
    </g>
    <g id="Group_2924" data-name="Group 2924" transform="translate(-130.5 20)">
      <g id="Group_2923" data-name="Group 2923" transform="translate(272.261 294.592)">
        <g id="surface1" transform="translate(3.467 3.374)">
          <g id="Group_2925" data-name="Group 2925" transform="translate(0 0)">
            <path id="Path_4736" data-name="Path 4736" d="M98.965,10.549,87.6,8.926a57.353,57.353,0,0,0-6.441-3.413A56.351,56.351,0,0,0,57.844.492H55.87A56.88,56.88,0,0,0,28.71,7.418l-5.736,3.129A39.539,39.539,0,0,0,3.839,15.734,7.639,7.639,0,0,0,0,22.349v9.936a1.673,1.673,0,0,0,1.674,1.674H7.292a10,10,0,0,0,18.88,0H70.88a10,10,0,0,0,18.88,0h.6a1.68,1.68,0,0,0,.622-.119l5.42-2.175a6.328,6.328,0,0,0,4-5.905V12.205A1.674,1.674,0,0,0,98.965,10.549Zm-75.674,21.4a6.694,6.694,0,1,1,.135-1.339A6.693,6.693,0,0,1,23.291,31.951Zm30.256-1.339H26.773a10.04,10.04,0,1,0-20.08,0H3.347V22.349A4.28,4.28,0,0,1,5.5,18.64a36.178,36.178,0,0,1,17.926-4.761h30.12Zm0-20.08H29.99l.323-.176A53.5,53.5,0,0,1,53.547,3.912Zm3.347-6.694h.947A52.961,52.961,0,0,1,77.53,7.611l-2.922,2.922H56.894ZM86.879,31.951a6.694,6.694,0,1,1,.136-1.339A6.693,6.693,0,0,1,86.879,31.951Zm10.176-16.4h-5.02V18.9h5.02V25.76a3,3,0,0,1-1.894,2.8l-4.8,1.928c0-.154-.02-.306-.03-.46s-.014-.334-.03-.5-.05-.335-.077-.5-.047-.335-.08-.487-.082-.321-.126-.481-.077-.319-.127-.475-.11-.3-.167-.457-.109-.309-.167-.46-.138-.287-.208-.43-.139-.3-.217-.442-.168-.266-.243-.4-.167-.287-.262-.424-.185-.246-.276-.37-.2-.27-.3-.4-.207-.229-.311-.335-.219-.247-.334-.364-.229-.21-.345-.313-.24-.226-.367-.335-.256-.192-.383-.287-.255-.2-.388-.287-.285-.167-.428-.261-.261-.168-.4-.239-.3-.148-.458-.221-.274-.139-.417-.2-.335-.124-.5-.184-.276-.108-.419-.153c-.191-.059-.386-.1-.581-.149-.127-.03-.249-.07-.378-.1-.206-.042-.417-.065-.626-.1-.124-.016-.242-.044-.366-.055a10.2,10.2,0,0,0-1.021-.052,10.05,10.05,0,0,0-10.04,10.04H56.894V13.878H75.3a1.671,1.671,0,0,0,1.183-.49l4.339-4.339a53.661,53.661,0,0,1,5.3,2.9,1.678,1.678,0,0,0,.649.238l10.278,1.467Zm0,0" transform="translate(0 -0.492)" fill="#b16fbe"/>
          </g>
        </g>
      </g>
    </g>
    <g id="Group_2926" data-name="Group 2926" transform="translate(177.962 271.828)">
      <g id="Group_2922" data-name="Group 2922">
        <g id="credit-card-payment" transform="translate(0 6.249)">
          <line id="Line_128" data-name="Line 128" x2="13.554" transform="translate(21.954 22.272)" fill="none" stroke="#b16fbe" stroke-linecap="round" stroke-linejoin="round" stroke-width="2.8"/>
          <line id="Line_379" data-name="Line 379" x2="13.554" transform="translate(21.954 29.268)" fill="none" stroke="#b16fbe" stroke-linecap="round" stroke-linejoin="round" stroke-width="2.8"/>
          <line id="Line_381" data-name="Line 381" x2="13.552" transform="translate(21.953 11.779)" fill="none" stroke="#b16fbe" stroke-linecap="round" stroke-linejoin="round" stroke-width="2.8"/>
          <line id="Line_129" data-name="Line 129" x2="8.132" transform="translate(7.987 22.122)" fill="none" stroke="#b16fbe" stroke-linecap="round" stroke-linejoin="round" stroke-width="2.8"/>
          <line id="Line_380" data-name="Line 380" x2="8.132" transform="translate(7.987 29.117)" fill="none" stroke="#b16fbe" stroke-linecap="round" stroke-linejoin="round" stroke-width="2.8"/>
          <line id="Line_382" data-name="Line 382" x2="8.131" transform="translate(7.987 11.629)" fill="none" stroke="#b16fbe" stroke-linecap="round" stroke-linejoin="round" stroke-width="2.8"/>
          <path id="Path_4733" data-name="Path 4733" d="M5108.073-5074.826v-4.334l5.466,3.479,5.212-4.355,5.481,4.355,5.572-4.355,4.911,4.355,5.693-4.355,5.865,4.355,4.86-3.479v43.552" transform="translate(-5108.073 5080.037)" fill="none" stroke="#b16fbe" stroke-linecap="round" stroke-linejoin="round" stroke-width="2.8"/>
          <path id="Path_4734" data-name="Path 4734" d="M5151.132-5074.825v-4.335l-5.465,3.48-5.213-4.356-5.482,4.356-5.572-4.356-4.911,4.356-5.693-4.356-5.864,4.356-4.86-3.48v45.553" transform="translate(-5108.073 5080.036)" fill="none" stroke="#b16fbe" stroke-linecap="round" stroke-linejoin="round" stroke-width="2.8"/>
        </g>
      </g>
    </g>
  </g>
</svg>
