<svg xmlns="http://www.w3.org/2000/svg" width="31.4" height="26.027" viewBox="0 0 31.4 26.027">
  <g id="credit-card-dollar-1" transform="translate(0.7 0.7)">
    <path id="Path_4522" data-name="Path 4522" d="M19.139,19.349h4.3A3.1,3.1,0,0,0,26.5,16.207V3.641A3.1,3.1,0,0,0,23.438.5H3.558A3.1,3.1,0,0,0,.5,3.641V5.908" transform="translate(3.504 -0.5)" fill="none" stroke="#3c3951" stroke-linecap="round" stroke-linejoin="round" stroke-width="1.4"/>
    <line id="Line_313" data-name="Line 313" x1="25.97" transform="translate(4.03 4.478)" fill="none" stroke="#3c3951" stroke-linecap="round" stroke-linejoin="round" stroke-width="1.4"/>
    <line id="Line_314" data-name="Line 314" x2="8.06" transform="translate(18.358 8.06)" fill="none" stroke="#3c3951" stroke-linecap="round" stroke-linejoin="round" stroke-width="1.4"/>
    <line id="Line_316" data-name="Line 316" x2="4.478" transform="translate(21.94 11.642)" fill="none" stroke="#3c3951" stroke-linecap="round" stroke-linejoin="round" stroke-width="1.4"/>
    <g id="Group_2656" data-name="Group 2656" transform="translate(0 9.403)">
      <ellipse id="Ellipse_147" data-name="Ellipse 147" cx="7.839" cy="7.612" rx="7.839" ry="7.612" stroke-width="1.4" stroke="#3c3951" stroke-linecap="round" stroke-linejoin="round" fill="#ae68bb"/>
      <g id="cloud-data-transfer" transform="translate(3.694 10.747) rotate(-90)">
        <path id="Path_4543" data-name="Path 4543" d="M0,2.767,2.687,0,5.373,2.767" transform="translate(0 0)" fill="none" stroke="#fff" stroke-linecap="round" stroke-linejoin="round" stroke-width="1.4"/>
        <line id="Line_321" data-name="Line 321" y2="8.3" transform="translate(2.687)" fill="none" stroke="#fff" stroke-linecap="round" stroke-linejoin="round" stroke-width="1.4"/>
      </g>
    </g>
  </g>
</svg>
