<svg xmlns="http://www.w3.org/2000/svg" width="31.4" height="26.027" viewBox="0 0 31.4 26.027">
  <g id="credit-card-dollar-1" transform="translate(0.7 0.7)">
    <path id="Path_4522" data-name="Path 4522" d="M7.857,19.349h-4.3A3.1,3.1,0,0,1,.5,16.207V3.641A3.1,3.1,0,0,1,3.558.5H23.438A3.1,3.1,0,0,1,26.5,3.641V5.908" transform="translate(-0.5 -0.5)" fill="none" stroke="#3c3951" stroke-linecap="round" stroke-linejoin="round" stroke-width="1.4"/>
    <line id="Line_313" data-name="Line 313" x2="25.97" transform="translate(0 4.478)" fill="none" stroke="#3c3951" stroke-linecap="round" stroke-linejoin="round" stroke-width="1.4"/>
    <line id="Line_314" data-name="Line 314" x1="8.06" transform="translate(3.582 8.06)" fill="none" stroke="#3c3951" stroke-linecap="round" stroke-linejoin="round" stroke-width="1.4"/>
    <line id="Line_316" data-name="Line 316" x1="4.478" transform="translate(3.582 11.642)" fill="none" stroke="#3c3951" stroke-linecap="round" stroke-linejoin="round" stroke-width="1.4"/>
    <g id="Group_2656" data-name="Group 2656" transform="translate(14.321 9.403)">
      <ellipse id="Ellipse_147" data-name="Ellipse 147" cx="7.839" cy="7.612" rx="7.839" ry="7.612" stroke-width="1.4" stroke="#3c3951" stroke-linecap="round" stroke-linejoin="round" fill="#ae68bb"/>
      <g id="cloud-data-transfer" transform="translate(3.684 10.747) rotate(-90)">
        <path id="Path_4543" data-name="Path 4543" d="M0,0,2.687,2.767,5.373,0" transform="translate(0 5.534)" fill="none" stroke="#fff" stroke-linecap="round" stroke-linejoin="round" stroke-width="1.4"/>
        <line id="Line_321" data-name="Line 321" y1="8.3" transform="translate(2.687)" fill="none" stroke="#fff" stroke-linecap="round" stroke-linejoin="round" stroke-width="1.4"/>
      </g>
    </g>
  </g>
</svg>
