<svg xmlns="http://www.w3.org/2000/svg" width="14.269" height="13.153" viewBox="0 0 14.269 13.153">
  <g id="download" transform="translate(0 -1.786)">
    <g id="Double_Chevron_Down" transform="translate(0 0.786)">
      <path id="Path_4712" data-name="Path 4712" d="M12.734,85.248l-5.6,5.519-5.6-5.519a.9.9,0,0,0-1.272,0,.885.885,0,0,0,0,1.26L6.5,92.653a.932.932,0,0,0,1.273,0l6.235-6.147a.885.885,0,0,0,0-1.26A.908.908,0,0,0,12.734,85.248Z" transform="translate(-0.001 -78.751)" fill="#a4abbf"/>
      <path id="Path_4713" data-name="Path 4713" d="M6.5,8.453a.932.932,0,0,0,1.273,0l6.235-6.146a.885.885,0,0,0,0-1.26.9.9,0,0,0-1.272,0l-5.6,5.519-5.6-5.519a.9.9,0,0,0-1.272,0,.885.885,0,0,0,0,1.26Z" transform="translate(0 0.214)" fill="#ced0d6"/>
    </g>
  </g>
</svg>
