<svg id="del-items" xmlns="http://www.w3.org/2000/svg" width="27" height="27" viewBox="0 0 27 27">
  <rect id="Rectangle_777" data-name="Rectangle 777" width="27" height="27" rx="4" fill="#dbbde0"/>
  <g id="recycling-trash-bin" transform="translate(3.5 4.5)">
    <path id="Path_4583" data-name="Path 4583" d="M16.286,4.26H3.5L4.131,1.1A.752.752,0,0,1,4.869.5H14.917a.752.752,0,0,1,.738.6Z" transform="translate(-0.496 0)" fill="none" stroke="#ae68bb" stroke-linecap="round" stroke-linejoin="round" stroke-width="1"/>
    <path id="Path_4585" data-name="Path 4585" d="M14.863,18.875a.752.752,0,0,1-.746.659h-8.8a.752.752,0,0,1-.752-.682L3.5,7.5H16.286Z" transform="translate(-0.496 -1.735)" fill="none" stroke="#ae68bb" stroke-linecap="round" stroke-linejoin="round" stroke-width="1"/>
    <path id="Path_4586" data-name="Path 4586" d="M17.294,6.252A.752.752,0,0,1,16.542,7H2.252a.752.752,0,0,1,0-1.5h14.29A.752.752,0,0,1,17.294,6.252Z" transform="translate(0 -1.24)" fill="none" stroke="#ae68bb" stroke-linecap="round" stroke-linejoin="round" stroke-width="1"/>
    <path id="Path_4587" data-name="Path 4587" d="M14.863,18.875a.752.752,0,0,1-.746.659h-8.8a.752.752,0,0,1-.752-.682L3.5,7.5H16.286Z" transform="translate(-0.496 -1.735)" fill="none" stroke="#ae68bb" stroke-linecap="round" stroke-linejoin="round" stroke-width="1"/>
    <line id="Line_350" data-name="Line 350" y2="5.265" transform="translate(6.389 9.901)" fill="none" stroke="#ae68bb" stroke-linecap="round" stroke-width="1"/>
    <line id="Line_352" data-name="Line 352" y2="5.265" transform="translate(12.405 9.901)" fill="none" stroke="#ae68bb" stroke-linecap="round" stroke-width="1"/>
    <line id="Line_351" data-name="Line 351" y2="6.769" transform="translate(9.397 8.397)" fill="none" stroke="#ae68bb" stroke-linecap="round" stroke-width="1"/>
  </g>
</svg>
