<svg xmlns="http://www.w3.org/2000/svg" width="233.557" height="95.617" viewBox="0 0 233.557 95.617">
  <g id="Group_2925" data-name="Group 2925" transform="translate(-70.271 -263)">
    <g id="Group_2856" data-name="Group 2856" transform="translate(-3 -86)">
      <g id="Group_2923" data-name="Group 2923">
        <g id="Group_2921" data-name="Group 2921">
          <g id="Group_2847" data-name="Group 2847" transform="translate(3 -30)">
            <g id="Group_2757" data-name="Group 2757" transform="translate(38.271 -89)">
              <g id="Group_2714" data-name="Group 2714" transform="translate(32.5 468)">
                <g id="Group_2706" data-name="Group 2706" transform="translate(0)">
                  <path id="Subtraction_3" data-name="Subtraction 3" d="M42.4,88a61.281,61.281,0,0,1-4.086-12.244q-.451-2.055-.761-4.152H3.451a3.451,3.451,0,0,1,0-6.9H44.7a3.451,3.451,0,0,0-.11-6.9H37.067v0H17.177a3.451,3.451,0,0,1,0-6.9H37.99a61.025,61.025,0,0,1,3.92-12.7A62.189,62.189,0,0,1,47.8,27.577a62.927,62.927,0,0,1,7.806-9.257A64.078,64.078,0,0,1,75.923,4.913,64.732,64.732,0,0,1,100.8,0a65.823,65.823,0,0,1,10.629.857h40.4a3.451,3.451,0,1,1,0,6.9H131.657l0,0h-8.108a3.452,3.452,0,0,0-.137,6.9h42.133a3.452,3.452,0,0,1,0,6.9H149.083l0,0H108.111a3.451,3.451,0,1,0,0,6.9H154.4a62,62,0,0,1,5.288,9.733,61,61,0,0,1,5.023,24.348A61.215,61.215,0,0,1,159.2,88H42.4Z" transform="translate(18.229)" fill="rgba(234,171,247,0.29)"/>
                  <rect id="Rectangle_768" data-name="Rectangle 768" width="12" height="6" rx="3" transform="translate(183.229 1)" fill="rgba(234,171,247,0.29)"/>
                  <rect id="Rectangle_769" data-name="Rectangle 769" width="11" height="7" rx="3.5" transform="translate(196.229 11)" fill="rgba(234,171,247,0.63)"/>
                  <line id="Line_331" data-name="Line 331" x2="202.411" transform="translate(20.672 88.227)" fill="none" stroke="#3c3951" stroke-linecap="round" stroke-width="1"/>
                  <line id="Line_332" data-name="Line 332" x2="44.789" transform="translate(0 91.672)" fill="none" stroke="#3c3951" stroke-linecap="round" stroke-width="1"/>
                  <line id="Line_333" data-name="Line 333" x2="5.168" transform="translate(48.234 91.672)" fill="none" stroke="#3c3951" stroke-linecap="round" stroke-width="1"/>
                  <line id="Line_336" data-name="Line 336" x2="5.168" transform="translate(166.235 91.672)" fill="none" stroke="#3c3951" stroke-linecap="round" stroke-width="1"/>
                  <line id="Line_334" data-name="Line 334" x2="85.271" transform="translate(55.986 91.672)" fill="none" stroke="#3c3951" stroke-linecap="round" stroke-width="1"/>
                  <line id="Line_337" data-name="Line 337" x2="85.271" transform="translate(105.943 95.117)" fill="none" stroke="#3c3951" stroke-linecap="round" stroke-width="1"/>
                  <line id="Line_338" data-name="Line 338" x2="24.978" transform="translate(74.074 95.117)" fill="none" stroke="#3c3951" stroke-linecap="round" stroke-width="1"/>
                  <line id="Line_339" data-name="Line 339" x2="49.957" transform="translate(11.197 95.117)" fill="none" stroke="#3c3951" stroke-linecap="round" stroke-width="1"/>
                  <line id="Line_335" data-name="Line 335" x2="56.847" transform="translate(175.71 91.672)" fill="none" stroke="#3c3951" stroke-linecap="round" stroke-width="1"/>
                </g>
              </g>
            </g>
          </g>
        </g>
      </g>
      <g id="Group_2922" data-name="Group 2922">
        <g id="credit-card-payment" transform="translate(174 372)">
          <path id="Path_3753" data-name="Path 3753" d="M3.223,4.5A2.76,2.76,0,0,0,.5,7.3V52.022a5.52,5.52,0,0,0,5.446,5.591H30.454A5.52,5.52,0,0,0,35.9,52.022V7.3a2.76,2.76,0,0,0-2.723-2.8" transform="translate(-0.5 4.798)" fill="none" stroke="#b16ebd" stroke-linecap="round" stroke-linejoin="round" stroke-width="3.25"/>
          <path id="Path_3754" data-name="Path 3754" d="M.5,7.5H35.9" transform="translate(-0.5 11.303)" fill="none" stroke="#b16ebd" stroke-linecap="round" stroke-linejoin="round" stroke-width="3.25"/>
          <path id="Path_3755" data-name="Path 3755" d="M.5,11.5H35.9" transform="translate(-0.5 18.205)" fill="none" stroke="#b16ebd" stroke-linecap="round" stroke-linejoin="round" stroke-width="3.25"/>
          <line id="Line_36" data-name="Line 36" x2="2.383" transform="translate(5.514 48.783)" fill="none" stroke="#b16ebd" stroke-linecap="round" stroke-linejoin="round" stroke-width="3.25"/>
          <line id="Line_37" data-name="Line 37" x2="2.383" transform="translate(13.768 48.783)" fill="none" stroke="#b16ebd" stroke-linecap="round" stroke-linejoin="round" stroke-width="3.25"/>
          <line id="Line_38" data-name="Line 38" x2="2.383" transform="translate(22.023 48.783)" fill="none" stroke="#b16ebd" stroke-linecap="round" stroke-linejoin="round" stroke-width="3.25"/>
          <line id="Line_39" data-name="Line 39" x2="2.383" transform="translate(5.514 55.256)" fill="none" stroke="#b16ebd" stroke-linecap="round" stroke-linejoin="round" stroke-width="3.25"/>
          <line id="Line_40" data-name="Line 40" x2="2.383" transform="translate(13.768 55.256)" fill="none" stroke="#b16ebd" stroke-linecap="round" stroke-linejoin="round" stroke-width="3.25"/>
          <line id="Line_41" data-name="Line 41" x2="2.383" transform="translate(22.023 55.256)" fill="none" stroke="#b16ebd" stroke-linecap="round" stroke-linejoin="round" stroke-width="3.25"/>
          <g id="Group_2924" data-name="Group 2924" transform="translate(0 0)">
            <line id="Line_42" data-name="Line 42" x2="2.383" transform="translate(5.514 43.332)" fill="none" stroke="#b16ebd" stroke-linecap="round" stroke-linejoin="round" stroke-width="3.25"/>
          </g>
          <line id="Line_43" data-name="Line 43" x2="2.383" transform="translate(13.768 43.332)" fill="none" stroke="#b16ebd" stroke-linecap="round" stroke-linejoin="round" stroke-width="3.25"/>
          <line id="Line_44" data-name="Line 44" x2="2.383" transform="translate(22.023 43.332)" fill="none" stroke="#b16ebd" stroke-linecap="round" stroke-linejoin="round" stroke-width="3.25"/>
          <line id="Line_45" data-name="Line 45" x2="4.765" transform="translate(5.581 37.881)" fill="none" stroke="#b16ebd" stroke-linecap="round" stroke-linejoin="round" stroke-width="3.25"/>
          <line id="Line_46" data-name="Line 46" x2="2.383" transform="translate(16.52 37.881)" fill="none" stroke="#b16ebd" stroke-linecap="round" stroke-linejoin="round" stroke-width="3.25"/>
          <line id="Line_47" data-name="Line 47" x2="4.765" transform="translate(25.076 37.881)" fill="none" stroke="#b16ebd" stroke-linecap="round" stroke-linejoin="round" stroke-width="3.25"/>
          <line id="Line_48" data-name="Line 48" y1="9.539" transform="translate(30.644 45.717)" fill="none" stroke="#b16ebd" stroke-linecap="round" stroke-linejoin="round" stroke-width="3.25"/>
          <path id="Path_3756" data-name="Path 3756" d="M3.5,17.054V2.289a1.164,1.164,0,0,1,.719-1.021,1.858,1.858,0,0,1,1.476-.045L9.529,2.745,13.228.8A1.846,1.846,0,0,1,14.9.8l3.675,1.944,3.859-1.522a1.858,1.858,0,0,1,1.467.051,1.164,1.164,0,0,1,.715,1.015V17.054" transform="translate(3.648 -0.601)" fill="none" stroke="#b16ebd" stroke-linecap="round" stroke-linejoin="round" stroke-width="3.25"/>
          <line id="Line_49" data-name="Line 49" x2="7.148" transform="translate(14.137 6.913)" fill="none" stroke="#b16ebd" stroke-linecap="round" stroke-linejoin="round" stroke-width="3.25"/>
          <line id="Line_50" data-name="Line 50" x2="2.383" transform="translate(13.768 13.352)" fill="none" stroke="#b16ebd" stroke-linecap="round" stroke-linejoin="round" stroke-width="3.25"/>
        </g>
      </g>
    </g>
  </g>
</svg>
