<svg xmlns="http://www.w3.org/2000/svg" width="23.794" height="19.949" viewBox="0 0 23.794 19.949"><g transform="translate(-9.749 -12.06)"><path d="M15.823,31.759a2.5,2.5,0,0,1-2.5-2.5V20.755l-1.958,1.657a.842.842,0,0,1-.537.2.831.831,0,0,1-.537-1.466l9.74-8.241a2.488,2.488,0,0,1,3.224,0L33,21.143a.832.832,0,1,1-1.073,1.271l-1.96-1.659v8.508a2.5,2.5,0,0,1-2.5,2.5ZM27.47,30.1a.832.832,0,0,0,.832-.832V19.348l-6.118-5.176a.828.828,0,0,0-1.075,0l-6.118,5.176v9.916a.832.832,0,0,0,.832.832h2.5V25.936a3.328,3.328,0,0,1,6.655,0V30.1Zm-4.159,0V25.936a1.664,1.664,0,0,0-3.328,0V30.1Z" transform="translate(0 0)" fill="#3c3951" stroke="#fff" stroke-width="0.5"/></g></svg>