<svg id="download" xmlns="http://www.w3.org/2000/svg" width="14.269" height="13.152" viewBox="0 0 14.269 13.152">
  <g id="Double_Chevron_Down" transform="translate(0 0)">
    <path id="Path_4712" data-name="Path 4712" d="M12.734,92.642l-5.6-5.519-5.6,5.519a.9.9,0,0,1-1.272,0,.885.885,0,0,1,0-1.26L6.5,85.237a.932.932,0,0,1,1.273,0l6.235,6.147a.885.885,0,0,1,0,1.26A.908.908,0,0,1,12.734,92.642Z" transform="translate(-0.001 -84.986)" fill="#ae68bb"/>
    <path id="Path_4713" data-name="Path 4713" d="M6.5,1.037a.932.932,0,0,1,1.273,0l6.235,6.146a.885.885,0,0,1,0,1.26.9.9,0,0,1-1.272,0l-5.6-5.519-5.6,5.519a.9.9,0,0,1-1.272,0,.885.885,0,0,1,0-1.26Z" transform="translate(0 4.449)" fill="#d6b2dd"/>
  </g>
</svg>
