<svg id="list-bullets" xmlns="http://www.w3.org/2000/svg" width="24" height="21" viewBox="0 0 24 21">
  <path id="Path_4560" data-name="Path 4560" d="M2.5,7A2.5,2.5,0,1,1,5,4.5,2.5,2.5,0,0,1,2.5,7Zm0-4A1.5,1.5,0,1,0,4,4.5,1.5,1.5,0,0,0,2.5,3Z" transform="translate(0 -1.998)" fill="#3c3951"/>
  <path id="Path_4561" data-name="Path 4561" d="M8.5,5a.5.5,0,0,1,0-1h15a.5.5,0,0,1,0,1Z" transform="translate(0 -1.998)" fill="#3c3951"/>
  <path id="Path_4562" data-name="Path 4562" d="M2.5,15A2.5,2.5,0,1,1,5,12.5,2.5,2.5,0,0,1,2.5,15Zm0-4A1.5,1.5,0,1,0,4,12.5,1.5,1.5,0,0,0,2.5,11Z" transform="translate(0 -1.998)" fill="#3c3951"/>
  <path id="Path_4563" data-name="Path 4563" d="M8.5,13a.5.5,0,0,1,0-1h15a.5.5,0,0,1,0,1Z" transform="translate(0 -1.998)" fill="#3c3951"/>
  <path id="Path_4564" data-name="Path 4564" d="M2.5,23A2.5,2.5,0,1,1,5,20.5,2.5,2.5,0,0,1,2.5,23Zm0-4A1.5,1.5,0,1,0,4,20.5,1.5,1.5,0,0,0,2.5,19Z" transform="translate(0 -1.998)" fill="#3c3951"/>
  <path id="Path_4565" data-name="Path 4565" d="M8.5,21a.5.5,0,0,1,0-1h15a.5.5,0,0,1,0,1Z" transform="translate(0 -1.998)" fill="#3c3951"/>
</svg>
