<svg id="list" xmlns="http://www.w3.org/2000/svg" width="26" height="24" viewBox="0 0 26 24">
  <g id="Rectangle_819" data-name="Rectangle 819" fill="none" stroke="#ae68bb" stroke-width="1">
    <rect width="26" height="24" rx="7" stroke="none"/>
    <rect x="0.5" y="0.5" width="25" height="23" rx="6.5" fill="none"/>
  </g>
  <path id="Path_4560" data-name="Path 4560" d="M1.771,5.45A1.75,1.75,0,0,1,0,3.724,1.75,1.75,0,0,1,1.771,2,1.751,1.751,0,0,1,3.542,3.724,1.751,1.751,0,0,1,1.771,5.45Zm0-2.762a1.036,1.036,0,1,0,0,2.071,1.036,1.036,0,1,0,0-2.071Z" transform="translate(4 3.002)" fill="#ae68bb" stroke="#ae68bb" stroke-width="0.4"/>
  <path id="Path_4561" data-name="Path 4561" d="M8.354,4.688a.345.345,0,1,1,0-.69H18.979a.345.345,0,1,1,0,.69Z" transform="translate(1.667 2.383)" fill="#ae68bb" stroke="#ae68bb" stroke-width="0.4"/>
  <path id="Path_4562" data-name="Path 4562" d="M1.771,13.45a1.727,1.727,0,1,1,0-3.452,1.727,1.727,0,1,1,0,3.452Zm0-2.762a1.036,1.036,0,1,0,0,2.071,1.036,1.036,0,1,0,0-2.071Z" transform="translate(4 0.526)" fill="#ae68bb" stroke="#ae68bb" stroke-width="0.4"/>
  <path id="Path_4563" data-name="Path 4563" d="M8.354,12.688a.345.345,0,1,1,0-.69H18.979a.345.345,0,1,1,0,.69Z" transform="translate(1.667 -0.093)" fill="#ae68bb" stroke="#ae68bb" stroke-width="0.4"/>
  <path id="Path_4564" data-name="Path 4564" d="M1.771,21.45a1.727,1.727,0,1,1,0-3.452,1.727,1.727,0,1,1,0,3.452Zm0-2.762a1.036,1.036,0,1,0,0,2.071,1.036,1.036,0,1,0,0-2.071Z" transform="translate(4 -1.95)" fill="#ae68bb" stroke="#ae68bb" stroke-width="0.4"/>
  <path id="Path_4565" data-name="Path 4565" d="M8.354,20.688a.345.345,0,1,1,0-.69H18.979a.345.345,0,1,1,0,.69Z" transform="translate(1.667 -2.569)" fill="#ae68bb" stroke="#ae68bb" stroke-width="0.4"/>
</svg>
