<svg id="mobile-phone-2" xmlns="http://www.w3.org/2000/svg" width="15" height="25.714" viewBox="0 0 15 25.714">
  <path id="Path_3767" data-name="Path 3767" d="M12.054,22.357a.8.8,0,0,1-.058-1.6H12a.406.406,0,0,1,.049,0,.8.8,0,1,1,0,1.607Z" transform="translate(-4.554 1.482)" fill="#3c3951"/>
  <path id="Path_3768" data-name="Path 3768" d="M7.679,25.714A2.682,2.682,0,0,1,5,23.036V2.679A2.681,2.681,0,0,1,7.679,0h9.643A2.682,2.682,0,0,1,20,2.679V23.036a2.682,2.682,0,0,1-2.679,2.679ZM6.071,23.036a1.609,1.609,0,0,0,1.607,1.607h9.643a1.609,1.609,0,0,0,1.607-1.607V21.429H6.071Zm12.857-2.679V2.679a1.609,1.609,0,0,0-1.607-1.607H7.679A1.609,1.609,0,0,0,6.071,2.679V20.357Z" transform="translate(-5)" fill="#3c3951"/>
</svg>
