<svg id="Group_2856" data-name="Group 2856" xmlns="http://www.w3.org/2000/svg" width="307" height="10.781" viewBox="0 0 307 10.781">
  <path id="Union_4" data-name="Union 4" d="M8.628,0l8.9,9.058L26.424,0l8.9,9.058L44.221,0l8.9,9.058L62.017,0l8.9,9.058L79.814,0l8.9,9.058L97.61,0l8.9,9.058L115.407,0l8.9,9.058L133.2,0l8.9,9.058L151,0l8.9,9.058L168.8,0l8.9,9.058L186.593,0l8.9,9.058L204.39,0l8.9,9.058L222.186,0l8.9,9.058L239.983,0l8.9,9.058L257.779,0l8.9,9.058L275.576,0l8.9,9.058L293.372,0,302,8.783V8.81H0V8.783Z" transform="translate(0 0)" fill="#ddd"/>
  <path id="Union_5" data-name="Union 5" d="M8.628,0l8.9,9.058L26.424,0l8.9,9.058L44.221,0l8.9,9.058L62.017,0l8.9,9.058L79.814,0l8.9,9.058L97.61,0l8.9,9.058L115.407,0l8.9,9.058L133.2,0l8.9,9.058L151,0l8.9,9.058L168.8,0l8.9,9.058L186.593,0l8.9,9.058L204.39,0l8.9,9.058L222.186,0l8.9,9.058L239.983,0l8.9,9.058L257.779,0l8.9,9.058L275.576,0l8.9,9.058L293.372,0,302,8.783v2H0v-2Z" transform="translate(5 0)" fill="#fff"/>
</svg>
