<svg xmlns="http://www.w3.org/2000/svg" width="307" height="10.781" viewBox="0 0 307 10.781">
  <g id="Group_2856" data-name="Group 2856" transform="translate(0 1.723)">
    <path id="Union_4" data-name="Union 4" d="M8.628,9.059,17.526,0l8.9,9.059L35.322,0l8.9,9.059L53.119,0l8.9,9.059L70.915,0l8.9,9.059L88.712,0l8.9,9.059L106.509,0l8.9,9.059L124.305,0l8.9,9.059L142.1,0,151,9.059,159.9,0l8.9,9.059L177.695,0l8.9,9.059L195.491,0l8.9,9.059L213.288,0l8.9,9.059L231.084,0l8.9,9.059L248.881,0l8.9,9.059L266.677,0l8.9,9.059L284.474,0l8.9,9.059L302,.275V.249H0V.275Z" transform="translate(0 0)" fill="#ddd"/>
    <path id="Union_5" data-name="Union 5" d="M8.628,9.059,17.526,0l8.9,9.059L35.322,0l8.9,9.059L53.119,0l8.9,9.059L70.915,0l8.9,9.059L88.712,0l8.9,9.059L106.509,0l8.9,9.059L124.305,0l8.9,9.059L142.1,0,151,9.059,159.9,0l8.9,9.059L177.695,0l8.9,9.059L195.491,0l8.9,9.059L213.288,0l8.9,9.059L231.084,0l8.9,9.059L248.881,0l8.9,9.059L266.677,0l8.9,9.059L284.474,0l8.9,9.059L302,.275v-2H0v2Z" transform="translate(5 0)" fill="#fff"/>
  </g>
</svg>
