<?xml version="1.0" encoding="utf-8"?>
<!-- Generator: Adobe Illustrator 17.0.0, SVG Export Plug-In . SVG Version: 6.00 Build 0)  -->
<!DOCTYPE svg PUBLIC "-//W3C//DTD SVG 1.1//EN" "http://www.w3.org/Graphics/SVG/1.1/DTD/svg11.dtd">
<svg version="1.1" id="Layer_1" xmlns="http://www.w3.org/2000/svg" xmlns:xlink="http://www.w3.org/1999/xlink" x="0px" y="0px"
	 width="1190.55px" height="841.89px" viewBox="0 0 1190.55 841.89" enable-background="new 0 0 1190.55 841.89"
	 xml:space="preserve">
<g>
	<g>
		<path fill="#1684B9" d="M614.05,179.993L614.05,179.993h-6.339c-5.397,0-10.775-0.622-16.025-1.864
			c-9.948-2.343-20.13-3.53-30.353-3.53H403.068c-10.207,0-20.382,1.184-30.321,3.524l-0.048,0.01
			c-5.247,1.238-10.619,1.861-16.006,1.861h-6.323H239.278h-6.339c-5.394,0-10.769-0.619-16.022-1.861
			c-4.979-1.165-10.006-2.062-15.068-2.643c-5.075-0.597-10.175-0.894-15.285-0.894h-68.49c-5.901,0-10.686,4.784-10.686,10.686
			c0,5.901,4.784,10.686,10.686,10.686h68.49c10.296,0,20.554-1.21,30.573-3.591c5.174-1.232,10.485-1.806,15.802-1.806h6.339
			v-0.003h117.415c5.391,0,10.762,0.626,16.006,1.861l0.048,0.01c9.939,2.343,20.114,3.527,30.321,3.527h158.265
			c10.22,0,20.404-1.187,30.353-3.533c5.25-1.235,10.628-1.864,16.022-1.864h494.169v-10.574H614.05z"/>
		<rect x="99.036" y="87.35" fill="#1684B9" width="1002.758" height="10.574"/>
		<path fill="#1684B9" d="M454.123,128.804c5.388,0,10.762,0.622,16.009,1.861l0.048,0.013c9.939,2.339,20.111,3.52,30.321,3.52
			h71.104c10.22,0,20.404-1.184,30.353-3.53c5.25-1.238,10.628-1.864,16.025-1.864h6.339h477.47V118.23h-477.47h-6.339
			c-5.397,0-10.775-0.626-16.025-1.861c-9.948-2.349-20.133-3.533-30.353-3.533h-71.104c-10.21,0-20.382,1.181-30.321,3.524
			l-0.048,0.01c-5.247,1.235-10.622,1.861-16.009,1.861H447.8H99.037v10.574H447.8H454.123z"/>
		<path fill="#1684B9" d="M385.025,159.686c5.391,0,10.762,0.622,16.009,1.861l0.048,0.01c9.939,2.339,20.114,3.524,30.321,3.524
			h129.933c10.217,0,20.404-1.184,30.35-3.53c5.254-1.238,10.632-1.864,16.025-1.864h6.339h487.744v-10.574H614.049h-6.339
			c-5.394,0-10.772-0.626-16.025-1.864c-9.945-2.346-20.13-3.53-30.35-3.53H431.403c-10.207,0-20.382,1.181-30.321,3.524
			l-0.048,0.01c-5.247,1.235-10.619,1.861-16.009,1.861h-6.32H99.035v10.574h279.67H385.025z"/>
		<path fill="#1684B9" d="M565.242,241.756c-5.397,0-10.772-0.626-16.025-1.864c-9.948-2.346-20.133-3.53-30.353-3.53H366.407
			c-10.21,0-20.382,1.181-30.318,3.52l-0.051,0.013c-5.247,1.238-10.619,1.861-16.009,1.861h-2.745v-0.003h-6.339
			c-5.397,0-10.769-0.619-16.022-1.858c-4.979-1.168-10.009-2.062-15.071-2.646c-5.075-0.597-10.172-0.891-15.285-0.891H134.226
			c-5.901,0-10.686,4.784-10.686,10.683c0,5.905,4.784,10.689,10.686,10.689h130.341c10.3,0,20.558-1.21,30.573-3.591
			c5.177-1.232,10.485-1.81,15.805-1.81h6.339h2.745c5.391,0,10.762,0.626,16.009,1.861l0.051,0.01
			c9.936,2.343,20.108,3.524,30.318,3.524h152.456c10.22,0,20.404-1.184,30.353-3.533c5.254-1.235,10.628-1.861,16.025-1.861h6.339
			h530.299v-10.574H571.58H565.242z"/>
		<path fill="#1684B9" d="M538.847,272.638c-5.394,0-10.772-0.626-16.025-1.864c-9.945-2.346-20.133-3.53-30.35-3.53H366.407
			c-10.21,0-20.382,1.181-30.318,3.52l-0.051,0.013c-3.798,0.894-7.663,1.459-11.557,1.708c-3.897-0.249-7.772-0.811-11.579-1.708
			c-4.979-1.168-10.006-2.062-15.071-2.646c-5.075-0.597-10.172-0.891-15.282-0.891H152.205c-5.901,0-10.686,4.784-10.686,10.683
			c0,5.901,4.784,10.686,10.686,10.686h130.345c10.296,0,20.554-1.21,30.573-3.587c3.725-0.887,7.523-1.42,11.343-1.66
			c3.897,0.249,7.768,0.811,11.573,1.711l0.051,0.01c9.936,2.343,20.107,3.524,30.318,3.524h126.064
			c10.217,0,20.404-1.184,30.35-3.533c5.254-1.235,10.632-1.861,16.025-1.861h6.339h556.694v-10.574H545.185H538.847z"/>
		<path fill="#1684B9" d="M504.056,303.517h-6.339c-5.394,0-10.772-0.622-16.025-1.864c-9.948-2.343-20.13-3.527-30.353-3.527
			h-78.196c-10.207,0-20.379,1.181-30.318,3.52l-0.048,0.013c-3.9,0.916-7.871,1.497-11.867,1.733
			c-4.002-0.236-7.979-0.814-11.889-1.733c-4.979-1.168-10.006-2.065-15.071-2.646c-5.075-0.597-10.172-0.894-15.282-0.894H173.786
			c-5.898,0-10.683,4.784-10.683,10.686c0,5.901,4.784,10.686,10.683,10.686H288.67c10.293,0,20.554-1.21,30.57-3.591
			c3.83-0.91,7.733-1.459,11.659-1.682c3.999,0.236,7.976,0.814,11.879,1.733l0.048,0.013c9.936,2.343,20.111,3.524,30.318,3.524
			h78.196c10.223,0,20.408-1.184,30.353-3.533c5.25-1.235,10.628-1.864,16.025-1.864h604.16v-10.574H504.056z"/>
		<path fill="#1684B9" d="M578.771,396.163c-5.394,0-10.772-0.626-16.025-1.864c-9.945-2.346-20.133-3.53-30.35-3.53h-97.148
			c-10.21,0-20.382,1.181-30.321,3.52l-0.048,0.013c-4.43,1.044-8.953,1.625-13.498,1.791c-4.57-0.163-9.112-0.74-13.568-1.791
			c-4.982-1.168-10.009-2.062-15.071-2.646c-5.075-0.597-10.175-0.89-15.285-0.89h-41.469c-5.901,0-10.686,4.784-10.686,10.683
			c0,5.905,4.784,10.689,10.686,10.689h41.469c10.296,0,20.558-1.21,30.573-3.591c4.36-1.037,8.819-1.583,13.296-1.739
			c4.564,0.163,9.103,0.74,13.552,1.79l0.048,0.01c9.939,2.343,20.111,3.524,30.321,3.524h97.148c10.217,0,20.404-1.184,30.35-3.53
			c5.254-1.238,10.632-1.864,16.025-1.864h6.339h516.769v-10.574H585.109H578.771z"/>
		<path fill="#1684B9" d="M597.657,427.045h-6.339c-5.394,0-10.772-0.626-16.025-1.864c-9.948-2.346-20.13-3.53-30.353-3.53h-87.187
			c-10.21,0-20.385,1.181-30.321,3.52l-0.051,0.013c-5.222,1.232-10.568,1.851-15.933,1.858h-1.037
			c-5.397,0-10.772-0.619-16.025-1.858c-4.979-1.168-10.006-2.062-15.068-2.646c-5.075-0.597-10.175-0.89-15.285-0.89h-65.25
			c-5.901,0-10.686,4.784-10.686,10.683c0,5.901,4.784,10.686,10.686,10.686h65.25c10.296,0,20.558-1.21,30.573-3.587
			c5.177-1.232,10.485-1.81,15.805-1.81h1.044c5.362,0.006,10.708,0.629,15.93,1.861l0.048,0.01
			c9.936,2.343,20.111,3.524,30.321,3.524h87.187c10.223,0,20.404-1.184,30.353-3.533c5.25-1.235,10.628-1.861,16.022-1.861h510.562
			v-10.574H597.657z"/>
		<path fill="#1684B9" d="M534.924,365.278h-6.335c-5.397,0-10.772-0.616-16.025-1.858c-4.979-1.165-10.006-2.062-15.071-2.643
			c-5.072-0.597-10.172-0.894-15.282-0.894H263.664c-5.901,0-10.686,4.784-10.686,10.683c0,5.905,4.784,10.689,10.686,10.689
			h218.546c10.296,0,20.554-1.21,30.573-3.591c5.174-1.232,10.485-1.81,15.805-1.81h6.335h566.955v-10.574H534.924V365.278z"/>
		<path fill="#1684B9" d="M445.046,334.399h-6.335c-5.397,0-10.772-0.619-16.025-1.861c-4.979-1.165-10.006-2.062-15.071-2.643
			c-5.072-0.597-10.172-0.894-15.282-0.894H205.946c-5.901,0-10.686,4.784-10.686,10.686c0,5.901,4.784,10.686,10.686,10.686
			h186.387c10.296,0,20.554-1.21,30.573-3.591c5.177-1.232,10.485-1.806,15.805-1.806h6.335v-0.003h656.833v-10.574H445.046z"/>
		<path fill="#1684B9" d="M614.05,457.923h-6.339c-5.397,0-10.775-0.622-16.025-1.864c-9.948-2.343-20.13-3.527-30.353-3.527
			h-70.571c-10.207,0-20.382,1.181-30.318,3.52l-0.051,0.013c-5.247,1.235-10.619,1.858-16.006,1.858h-6.323h-5.771h-6.339
			c-5.397,0-10.769-0.619-16.022-1.858c-4.982-1.168-10.006-2.065-15.071-2.646c-5.075-0.597-10.172-0.894-15.282-0.894h-73.594
			c-5.901,0-10.686,4.784-10.686,10.686s4.784,10.686,10.686,10.686h73.594c10.293,0,20.554-1.21,30.57-3.591
			c5.177-1.229,10.485-1.807,15.805-1.807h6.339v-0.003h12.093c5.391,0,10.762,0.626,16.006,1.861l0.051,0.013
			c9.936,2.343,20.111,3.524,30.321,3.524h70.568c10.22,0,20.404-1.184,30.353-3.533c5.25-1.235,10.628-1.864,16.022-1.864h494.169
			v-10.574H614.05z"/>
		<path fill="#1684B9" d="M601.025,488.805c-5.394,0-10.772-0.622-16.025-1.864c-9.948-2.343-20.133-3.53-30.35-3.53h-2.244
			c-10.207,0-20.382,1.184-30.318,3.524l-0.051,0.01c-5.247,1.238-10.619,1.861-16.009,1.861h-6.32h-74.564h-6.335
			c-5.397,0-10.772-0.619-16.025-1.861c-4.979-1.165-10.006-2.062-15.068-2.643c-5.075-0.597-10.175-0.894-15.285-0.894h-43.809
			c-5.901,0-10.686,4.784-10.686,10.686s4.784,10.686,10.686,10.686h43.809c10.296,0,20.554-1.21,30.573-3.591
			c5.174-1.232,10.485-1.806,15.805-1.806h6.335v-0.003h74.564h6.32c5.391,0,10.762,0.626,16.009,1.861l0.051,0.01
			c9.936,2.343,20.111,3.527,30.318,3.527h2.241c10.22,0,20.404-1.184,30.353-3.533c5.254-1.235,10.632-1.864,16.025-1.864h6.339
			h494.514v-10.574H607.364H601.025z"/>
		<path fill="#1684B9" d="M593.808,210.875h-6.339c-5.397,0-10.775-0.626-16.025-1.864c-9.948-2.346-20.133-3.53-30.353-3.53H376.72
			c-10.21,0-20.382,1.184-30.321,3.524l-0.048,0.01c-5.247,1.238-10.619,1.861-16.009,1.861h-6.323h-38.348v-0.003h-6.339
			c-5.397,0-10.769-0.616-16.022-1.858c-4.979-1.165-10.009-2.062-15.068-2.643c-5.078-0.6-10.175-0.894-15.288-0.894H128.53
			c-5.901,0-10.686,4.784-10.686,10.683c0,5.905,4.784,10.689,10.686,10.689h104.425c10.3,0,20.558-1.21,30.576-3.591
			c5.174-1.232,10.481-1.81,15.802-1.81h6.339h44.674c5.391,0,10.759,0.626,16.006,1.861l0.048,0.01
			c9.939,2.343,20.111,3.524,30.321,3.524h164.371c10.22,0,20.404-1.184,30.353-3.53c5.25-1.238,10.628-1.864,16.022-1.864h514.414
			v-10.574H593.808z"/>
		<path fill="#1684B9" d="M422.223,519.369h-30.158c-4.136,0-8.222-0.868-11.959-2.541c-3.737-1.669-7.823-2.537-11.959-2.537
			h-1.318c-5.901,0-10.686,4.5-10.686,10.054c0,5.55,4.784,10.051,10.686,10.051h1.318c4.136,0,8.222-0.865,11.959-2.537
			c1.478-0.661,3.013-1.19,4.58-1.596h716v-10.574H422.223V519.369z"/>
		<path fill="#1684B9" d="M1100.647,161.834c0.182-0.14,0.367-0.284,0.549-0.424v0.568
			C1101.014,161.926,1100.829,161.882,1100.647,161.834"/>
		<path fill="#1684B9" d="M1059.464,595.383c-7.625,5.997-15.314,11.918-22.492,18.47c-3.744,3.415-6.524,7.392-8.033,12.355
			c1.382,0.137,1.998-0.827,2.764-1.414c4.922-3.801,9.741-7.727,14.723-11.448c12.16-9.09,23.835-18.754,35.086-28.945
			c8.059-7.303,14.905-15.553,19.683-25.399V557.3C1087.656,570.399,1074.312,583.708,1059.464,595.383"/>
		<path fill="#1684B9" d="M612.811,733.716c-1.305-0.948-2.371-1.021-3.255,0.488c-1.226,2.103-2.378,4.258-3.702,6.297
			c-1.344,2.065-1.302,3.664,0.811,5.247c1.392,1.044,2.716,2.269,3.607,3.846h1.695c0.948-2.225,2.738-3.935,3.607-6.227
			C617.044,739.49,616.124,736.119,612.811,733.716"/>
		<path fill="#1684B9" d="M110.325,599.027c3.559,0.97,7.213,1.353,10.922,1.277c16.593-0.112,29.453-6.904,38.61-20.953
			c8.266-12.687,11.567-26.871,13.166-41.562c1.858-17.037,0.74-34.282,3.227-51.293c0.093-0.645,0.262-1.475-0.546-1.688
			c-0.804-0.217-1.079,0.613-1.347,1.184c-2.027,4.347-3.929,8.755-6.067,13.044c-2.279,4.574-3.163,9.361-3.255,14.439
			c-0.23,12.151-0.6,24.298-1.044,36.439c-0.511,13.912-6.687,22.613-19.252,26.871c-9.786,3.313-19.788,3.492-29.778,0.926
			c-6.629-1.704-9.233-5.56-8.831-12.448c0.057-0.999,0.517-2.429-0.734-2.697c-1.519-0.326-1.577,1.315-1.854,2.317
			c-1.905,6.83-2.828,13.839-3.141,20.896C100.095,592.634,103.676,597.22,110.325,599.027"/>
		<path fill="#1684B9" d="M711.747,665.011c3.147-1.532,6.868-10.067,5.825-13.964c-1.079,1.545-2.126,2.857-2.956,4.293
			c-0.855,1.478-2.138,2.039-3.555,1.462c-3.214-1.315-5.196,0.383-7.07,2.521c-1.056,1.203-1.982,2.521-3.061,3.699
			c-4.791,5.244-12.923,3.635-15.33-3.026c-0.878-2.432-1.009-4.969-0.83-7.529c0.514-7.223,1.848-14.34,3.048-21.77
			c-1.672,0.373-1.861,1.532-2.314,2.371c-4.654,8.653-6.348,18.084-6.703,27.736c-0.188,5.135-1.254,9.786-3.846,14.225
			c-2.129,3.642-4.203,7.35-5.515,11.413c-1.963,6.093-1.082,8.244,4.625,11.091c5.311,2.652,5.866,4.529,2.694,9.578
			c-0.744,1.187-1.669,2.288-2.659,3.284c-5.314,5.356-11.889,7.813-19.322,8.027c-12.99,0.377-19.172-7.354-16.035-19.989
			c0.98-3.939,2.541-7.67,4.12-11.397c2.017-4.759,3.977-9.543,5.882-14.347c0.281-0.699,0.993-1.835,0.035-2.292
			c-1.152-0.543-1.503,0.814-1.87,1.554c-4.491,9-9.08,17.956-11.838,27.707c-1.494,5.289-2.582,10.584-2.189,16.134
			c0.852,12.029,8.822,19.061,20.65,17.931c5.119-0.488,9.569-2.707,13.399-6.106c8.959-7.947,13.782-18.215,16.246-29.689
			c1.411-6.578,1.542-12.894-6.016-16.3c-0.744-0.335-1.321-1.13-0.894-2.129c0.935-2.199,1.807-4.449,3.68-6.201
			c4.181,8.953,13.003,8.889,18.017,0.645c1.12-1.845,2.355-3.638,3.686-5.333c1.842-2.343,4.14-3.808,7.334-3.259
			C709.902,665.509,710.85,665.448,711.747,665.011"/>
		<path fill="#1684B9" d="M533.374,657.191c-0.358-0.115-0.712-0.243-1.072-0.341c-1.822-0.511-3.546-0.645-5.119-0.434
			c-4.73,0.626-8.126,4.312-8.793,10.095h0.003v0.003c0.641,0.096,0.926-0.287,1.184-0.699c0.086-0.137,0.169-0.278,0.265-0.402
			c2.981-3.954,4.653-4.475,9.438-2.863c1.248,0.421,2.48,0.891,3.683,1.42c2.872,1.264,2.936,1.401,0.724,3.482
			c-3.776,3.546-7.564,7.092-11.761,10.146c-4.471,3.255-9.431,5.445-14.883,6.46c-1.063,0.198-2.043,0.466-2.116-1.245
			c-0.083-1.944-0.993-1.529-2.132-0.626c-4.995,3.954-10.561,6.811-16.667,8.685c-14.452,4.43-29.245,5.027-44.182,4.14
			c-4.695-0.281-9.377-0.642-13.97-1.848c-4.248-1.117-6.635-3.709-7.143-8.043c-0.109-0.9-0.14-1.816-1.034-2.397
			c-1.063,0.804-1.124,1.864-1.299,2.86c-0.686,3.804-1.127,7.631-1.114,11.506c0.026,7.826,3.169,11.442,10.947,12.304
			c14.251,1.583,28.412,0.846,42.395-2.288c10.223-2.295,20.146-5.78,27.388-13.641c3.492-3.789,6.329-5.043,10.82-2.71
			c3.571,1.854,6.208,0.386,8.985-2.225c8.506-7.992,16.721-16.329,26.121-23.331c2.56-1.909,3.169-4.669,3.581-7.676
			C540.775,659.623,540.775,659.623,533.374,657.191"/>
		<path fill="#1684B9" d="M1002.993,691.669c0.575-1.056,1.5-1.928,2.285-2.863c2.18-2.595,5.081-3.706,8.318-3.249
			c2.429,0.338,3.958-0.568,5.362-2.266c4.188-5.059,6.891-10.775,7.583-17.337c1.283-12.189,1.12-24.461,1.995-36.675
			c0.054-0.756,0.268-1.676-0.677-2.26c-0.201,0.233-0.466,0.409-0.546,0.645c-3.054,9.058-6.929,17.931-5.755,27.889
			c0.297,2.515,0.134,5.081,0.118,7.628c-0.026,3.578-0.15,7.149-1.123,10.641c-0.626,2.237-1.778,3.514-4.283,2.71
			c-2.167-0.699-4.073-0.003-5.901,1.095c-1.826,1.088-3.176,2.678-4.312,4.411c-2.541,3.875-6.192,6.24-10.376,7.931
			c-3.846,1.554-7.823,2.742-11.863,3.613c-14.318,3.077-28.824,2.815-43.33,2.116c-2.62-0.124-5.183-0.859-7.631-1.931
			c-2.716-1.19-4.376-3.093-4.874-6.08c-0.204-1.242-0.093-2.665-1.162-3.635c-0.574,0.16-0.792,0.587-0.894,1.034
			c-1.091,4.985-1.909,10.028-1.459,15.125c0.578,6.489,3.648,9.562,10.217,10.376c15.502,1.918,30.844,0.929,45.944-3.061
			C990.012,705.042,998.132,700.638,1002.993,691.669"/>
		<path fill="#1684B9" d="M818.969,616.173c-0.9,0.456-1.197,1.398-1.672,2.183c-3.868,6.342-5.809,13.191-5.739,20.66
			c0.038,4.229,0.361,8.496-0.364,12.696c-0.568,3.297-3.246,5.285-6.444,5.075c-2.863-0.191-4.066-1.752-4.459-5.477
			c-0.635-5.991,0.383-11.838,1.43-17.682c0.859-4.778,1.81-9.543,2.716-14.315c-0.341-0.093-0.683-0.185-1.025-0.281
			c-3.096,5.847-6.249,11.723-7.587,18.275c-1.663,8.139-2.03,16.44-2.266,24.735c-0.156,5.372-2.218,7.606-7.427,7.153
			c-12.176-1.056-21.483,4.213-29.462,12.706c-4.73,5.036-8.499,10.801-12.342,16.504c-4.264,6.329-8.541,12.623-14.037,18.023
			c-4.666,4.59-10.06,8.212-15.173,12.218c-1.044,0.823-3.115,1.775-2.359,3.042c0.769,1.293,2.547-0.14,3.753-0.661
			c11.682-5.021,20.522-13.501,28.144-23.404c3.562-4.625,6.76-9.546,10.494-14.024c5.528-6.626,12.486-10.526,21.477-9.62
			c4.175,0.421,7.542-0.964,10.264-4.165c2.745-3.224,5.589-6.371,8.423-9.518c0.731-0.814,1.318-1.66,2.735-0.504
			c2.917,2.384,5.193,2.167,8.062-0.303c1.519-1.309,2.726-2.885,3.69-4.618c4.395-7.909,7.153-16.348,8.081-25.364
			c0.753-7.309,0.109-14.714,1.589-21.968C819.565,617.086,819.846,616.38,818.969,616.173"/>
		<path fill="#1684B9" d="M273.697,573.362c4.286-3.265,6.23-8.388,6.897-13.801c0.185-1.51,0.753-3.099-0.527-4.845
			c-1.625,1.953-1.874,4.28-2.898,6.211c-0.999,1.893-2.065,3.887-4.714,2.783c-2.617-1.095-3.84,0-4.593,2.375
			c-0.338,1.069-0.91,2.059-1.34,3.102c-0.839,2.049-2.387,2.924-4.5,2.438c-2.598-0.594-4.59,0.373-6.418,2.043
			c-1.254,1.139-2.493,2.304-3.811,3.364c-4.376,3.514-9.396,3.974-14.401,2.107c-4.784-1.787-6.444-6.042-6.722-10.864
			c-0.131-2.253-0.255-4.526-0.153-6.776c0.485-10.829,2.097-21.547,3.37-32.297c0.763-6.447,1.701-12.882,1.985-19.38
			c0.026-0.584,0.338-1.487-0.622-1.586c-0.603-0.061-0.852,0.648-1.05,1.175c-2.081,5.643-4.864,11.139-6.093,16.964
			c-3.38,16.041-5.416,32.309-6.185,48.695c-0.265,5.656,0.348,11.302,2.703,16.587c2.177,4.886,6.683,7.516,11.822,6.856
			c3.313-0.428,6.071-2.046,8.276-4.481c2.209-2.442,4.29-5.008,6.339-7.583c2.308-2.901,5.167-4.302,8.902-3.626
			c1.586,0.287,3.163,0.061,4.168-1.171C266.851,578.31,270.301,575.951,273.697,573.362"/>
		<path fill="#1684B9" d="M351.744,680.844c0.23-0.807,0.712-1.813-0.252-2.729c-0.271,0.243-0.619,0.421-0.769,0.709
			c-2.93,5.547-8.017,8.228-13.561,10.398c-10.944,4.283-22.409,5.589-34.017,5.991c-8.576,0.297-17.136,0.026-25.521-2.135
			c-4.858-1.251-8.927-3.233-8.688-9.31c0.026-0.696,0.115-1.969-1.063-1.979c-1.056-0.01-1.149,1.146-1.321,1.921
			c-0.983,4.408-1.858,8.841-2.285,13.338c-0.45,4.743,1.561,8.199,5.742,10.405c1.925,1.018,3.983,1.676,6.134,2.027
			c11.177,1.816,22.345,1.213,33.471-0.386c9.719-1.398,19.099-3.887,27.902-8.515C345.658,696.302,349.373,689.114,351.744,680.844
			"/>
		<path fill="#1684B9" d="M206.802,460.781c17.541-13.651,35.096-27.295,50.655-43.253c7.37-7.558,14.474-15.381,18.362-25.476
			c0.527-1.363,1.363-2.687,1.092-4.261c-0.91-0.211-1.21,0.507-1.625,0.961c-19.281,21.03-40.952,39.414-63.192,57.185
			c-9.336,7.459-18.997,14.544-27.442,23.069c-4.044,4.082-6.798,8.908-7.976,14.927c1.27-0.897,2.585-1.749,3.814-2.703
			C189.271,474.426,198.035,467.605,206.802,460.781"/>
		<path fill="#1684B9" d="M914.974,665.204c-2.368-0.881-2.333,0.996-2.981,2.205c-0.68,1.28-1.194,3.291-3.048,2.62
			c-2.17-0.785-2.92,0.31-3.712,1.784c-1.092,2.036-2.598,3.16-5.046,2.573c-2.158-0.517-3.881,0.377-5.301,1.915
			c-1.149,1.238-2.26,2.525-3.31,3.856c-2.592,3.287-5.956,4.644-9.99,3.597c-4.13-1.066-5.975-4.223-6.709-8.234
			c-0.948-5.196,0.038-10.331,0.396-15.476c0.297-4.255,0.891-8.49,1.35-12.732c-0.223-0.064-0.45-0.128-0.673-0.188
			c-0.211,0.281-0.501,0.53-0.622,0.846c-2.94,7.705-6.703,15.18-6.425,23.765c0.061,1.88-0.073,3.773-0.239,5.643
			c-0.412,4.689-0.373,9.406-1.082,14.078c-0.696,4.577-4.558,8.519-9.591,6.843c-2.011-0.667-4.181-1.184-6.38-0.463
			c-6.792,2.225-11.046,7.239-14.442,13.178c-0.294,0.507-0.68,1.242-0.134,1.851c0.654,0.725,1.216-0.003,1.73-0.278
			c3.999-2.142,8.177-2.617,12.582-1.564c3.096,0.74,5.943,0.035,8.64-1.612c3.658-2.241,6.227-5.407,8.145-9.166
			c0.814-1.593,1.605-3.192,2.426-4.781c0.504-0.967,0.961-1.025,1.921-0.271c5.525,4.35,10.146,3.702,14.433-1.979
			c1.641-2.174,3.032-4.539,4.711-6.683c1.28-1.637,2.904-3.367,5.107-3.125c2.978,0.329,4.752-1.309,6.658-3.003
			c0.98-0.871,1.861-2.107,3.01-2.48c3.517-1.133,5.949-3.661,8.27-6.201c3.022-3.307,4.449-7.376,4.539-12.495
			c-1.586,1.538-1.743,3.118-2.518,4.341C916.241,664.266,915.794,665.51,914.974,665.204"/>
		<path fill="#1684B9" d="M1086.45,652.048c-0.82-0.268-1.312,0.699-1.58,1.337c-0.996,2.365-2.863,3.22-5.26,3.431
			c-2.202,0.198-3.843,1.49-5.174,3.141c-1.714,2.126-3.441,4.251-4.96,6.514c-1.395,2.071-3.045,3.064-5.633,2.876
			c-5.432-0.386-10.392,1.181-15.03,3.993c-4.226,2.563-7.989,5.64-11.279,9.323c-4.283,4.794-7.96,10.047-11.381,15.454
			c-7.245,11.439-15.904,21.454-27.365,28.891c-1.838,1.19-3.763,2.486-4.934,4.778c1.602,0.696,2.694-0.064,3.779-0.523
			c11.994-5.065,21.03-13.727,28.818-23.864c3.441-4.481,6.552-9.224,10.137-13.581c5.407-6.578,12.208-10.539,21.084-9.897
			c3.09,0.227,5.538-0.926,7.236-3.514c2.164-3.303,4.328-6.616,6.383-9.99c2.065-3.402,4.717-5.87,8.895-6.118
			c1.261-0.08,2.132-0.705,2.812-1.647c1.835-2.55,3.07-5.391,3.913-8.4C1087.117,653.51,1087.519,652.396,1086.45,652.048"/>
		<path fill="#1684B9" d="M220.127,534.863c-1.232-0.555-1.969,1.443-2.47,2.541c-2.036,4.446-5.419,7.338-9.859,9.17
			c-1.213,0.501-2.343,1.2-3.501,1.816c-4.427,2.362-8.04,5.541-10.232,10.156c-1.73,3.648-3.798,7.178-5.123,10.967
			c-2.244,6.425-6.728,10.702-12.144,14.353c-5.301,3.571-10.861,6.77-15.853,10.794c-0.884,0.715-2.454,1.302-1.877,2.78
			c0.523,1.353,2.03,1.063,3.546,1.092c3.642-0.29,7.5-1.123,11.366-1.931c7.025-1.468,11.685-5.703,14.366-12.259
			c1.388-3.39,2.857-6.75,4.124-10.185c2.285-6.201,5.905-11.19,12.38-13.376c6.951-2.34,10.411-7.686,12.748-14.088
			c0.964-2.646,1.8-5.34,2.617-8.037C220.606,537.362,221.41,535.438,220.127,534.863"/>
		<path fill="#1684B9" d="M212.644,621.185c1.289-1.727,2.454-3.565,3.52-5.442c3.642-6.412,2.145-10.995-4.551-15.815
			c-1.695-1.222-3.064-1.002-4.162,0.929c-1.755,3.09-3.623,6.112-5.646,9.498c-1.95-3.019-4.162-5.158-6.718-6.98
			c-1.784-1.273-3.054-1.034-4.063,0.945c-1.114,2.174-2.429,4.251-3.463,6.457c-4.788,10.21-5.694,7.146,3.425,15.001
			c1.992,1.72,3.482,1.305,4.973-0.581c1.819-2.308,3.23-4.851,4.449-7.504c0.53-1.155,1.107-1.385,2.046-0.437
			c1.459,1.468,2.933,2.92,4.408,4.373C209.49,624.21,210.4,624.185,212.644,621.185"/>
		<path fill="#1684B9" d="M877.926,645.537c16.807-13.204,34.157-25.734,49.895-40.269c5.343-4.931,10.459-10.076,14.589-16.083
			c1.159-1.688,2.355-3.377,3.351-5.171c0.986-1.781,1.771-3.664,2.126-5.751c0.022,0,0.042-0.006,0.061-0.003
			c0.019-0.029,0.038-0.061,0.057-0.086c0.032-0.01,0.067-0.016,0.093-0.035c0.029-0.022,0.019-0.093,0.026-0.144
			c-0.038,0.057-0.08,0.118-0.118,0.179c-0.035,0.01-0.07,0.026-0.105,0.038c-0.003,0.019-0.01,0.032-0.013,0.051
			c-0.986-0.038-1.35,0.849-1.893,1.395c-15.847,15.904-32.497,30.883-50.349,44.524c-4.788,3.654-9.438,7.507-13.651,11.844
			c-2.818,2.904-4.618,6.383-6.064,10.692C876.965,646.114,877.488,645.878,877.926,645.537"/>
		<path fill="#1684B9" d="M270.019,480.979c-1.708,3.01-3.575,5.924-5.48,9.052c-1.787-2.86-4.066-4.918-6.572-6.76
			c-1.644-1.21-2.863-0.97-3.91,0.807c-2.339,3.967-4.494,8.024-6.457,12.195c-0.843,1.787-0.527,2.984,0.97,4.136
			c1.858,1.433,3.677,2.933,5.442,4.481c1.848,1.621,3.329,1.219,4.778-0.552c1.625-1.979,3.045-4.117,3.98-6.46
			c1.005-2.521,1.998-2.033,3.412-0.476c1.136,1.254,2.34,2.451,3.559,3.626c2.272,2.193,3.204,2.148,5.292-0.29
			c1.535-1.787,2.853-3.725,3.897-5.854c3.035-6.198,1.465-11.327-4.494-14.851C272.588,478.939,271.206,478.888,270.019,480.979"/>
		<path fill="#1684B9" d="M736.47,591.88c8.34-7.529,16.453-15.243,21.614-25.46c0.093-0.179,0.191-0.361,0.294-0.539
			c0.705-1.242,1.557-2.477,1.155-4.066c0.01-0.006,0.013-0.013,0.022-0.019c0.026-0.029,0.054-0.051,0.083-0.08
			c0.089-0.022,0.176-0.045,0.265-0.067c-0.026-0.006-0.054-0.022-0.083-0.032c-0.026-0.013-0.051-0.019-0.064-0.013
			c-0.045,0.029-0.08,0.07-0.115,0.112c-0.042,0.01-0.08,0.019-0.121,0.029v-0.003c0.006,0.022,0.006,0.048,0.013,0.073
			c-0.552,0.488-1.123,0.958-1.647,1.475c-14.283,14.094-28.792,27.933-44.734,40.18c-6.645,5.103-13.249,10.277-19.204,16.198
			c-3.227,3.208-5.528,7.58-5.662,10.628c0.626-0.428,1.184-0.76,1.692-1.159C705.562,616.829,721.705,605.215,736.47,591.88"/>
		<path fill="#1684B9" d="M869.159,565.012c3.766-3.686,6.233-8.209,8.675-12.77c0.268-0.498,0.836-1.12,0.077-1.743
			c-0.887-0.042-1.299,0.693-1.816,1.181c-20.564,19.383-42.108,37.623-63.948,55.532c-3.476,2.847-5.241,6.722-6.434,11.142
			c0.549-0.341,1.13-0.638,1.644-1.025C828.97,601.085,849.824,583.952,869.159,565.012"/>
		<path fill="#1684B9" d="M727.69,702.878c5.052-7.37,7.982-15.486,8.33-24.458c0.089-2.314-0.466-4.478-2.008-6.304
			c-2.595-3.07-5.857-3.045-8.225,0.195c-2.566,3.511-4.203,7.5-5.863,11.506c-1.893,4.574,2.936,7.583,6.383,6.888
			c0.868-0.176,1.666-0.964,2.806-0.243c-1.264,3.859-3.527,6.996-6.833,9.345c-3.527,2.505-7.13,4.896-10.67,7.382
			c-1.114,0.782-2.339,1.51-3.294,3.702c6.323-1.861,11.956-3.243,17.152-5.911C726.343,704.534,727.122,703.707,727.69,702.878"/>
		<path fill="#1684B9" d="M581.456,669.434c-1.398-0.916-2.288-0.852-3.032,0.855c-1.423,3.268-2.984,6.479-4.564,9.677
			c-0.916,1.845-0.46,3.198,1.098,4.414c2.084,1.618,4.018,3.412,5.598,5.541c2.365,3.188,2.333,4.481-0.329,7.389
			c-3.374,3.686-7.022,7.066-11.113,9.958c-1.107,0.785-2.381,1.465-3.038,3.102c1.376,0.332,2.362,0.144,3.383-0.131
			c12.039-3.214,19.769-12.815,20.443-25.31C590.274,677.99,587.051,673.091,581.456,669.434"/>
		<path fill="#1684B9" d="M629.778,665.787c-1.87,4.405-5.573,6.671-9.684,8.547c-3.638,1.66-6.358,4.322-8.065,7.973
			c-1.034,2.215-2.288,4.353-3.08,6.651c-1.752,5.084-5.196,8.595-9.607,11.423c-3.721,2.387-7.331,4.953-10.96,7.478
			c-0.587,0.409-1.452,0.875-1.165,1.746c0.319,0.97,1.315,0.932,2.161,0.884c2.924-0.153,5.761-0.855,8.617-1.423
			c4.95-0.993,8.203-3.967,10.121-8.525c1.021-2.429,2.132-4.826,2.994-7.309c1.641-4.705,4.503-8.139,9.243-9.996
			c8.353-3.271,9.154-11.091,11.356-18.457C630.263,664.743,629.973,665.324,629.778,665.787"/>
		<path fill="#1684B9" d="M1086.361,611.095c-1.165-0.239-1.755,0.361-2.301,1.181c-1.459,2.186-2.911,4.373-4.532,6.808
			c-1.529-1.794-3.01-3.22-4.657-4.491c-1.819-1.404-3.233-1.589-4.456,0.772c-1.296,2.502-2.716,4.953-4.258,7.309
			c-1.417,2.167-0.989,3.511,1.063,5.094c5.965,4.596,6.712,4.622,10.382-1.979c1.267-2.276,2.049-2.183,3.782-0.533
			c4.829,4.599,5.745,4.408,9.342-1.369c0.444-0.718,0.862-1.462,1.197-2.234C1093.727,617.479,1090.81,612.005,1086.361,611.095"/>
		<path fill="#1684B9" d="M205.913,679.495c-1.101-0.476-2.49-1.36-3.428-0.364c-1.465,1.554-3.038,3.753-2.582,5.675
			c0.424,1.781-0.233,2.339-1.136,3.188c-2.509,2.343-4.644,4.96-5.726,8.266c-1.111,3.39-0.6,4.819,2.56,6.39
			c1.95,0.97,2.068,2.071,1.114,3.805c-2.272,4.124-5.892,5.93-10.405,6.227c-4.583,0.306-7.494-2.429-7.66-7.054
			c-0.112-3.019,1.044-5.691,2.091-8.416c0.913-2.384,2.349-4.622,2.244-7.338c-2.904,5.656-5.908,11.276-6.648,17.739
			c-0.613,5.33,1.258,10.012,4.58,11.624c3.504,1.698,8.898,0.252,12.556-3.517c3.591-3.702,5.391-8.314,6.438-13.277
			c0.626-2.971,0.638-5.636-2.841-6.977c-1.522-0.587-1.58-1.561-0.546-2.847c1.822-2.263,4.216-3.731,6.702-5.081
			c1.682-0.919,3.211-1.963,4.149-3.702C208.437,681.863,207.962,680.382,205.913,679.495"/>
		<path fill="#1684B9" d="M928.402,642.301c1.577-2.783,1.577-2.783,3.942-0.476c4.13,4.028,4.625,3.974,7.842-0.929
			c0.361-0.549,0.689-1.123,0.993-1.708c2.407-4.638,1.12-8.624-3.485-11.152c-1.43-0.782-2.426-0.667-3.284,0.772
			c-1.293,2.17-2.652,4.299-4.146,6.703c-1.372-2.014-2.815-3.335-4.382-4.57c-1.669-1.312-2.914-1.388-3.986,0.715
			c-1.232,2.432-2.521,4.845-3.971,7.149c-1.347,2.138-1.056,3.552,0.973,5.183C924.393,648.41,924.945,648.394,928.402,642.301"/>
		<path fill="#1684B9" d="M696.695,714.048c-1.471-0.916-2.576-0.878-3.524,0.709c-1.248,2.081-2.572,4.117-4.101,6.549
			c-1.586-1.714-2.924-3.294-4.408-4.72c-1.372-1.325-2.646-1.171-3.61,0.613c-1.299,2.397-2.566,4.819-3.999,7.14
			c-1.446,2.333-1.066,3.868,1.19,5.589c5.135,3.91,5.774,3.999,8.838-1.752c1.305-2.448,2.154-2.525,4.069-0.654
			c4.12,4.025,4.456,3.916,7.737-0.782c0.214-0.31,0.428-0.619,0.626-0.938C702.45,721.099,701.438,716.994,696.695,714.048"/>
		<path fill="#1684B9" d="M446.87,668.888c5.072,3.903,5.809,3.942,8.825-1.794c1.283-2.435,2.084-2.627,4.025-0.683
			c4.114,4.111,4.58,3.98,7.883-0.891c0.156-0.233,0.313-0.469,0.463-0.705c2.975-4.733,2.055-8.688-2.655-11.768
			c-1.564-1.021-2.735-0.964-3.728,0.728c-1.187,2.02-2.445,4.002-3.773,6.163c-1.561-1.532-2.879-2.86-4.235-4.146
			c-1.637-1.548-3.045-1.628-4.203,0.616c-1.203,2.333-2.403,4.685-3.83,6.884C444.08,665.7,444.696,667.216,446.87,668.888"/>
		<path fill="#1684B9" d="M953.587,673.339c3.105,2.678,3.871,2.544,6.176-0.747c1.008-1.443,1.765-3.942,2.955-4.152
			c1.672-0.297,2.847,2.071,4.27,3.252c0.881,0.734,1.861,1.711,2.946,0.693c2.566-2.403,4.641-5.164,5.209-8.19
			c0.128-2.225-0.262-3.329-1.522-4.982c-3.479-4.567-5.129-4.5-8.053,0.326c-2.308,3.811-2.304,3.811-5.343,0.823
			c-0.469-0.463-0.954-0.913-1.452-1.341c-1.494-1.302-2.786-1.398-3.833,0.571c-0.967,1.826-2.084,3.571-3.029,5.41
			C948.774,671.111,949.253,669.602,953.587,673.339"/>
		<path fill="#1684B9" d="M762.516,625.583c5.119,3.993,5.636,4.012,8.924-1.647c1.695-2.911,1.695-2.911,4.159-0.568
			c4.037,3.836,4.296,3.808,7.51-0.788c0.16-0.233,0.319-0.469,0.472-0.702c3.259-4.963,2.627-8.365-2.122-11.867
			c-1.672-1.235-2.991-1.337-4.133,0.67c-1.159,2.03-2.442,3.986-3.792,6.169c-1.51-1.551-2.837-2.987-4.242-4.344
			c-1.557-1.5-2.94-1.449-4.044,0.587c-1.254,2.311-2.483,4.634-3.856,6.875C759.995,622.257,760.269,623.827,762.516,625.583"/>
		<path fill="#1684B9" d="M295.854,674.433c3.201,2.726,3.884,2.541,6.339-0.862c1.021-1.411,1.325-3.983,2.962-4.101
			c1.561-0.109,2.668,2.132,4.031,3.271c0.865,0.718,1.861,1.807,2.94,0.827c2.745-2.502,4.928-5.413,5.346-8.764
			c-0.029-3-3.195-7.105-5.544-7.848c-1.162-0.364-1.8,0.201-2.333,1.037c-1.108,1.746-2.225,3.485-3.252,5.279
			c-0.667,1.162-1.178,1.155-2.036,0.15c-1.034-1.21-2.193-2.327-3.383-3.386c-1.395-1.242-2.652-1.21-3.626,0.603
			c-0.98,1.816-2.103,3.559-3.048,5.394C291.191,671.956,291.517,670.737,295.854,674.433"/>
		<path fill="#1684B9" d="M617.571,716.134c-1.28-0.565-1.937-0.093-2.534,0.887c-1.305,2.151-2.595,4.306-4.057,6.738
			c-1.232-1.66-2.499-3.016-3.9-4.245c-1.765-1.554-3.185-1.842-4.299,0.696c-0.638,1.459-1.538,2.799-2.215,4.242
			c-3.051,6.533-3.875,4.979,2.509,10.367c1.519,1.283,2.719,1.117,3.737-0.415c1.328-1.992,2.531-4.069,4.194-6.766
			c1.446,1.692,2.687,3.22,4.009,4.679c1.127,1.248,2.257,1.127,3.307-0.172c1.424-1.762,2.681-3.632,3.556-5.723
			C623.523,722.479,621.522,717.876,617.571,716.134"/>
		<path fill="#1684B9" d="M560.637,647.185c-3.99,7.644-6.026,15.709-5.71,24.404c0.287,7.887,0.383,15.799-1.612,23.551
			c-0.163,0.632-0.654,1.612,0.303,1.95c0.852,0.303,1.27-0.626,1.692-1.213c2.276-3.182,3.524-6.827,4.602-10.529
			c2.001-6.865,1.593-13.967,1.953-20.992c0.322-6.364,0.182-12.744,1.117-19.322C561.182,645.337,561.042,646.41,560.637,647.185"
			/>
		<path fill="#1684B9" d="M828.333,654.56c-0.664-0.134-0.974,0.472-1.213,0.967c-2.895,5.924-5.633,11.898-5.933,18.649
			c-0.456,10.303,0.833,20.72-1.982,30.471c-0.057,0.926-0.421,1.615,0.361,1.832c0.785,0.214,1.171-0.508,1.532-1.012
			c3.217-4.548,4.966-9.703,5.742-15.138c1.641-11.477,0.626-23.114,1.979-34.617C828.876,655.211,828.876,654.669,828.333,654.56"
			/>
		<path fill="#1684B9" d="M266.137,482.503c2.93-3.977,5.231-8.244,5.892-12.537c-0.026-4.401-3.549-9.221-7.063-10.548
			c-1.548-0.587-2.483-0.131-3.246,1.222c-2.368,4.187-4.315,8.563-6.102,13.019c-0.431,1.076-0.424,2.033,0.485,2.815
			c2.432,2.087,4.874,4.156,7.334,6.208C264.362,483.454,265.355,483.566,266.137,482.503"/>
		<path fill="#1684B9" d="M373.45,672.847c-0.76-0.176-1.171,0.511-1.443,1.117c-1.258,2.825-2.643,5.611-3.693,8.519
			c-3.501,9.671-9.473,17.168-18.649,22.038c-1.727,0.913-3.265,2.205-4.81,3.425c-0.546,0.431-1.219,1.085-0.833,1.918
			c0.412,0.881,1.277,0.581,2.004,0.476c3.447-0.495,6.773-1.49,10.13-2.381c4.714-1.251,7.855-4.136,9.901-8.48
			c2.365-5.024,4.299-10.207,5.93-15.502c0.938-3.045,1.631-6.166,2.282-8.675C374.328,673.926,374.376,673.061,373.45,672.847"/>
		<path fill="#1684B9" d="M203.05,623.295c-1.222-0.543-1.966-0.195-2.64,0.76c-2.659,3.779-4.829,7.839-6.853,11.985
			c-0.616,1.261-0.316,2.327,0.699,3.297c2.036,1.953,4.041,3.945,6.029,5.946c0.945,0.951,1.915,1.27,2.898,0.16
			c3.224-3.654,5.716-7.679,6.15-11.854C209.328,629.455,206.031,624.616,203.05,623.295"/>
		<path fill="#1684B9" d="M234.077,690.164c-3.683,0.255-5.059,2.85-6.945,5.084c-3.332-2.86-3.983-2.847-7.018,0.093
			c-0.204,0.198-0.409,0.393-0.6,0.6c-1.417,1.51-3.208,1.535-4.979,1.021c-1.8-0.52-2.333-2.174-2.394-3.798
			c-0.08-2.151,0.112-4.318,0.227-6.479c0.057-1.031,0.179-2.055,0.326-3.083c0.447-3.051,1.139-6.074,1.069-9.189
			c0.013-0.006,0.019-0.013,0.029-0.019l-0.029-0.026v0.048c-0.712,0.399-0.798,1.194-1.108,1.838
			c-2.729,5.672-2.407,11.921-3.291,17.937c-0.268,1.835-0.211,3.779,0.057,5.621c0.262,1.781,1.028,3.504,3.054,4.037
			c2.148,0.562,3.884-0.201,5.228-1.909c0.699-0.887,1.331-1.829,2.046-2.7c0.849-1.031,1.749-2.135,3.307-1.395
			c1.439,0.686,1.538,2.014,1.385,3.396c-0.14,1.273-0.648,2.553-0.115,4.567c1.149-2.837,1.937-5.04,2.92-7.149
			c0.833-1.781,1.784-4.13,3.744-4.28c2.4-0.182,3.693-1.759,5.333-2.834c1.685-1.108,2.729-2.904,2.253-6.01
			C237.584,688.341,235.471,690.065,234.077,690.164"/>
		<path fill="#1684B9" d="M1072.837,609.216c1.787,1.369,3.552,2.767,5.333,4.146c0.891,0.686,1.851,1.104,2.723,0.045
			c2.355-2.853,4.146-5.997,4.714-9.358c0.057-3.061-2.448-6.425-5.333-7.762c-1.478-0.683-2.528-0.447-3.265,0.983
			c-1.586,3.08-3.131,6.179-4.73,9.253C1071.707,607.62,1071.857,608.466,1072.837,609.216"/>
		<path fill="#1684B9" d="M927.834,614.156c-1.609,2.978-3.074,6.016-4.363,9.144c-0.44,1.069-0.192,1.807,0.622,2.474
			c1.669,1.372,3.335,2.748,5.014,4.108c0.814,0.657,1.688,0.961,2.451-0.035c2.19-2.866,3.856-5.988,4.475-9.578
			c-0.393-3.172-2.097-5.394-4.72-7.006C929.839,612.353,928.702,612.551,927.834,614.156"/>
		<path fill="#1684B9" d="M714.2,620.218c-1.424,2.534-2.812,5.078-3.846,7.797c-0.463,1.213-1.206,2.573-0.01,3.67
			c1.985,1.819,4.041,3.619,6.709,4.411c0.243,0.067,0.715-0.271,0.929-0.543c2.256-2.812,3.938-5.914,4.711-9.569
			c-0.571-2.786-2.592-4.634-4.631-6.425C716.584,618.262,715.269,618.31,714.2,620.218"/>
		<path fill="#1684B9" d="M880.435,730.951c-1.139-0.287-1.762,0.29-2.279,1.162c-1.727,2.908-3.31,5.879-4.424,9.09
			c-0.37,1.076-0.498,2.097,0.453,2.825c1.858,1.424,3.801,2.735,5.716,4.089c0.667,0.472,1.27,0.278,1.736-0.29
			c2.276-2.799,3.958-5.898,4.692-9C886.358,736.316,882.465,731.462,880.435,730.951"/>
		<path fill="#1684B9" d="M527.854,632.031c2.1,1.484,3.843,3.581,6.575,4.021c0.204,0.035,0.527-0.22,0.693-0.421
			c2.273-2.793,3.942-5.892,4.682-9.135c0.08-2.467-4.076-7.481-6.138-7.794c-1.044-0.156-1.558,0.46-2.008,1.197
			c-1.704,2.802-3.198,5.719-4.35,8.793C526.874,629.848,526.631,631.167,527.854,632.031"/>
		<path fill="#1684B9" d="M110.535,712.032c-7.491-9.032-7.494-24.372-0.003-33.548c0.431-0.53,1.526-1.044,0.839-1.81
			c-0.817-0.913-1.491,0.198-2.052,0.664c-5.646,4.669-7.746,10.896-7.784,18.336c0.118,6.645,2.126,12.821,7.708,17.417
			c0.578,0.476,1.315,1.548,2.126,0.709C112.112,713.028,110.956,712.539,110.535,712.032"/>
		<path fill="#1684B9" d="M243.743,677.288c-0.517-0.412-1.101-1.439-1.861-0.737c-1.012,0.932,0.281,1.43,0.731,1.972
			c7.532,9.109,7.516,24.308-0.045,33.538c-0.412,0.504-1.542,0.951-0.76,1.762c0.725,0.75,1.356-0.201,1.889-0.626
			c5.777-4.59,7.746-10.871,7.941-17.825C251.451,688.188,249.492,681.897,243.743,677.288"/>
		<path fill="#1684B9" d="M129.897,553.309c0.903,0.619,1.934,0.673,2.984,0.629c2.694-0.029,4.995-1.098,6.275-2.7
			c0.048-0.061,0.089-0.121,0.134-0.185c0.207-0.281,0.389-0.575,0.53-0.881c0.332-0.728,0.479-1.522,0.399-2.355
			c-0.169-1.724-1.928-3.278-0.827-5.091c1.082-1.791,3.233-1.194,4.877-1.749c1.127-0.38,1.714-1.149,1.634-2.33
			c-0.086-1.331-1.031-1.631-2.167-1.708c-4.264-0.281-7.571,3.501-6.671,7.65c0.785,3.616,0.137,4.586-3.492,5.084
			c-0.929,0.128-1.877,0.099-2.815,0.153c-0.82,0.054-1.886-0.179-2.151,0.881C128.33,551.815,128.987,552.683,129.897,553.309"/>
		<path fill="#1684B9" d="M171.821,671.176c-0.859,1.653-1.819,3.259-2.521,4.976c-0.399,0.983,2.748,3.859,3.69,3.367
			c1.893-0.986,2.729-2.882,2.818-4.855c0.086-2.001-1.663-2.968-2.991-3.903C172.21,670.544,171.996,670.841,171.821,671.176"/>
		<path fill="#1684B9" d="M154.651,679.754c-1.459-0.878-2.809-0.188-3.788,0.897c-1.641,1.813-3.105,3.776-4.66,5.665
			c-0.578,0.696-0.948,1.768-2.129,1.57c-3.447-0.584-3.709,1.752-3.728,4.136c-0.029,3.217-0.233,6.387-1.133,9.495
			c-2.059,7.114-9.291,11.79-16.536,10.654c-4.057-0.635-6.029-3.157-5.646-7.315c0.236-2.56,1.159-4.918,2.196-7.251
			c0.67-1.506,1.743-2.908,1.57-5.541c-3.01,4.979-5.244,9.352-6.087,14.35c-0.396,2.359-0.539,4.657,0.032,6.999
			c1.146,4.695,4.902,7.194,9.719,6.447c5.675-0.875,9.371-4.478,12.448-8.946c3.22-4.679,4.606-10.044,5.761-15.492
			c0.214-1.021,0.409-1.765,1.87-1.915c5.646-0.59,9.878-4.612,10.947-10.162C155.733,682.074,156.055,680.6,154.651,679.754
			 M152.136,685.601c-1.42,1.015-2.853,2.135-5.084,1.848c0.989-1.663,1.928-3.118,3.415-4.149c1.021-0.709,2.237-0.45,2.837,0.29
			C154.198,684.698,152.777,685.141,152.136,685.601"/>
		<path fill="#1684B9" d="M175.539,688.911c-5.196-1.002-5.745-0.772-8.563,3.782c-0.546,0.878-1.159,1.727-1.596,2.655
			c-1.117,2.387-2.525,1.704-3.951,0.409c-1.025-0.932-1.478-2.174-1.423-3.552c0.08-1.966,0.14-3.942,0.361-5.898
			c0.44-3.833,0.986-7.654,1.487-11.477c-0.747,0.354-0.983,0.833-1.206,1.315c-2.924,6.406-2.716,13.36-3.473,20.143
			c-0.319,2.847,0.243,5.585,3.099,6.99c2.955,1.455,5.937,0.993,8.471-1.025c4.283-3.409,6.237-8.534,9.885-13.083
			C177.017,689.042,176.264,689.052,175.539,688.911 M173.066,693.427c-1.816,1.947-3.779,3.603-6.9,3.571
			c0.731-2.008,1.806-3.514,3-4.925c0.779-0.922,1.842-1.181,3.07-0.878C173.691,691.551,174.285,692.122,173.066,693.427"/>
		<path fill="#1684B9" d="M398.631,671.707c-0.677-0.057-1.452,0.233-2.269-0.501c2.087-1.947,4.076-3.789,6.045-5.646
			c12.342-11.64,24.911-23.044,36.494-35.463c3.064-3.281,4.51-7.328,5.927-11.42c0.214-0.619,0.543-1.423-0.07-1.829
			c-0.728-0.479-1.114,0.348-1.542,0.823c-16.676,18.378-34.955,35.143-52.688,52.455c-0.744,0.724-1.369,1.739-2.748,1.883
			c0.53-8.822,2.49-17.369,2.627-26.066c-0.23-0.035-0.456-0.064-0.686-0.099c-0.188,0.319-0.415,0.619-0.562,0.958
			c-6.76,15.515-7.807,32.057-8.64,48.619c-0.188,3.67,0.246,7.35,2.094,10.686c2.017,3.629,5.541,5.129,9.569,4.124
			c3.619-0.903,6.179-3.31,8.081-6.265c4.408-6.846,7.022-14.369,7.296-22.559C407.762,675.317,404.765,672.208,398.631,671.707
			 M398.87,695.048c-1.468,0.712-3.032,0.986-4.337,0.922c-3.224,0.169-5.812-0.504-7.309-3.23
			c-1.175-2.132-0.887-4.156,1.076-5.809c3.01-2.537,7.328-3.007,10.832-1.155c1.963,1.037,3.268,2.477,3.176,4.877
			C402.215,692.973,400.734,694.151,398.87,695.048"/>
	</g>
</g>
</svg>
