<svg id="sim-card-2" xmlns="http://www.w3.org/2000/svg" width="17.38" height="23.173" viewBox="0 0 17.38 23.173">
  <path id="Path_3607" data-name="Path 3607" d="M4.448,23.173A1.45,1.45,0,0,1,3,21.725V1.448A1.45,1.45,0,0,1,4.448,0H14.613a1.444,1.444,0,0,1,1.119.528L20.05,5.783a1.443,1.443,0,0,1,.33.92V21.725a1.45,1.45,0,0,1-1.448,1.448Zm0-22.208a.483.483,0,0,0-.483.483V21.725a.483.483,0,0,0,.483.483H18.932a.483.483,0,0,0,.483-.483V6.7a.477.477,0,0,0-.109-.3L14.986,1.141a.484.484,0,0,0-.373-.176H12.656V4.345a.483.483,0,0,1-.966,0V.966H9.759V4.345a.483.483,0,0,1-.966,0V.966H6.862V4.345a.483.483,0,0,1-.966,0V.966Z" transform="translate(-3 0)" fill="#3c3951"/>
  <path id="Path_3608" data-name="Path 3608" d="M8.414,20.656A2.417,2.417,0,0,1,6,18.242V13.414A2.416,2.416,0,0,1,8.414,11h6.759a2.417,2.417,0,0,1,2.414,2.414v4.828a2.417,2.417,0,0,1-2.414,2.414Zm6.759-.966a1.45,1.45,0,0,0,1.448-1.448v-.483H14.69V19.69Zm-1.448,0V11.966H9.862V19.69ZM6.966,18.242A1.45,1.45,0,0,0,8.414,19.69H8.9V17.759H6.966Zm9.656-1.448V14.862H14.69v1.931Zm-7.724,0V14.862H6.966v1.931Zm7.724-2.9v-.483a1.45,1.45,0,0,0-1.448-1.448H14.69V13.9ZM8.9,13.9V11.966H8.414a1.45,1.45,0,0,0-1.448,1.448V13.9Z" transform="translate(-3.103 -0.379)" fill="#3c3951"/>
</svg>
