<svg xmlns="http://www.w3.org/2000/svg" width="233.557" height="95.617" viewBox="0 0 233.557 95.617">
  <g id="Group_2757" data-name="Group 2757" transform="translate(-32 -468)">
    <g id="Group_2714" data-name="Group 2714" transform="translate(32.5 468)">
      <g id="Group_2706" data-name="Group 2706" transform="translate(0)">
        <path id="Subtraction_3" data-name="Subtraction 3" d="M42.4,88a61.281,61.281,0,0,1-4.086-12.244q-.451-2.055-.761-4.152H3.451a3.451,3.451,0,0,1,0-6.9H44.7a3.451,3.451,0,0,0-.11-6.9H37.067v0H17.177a3.451,3.451,0,0,1,0-6.9H37.99a61.025,61.025,0,0,1,3.92-12.7A62.189,62.189,0,0,1,47.8,27.577a62.927,62.927,0,0,1,7.806-9.257A64.078,64.078,0,0,1,75.923,4.913,64.732,64.732,0,0,1,100.8,0a65.823,65.823,0,0,1,10.629.857h40.4a3.451,3.451,0,1,1,0,6.9H131.657l0,0h-8.108a3.452,3.452,0,0,0-.137,6.9h42.133a3.452,3.452,0,0,1,0,6.9H149.083l0,0H108.111a3.451,3.451,0,1,0,0,6.9H154.4a62,62,0,0,1,5.288,9.733,61,61,0,0,1,5.023,24.348A61.215,61.215,0,0,1,159.2,88H42.4Z" transform="translate(18.229)" fill="rgba(234,171,247,0.29)"/>
        <rect id="Rectangle_768" data-name="Rectangle 768" width="12" height="6" rx="3" transform="translate(183.229 1)" fill="rgba(234,171,247,0.29)"/>
        <rect id="Rectangle_769" data-name="Rectangle 769" width="11" height="7" rx="3.5" transform="translate(196.229 11)" fill="rgba(234,171,247,0.63)"/>
        <line id="Line_331" data-name="Line 331" x2="202.411" transform="translate(20.672 88.227)" fill="none" stroke="#3c3951" stroke-linecap="round" stroke-width="1"/>
        <line id="Line_332" data-name="Line 332" x2="44.789" transform="translate(0 91.672)" fill="none" stroke="#3c3951" stroke-linecap="round" stroke-width="1"/>
        <line id="Line_333" data-name="Line 333" x2="5.168" transform="translate(48.234 91.672)" fill="none" stroke="#3c3951" stroke-linecap="round" stroke-width="1"/>
        <line id="Line_336" data-name="Line 336" x2="5.168" transform="translate(166.235 91.672)" fill="none" stroke="#3c3951" stroke-linecap="round" stroke-width="1"/>
        <line id="Line_334" data-name="Line 334" x2="85.271" transform="translate(55.986 91.672)" fill="none" stroke="#3c3951" stroke-linecap="round" stroke-width="1"/>
        <line id="Line_337" data-name="Line 337" x2="85.271" transform="translate(105.943 95.117)" fill="none" stroke="#3c3951" stroke-linecap="round" stroke-width="1"/>
        <line id="Line_338" data-name="Line 338" x2="24.978" transform="translate(74.074 95.117)" fill="none" stroke="#3c3951" stroke-linecap="round" stroke-width="1"/>
        <line id="Line_339" data-name="Line 339" x2="49.957" transform="translate(11.197 95.117)" fill="none" stroke="#3c3951" stroke-linecap="round" stroke-width="1"/>
        <line id="Line_335" data-name="Line 335" x2="56.847" transform="translate(175.71 91.672)" fill="none" stroke="#3c3951" stroke-linecap="round" stroke-width="1"/>
      </g>
    </g>
    <g id="user" transform="translate(127.31 494.41)">
      <circle id="Ellipse_159" data-name="Ellipse 159" cx="24.954" cy="24.954" r="24.954" stroke-width="4" stroke="#ae68bb" stroke-linecap="round" stroke-linejoin="round" fill="none"/>
      <path id="Path_4612" data-name="Path 4612" d="M4.909,18.616s4.706-7.158,16.24-6.631,15.859,6.631,15.859,6.631" transform="translate(4.268 25.231)" fill="none" stroke="#ae68bb" stroke-linecap="round" stroke-width="4"/>
      <g id="Ellipse_160" data-name="Ellipse 160" transform="translate(13.419 9.59)" fill="none" stroke="#ae68bb" stroke-width="4">
        <circle cx="11.5" cy="11.5" r="11.5" stroke="none"/>
        <circle cx="11.5" cy="11.5" r="9.5" fill="none"/>
      </g>
    </g>
  </g>
</svg>
