<svg xmlns="http://www.w3.org/2000/svg" xmlns:xlink="http://www.w3.org/1999/xlink" width="437.725" height="211.974" viewBox="0 0 437.725 211.974">
  <defs>
    <clipPath id="clip-path">
      <path id="Path_4605" data-name="Path 4605" d="M23.025-7.666h5.642a2.1,2.1,0,0,0,1.74-3.022A4.723,4.723,0,0,0,26.248-12.8l-3.223,0L18.614-19.68h-2.79l.72,7.351-9.562.76L4.71-14.715l-1.578.173,2.31,6.876H16.364L15.464-.4h3.15l4.411-7.271" fill="none" clip-rule="evenodd"/>
    </clipPath>
    <clipPath id="clip-path-2">
      <path id="Path_4604" data-name="Path 4604" d="M-864,996H736V-104H-864Z" fill="none"/>
    </clipPath>
    <clipPath id="clip-path-3">
      <path id="Path_4608" data-name="Path 4608" d="M14.317-2.65h2.016L20.548-9.6a.668.668,0,0,1,.572-.322h5.643a1.375,1.375,0,0,0,1.089-.707,1.32,1.32,0,0,0,.059-1.331,4.082,4.082,0,0,0-3.567-1.753l-3.224,0a.668.668,0,0,1-.563-.308L16.344-20.6H14.657l.649,6.616a.672.672,0,0,1-.153.495.673.673,0,0,1-.46.238l-9.563.76a.67.67,0,0,1-.6-.276l-2.043-2.83-.364.04L4.019-9.922H14.46a.672.672,0,0,1,.5.226.674.674,0,0,1,.163.526ZM16.71-1.312H13.559a.667.667,0,0,1-.5-.226.671.671,0,0,1-.163-.525l.807-6.52H3.538A.67.67,0,0,1,2.9-9.04L.594-15.915a.668.668,0,0,1,.07-.574.669.669,0,0,1,.491-.305l1.577-.173a.667.667,0,0,1,.616.273L5.4-13.852l8.508-.677L13.253-21.2a.671.671,0,0,1,.171-.515.665.665,0,0,1,.495-.219H16.71a.668.668,0,0,1,.563.308l4.213,6.572,2.858,0a5.409,5.409,0,0,1,4.75,2.465A2.638,2.638,0,0,1,29-9.938a2.677,2.677,0,0,1-2.236,1.355H21.5L17.282-1.634a.668.668,0,0,1-.572.322Z" fill="none" clip-rule="evenodd"/>
    </clipPath>
  </defs>
  <g id="town" transform="translate(33.286 -432.768)">
    <g id="Page-1" transform="translate(192.858 488.479)">
      <g id="_17759" data-name="17759" transform="translate(0.952 0.74)">
        <g id="Group" transform="translate(0 0)">
          <path id="Fill-116" d="M136.928,194.489a5.381,5.381,0,1,1-5.381-5.381,5.381,5.381,0,0,1,5.381,5.381" transform="translate(-35.166 -52.71)" fill="#fff" fill-rule="evenodd"/>
          <path id="Fill-118" d="M122.7,146.441c-3.034.274-7,20.988-5.391,26.521A7.985,7.985,0,0,0,122.7,178.7a7.985,7.985,0,0,0,5.391-5.735c1.611-5.533-2.357-26.247-5.391-26.521" transform="translate(-32.595 -40.818)" fill="#e4b3ed" fill-rule="evenodd"/>
          <path id="Fill-120" d="M42.966,116.963,68.358,100.2a1.843,1.843,0,0,1,1.9,0l25.392,16.762a1.611,1.611,0,0,1-1.776,2.69L69.306,103.435,44.741,119.652a1.611,1.611,0,0,1-1.775-2.69" transform="translate(-11.775 -27.855)" fill="#fff" fill-rule="evenodd"/>
          <path id="Fill-121" d="M241.188,163.8l-18.226-12.032a1.324,1.324,0,0,0-1.361,0L203.375,163.8a1.156,1.156,0,0,0,1.274,1.93l17.632-11.64,17.631,11.64a1.156,1.156,0,1,0,1.274-1.93" transform="translate(-56.542 -42.249)" fill="#fff" fill-rule="evenodd"/>
          <path id="Fill-122" d="M173.6,46.412a6.188,6.188,0,0,1,12.271.261,6.276,6.276,0,1,1,1.818,12.284H173.877a6.276,6.276,0,0,1-.281-12.545" transform="translate(-46.715 -11.47)" fill="#fff" fill-rule="evenodd"/>
          <path id="Fill-123" d="M251.83,68.466a6.188,6.188,0,0,0-12.271.261,6.276,6.276,0,1,0-1.818,12.284h13.808a6.276,6.276,0,0,0,.281-12.545" transform="translate(-285.516 -93.617)" fill="#e4b3ed" fill-rule="evenodd"/>
          <path id="Fill-124" d="M332.371,20.328a8.2,8.2,0,1,1-8.2-8.2,8.2,8.2,0,0,1,8.2,8.2" transform="translate(-196.071 -39.381)" fill="#e4b3ed" fill-rule="evenodd"/>
          <path id="Fill-125" d="M77.19,40.139a5.888,5.888,0,0,0-11.675.249,5.972,5.972,0,1,0-1.73,11.687H76.923a5.971,5.971,0,0,0,.267-11.936" transform="translate(-37.114 -38.793)" fill="#fff" fill-rule="evenodd"/>
          <path id="Fill-126" d="M220.85,213.639h-83a.665.665,0,0,0,0,1.331h83a.665.665,0,0,0,0-1.331" transform="translate(-38.236 -59.547)" fill-rule="evenodd"/>
          <path id="Fill-127" d="M90.822,213.639H1.515a.665.665,0,0,0,0,1.331H90.822a.665.665,0,0,0,0-1.331" transform="translate(-0.237 -59.547)" fill-rule="evenodd"/>
          <path id="Fill-131" d="M220.444,152.377a.663.663,0,0,1,.366.11l17.631,11.64a.491.491,0,0,0,.542-.82l-18.226-12.032a.487.487,0,0,0-.288-.079h-.053a.483.483,0,0,0-.288.079L201.9,163.307a.491.491,0,0,0,.541.82l17.631-11.64A.667.667,0,0,1,220.444,152.377Zm18.263,13.161a1.8,1.8,0,0,1-1-.3l-17.265-11.4-17.266,11.4a1.822,1.822,0,0,1-2.007-3.04L219.4,150.165a1.986,1.986,0,0,1,2.095,0L239.716,162.2a1.82,1.82,0,0,1-.638,3.3,1.858,1.858,0,0,1-.371.038Z" transform="translate(-55.844 -41.772)" fill-rule="evenodd"/>
          <path id="Fill-137" d="M226.379,162.3a3.651,3.651,0,1,0,3.651,3.651A3.655,3.655,0,0,0,226.379,162.3Zm0,8.632a4.981,4.981,0,1,1,4.981-4.981,4.987,4.987,0,0,1-4.981,4.981Z" transform="translate(-61.71 -44.868)" fill-rule="evenodd"/>
          <path id="Fill-138" d="M228.047,170.936a.665.665,0,0,1-.666-.665v-8.633a.665.665,0,0,1,1.331,0v8.633a.665.665,0,0,1-.665.665" transform="translate(-63.378 -44.868)" fill-rule="evenodd"/>
          <path id="Fill-139" d="M230.662,168.288h-8.6a.665.665,0,0,1,0-1.331h8.6a.665.665,0,0,1,0,1.331" transform="translate(-61.71 -46.536)" fill-rule="evenodd"/>
          <path id="Fill-148" d="M153.582,169.6a.243.243,0,0,0-.138.04l-14.507,9.577a.258.258,0,0,0-.073.353.257.257,0,0,0,.353.073l14.035-9.265a.666.666,0,0,1,.733,0l14.034,9.265a.258.258,0,0,0,.353-.072.259.259,0,0,0-.072-.354l-14.507-9.577a.248.248,0,0,0-.149-.04h-.064Zm-14.5,11.416a1.586,1.586,0,0,1-.878-2.909l14.508-9.578a1.576,1.576,0,0,1,.908-.26,1.557,1.557,0,0,1,.908.261l14.508,9.576h0a1.586,1.586,0,0,1-1.748,2.646l-13.668-9.023-13.668,9.023a1.57,1.57,0,0,1-.869.263Z" transform="translate(-38.323 -46.901)" fill-rule="evenodd"/>
          <path id="Fill-149" d="M158.97,178.911a1.14,1.14,0,1,0,1.14,1.14A1.141,1.141,0,0,0,158.97,178.911Zm0,3.609a2.47,2.47,0,1,1,2.47-2.47,2.473,2.473,0,0,1-2.47,2.47Z" transform="translate(-43.621 -49.497)" fill-rule="evenodd"/>
          <path id="Fill-150" d="M167.544,200.5H141.868a.665.665,0,0,1-.665-.665V183.54a.665.665,0,0,1,1.33,0v15.626h24.346V183.54a.665.665,0,0,1,1.331,0v16.292a.665.665,0,0,1-.666.665" transform="translate(-39.357 -50.973)" fill-rule="evenodd"/>
          <path id="Fill-151" d="M164.85,201.261a.665.665,0,0,1-.665-.666V188.5h-15.8V200.6a.665.665,0,1,1-1.33,0V187.839a.665.665,0,0,1,.665-.665h17.13a.665.665,0,0,1,.665.665V200.6a.665.665,0,0,1-.665.666" transform="translate(-40.988 -52.171)" fill-rule="evenodd"/>
          <path id="Fill-152" d="M164.923,190.943h-17.13a.475.475,0,1,1,0-.951h17.13a.475.475,0,0,1,0,.951" transform="translate(-41.062 -52.957)" fill-rule="evenodd"/>
          <path id="Fill-153" d="M164.923,193.6h-17.13a.475.475,0,1,1,0-.95h17.13a.475.475,0,1,1,0,.95" transform="translate(-41.062 -53.697)" fill-rule="evenodd"/>
          <path id="Fill-154" d="M164.923,196.256h-17.13a.475.475,0,1,1,0-.951h17.13a.475.475,0,1,1,0,.951" transform="translate(-41.062 -54.437)" fill-rule="evenodd"/>
          <path id="Fill-155" d="M164.923,198.913h-17.13a.475.475,0,1,1,0-.951h17.13a.475.475,0,0,1,0,.951" transform="translate(-41.062 -55.178)" fill-rule="evenodd"/>
          <path id="Fill-156" d="M164.923,201.569h-17.13a.475.475,0,1,1,0-.951h17.13a.475.475,0,0,1,0,.951" transform="translate(-41.062 -55.918)" fill-rule="evenodd"/>
          <path id="Fill-157" d="M164.923,204.226h-17.13a.475.475,0,1,1,0-.951h17.13a.475.475,0,0,1,0,.951" transform="translate(-41.062 -56.659)" fill-rule="evenodd"/>
          <path id="Fill-162" d="M121.792,196.677a.665.665,0,0,1-.665-.665V164.283a.665.665,0,1,1,1.33,0v31.729a.665.665,0,0,1-.665.665" transform="translate(-33.762 -45.605)" fill-rule="evenodd"/>
          <path id="Fill-163" d="M120.787,172.119a.663.663,0,0,1-.47-.195l-2.6-2.6a.665.665,0,0,1,.941-.941l2.6,2.6a.665.665,0,0,1-.47,1.135" transform="translate(-32.757 -46.88)" fill-rule="evenodd"/>
          <path id="Fill-164" d="M121.791,178.259a.665.665,0,0,1-.546-1.045l2.848-4.1a.665.665,0,0,1,1.093.76l-2.848,4.1a.664.664,0,0,1-.547.286" transform="translate(-33.761 -48.173)" fill-rule="evenodd"/>
          <path id="Fill-165" d="M119.973,147.42c-.581.468-1.979,3.494-3.231,10.9-1.065,6.308-1.378,12.131-.778,14.49.959,3.778,3.343,4.9,4.009,5.146.665-.245,3.05-1.368,4.008-5.146.6-2.359.286-8.183-.778-14.49C121.951,150.914,120.553,147.888,119.973,147.42Zm0,31.9a.658.658,0,0,1-.167-.022c-.156-.04-3.834-1.047-5.131-6.161-1.321-5.2,1.427-22.931,4.083-26.346a1.958,1.958,0,0,1,.868-.687.661.661,0,0,1,.294-.069h.1a.661.661,0,0,1,.294.069,1.958,1.958,0,0,1,.868.687c2.656,3.415,5.4,21.143,4.083,26.346-1.3,5.115-4.975,6.121-5.131,6.161a.656.656,0,0,1-.167.022Z" transform="translate(-31.868 -40.706)" fill-rule="evenodd"/>
          <path id="Fill-166" d="M236.823,196H207.68a.665.665,0,0,1-.665-.665V167.708a.665.665,0,0,1,1.33,0v26.964h27.813V167.708a.665.665,0,0,1,1.331,0v27.629a.665.665,0,0,1-.665.665" transform="translate(-57.701 -46.56)" fill-rule="evenodd"/>
          <path id="Fill-167" d="M250.533,160.2H232.72a.665.665,0,0,1,0-1.331h16.916l-5.613-18.509H183.745l-5.613,18.509h16.776a.665.665,0,1,1,0,1.331H177.235a.666.666,0,0,1-.637-.858l6.016-19.839a.666.666,0,0,1,.637-.472h61.265a.665.665,0,0,1,.637.472l6.016,19.839a.666.666,0,0,1-.637.858" transform="translate(-49.215 -38.753)" fill-rule="evenodd"/>
          <path id="Fill-168" d="M248.6,195.861H180.878a.665.665,0,0,1-.665-.665V167.2a.665.665,0,0,1,1.331,0v27.327h66.393l.118-27.33a.665.665,0,0,1,.665-.662h0a.664.664,0,0,1,.662.668l-.12,27.992a.666.666,0,0,1-.666.662" transform="translate(-50.231 -46.419)" fill-rule="evenodd"/>
          <path id="Fill-169" d="M231.113,199.874a.665.665,0,0,1-.665-.665V182.267h-9.213V198.89a.665.665,0,1,1-1.33,0V181.6a.665.665,0,0,1,.665-.665h10.543a.665.665,0,0,1,.666.665v17.608a.665.665,0,0,1-.666.665" transform="translate(-61.294 -50.432)" fill-rule="evenodd"/>
          <path id="Fill-170" d="M189.6,186.646h6.425V176.4H189.6Zm7.09,1.331h-7.756a.665.665,0,0,1-.665-.665V175.735a.665.665,0,0,1,.665-.665h7.756a.665.665,0,0,1,.665.665v11.577a.665.665,0,0,1-.665.665Z" transform="translate(-52.477 -48.797)" fill-rule="evenodd"/>
          <path id="Fill-171" d="M256.632,186.646h6.425V176.4h-6.425Zm7.09,1.331h-7.755a.665.665,0,0,1-.666-.665V175.735a.665.665,0,0,1,.666-.665h7.755a.665.665,0,0,1,.666.665v11.577a.665.665,0,0,1-.666.665Z" transform="translate(-71.16 -48.797)" fill-rule="evenodd"/>
          <path id="Fill-175" d="M278.594,201.27a.665.665,0,0,1-.665-.665v-14a.665.665,0,0,1,1.33,0v14a.665.665,0,0,1-.665.665" transform="translate(-77.467 -51.828)" fill-rule="evenodd"/>
          <path id="Fill-176" d="M281.656,201.27a.665.665,0,0,1-.666-.665v-14a.665.665,0,0,1,1.331,0v14a.665.665,0,0,1-.665.665" transform="translate(-78.32 -51.828)" fill-rule="evenodd"/>
          <path id="Fill-177" d="M284.719,201.27a.665.665,0,0,1-.666-.665v-14a.665.665,0,0,1,1.331,0v14a.665.665,0,0,1-.665.665" transform="translate(-79.174 -51.828)" fill-rule="evenodd"/>
          <path id="Fill-178" d="M287.782,201.27a.665.665,0,0,1-.665-.665v-14a.665.665,0,1,1,1.33,0v14a.665.665,0,0,1-.665.665" transform="translate(-80.028 -51.828)" fill-rule="evenodd"/>
          <path id="Fill-179" d="M290.845,201.27a.665.665,0,0,1-.665-.665v-14a.665.665,0,0,1,1.33,0v14a.665.665,0,0,1-.665.665" transform="translate(-80.882 -51.828)" fill-rule="evenodd"/>
          <path id="Fill-181" d="M132.118,208.995a.665.665,0,0,1-.665-.665V192.87a.665.665,0,0,1,1.33,0v15.46a.665.665,0,0,1-.665.665" transform="translate(-36.64 -53.573)" fill-rule="evenodd"/>
          <path id="Fill-182" d="M131.534,196.865a.662.662,0,0,1-.469-.193l-1.508-1.5a.665.665,0,1,1,.938-.943l1.508,1.5a.665.665,0,0,1-.469,1.137" transform="translate(-36.057 -54.083)" fill-rule="evenodd"/>
          <path id="Fill-183" d="M132.117,200.128a.665.665,0,0,1-.551-1.037l1.806-2.682a.665.665,0,0,1,1.1.743l-1.806,2.683a.665.665,0,0,1-.552.294" transform="translate(-36.64 -54.663)" fill-rule="evenodd"/>
          <path id="Fill-184" d="M130.006,188.828a4.8,4.8,0,1,0,4.8,4.8A4.8,4.8,0,0,0,130.006,188.828Zm0,10.929a6.13,6.13,0,1,1,6.13-6.13,6.137,6.137,0,0,1-6.13,6.13Z" transform="translate(-34.528 -52.261)" fill-rule="evenodd"/>
          <path id="Fill-185" d="M42.391,114.93a.946.946,0,0,0,1.042,1.579L68,100.292a.667.667,0,0,1,.734,0L93.3,116.509a.946.946,0,1,0,1.042-1.579L68.946,98.167a.944.944,0,0,0-.555-.152h-.053a.934.934,0,0,0-.555.152ZM42.916,118a2.276,2.276,0,0,1-1.258-4.175L67.05,97.057a2.5,2.5,0,0,1,2.629,0L95.071,113.82a2.276,2.276,0,0,1-2.508,3.8l-24.2-15.975-24.2,15.975a2.266,2.266,0,0,1-1.251.376Z" transform="translate(-11.327 -26.948)" fill-rule="evenodd"/>
          <path id="Fill-186" d="M93.06,183.91h-46a.665.665,0,0,1-.666-.665V123.169a.665.665,0,0,1,1.331,0V182.58h44.67V123.52a.665.665,0,0,1,1.33,0v59.726a.665.665,0,0,1-.665.665" transform="translate(-12.932 -34.145)" fill-rule="evenodd"/>
          <path id="Fill-190" d="M89.552,149.706h7.3V136.579h-7.3Zm7.961,1.33H88.887a.665.665,0,0,1-.665-.665V135.914a.665.665,0,0,1,.665-.665h8.626a.665.665,0,0,1,.665.665v14.457a.665.665,0,0,1-.665.665Z" transform="translate(-24.59 -37.698)" fill-rule="evenodd"/>
          <path id="Fill-191" d="M97.512,146.264H88.887a.665.665,0,0,1,0-1.331h8.626a.665.665,0,0,1,0,1.331" transform="translate(-24.59 -40.397)" fill-rule="evenodd"/>
          <path id="Fill-192" d="M73.634,149.706h7.295V136.579H73.634Zm7.961,1.33H72.969a.665.665,0,0,1-.665-.665V135.914a.665.665,0,0,1,.665-.665h8.626a.665.665,0,0,1,.665.665v14.457a.665.665,0,0,1-.665.665Z" transform="translate(-20.153 -37.698)" fill-rule="evenodd"/>
          <path id="Fill-193" d="M81.595,146.264H72.969a.665.665,0,0,1,0-1.331h8.626a.665.665,0,0,1,0,1.331" transform="translate(-20.153 -40.397)" fill-rule="evenodd"/>
          <path id="Fill-194" d="M89.3,180.34h7.295V167.213H89.3Zm7.96,1.33H88.634a.665.665,0,0,1-.665-.666V166.548a.665.665,0,0,1,.665-.665h8.626a.665.665,0,0,1,.666.665V181a.666.666,0,0,1-.666.666Z" transform="translate(-24.519 -46.236)" fill-rule="evenodd"/>
          <path id="Fill-195" d="M97.259,176.9H88.634a.665.665,0,0,1,0-1.331h8.626a.665.665,0,1,1,0,1.331" transform="translate(-24.519 -48.936)" fill-rule="evenodd"/>
          <path id="Fill-196" d="M73.381,180.34h7.3V167.213h-7.3Zm7.961,1.33H72.716a.666.666,0,0,1-.666-.666V166.548a.665.665,0,0,1,.666-.665h8.626a.665.665,0,0,1,.665.665V181a.665.665,0,0,1-.665.666Z" transform="translate(-20.083 -46.236)" fill-rule="evenodd"/>
          <path id="Fill-197" d="M81.342,176.9H72.716a.665.665,0,1,1,0-1.331h8.626a.665.665,0,0,1,0,1.331" transform="translate(-20.083 -48.936)" fill-rule="evenodd"/>
          <path id="Fill-198" d="M57.843,149.706h7.3V136.579h-7.3Zm7.961,1.33H57.178a.665.665,0,0,1-.665-.665V135.914a.665.665,0,0,1,.665-.665H65.8a.665.665,0,0,1,.666.665v14.457a.665.665,0,0,1-.666.665Z" transform="translate(-15.752 -37.698)" fill-rule="evenodd"/>
          <path id="Fill-199" d="M65.8,146.264H57.178a.665.665,0,0,1,0-1.331H65.8a.665.665,0,1,1,0,1.331" transform="translate(-15.752 -40.397)" fill-rule="evenodd"/>
          <path id="Fill-200" d="M57.59,180.34h7.295V167.213H57.59Zm7.961,1.33H56.925A.665.665,0,0,1,56.26,181V166.548a.665.665,0,0,1,.665-.665h8.626a.665.665,0,0,1,.665.665V181a.665.665,0,0,1-.665.666Z" transform="translate(-15.681 -46.236)" fill-rule="evenodd"/>
          <path id="Fill-201" d="M65.551,176.9H56.925a.665.665,0,0,1,0-1.331h8.626a.665.665,0,0,1,0,1.331" transform="translate(-15.681 -48.936)" fill-rule="evenodd"/>
          <path id="Fill-202" d="M34.129,121.061H.665a.665.665,0,0,1-.5-1.1L17.516,99.855a.664.664,0,0,1,.5-.231H53.276a.665.665,0,1,1,0,1.33H18.325L2.119,119.73h32.01a.665.665,0,0,1,0,1.331" transform="translate(0 -27.768)" fill-rule="evenodd"/>
          <path id="Fill-203" d="M34.742,185.3H2.865a.665.665,0,0,1-.665-.665V128.165a.665.665,0,1,1,1.33,0v55.808H34.742a.665.665,0,0,1,0,1.33" transform="translate(-0.613 -35.538)" fill-rule="evenodd"/>
          <path id="Fill-204" d="M29.155,198.131a.665.665,0,0,1-.665-.665V174.853H15.847v22.613a.665.665,0,0,1-1.33,0V174.188a.665.665,0,0,1,.665-.665H29.155a.665.665,0,0,1,.665.665v23.278a.665.665,0,0,1-.665.665" transform="translate(-4.046 -48.366)" fill-rule="evenodd"/>
          <path id="Fill-205" d="M11.425,144.676H30.869v-8.1H11.425Zm20.11,1.33H10.76a.665.665,0,0,1-.665-.665v-9.427a.665.665,0,0,1,.665-.665H31.535a.665.665,0,0,1,.665.665v9.427a.665.665,0,0,1-.665.665Z" transform="translate(-2.814 -37.698)" fill-rule="evenodd"/>
          <path id="Fill-206" d="M31.535,139.056H10.76a.665.665,0,0,1,0-1.33H31.535a.665.665,0,0,1,0,1.33" transform="translate(-2.814 -38.388)" fill-rule="evenodd"/>
          <path id="Fill-207" d="M25.162,146.753a.665.665,0,0,1-.665-.665V138.6a.665.665,0,1,1,1.33,0v7.493a.665.665,0,0,1-.665.665" transform="translate(-6.828 -38.445)" fill-rule="evenodd"/>
          <path id="Fill-208" d="M176.235,40.264a5.553,5.553,0,0,0-5.461,4.695l-.081.542-.547.025A5.61,5.61,0,0,0,170.4,56.74h13.808a5.611,5.611,0,1,0-1.626-10.982l-.768.233-.086-.8A5.509,5.509,0,0,0,176.235,40.264Zm7.97,17.807H170.4a6.941,6.941,0,0,1-.839-13.832,6.855,6.855,0,0,1,13.369.067,6.942,6.942,0,1,1,1.277,13.765Z" transform="translate(-45.56 -10.852)" fill-rule="evenodd"/>
          <path id="Fill-209" d="M234.149,66.277a5.611,5.611,0,0,0,0,11.222h13.808a5.611,5.611,0,0,0,.252-11.216l-.547-.024-.081-.542a5.524,5.524,0,0,0-10.952.233l-.085.8-.768-.232A5.612,5.612,0,0,0,234.149,66.277Zm13.808,12.552H234.149a6.942,6.942,0,1,1,1.277-13.765A6.854,6.854,0,0,1,248.8,65a6.941,6.941,0,0,1-.839,13.832Z" transform="translate(-284.329 -92.638)" fill-rule="evenodd"/>
          <path id="Fill-210" d="M330.861,17.691a8.035,8.035,0,1,1-8.035-8.035,8.134,8.134,0,0,1,8.035,8.035.476.476,0,0,0,.951,0,8.986,8.986,0,1,0-14.889,6.773,8.986,8.986,0,0,0,14.889-6.773.476.476,0,0,0-.951,0" transform="translate(-195.478 -38.423)" fill="#2b292a" fill-rule="evenodd"/>
          <path id="Fill-211" d="M309.748,8.521l3.859,3.1c.473.379,1.15-.289.672-.672l-3.859-3.1c-.472-.379-1.15.289-.672.672" transform="translate(-194.291 -38.156)" fill="#2b292a" fill-rule="evenodd"/>
          <path id="Fill-212" d="M319.858,6.615l-2.224-4.377c-.278-.546-1.1-.065-.821.48l2.224,4.377c.278.547,1.1.066.82-.48" transform="translate(-196.29 -36.557)" fill="#2b292a" fill-rule="evenodd"/>
          <path id="Fill-213" d="M306.262,25.543l4.891-1.116c.6-.136.344-1.053-.252-.917l-4.891,1.117c-.6.136-.344,1.052.252.916" transform="translate(-193.199 -42.549)" fill="#2b292a" fill-rule="evenodd"/>
          <path id="Fill-214" d="M311.133,17.047l-4.871-1.112c-.6-.136-.85.78-.252.917l4.871,1.111c.6.136.85-.78.252-.916" transform="translate(-193.199 -40.438)" fill="#2b292a" fill-rule="evenodd"/>
          <path id="Fill-215" d="M325.643.46V5.612a.475.475,0,0,0,.95,0V.46a.475.475,0,0,0-.95,0" transform="translate(-198.766 -36)" fill="#2b292a" fill-rule="evenodd"/>
          <path id="Fill-216" d="M332.507,7.093q1.055-2.189,2.108-4.377c.265-.549-.555-1.031-.821-.48l-2.108,4.377c-.265.55.555,1.031.82.48" transform="translate(-200.436 -36.555)" fill="#2b292a" fill-rule="evenodd"/>
          <path id="Fill-217" d="M310.42,32.89l3.86-3.078c.479-.382-.2-1.049-.672-.672l-3.859,3.078c-.48.382.2,1.05.672.672" transform="translate(-194.29 -44.091)" fill="#2b292a" fill-rule="evenodd"/>
          <path id="Fill-218" d="M344.341,24.627l-4.89-1.117c-.6-.136-.85.78-.253.917l4.891,1.116c.6.136.85-.78.252-.916" transform="translate(-202.449 -42.549)" fill="#2b292a" fill-rule="evenodd"/>
          <path id="Fill-219" d="M336.155,29.581l4.069,3.244c.474.378,1.151-.29.672-.672l-4.068-3.244c-.474-.378-1.151.29-.672.672" transform="translate(-201.651 -44.027)" fill="#2b292a" fill-rule="evenodd"/>
          <path id="Fill-220" d="M339.451,17.968l4.89-1.117c.6-.136.344-1.052-.252-.917L339.2,17.052c-.6.136-.344,1.052.253.917" transform="translate(-202.449 -40.438)" fill="#2b292a" fill-rule="evenodd"/>
          <path id="Fill-221" d="M340.294,7.849l-3.886,3.1c-.479.382.2,1.05.672.672l3.885-3.1c.48-.382-.2-1.05-.672-.672" transform="translate(-201.721 -38.157)" fill="#2b292a" fill-rule="evenodd"/>
          <path id="Fill-222" d="M334.57,37.4q-1.112-2.31-2.224-4.619c-.266-.552-1.086-.069-.821.48l2.224,4.618c.266.552,1.086.07.821-.479" transform="translate(-200.392 -45.069)" fill="#2b292a" fill-rule="evenodd"/>
          <path id="Fill-223" d="M325.643,34.4v5.094a.475.475,0,0,0,.95,0V34.4a.475.475,0,0,0-.95,0" transform="translate(-198.766 -45.459)" fill="#2b292a" fill-rule="evenodd"/>
          <path id="Fill-224" d="M317.635,37.964l2.224-4.4c.276-.545-.544-1.027-.82-.48l-2.224,4.4c-.276.545.545,1.026.821.479" transform="translate(-196.29 -45.154)" fill="#2b292a" fill-rule="evenodd"/>
          <path id="Fill-225" d="M60.856,39.11a5.306,5.306,0,1,0,0,10.613H73.993a5.306,5.306,0,0,0,.238-10.606l-.547-.024-.082-.542a5.223,5.223,0,0,0-10.356.22l-.086.8-.768-.232A5.305,5.305,0,0,0,60.856,39.11ZM73.993,51.053H60.856a6.637,6.637,0,1,1,0-13.274,6.568,6.568,0,0,1,1.19.107,6.555,6.555,0,0,1,12.772-.056,6.637,6.637,0,0,1-.825,13.222Z" transform="translate(-36.112 -38.137)" fill-rule="evenodd"/>
        </g>
      </g>
    </g>
    <g id="Page-1-2" data-name="Page-1" transform="translate(-77.081 495.344)">
      <g id="_17759-2" data-name="17759" transform="translate(0.414 0.435)">
        <g id="Group-2" transform="translate(0)">
          <path id="Fill-235" d="M280,20.042a5.889,5.889,0,0,1,11.677.248,5.973,5.973,0,1,1,1.73,11.69h-13.14A5.972,5.972,0,0,1,280,20.042" transform="translate(-98.736 -5.412)" fill="#fff" fill-rule="evenodd"/>
          <path id="Fill-236" d="M152.561,212.3h7.782V190.287h-7.782Z" transform="translate(-54.917 -68.497)" fill="#fff" fill-rule="evenodd"/>
          <path id="Fill-237" d="M175.113,212.3h7.782V190.287h-7.782Z" transform="translate(-63.035 -68.497)" fill="#fff" fill-rule="evenodd"/>
          <path id="Fill-238" d="M197.665,212.3h7.782V190.287h-7.782Z" transform="translate(-71.153 -68.497)" fill="#fff" fill-rule="evenodd"/>
          <path id="Fill-240" d="M333.946,123.232h34.267V112.395H333.946Z" transform="translate(-120.209 -40.459)" fill="#fff" fill-rule="evenodd"/>
          <path id="Fill-240-2" data-name="Fill-240" d="M333.946,123.232h34.267V112.395H333.946Z" transform="translate(-236.209 -20.459)" fill="#fff" fill-rule="evenodd"/>
          <path id="Fill-240-3" data-name="Fill-240" d="M333.946,123.232h50.214V112.395H333.946Z" transform="translate(-38.156 -50.459)" fill="#fff" fill-rule="evenodd"/>
          <path id="Fill-241" d="M86,120.371a3.514,3.514,0,0,0-3.514,3.514v7.042h7.029v-7.042A3.514,3.514,0,0,0,86,120.371" transform="translate(-29.693 -43.33)" fill="#fff" fill-rule="evenodd"/>
          <path id="Fill-242" d="M104.976,120.371a3.514,3.514,0,0,0-3.514,3.514v7.042h7.029v-7.042a3.514,3.514,0,0,0-3.514-3.514" transform="translate(-36.523 -43.33)" fill="#fff" fill-rule="evenodd"/>
          <path id="Fill-246" d="M282.606,11.681a5.285,5.285,0,0,0-5.2,4.468l-.077.515-.521.023a5.339,5.339,0,0,0,.239,10.673h13.14a5.339,5.339,0,1,0-1.547-10.45l-.731.221-.081-.76A5.242,5.242,0,0,0,282.606,11.681Zm7.584,16.946H277.05a6.606,6.606,0,0,1-.8-13.163,6.523,6.523,0,0,1,12.723.063,6.606,6.606,0,1,1,1.215,13.1Z" transform="translate(-97.351 -3.749)" fill-rule="evenodd"/>
          <path id="Fill-247" d="M312.59,133.455a2.672,2.672,0,1,0,0,5.344.633.633,0,0,1,.633.633v19.183a.633.633,0,0,1-.633.633,2.51,2.51,0,1,0,0,5.01.633.633,0,0,1,.633.633v19.544a.633.633,0,0,1-.633.634,2.5,2.5,0,1,0,0,4.983h55.856a2.5,2.5,0,1,0,0-4.983.636.636,0,0,1-.634-.634V164.891a.636.636,0,0,1,.634-.633,2.51,2.51,0,1,0,0-5.01.636.636,0,0,1-.634-.633V139.432a.636.636,0,0,1,.634-.633,2.672,2.672,0,1,0,0-5.344Zm55.856,57.862H312.59a3.766,3.766,0,0,1-3.938-3.758,3.718,3.718,0,0,1,3.305-3.713V165.477a3.751,3.751,0,0,1,0-7.449V140.015a3.938,3.938,0,0,1,.633-7.826h55.856a3.939,3.939,0,0,1,.634,7.826v18.014a3.751,3.751,0,0,1,0,7.449v18.369a3.717,3.717,0,0,1,3.3,3.713,3.764,3.764,0,0,1-3.936,3.758Z" transform="translate(-111.104 -47.584)" fill-rule="evenodd"/>
          <path id="Fill-248" d="M321.5,162.475h11.633V145.419H321.5Z" transform="translate(-115.729 -52.346)" fill="#fff" fill-rule="evenodd"/>
          <path id="Fill-249" d="M321.777,161.487h10.367V145.7H321.777Zm11,1.266H321.144a.633.633,0,0,1-.633-.634V145.063a.633.633,0,0,1,.633-.633h11.633a.632.632,0,0,1,.634.633v17.056a.632.632,0,0,1-.634.634Z" transform="translate(-115.373 -51.99)" fill-rule="evenodd"/>
          <path id="Fill-250" d="M349.346,162.475h11.636V145.419H349.346Z" transform="translate(-125.753 -52.346)" fill="#fff" fill-rule="evenodd"/>
          <path id="Fill-251" d="M349.626,161.487H360V145.7H349.626Zm11,1.266H348.993a.631.631,0,0,1-.627-.634V145.063a.631.631,0,0,1,.627-.633h11.636a.632.632,0,0,1,.634.633v17.056a.632.632,0,0,1-.634.634Z" transform="translate(-125.4 -51.99)" fill-rule="evenodd"/>
          <path id="Fill-252" d="M377.206,162.475h11.636V145.419H377.206Z" transform="translate(-135.782 -52.346)" fill="#fff" fill-rule="evenodd"/>
          <path id="Fill-253" d="M377.476,161.487h10.375V145.7H377.476Zm11.009,1.266H376.849a.632.632,0,0,1-.634-.634V145.063a.632.632,0,0,1,.634-.633h11.636a.631.631,0,0,1,.627.633v17.056a.631.631,0,0,1-.627.634Z" transform="translate(-135.425 -51.99)" fill-rule="evenodd"/>
          <path id="Fill-254" d="M321.5,202h11.633V184.947H321.5Z" transform="translate(-115.729 -66.575)" fill="#fff" fill-rule="evenodd"/>
          <path id="Fill-255" d="M321.777,201.014h10.367v-15.79H321.777Zm11,1.267H321.144a.633.633,0,0,1-.633-.633V184.591a.633.633,0,0,1,.633-.633h11.633a.632.632,0,0,1,.634.633v17.057a.632.632,0,0,1-.634.633Z" transform="translate(-115.373 -66.219)" fill-rule="evenodd"/>
          <path id="Fill-256" d="M349.346,202h11.636V184.947H349.346Z" transform="translate(-125.753 -66.575)" fill="#fff" fill-rule="evenodd"/>
          <path id="Fill-257" d="M349.626,201.014H360v-15.79H349.626Zm11,1.267H348.993a.631.631,0,0,1-.627-.633V184.591a.631.631,0,0,1,.627-.633h11.636a.632.632,0,0,1,.634.633v17.057a.632.632,0,0,1-.634.633Z" transform="translate(-125.4 -66.219)" fill-rule="evenodd"/>
          <path id="Fill-258" d="M377.206,202h11.636V184.947H377.206Z" transform="translate(-135.782 -66.575)" fill="#fff" fill-rule="evenodd"/>
          <path id="Fill-259" d="M377.476,201.014h10.375v-15.79H377.476Zm11.009,1.267H376.849a.632.632,0,0,1-.634-.633V184.591a.632.632,0,0,1,.634-.633h11.636a.631.631,0,0,1,.627.633v17.057a.631.631,0,0,1-.627.633Z" transform="translate(-135.425 -66.219)" fill-rule="evenodd"/>
          <path id="Fill-260" d="M339.676,131.067h1.146v-3.754h-1.146Z" transform="translate(-122.272 -45.829)" fill="#fff" fill-rule="evenodd"/>
          <path id="Fill-261" d="M340.465,131.343h-1.146a.636.636,0,0,1-.634-.633v-3.754a.636.636,0,0,1,.634-.634h1.146a.632.632,0,0,1,.634.634v3.754a.632.632,0,0,1-.634.633" transform="translate(-121.916 -45.472)" fill-rule="evenodd"/>
          <path id="Fill-262" d="M375.416,131.067h1.146v-3.754h-1.146Z" transform="translate(-135.137 -45.829)" fill="#fff" fill-rule="evenodd"/>
          <path id="Fill-263" d="M376.2,131.343h-1.146a.632.632,0,0,1-.634-.633v-3.754a.632.632,0,0,1,.634-.634H376.2a.631.631,0,0,1,.627.634v3.754a.631.631,0,0,1-.627.633" transform="translate(-134.781 -45.472)" fill-rule="evenodd"/>
          <path id="Fill-264" d="M331.923,120.228h33v-9.571h-33Zm33.634,1.266H331.289a.636.636,0,0,1-.634-.632V110.024a.636.636,0,0,1,.634-.633h34.267a.632.632,0,0,1,.634.633v10.838a.632.632,0,0,1-.634.632Z" transform="translate(-119.025 -39.377)" fill-rule="evenodd"/>
          <path id="Fill-264-2" data-name="Fill-264" d="M332.517,120.228h48.461v-9.571H332.517Zm49.391,1.266H331.586c-.508,0-.93-.284-.93-.632V110.024c0-.349.423-.633.93-.633h50.322c.517,0,.93.284.93.633v10.838c0,.349-.414.632-.93.632Z" transform="translate(-36.673 -49.377)" fill-rule="evenodd"/>
          <path id="Fill-264-3" data-name="Fill-264" d="M331.923,121.58h33V110.815h-33ZM365.557,123H331.289a.679.679,0,0,1-.634-.711V110.1a.679.679,0,0,1,.634-.712h34.267a.675.675,0,0,1,.634.712v12.19a.675.675,0,0,1-.634.711Z" transform="translate(-234.025 -18.887)" fill-rule="evenodd"/>
          <path id="Fill-265" d="M340.889,114.687v5.64h-.749v-4.11l-1.888,4.11h-.48l-1.895-4.11v4.11h-.742v-5.64h.762l2.125,4.623,2.112-4.623h.755" transform="translate(-120.638 -41.284)" fill-rule="evenodd"/>
          <path id="Fill-266" d="M347.054,118.5h2.08L348.1,115.59Zm2.733,1.823-.442-1.237h-2.5l-.442,1.237h-.755l2.048-5.64h.813l2.048,5.64Z" transform="translate(-124.421 -41.284)" fill-rule="evenodd"/>
          <path id="Fill-267" d="M355.568,115.281v2.133h1.088a1.282,1.282,0,0,0,.909-.281,1.025,1.025,0,0,0,.294-.785c0-.711-.4-1.066-1.2-1.066Zm0,2.718v2.328h-.742v-5.64h1.83a2.061,2.061,0,0,1,1.453.464,1.49,1.49,0,0,1,.5,1.135,1.713,1.713,0,0,1-.365,1.119,1.686,1.686,0,0,1-1.1.562l1.555,2.36h-.928L356.291,118Z" transform="translate(-127.726 -41.284)" fill-rule="evenodd"/>
          <path id="Fill-268" d="M363.408,120.327h-.742v-5.64h.742V117.3l2.323-2.613h.966l-2.637,2.856,2.637,2.784h-.986l-2.3-2.523v2.523" transform="translate(-130.548 -41.284)" fill-rule="evenodd"/>
          <path id="Fill-269" d="M373.264,114.687v.586h-2.247v1.921h2v.577h-2v1.97h2.247v.586h-2.989v-5.64h2.989" transform="translate(-133.287 -41.284)" fill-rule="evenodd"/>
          <path id="Fill-270" d="M376.306,115.281v-.594h3.719v.594h-1.491v5.046h-.742v-5.046h-1.485" transform="translate(-135.458 -41.284)" fill-rule="evenodd"/>
          <path id="Fill-271" d="M202,230.336H68.412a.633.633,0,0,0,0,1.267H202a.633.633,0,1,0,0-1.267" transform="translate(-24.398 -82.913)" fill-rule="evenodd"/>
          <path id="Fill-272" d="M393.273,230.336h-26.1a.633.633,0,0,0,0,1.267h26.1a.633.633,0,1,0,0-1.267" transform="translate(-131.944 -82.913)" fill-rule="evenodd"/>
          <path id="Fill-273" d="M335.363,230.336H288.411a.633.633,0,0,0,0,1.267h46.952a.633.633,0,1,0,0-1.267" transform="translate(-103.59 -82.913)" fill-rule="evenodd"/>
          <path id="Fill-275" d="M141.528,210h46.931V152.916H141.528Zm47.564,1.639h-48.2a.745.745,0,0,1-.633-.82V152.1a.744.744,0,0,1,.633-.819h48.2a.744.744,0,0,1,.633.819v58.724a.745.745,0,0,1-.633.82Z" transform="translate(-50.49 -68.155)" fill-rule="evenodd"/>
          <path id="Fill-276" d="M150.549,209.824h6.516v-20.75h-6.516Zm7.149,1.267h-7.782a.633.633,0,0,1-.633-.634V188.44a.632.632,0,0,1,.633-.632H157.7a.633.633,0,0,1,.633.632v22.016a.633.633,0,0,1-.633.634Z" transform="translate(-53.737 -67.605)" fill-rule="evenodd"/>
          <path id="Fill-277" d="M173.1,209.824h6.516v-20.75H173.1Zm7.149,1.267h-7.782a.633.633,0,0,1-.633-.634V188.44a.632.632,0,0,1,.633-.632h7.782a.633.633,0,0,1,.633.632v22.016a.633.633,0,0,1-.633.634Z" transform="translate(-61.855 -67.605)" fill-rule="evenodd"/>
          <path id="Fill-278" d="M195.653,209.824h6.516v-20.75h-6.516Zm7.149,1.267H195.02a.633.633,0,0,1-.633-.634V188.44a.632.632,0,0,1,.633-.632H202.8a.632.632,0,0,1,.633.632v22.016a.633.633,0,0,1-.633.634Z" transform="translate(-69.973 -67.605)" fill-rule="evenodd"/>
          <path id="Fill-279" d="M159.116,170.661h1.744a1.609,1.609,0,0,0,1.1-.351,1.217,1.217,0,0,0,.4-.963,1.173,1.173,0,0,0-.431-.962,1.751,1.751,0,0,0-1.142-.351h-1.67Zm0-5.826v2.424h1.627a1.554,1.554,0,0,0,1.047-.325,1.1,1.1,0,0,0,.378-.883,1.12,1.12,0,0,0-.378-.888,1.539,1.539,0,0,0-1.047-.329Zm-.967-.776h2.637a2.541,2.541,0,0,1,1.743.547,1.8,1.8,0,0,1,.616,1.409,1.632,1.632,0,0,1-1.414,1.627,1.849,1.849,0,0,1,1.584,1.839,1.747,1.747,0,0,1-.653,1.393,2.621,2.621,0,0,1-1.749.553h-2.764v-7.368Z" transform="translate(-56.928 -70.056)" fill-rule="evenodd"/>
          <path id="Fill-280" d="M169.639,169.044h2.722L171,165.238Zm3.573,2.382-.574-1.617h-3.275l-.574,1.617H167.8l2.68-7.368h1.063l2.668,7.368Z" transform="translate(-60.402 -70.056)" fill-rule="evenodd"/>
          <path id="Fill-281" d="M184.653,164.058h.967v7.368h-.967l-3.892-5.848v5.848h-.967v-7.368h.967l3.892,5.847v-5.847" transform="translate(-64.72 -70.056)" fill-rule="evenodd"/>
          <path id="Fill-282" d="M192.356,171.426h-.968v-7.368h.968v3.413l3.03-3.413h1.265l-3.445,3.731,3.445,3.637h-1.286l-3.009-3.3v3.3" transform="translate(-68.894 -70.056)" fill-rule="evenodd"/>
          <path id="Fill-283" d="M73.465,176.793h39.67V97.345H73.465Zm40.3,1.266H72.832a.633.633,0,0,1-.633-.634V96.712a.633.633,0,0,1,.633-.633h40.936a.633.633,0,0,1,.633.633v80.713a.633.633,0,0,1-.633.634Z" transform="translate(-25.989 -34.585)" fill-rule="evenodd"/>
          <path id="Fill-284" d="M73.465,106.033h39.67v-1.181H73.465Zm40.3,1.266H72.832a.633.633,0,0,1-.633-.633v-2.447a.633.633,0,0,1,.633-.633h40.936a.633.633,0,0,1,.633.633v2.447a.633.633,0,0,1-.633.633Z" transform="translate(-25.989 -37.288)" fill-rule="evenodd"/>
          <path id="Fill-285" d="M80.98,128.227h5.763v-6.409a2.882,2.882,0,0,0-5.763,0Zm6.4,1.266H80.347a.633.633,0,0,1-.633-.633v-7.042a4.148,4.148,0,0,1,8.3,0v7.042a.633.633,0,0,1-.633.633Z" transform="translate(-28.694 -42.357)" fill-rule="evenodd"/>
          <path id="Fill-286" d="M99.953,128.227h5.763v-6.409a2.881,2.881,0,0,0-5.763,0Zm6.4,1.266H99.32a.633.633,0,0,1-.634-.633v-7.042a4.148,4.148,0,0,1,8.3,0v7.042a.633.633,0,0,1-.633.633Z" transform="translate(-35.524 -42.357)" fill-rule="evenodd"/>
          <path id="Fill-287" d="M118.927,128.227h5.763v-6.409a2.881,2.881,0,0,0-5.763,0Zm6.4,1.266h-7.029a.632.632,0,0,1-.633-.633v-7.042a4.147,4.147,0,1,1,8.295,0v7.042a.633.633,0,0,1-.633.633Z" transform="translate(-42.354 -42.357)" fill-rule="evenodd"/>
          <path id="Fill-288" d="M80.98,153.182h5.763v-6.409a2.882,2.882,0,0,0-5.763,0Zm6.4,1.266H80.347a.633.633,0,0,1-.633-.633v-7.042a4.148,4.148,0,0,1,8.3,0v7.042a.633.633,0,0,1-.633.633Z" transform="translate(-28.694 -51.34)" fill-rule="evenodd"/>
          <path id="Fill-289" d="M99.953,153.182h5.763v-6.409a2.881,2.881,0,0,0-5.763,0Zm6.4,1.266H99.32a.633.633,0,0,1-.634-.633v-7.042a4.148,4.148,0,0,1,8.3,0v7.042a.633.633,0,0,1-.633.633Z" transform="translate(-35.524 -51.34)" fill-rule="evenodd"/>
          <path id="Fill-290" d="M118.927,153.182h5.763v-6.409a2.881,2.881,0,0,0-5.763,0Zm6.4,1.266h-7.029a.633.633,0,0,1-.633-.633v-7.042a4.147,4.147,0,0,1,8.295,0v7.042a.633.633,0,0,1-.633.633Z" transform="translate(-42.354 -51.34)" fill-rule="evenodd"/>
          <path id="Fill-291" d="M80.98,178.136h5.763v-6.409a2.882,2.882,0,1,0-5.763,0Zm6.4,1.266H80.347a.633.633,0,0,1-.633-.633v-7.042a4.148,4.148,0,1,1,8.3,0v7.042a.633.633,0,0,1-.633.633Z" transform="translate(-28.694 -60.323)" fill-rule="evenodd"/>
          <path id="Fill-292" d="M99.953,178.136h5.763v-6.409a2.881,2.881,0,1,0-5.763,0Zm6.4,1.266H99.32a.633.633,0,0,1-.634-.633v-7.042a4.148,4.148,0,1,1,8.3,0v7.042a.633.633,0,0,1-.633.633Z" transform="translate(-35.524 -60.323)" fill-rule="evenodd"/>
          <path id="Fill-293" d="M118.927,178.136h5.763v-6.409a2.881,2.881,0,1,0-5.763,0Zm6.4,1.266h-7.029a.633.633,0,0,1-.633-.633v-7.042a4.147,4.147,0,1,1,8.295,0v7.042a.633.633,0,0,1-.633.633Z" transform="translate(-42.354 -60.323)" fill-rule="evenodd"/>
          <path id="Fill-294" d="M82.244,207.043h8.207V192.765H82.244Zm8.84,1.266H81.611a.633.633,0,0,1-.633-.633V192.132a.632.632,0,0,1,.633-.633h9.473a.632.632,0,0,1,.633.633v15.544a.633.633,0,0,1-.633.633Z" transform="translate(-29.149 -68.933)" fill-rule="evenodd"/>
          <path id="Fill-296" d="M78.365,221.035H91.659v-.783H78.365ZM92.292,222.3H77.732a.633.633,0,0,1-.634-.634v-2.049a.633.633,0,0,1,.634-.633h14.56a.633.633,0,0,1,.633.633v2.049a.633.633,0,0,1-.633.634Z" transform="translate(-27.753 -78.828)" fill-rule="evenodd"/>
          <path id="Fill-297" d="M80.98,217.834H90.8v-.783H80.98ZM91.438,219.1H80.347a.633.633,0,0,1-.633-.633v-2.049a.633.633,0,0,1,.633-.633H91.438a.633.633,0,0,1,.633.633v2.049a.633.633,0,0,1-.633.633Z" transform="translate(-28.694 -77.676)" fill-rule="evenodd"/>
          <path id="Fill-298" d="M221.595,107.855h30l-15-20.142Zm31.26,1.266h-32.52a.633.633,0,0,1-.508-1.011l16.261-21.836a.632.632,0,0,1,1.015,0l16.261,21.836a.633.633,0,0,1-.508,1.011Z" transform="translate(-79.085 -30.964)" fill="#2b2a2a" fill-rule="evenodd"/>
          <path id="Fill-299" d="M220.968,186.952h31.254V124.53H220.968Zm31.887,1.266h-32.52a.633.633,0,0,1-.633-.634V123.9a.633.633,0,0,1,.633-.633h32.52a.633.633,0,0,1,.633.633v63.688a.633.633,0,0,1-.633.634Z" transform="translate(-79.085 -44.371)" fill="#2b2a2a" fill-rule="evenodd"/>
          <path id="Fill-300" d="M241.839,110.175h4.537v-2.268a2.268,2.268,0,1,0-4.537,0Zm5.17,1.266h-5.8a.633.633,0,0,1-.634-.633v-2.9a3.535,3.535,0,1,1,7.07,0v2.9a.633.633,0,0,1-.633.633Z" transform="translate(-86.598 -37.57)" fill="#2b2a2a" fill-rule="evenodd"/>
          <path id="Fill-116-2" data-name="Fill-116" d="M136.928,194.489a5.381,5.381,0,1,1-5.381-5.381,5.381,5.381,0,0,1,5.381,5.381" transform="translate(51.312 -59.271)" fill="#e4b3ed" fill-rule="evenodd"/>
          <path id="Fill-304" d="M230.945,163.777h5.68v-7.21h-5.68Zm6.313,1.267h-6.946a.633.633,0,0,1-.633-.633v-8.477a.633.633,0,0,1,.633-.633h6.946a.633.633,0,0,1,.633.633v8.477a.633.633,0,0,1-.633.633Z" transform="translate(-82.677 -55.903)" fill="#2b2a2a" fill-rule="evenodd"/>
          <path id="Fill-305" d="M250.949,163.777h5.68v-7.21h-5.68Zm6.313,1.267h-6.946a.633.633,0,0,1-.633-.633v-8.477a.633.633,0,0,1,.633-.633h6.946a.633.633,0,0,1,.633.633v8.477a.633.633,0,0,1-.633.633Z" transform="translate(-89.878 -55.903)" fill="#2b2a2a" fill-rule="evenodd"/>
          <path id="Fill-306" d="M230.945,142.272h5.68v-7.211h-5.68Zm6.313,1.266h-6.946a.633.633,0,0,1-.633-.633v-8.477a.633.633,0,0,1,.633-.633h6.946a.633.633,0,0,1,.633.633V142.9a.633.633,0,0,1-.633.633Z" transform="translate(-82.677 -48.162)" fill="#2b2a2a" fill-rule="evenodd"/>
          <path id="Fill-307" d="M250.949,142.272h5.68v-7.211h-5.68Zm6.313,1.266h-6.946a.633.633,0,0,1-.633-.633v-8.477a.633.633,0,0,1,.633-.633h6.946a.633.633,0,0,1,.633.633V142.9a.633.633,0,0,1-.633.633Z" transform="translate(-89.878 -48.162)" fill="#2b2a2a" fill-rule="evenodd"/>
          <path id="Fill-308" d="M230.945,185.269h5.68v-7.211h-5.68Zm6.313,1.266h-6.946a.633.633,0,0,1-.633-.633v-8.477a.633.633,0,0,1,.633-.633h6.946a.633.633,0,0,1,.633.633V185.9a.633.633,0,0,1-.633.633Z" transform="translate(-82.677 -63.639)" fill="#2b2a2a" fill-rule="evenodd"/>
          <path id="Fill-309" d="M250.949,185.269h5.68v-7.211h-5.68Zm6.313,1.266h-6.946a.633.633,0,0,1-.633-.633v-8.477a.633.633,0,0,1,.633-.633h6.946a.633.633,0,0,1,.633.633V185.9a.633.633,0,0,1-.633.633Z" transform="translate(-89.878 -63.639)" fill="#2b2a2a" fill-rule="evenodd"/>
          <path id="Fill-310" d="M239.7,214.848h7.269V205.66a3.635,3.635,0,1,0-7.269,0Zm7.9,1.266h-8.535a.633.633,0,0,1-.633-.634V205.66a4.9,4.9,0,0,1,9.8,0v9.821a.633.633,0,0,1-.633.634Z" transform="translate(-85.83 -72.267)" fill="#2b2a2a" fill-rule="evenodd"/>
          <path id="Fill-315" d="M297.4,206.5a.633.633,0,0,1-.633-.633V175.633a.633.633,0,1,1,1.266,0v30.234a.633.633,0,0,1-.633.633" transform="translate(-106.827 -62.994)" fill-rule="evenodd"/>
          <path id="Fill-316" d="M296.008,183.652a.628.628,0,0,1-.447-.186l-2.476-2.475a.633.633,0,1,1,.9-.9l2.476,2.475a.633.633,0,0,1-.448,1.081" transform="translate(-105.434 -64.762)" fill-rule="evenodd"/>
          <path id="Fill-317" d="M297.4,190.064a.633.633,0,0,1-.519-.994l2.714-3.9a.633.633,0,0,1,1.04.723l-2.714,3.9a.631.631,0,0,1-.52.272" transform="translate(-106.827 -66.556)" fill-rule="evenodd"/>
          <path id="Fill-318" d="M294.845,157.437c-.553.445-1.885,3.327-3.078,10.39-1.015,6.011-1.313,11.561-.742,13.809.911,3.593,3.2,4.672,3.822,4.9.634-.234,2.906-1.3,3.82-4.9.571-2.248.273-7.8-.742-13.809C296.731,160.764,295.4,157.882,294.845,157.437Zm0,30.4a.631.631,0,0,1-.159-.02c-.148-.038-3.653-1-4.89-5.87-1.258-4.958,1.36-21.851,3.891-25.1a1.862,1.862,0,0,1,.827-.655.623.623,0,0,1,.28-.065h.1a.623.623,0,0,1,.28.065,1.862,1.862,0,0,1,.827.655c2.531,3.253,5.15,20.146,3.891,25.1-1.237,4.873-4.741,5.832-4.89,5.87a.63.63,0,0,1-.158.02Z" transform="translate(-104.2 -56.2)" fill-rule="evenodd"/>
          <path id="Fill-319" d="M283.219,222.813a.633.633,0,0,1-.633-.633V205.791a.633.633,0,1,1,1.266,0V222.18a.633.633,0,0,1-.633.633" transform="translate(-101.722 -73.85)" fill-rule="evenodd"/>
          <path id="Fill-320" d="M282.319,210.2a.631.631,0,0,1-.446-.184l-1.6-1.589a.633.633,0,0,1,.893-.9l1.6,1.589a.633.633,0,0,1-.446,1.082" transform="translate(-100.822 -74.638)" fill-rule="evenodd"/>
          <path id="Fill-321" d="M283.218,213.939a.634.634,0,0,1-.525-.986l1.914-2.844a.633.633,0,1,1,1.05.707l-1.914,2.844a.632.632,0,0,1-.525.28" transform="translate(-101.721 -75.531)" fill-rule="evenodd"/>
          <path id="Fill-322" d="M279.96,200.8a5.16,5.16,0,1,0,5.16,5.16A5.165,5.165,0,0,0,279.96,200.8Zm0,11.586a6.426,6.426,0,1,1,6.426-6.426,6.433,6.433,0,0,1-6.426,6.426Z" transform="translate(-98.463 -71.826)" fill-rule="evenodd"/>
          <path id="Fill-326" d="M100.193,78.676h1.085V78.5h-1.085Zm2.17,0h1.085V78.5h-1.085Zm2.17,0h1.085V78.5h-1.085Zm2.17,0h1.085V78.5H106.7Zm2.17,0h1.085V78.5h-1.085Zm2.17,0h1.085V78.5h-1.085Zm2.17,0H114.3V78.5h-1.085Zm2.171,0h1.085V78.5h-1.085Zm2.17,0h1.085V78.5h-1.085Zm2.17,0h1.085V78.5h-1.085Zm2.17,0h1.085V78.5H121.9Zm2.17,0h1.085V78.5h-1.085Zm2.17,0h1.085V78.5h-1.085Zm2.17,0h1.085V78.5h-1.085Zm2.17,0h1.085V78.5h-1.085Zm2.17,0h1.085V78.5h-1.085Zm2.17,0H136V78.5h-1.085Zm2.17,0h1.085V78.5H137.09Zm2.171,0h1.085V78.5h-1.085Zm2.17,0h1.085V78.5h-1.085Zm2.17,0h1.085V78.5H143.6Zm2.17,0h1.085V78.5h-1.085Zm2.17,0h1.085V78.5h-1.085Zm2.17,0H151.2V78.5h-1.085Zm2.17,0h1.085V78.5h-1.085Zm2.17,0h1.086V78.5h-1.086Zm2.17,0h1.086V78.5h-1.086Zm2.17,0h1.086V78.5h-1.086Zm2.17,0h1.085V78.5h-1.085Zm2.171,0h1.085V78.5h-1.085Zm2.17,0h1.085V78.5h-1.085Zm2.17,0h1.085V78.5h-1.085Zm2.17,0h1.085V78.5h-1.085Zm2.17,0H172.9V78.5h-1.085Zm2.17,0h1.085V78.5h-1.085Zm2.17,0h1.085V78.5h-1.085Zm2.17,0h1.085V78.5h-1.085Zm2.17,0h1.085V78.5H180.5Zm2.171,0h1.085V78.5h-1.085Zm2.17,0h1.085V78.5h-1.085Zm2.17,0h1.085V78.5H187.01Zm2.17,0h1.085V78.5H189.18Zm2.17,0h1.085V78.5H191.35Zm2.17,0h1.086V78.5h-1.086Zm2.17,0h1.085V78.5h-1.085Zm2.17,0h1.085V78.5h-1.085Zm2.17,0h1.085V78.5h-1.085Zm2.17,0h1.085V78.5H202.2Zm2.171,0h1.085V78.5h-1.085Zm2.4.86h-.181v-.86h-.045V78.5h.226Zm-107.7.005h-.18V78.5h.22v.18h-.04Zm107.52,2.165h.181V80.621h-.181Zm-107.7.006h.18V80.627h-.18Zm107.7,2.165h.181V82.792h-.181Zm-107.7.006h.18V82.8h-.18Zm107.7,2.165h.181V84.962h-.181Zm-107.7.006h.18V84.967h-.18Zm107.7,2.165h.181V87.133h-.181Zm0,2.17h.181V89.3h-.181Zm0,1.763h.181v-.678h-.181Z" transform="translate(-35.596 -28.256)" fill-rule="evenodd"/>
          <path id="Fill-326-2" data-name="Fill-326" d="M100.193,78.676h1.085V78.5h-1.085Zm2.17,0h1.085V78.5h-1.085Zm2.17,0h1.085V78.5h-1.085Zm2.17,0h1.085V78.5H106.7Zm2.17,0h1.085V78.5h-1.085Zm2.17,0h1.085V78.5h-1.085Zm2.17,0H114.3V78.5h-1.085Zm2.171,0h1.085V78.5h-1.085Zm2.17,0h1.085V78.5h-1.085Zm2.17,0h1.085V78.5h-1.085Zm2.17,0h1.085V78.5H121.9Zm2.17,0h1.085V78.5h-1.085Zm2.17,0h1.085V78.5h-1.085Zm2.17,0h1.085V78.5h-1.085Zm2.17,0h1.085V78.5h-1.085Zm2.17,0h1.085V78.5h-1.085Zm2.17,0H136V78.5h-1.085Zm2.17,0h1.085V78.5H137.09Zm2.171,0h1.085V78.5h-1.085Zm2.17,0h1.085V78.5h-1.085Zm2.17,0h1.085V78.5H143.6Zm2.17,0h1.085V78.5h-1.085Zm2.17,0h1.085V78.5h-1.085Zm2.17,0H151.2V78.5h-1.085Zm2.17,0h1.085V78.5h-1.085Zm2.17,0h1.086V78.5h-1.086Zm2.17,0h1.086V78.5h-1.086Zm2.17,0h1.086V78.5h-1.086Zm2.17,0h1.085V78.5h-1.085Zm2.171,0h1.085V78.5h-1.085Zm2.17,0h1.085V78.5h-1.085Zm2.17,0h1.085V78.5h-1.085Zm2.17,0h1.085V78.5h-1.085Zm2.17,0H172.9V78.5h-1.085Zm2.17,0h1.085V78.5h-1.085Zm2.17,0h1.085V78.5h-1.085Zm2.17,0h1.085V78.5h-1.085Zm2.17,0h1.085V78.5H180.5Zm2.171,0h1.085V78.5h-1.085Zm2.17,0h1.085V78.5h-1.085Zm2.17,0h1.085V78.5H187.01Zm2.17,0h1.085V78.5H189.18Zm2.17,0h1.085V78.5H191.35Zm2.17,0h1.086V78.5h-1.086Zm2.17,0h1.085V78.5h-1.085Zm2.17,0h1.085V78.5h-1.085Zm2.17,0h1.085V78.5h-1.085Zm2.17,0h1.085V78.5H202.2Zm2.171,0h1.085V78.5h-1.085Zm2.4.86h-.181v-.86h-.045V78.5h.226Zm-107.7.005h-.18V78.5h.22v.18h-.04Zm107.52,2.165h.181V80.621h-.181Zm-107.7.006h.18V80.627h-.18Zm107.7,2.165h.181V82.792h-.181Zm-107.7.006h.18V82.8h-.18Zm107.7,2.165h.181V84.962h-.181Zm-107.7.006h.18V84.967h-.18Zm107.7,2.165h.181V87.133h-.181Zm0,2.17h.181V89.3h-.181Zm0,1.763h.181v-.678h-.181Z" transform="translate(123.404 -46.256)" fill-rule="evenodd"/>
          <path id="Fill-328" d="M168.32,63.454a.087.087,0,0,1-.09-.084V62.356a.09.09,0,0,1,.18,0V63.37A.087.087,0,0,1,168.32,63.454Zm0,2.026a.087.087,0,0,1-.09-.084V64.382a.09.09,0,0,1,.18,0V65.4A.087.087,0,0,1,168.32,65.48Zm0,2.026a.087.087,0,0,1-.09-.084V66.408a.09.09,0,0,1,.18,0v1.013A.087.087,0,0,1,168.32,67.506Zm0,2.026a.087.087,0,0,1-.09-.084V68.434a.09.09,0,0,1,.18,0v1.013A.087.087,0,0,1,168.32,69.532Zm0,2.027a.088.088,0,0,1-.09-.085V70.461a.09.09,0,0,1,.18,0v1.013A.088.088,0,0,1,168.32,71.559Zm0,2.026a.088.088,0,0,1-.09-.085V72.487a.09.09,0,0,1,.18,0V73.5A.088.088,0,0,1,168.32,73.585Zm0,2.026a.088.088,0,0,1-.09-.085V74.513a.09.09,0,0,1,.18,0v1.013A.088.088,0,0,1,168.32,75.611Zm0,2.026a.088.088,0,0,1-.09-.085V76.539a.09.09,0,0,1,.18,0v1.013A.088.088,0,0,1,168.32,77.637Zm0,2.026a.088.088,0,0,1-.09-.085V78.565a.09.09,0,0,1,.18,0v1.013A.088.088,0,0,1,168.32,79.663Zm0,2.026a.087.087,0,0,1-.09-.085V80.591a.09.09,0,0,1,.18,0V81.6A.087.087,0,0,1,168.32,81.689Zm0,2.026a.087.087,0,0,1-.09-.084V82.617a.09.09,0,0,1,.18,0v1.013A.087.087,0,0,1,168.32,83.715Zm0,2.026a.087.087,0,0,1-.09-.084V84.644a.09.09,0,0,1,.18,0v1.013A.087.087,0,0,1,168.32,85.741Zm0,2.026a.087.087,0,0,1-.09-.084V86.67a.09.09,0,0,1,.18,0v1.013A.087.087,0,0,1,168.32,87.767Zm0,2.026a.087.087,0,0,1-.09-.084V88.7a.09.09,0,0,1,.18,0v1.013A.087.087,0,0,1,168.32,89.793Zm0,2.026a.087.087,0,0,1-.09-.084V90.722a.09.09,0,0,1,.18,0v1.013A.087.087,0,0,1,168.32,91.819Zm0,2.026a.087.087,0,0,1-.09-.084V92.748a.09.09,0,0,1,.18,0v1.013A.087.087,0,0,1,168.32,93.845Zm0,2.026a.087.087,0,0,1-.09-.084V94.774a.09.09,0,0,1,.18,0v1.013A.087.087,0,0,1,168.32,95.871Zm0,2.026a.087.087,0,0,1-.09-.084V96.8a.09.09,0,0,1,.18,0v1.013A.087.087,0,0,1,168.32,97.9Zm0,2.027a.087.087,0,0,1-.09-.085V98.827a.09.09,0,0,1,.18,0v1.013A.087.087,0,0,1,168.32,99.924Zm0,2.026a.087.087,0,0,1-.09-.084v-1.013a.09.09,0,0,1,.18,0v1.013A.087.087,0,0,1,168.32,101.95Zm0,2.026a.087.087,0,0,1-.09-.084v-1.013a.09.09,0,0,1,.18,0v1.013A.087.087,0,0,1,168.32,103.976Zm0,2.026a.087.087,0,0,1-.09-.084V104.9a.09.09,0,0,1,.18,0v1.013A.087.087,0,0,1,168.32,106Zm0,2.026a.087.087,0,0,1-.09-.084v-1.013a.09.09,0,0,1,.18,0v1.013A.087.087,0,0,1,168.32,108.028Zm0,2.026a.087.087,0,0,1-.09-.084v-1.013a.09.09,0,0,1,.18,0v1.013A.087.087,0,0,1,168.32,110.055Zm0,2.026a.087.087,0,0,1-.09-.084v-1.013a.09.09,0,0,1,.18,0V112a.087.087,0,0,1-.09.084Z" transform="translate(-60.557 -30.936)" fill-rule="evenodd"/>
          <path id="Fill-328-2" data-name="Fill-328" d="M168.32,63.543a.09.09,0,0,1-.09-.091V62.363a.09.09,0,1,1,.18,0v1.089A.09.09,0,0,1,168.32,63.543Zm0,2.178a.09.09,0,0,1-.09-.091V64.541a.09.09,0,1,1,.18,0V65.63A.09.09,0,0,1,168.32,65.721Zm0,2.178a.09.09,0,0,1-.09-.091V66.719a.09.09,0,1,1,.18,0v1.089A.09.09,0,0,1,168.32,67.9Zm0,2.178a.09.09,0,0,1-.09-.091V68.9a.09.09,0,1,1,.18,0v1.089A.09.09,0,0,1,168.32,70.078Zm0,2.179a.091.091,0,0,1-.09-.091V71.076a.09.09,0,1,1,.18,0v1.089A.091.091,0,0,1,168.32,72.257Zm0,2.178a.091.091,0,0,1-.09-.091V73.255a.09.09,0,1,1,.18,0v1.089A.091.091,0,0,1,168.32,74.435Zm0,2.178a.091.091,0,0,1-.09-.091V75.433a.09.09,0,1,1,.18,0v1.089A.091.091,0,0,1,168.32,76.613Zm0,2.178a.091.091,0,0,1-.09-.091V77.611a.09.09,0,1,1,.18,0V78.7A.091.091,0,0,1,168.32,78.791Zm0,2.178a.091.091,0,0,1-.09-.091V79.79a.09.09,0,1,1,.18,0v1.089A.091.091,0,0,1,168.32,80.97Zm0,2.178a.09.09,0,0,1-.09-.091V81.968a.09.09,0,1,1,.18,0v1.089A.09.09,0,0,1,168.32,83.148Zm0,2.178a.09.09,0,0,1-.09-.091V84.146a.09.09,0,1,1,.18,0v1.089A.09.09,0,0,1,168.32,85.326Zm0,2.178a.09.09,0,0,1-.09-.091V86.325a.09.09,0,1,1,.18,0v1.089A.09.09,0,0,1,168.32,87.5Zm0,2.178a.09.09,0,0,1-.09-.091V88.5a.09.09,0,1,1,.18,0v1.089A.09.09,0,0,1,168.32,89.683Zm0,2.178a.09.09,0,0,1-.09-.091V90.681a.09.09,0,1,1,.18,0v1.089A.09.09,0,0,1,168.32,91.861Zm0,2.178a.09.09,0,0,1-.09-.091V92.86a.09.09,0,1,1,.18,0v1.089A.09.09,0,0,1,168.32,94.04Zm0,2.178a.09.09,0,0,1-.09-.091V95.038a.09.09,0,1,1,.18,0v1.089A.09.09,0,0,1,168.32,96.218Zm0,2.178a.09.09,0,0,1-.09-.091V97.216a.09.09,0,1,1,.18,0v1.089A.09.09,0,0,1,168.32,98.4Zm0,2.178a.09.09,0,0,1-.09-.091V99.4a.09.09,0,1,1,.18,0v1.089A.09.09,0,0,1,168.32,100.574Zm0,2.179a.09.09,0,0,1-.09-.091v-1.089a.09.09,0,1,1,.18,0v1.089A.09.09,0,0,1,168.32,102.753Zm0,2.178a.09.09,0,0,1-.09-.091v-1.089a.09.09,0,1,1,.18,0v1.089A.09.09,0,0,1,168.32,104.932Zm0,2.178a.09.09,0,0,1-.09-.091V105.93a.09.09,0,1,1,.18,0v1.089A.09.09,0,0,1,168.32,107.11Zm0,2.178a.09.09,0,0,1-.09-.091v-1.089a.09.09,0,1,1,.18,0V109.2A.09.09,0,0,1,168.32,109.288Zm0,2.178a.09.09,0,0,1-.09-.091v-1.089a.09.09,0,1,1,.18,0v1.089A.09.09,0,0,1,168.32,111.467Zm0,2.178a.09.09,0,0,1-.09-.091v-1.089a.09.09,0,1,1,.18,0v1.089A.09.09,0,0,1,168.32,113.645Zm0,2.178a.09.09,0,0,1-.09-.091v-1.089a.09.09,0,1,1,.18,0v1.089a.09.09,0,0,1-.09.091Z" transform="translate(46.587 199.56) rotate(-90)" fill-rule="evenodd"/>
          <path id="Fill-328-3" data-name="Fill-328" d="M168.32,63.543a.09.09,0,0,1-.09-.091V62.363a.09.09,0,1,1,.18,0v1.089A.09.09,0,0,1,168.32,63.543Zm0,2.178a.09.09,0,0,1-.09-.091V64.541a.09.09,0,1,1,.18,0V65.63A.09.09,0,0,1,168.32,65.721Zm0,2.178a.09.09,0,0,1-.09-.091V66.719a.09.09,0,1,1,.18,0v1.089A.09.09,0,0,1,168.32,67.9Zm0,2.178a.09.09,0,0,1-.09-.091V68.9a.09.09,0,1,1,.18,0v1.089A.09.09,0,0,1,168.32,70.078Zm0,2.179a.091.091,0,0,1-.09-.091V71.076a.09.09,0,1,1,.18,0v1.089A.091.091,0,0,1,168.32,72.257Zm0,2.178a.091.091,0,0,1-.09-.091V73.255a.09.09,0,1,1,.18,0v1.089A.091.091,0,0,1,168.32,74.435Zm0,2.178a.091.091,0,0,1-.09-.091V75.433a.09.09,0,1,1,.18,0v1.089A.091.091,0,0,1,168.32,76.613Zm0,2.178a.091.091,0,0,1-.09-.091V77.611a.09.09,0,1,1,.18,0V78.7A.091.091,0,0,1,168.32,78.791Zm0,2.178a.091.091,0,0,1-.09-.091V79.79a.09.09,0,1,1,.18,0v1.089A.091.091,0,0,1,168.32,80.97Zm0,2.178a.09.09,0,0,1-.09-.091V81.968a.09.09,0,1,1,.18,0v1.089A.09.09,0,0,1,168.32,83.148Zm0,2.178a.09.09,0,0,1-.09-.091V84.146a.09.09,0,1,1,.18,0v1.089A.09.09,0,0,1,168.32,85.326Zm0,2.178a.09.09,0,0,1-.09-.091V86.325a.09.09,0,1,1,.18,0v1.089A.09.09,0,0,1,168.32,87.5Zm0,2.178a.09.09,0,0,1-.09-.091V88.5a.09.09,0,1,1,.18,0v1.089A.09.09,0,0,1,168.32,89.683Zm0,2.178a.09.09,0,0,1-.09-.091V90.681a.09.09,0,1,1,.18,0v1.089A.09.09,0,0,1,168.32,91.861Zm0,2.178a.09.09,0,0,1-.09-.091V92.86a.09.09,0,1,1,.18,0v1.089A.09.09,0,0,1,168.32,94.04Zm0,2.178a.09.09,0,0,1-.09-.091V95.038a.09.09,0,1,1,.18,0v1.089A.09.09,0,0,1,168.32,96.218Zm0,2.178a.09.09,0,0,1-.09-.091V97.216a.09.09,0,1,1,.18,0v1.089A.09.09,0,0,1,168.32,98.4Zm0,2.178a.09.09,0,0,1-.09-.091V99.4a.09.09,0,1,1,.18,0v1.089A.09.09,0,0,1,168.32,100.574Zm0,2.179a.09.09,0,0,1-.09-.091v-1.089a.09.09,0,1,1,.18,0v1.089A.09.09,0,0,1,168.32,102.753Zm0,2.178a.09.09,0,0,1-.09-.091v-1.089a.09.09,0,1,1,.18,0v1.089A.09.09,0,0,1,168.32,104.932Zm0,2.178a.09.09,0,0,1-.09-.091V105.93a.09.09,0,1,1,.18,0v1.089A.09.09,0,0,1,168.32,107.11Zm0,2.178a.09.09,0,0,1-.09-.091v-1.089a.09.09,0,1,1,.18,0V109.2A.09.09,0,0,1,168.32,109.288Zm0,2.178a.09.09,0,0,1-.09-.091v-1.089a.09.09,0,1,1,.18,0v1.089A.09.09,0,0,1,168.32,111.467Zm0,2.178a.09.09,0,0,1-.09-.091v-1.089a.09.09,0,1,1,.18,0v1.089A.09.09,0,0,1,168.32,113.645Zm0,2.178a.09.09,0,0,1-.09-.091v-1.089a.09.09,0,1,1,.18,0v1.089a.09.09,0,0,1-.09.091Z" transform="translate(101.587 199.56) rotate(-90)" fill-rule="evenodd"/>
          <path id="Fill-328-4" data-name="Fill-328" d="M.09,34.687c-.05,0-.09.027-.09.06v.723c0,.033.04.06.09.06s.09-.027.09-.06v-.723C.18,34.714.14,34.687.09,34.687Zm0-1.445c-.05,0-.09.027-.09.06v.723c0,.033.04.06.09.06s.09-.027.09-.06V33.3C.18,33.268.14,33.242.09,33.242Zm0-1.445c-.05,0-.09.027-.09.06v.723c0,.033.04.06.09.06s.09-.027.09-.06v-.723C.18,31.823.14,31.8.09,31.8Zm0-1.445c-.05,0-.09.027-.09.06v.723c0,.033.04.06.09.06s.09-.027.09-.06v-.723C.18,30.378.14,30.351.09,30.351Zm0-1.446c-.05,0-.09.027-.09.061v.722c0,.034.04.061.09.061s.09-.027.09-.061v-.722C.18,28.933.14,28.905.09,28.905Zm0-1.445c-.05,0-.09.027-.09.061v.722c0,.033.04.061.09.061s.09-.027.09-.061v-.722C.18,27.487.14,27.46.09,27.46Zm0-1.445c-.05,0-.09.027-.09.061V26.8c0,.033.04.061.09.061s.09-.027.09-.061v-.722C.18,26.042.14,26.015.09,26.015Zm0-1.445c-.05,0-.09.027-.09.061v.722c0,.033.04.061.09.061s.09-.027.09-.061V24.63C.18,24.6.14,24.57.09,24.57Zm0-1.445c-.05,0-.09.027-.09.061v.722c0,.033.04.061.09.061s.09-.027.09-.061v-.722C.18,23.152.14,23.124.09,23.124Zm0-1.445c-.05,0-.09.027-.09.061v.722c0,.033.04.06.09.06s.09-.027.09-.06V21.74C.18,21.706.14,21.679.09,21.679Zm0-1.445c-.05,0-.09.027-.09.06v.723c0,.033.04.06.09.06s.09-.027.09-.06v-.723C.18,20.261.14,20.234.09,20.234Zm0-1.445c-.05,0-.09.027-.09.06v.723c0,.033.04.06.09.06s.09-.027.09-.06v-.723C.18,18.815.14,18.789.09,18.789Zm0-1.445c-.05,0-.09.027-.09.06v.722c0,.034.04.061.09.061s.09-.027.09-.061V17.4C.18,17.37.14,17.343.09,17.343Zm0-1.445c-.05,0-.09.027-.09.06v.723c0,.033.04.06.09.06s.09-.027.09-.06v-.723C.18,15.925.14,15.9.09,15.9Zm0-1.445c-.05,0-.09.027-.09.06v.723c0,.033.04.06.09.06s.09-.027.09-.06v-.723C.18,14.48.14,14.453.09,14.453Zm0-1.445c-.05,0-.09.027-.09.06v.723c0,.033.04.06.09.06s.09-.027.09-.06v-.723C.18,13.034.14,13.008.09,13.008Zm0-1.445c-.05,0-.09.027-.09.06v.723c0,.033.04.06.09.06s.09-.027.09-.06v-.723C.18,11.589.14,11.562.09,11.562Zm0-1.445c-.05,0-.09.026-.09.06V10.9c0,.034.04.061.09.061s.09-.027.09-.061v-.722C.18,10.144.14,10.117.09,10.117Zm0-1.446c-.05,0-.09.027-.09.061v.722c0,.033.04.06.09.06s.09-.027.09-.06V8.732C.18,8.7.14,8.671.09,8.671Zm0-1.445c-.05,0-.09.027-.09.06v.723c0,.033.04.06.09.06s.09-.027.09-.06V7.286C.18,7.253.14,7.226.09,7.226Zm0-1.445c-.05,0-.09.027-.09.06v.723c0,.033.04.06.09.06s.09-.027.09-.06V5.841C.18,5.808.14,5.781.09,5.781Zm0-1.445c-.05,0-.09.027-.09.06v.723c0,.033.04.06.09.06s.09-.027.09-.06V4.4C.18,4.363.14,4.336.09,4.336Zm0-1.445c-.05,0-.09.027-.09.06v.723c0,.033.04.06.09.06s.09-.027.09-.06V2.951C.18,2.917.14,2.89.09,2.89Zm0-1.445c-.05,0-.09.027-.09.06v.723c0,.033.04.06.09.06s.09-.027.09-.06V1.505C.18,1.472.14,1.445.09,1.445ZM.09,0C.04,0,0,.027,0,.06V.783c0,.033.04.06.09.06S.18.816.18.783V.06C.18.027.14,0,.09,0Z" transform="translate(218.543 31.464)" fill-rule="evenodd"/>
        </g>
      </g>
    </g>
    <text id="BROKER" transform="translate(225 565)" font-size="9" font-family="SegoeUI, Segoe UI"><tspan x="0" y="0">BROKER</tspan></text>
    <g id="Group_2754" data-name="Group 2754" transform="translate(46.479 463.784) rotate(-21)">
      <g id="Group_2751" data-name="Group 2751" clip-path="url(#clip-path)">
        <g id="Group_2750" data-name="Group 2750" clip-path="url(#clip-path-2)">
          <path id="Path_4603" data-name="Path 4603" d="M-1.868-24.68H35.638V4.605H-1.868Z" fill="#fff"/>
        </g>
      </g>
      <g id="Group_2753" data-name="Group 2753" clip-path="url(#clip-path-3)">
        <g id="Group_2752" data-name="Group 2752" clip-path="url(#clip-path-2)">
          <path id="Path_4606" data-name="Path 4606" d="M-4.441-26.935H34.406V3.688H-4.441Z"/>
        </g>
      </g>
    </g>
    <line id="Line_359" data-name="Line 359" x1="14" y2="6" transform="translate(19.5 447.5)" fill="none" stroke="#3c3951" stroke-linecap="round" stroke-width="1"/>
    <line id="Line_360" data-name="Line 360" x1="14" y2="6" transform="translate(12.5 457.5)" fill="none" stroke="#3c3951" stroke-linecap="round" stroke-width="1"/>
  </g>
</svg>
