<svg xmlns="http://www.w3.org/2000/svg" width="24" height="21.264" viewBox="0 0 24 21.264">
  <g id="money_wallet_tab_bar_pardakht" data-name="money_wallet_tab bar_pardakht" transform="translate(0 0)">
    <path id="Path_3616" data-name="Path 3616" d="M18.687,14.762a.937.937,0,1,1,.937-.937A.938.938,0,0,1,18.687,14.762Z" transform="translate(-0.299 -1.589)" fill="#3c3951"/>
    <path id="Path_3625" data-name="Path 3625" d="M2.5,22.634a2.5,2.5,0,0,1-2.5-2.5v-13a2.5,2.5,0,0,1,2.5-2.5H4.433L16.388,1.419a1.6,1.6,0,0,1,.395-.05,1.47,1.47,0,0,1,.766.213,1.485,1.485,0,0,1,.683.922l.555,2.216A3.976,3.976,0,0,1,22,8.636v2.05a2.5,2.5,0,0,1,2,2.45v1a2.5,2.5,0,0,1-2,2.45v2.05a4,4,0,0,1-4,4Zm0-17A1.5,1.5,0,0,0,1,7.136v13a1.5,1.5,0,0,0,1.5,1.5H18a3,3,0,0,0,3-3v-2H17.5a2.5,2.5,0,0,1-2.5-2.5v-1a2.5,2.5,0,0,1,2.5-2.5H21v-2a3,3,0,0,0-3-3H2.5Zm15,6a1.5,1.5,0,0,0-1.5,1.5v1a1.5,1.5,0,0,0,1.5,1.5h4a1.5,1.5,0,0,0,1.5-1.5v-1a1.5,1.5,0,0,0-1.5-1.5Zm.235-7-.472-1.891a.5.5,0,0,0-.484-.379.5.5,0,0,0-.122.015L8.281,4.636Z" transform="translate(0 -1.369)" fill="#3c3951"/>
  </g>
</svg>
