<svg xmlns="http://www.w3.org/2000/svg" width="173.275" height="102.499" viewBox="0 0 173.275 102.499">
    <defs>
        <filter id="Path" width="34.996" height="55.6" x="138.279" y="41.922" filterUnits="userSpaceOnUse">
            <feOffset dx="5" dy="13"/>
            <feGaussianBlur result="blur" stdDeviation="5.5"/>
            <feFlood flood-opacity=".161"/>
            <feComposite in2="blur" operator="in"/>
            <feComposite in="SourceGraphic"/>
        </filter>
        <style>
            .cls-1,.cls-5{fill:#e01d6f}.cls-1{stroke:#e01d6f}.cls-3{fill:#fff}.cls-4,.cls-6{fill:#121269}.cls-6{fill-rule:evenodd}
        </style>
    </defs>
    <g id="Desktop-HD" transform="translate(.5)">
        <g id="pgpal-logo">
            <path id="Path-2" d="M40.134 78.928A53.21 53.21 0 0 1 12 70.9l3.342-5.324A46.882 46.882 0 0 0 86.973 26h6.309a53.1 53.1 0 0 1-53.148 52.928z" class="cls-1" transform="translate(10.683 23.071)"/>
            <path id="Rectangle" fill="#e4488a" stroke="#e4488a" d="M1 0l21.609.1c.552 0-.293 5.529-.293 6.081l-1.1-1.506a.922.922 0 0 1-.9 1H1a1 1 0 0 1-1-1V1a1 1 0 0 1 1-1z" transform="translate(81.282 47.18)"/>
            <path id="Path-3" d="M49.961 101.185A50.093 50.093 0 0 1 49.961 1v1.389A48.7 48.7 0 1 0 98.81 51.1c0-.481-.011-.984-.033-1.542l-10.625-.008v-1.389l11.945.011.033.656c.033.853.055 1.575.055 2.264a50.208 50.208 0 0 1-50.224 50.093z" class="cls-1" transform="translate(0 .814)"/>
            <g id="Group" transform="translate(104.776 49.791)">
                <path id="Shape" d="M9.7 1.092a8.227 8.227 0 0 1 6.092 2.583A8.476 8.476 0 0 1 18.3 9.846a8.5 8.5 0 0 1-2.506 6.182A8.267 8.267 0 0 1 9.7 18.611a8.286 8.286 0 0 1-6.508-3.08c-.031-.064-.094-.085-.2-.053a.2.2 0 0 0-.073.127v8.479h-1.8V9.719a8.313 8.313 0 0 1 2.509-6.076A8.214 8.214 0 0 1 9.7 1.092zm0 1.852a6.477 6.477 0 0 0-4.8 2.012 6.751 6.751 0 0 0-1.979 4.89A6.748 6.748 0 0 0 4.9 14.705a6.461 6.461 0 0 0 4.8 2.011 6.412 6.412 0 0 0 4.8-2.011 6.691 6.691 0 0 0 2-4.859 6.728 6.728 0 0 0-2-4.891 6.452 6.452 0 0 0-4.8-2.011z" class="cls-3" transform="translate(.188 .252)"/>
                <path id="Shape-2" d="M4.868 26.061H.429V10.352a9.67 9.67 0 0 1 2.9-7.029 9.5 9.5 0 0 1 7-2.943 9.487 9.487 0 0 1 7.018 2.975 9.834 9.834 0 0 1 2.9 7.124 9.834 9.834 0 0 1-2.9 7.124 9.544 9.544 0 0 1-7.018 2.975 9.369 9.369 0 0 1-5.458-1.673v7.156zm5.448-21.139a5.162 5.162 0 0 0-3.868 1.62 5.4 5.4 0 0 0-1.591 3.938 5.416 5.416 0 0 0 1.6 3.927 5.153 5.153 0 0 0 3.857 1.609 5.159 5.159 0 0 0 3.868-1.609 5.354 5.354 0 0 0 1.622-3.917 5.381 5.381 0 0 0-1.611-3.938 5.124 5.124 0 0 0-3.877-1.63zm-7.257 9.209v.752l.141-.053a1.5 1.5 0 0 1 .208-.053c-.12-.212-.234-.423-.349-.646z" class="cls-4" transform="translate(-.429 -.381)"/>
            </g>
            <g id="Group-2" transform="translate(125.715 49.778)">
                <path id="Shape-3" d="M9.782 1.072a8.3 8.3 0 0 1 6.092 2.537A8.2 8.2 0 0 1 18.38 9.67v8.359h-1.83v-2.7c0-.021-.031-.052-.094-.125a.116.116 0 0 0-.146.052 8.357 8.357 0 0 1-6.529 3.025 8.221 8.221 0 0 1-6.071-2.539A8.255 8.255 0 0 1 1.2 9.67a8.232 8.232 0 0 1 2.51-6.061 8.238 8.238 0 0 1 6.072-2.537zm0 1.819a6.536 6.536 0 0 0-4.8 1.975A6.569 6.569 0 0 0 3 9.67a6.566 6.566 0 0 0 1.975 4.772 6.519 6.519 0 0 0 4.8 1.975 6.337 6.337 0 0 0 4.772-1.975 6.512 6.512 0 0 0 2-4.772 6.548 6.548 0 0 0-2-4.8 6.506 6.506 0 0 0-4.765-1.978z" class="cls-3" transform="translate(.116 .248)"/>
                <path id="Shape-4" d="M10.4 20.211a9.572 9.572 0 0 1-7-2.922 9.584 9.584 0 0 1-2.89-7 9.6 9.6 0 0 1 2.89-7 9.532 9.532 0 0 1 7-2.921A9.572 9.572 0 0 1 17.411 3.3a9.494 9.494 0 0 1 2.89 7v9.669h-4.46v-1.401a9.353 9.353 0 0 1-5.441 1.643zm0-15.376a5.208 5.208 0 0 0-3.864 1.59 5.258 5.258 0 0 0-1.591 3.868 5.27 5.27 0 0 0 1.6 3.857 5.2 5.2 0 0 0 3.855 1.58 5.027 5.027 0 0 0 3.826-1.57 5.221 5.221 0 0 0 1.636-3.86 5.237 5.237 0 0 0-1.612-3.865 5.165 5.165 0 0 0-3.85-1.601zm6.893 9.69c.031.01.062.01.094.021l.291.073v-.78a5.691 5.691 0 0 1-.378.685z" class="cls-4" transform="translate(-.506 -.374)"/>
            </g>
            <g id="Group-3" transform="translate(147.85 44.077)">
                <g filter="url(#Path)" transform="translate(-148.35 -44.08)">
                    <path id="Path-4" d="M2.968 23.67h-2V1.07h2z" class="cls-3" transform="translate(148.81 44.35)"/>
                </g>
                <path id="Rectangle-2" d="M0 0H4.866V25.278H0z" class="cls-4"/>
            </g>
            <path id="Path-5" d="M20.418 55.331l.034 1.12A48.746 48.746 0 0 1 11 51.731L11.034 47z" class="cls-5" transform="translate(9.793 41.767)"/>
            <path id="Path-6" d="M67.354 14h18.085c.75 0 1.354.858 1.354 1.89 0 1.047-.615 1.89-1.354 1.89H67.354c-.75 0-1.354-.858-1.354-1.89 0-1.047.6-1.89 1.354-1.89z" class="cls-6" transform="translate(58.758 12.387)"/>
            <path id="Rectangle-3" d="M0 0l3.416.007.007 3.416-3.416-.007z" class="cls-6" transform="rotate(-45 77.666 -100.634)"/>
            <path id="Path-7" d="M49 19.9l1.9 1.879 1.881-1.879L50.9 18z" class="cls-6" transform="translate(43.624 15.949)"/>
            <path id="Rectangle-4" d="M0 0l5.272.01.01 5.272-5.272-.01z" class="cls-6" transform="rotate(-45 84.333 -120.974)"/>
            <path id="Path-8" d="M54.873 9.781l1.908-1.913L54.873 6 53 7.867z" class="cls-6" transform="translate(47.185 5.265)"/>
            <path id="Path-9" d="M61.9 6.781l1.876-1.9L61.9 3 60 4.876z" class="cls-6" transform="translate(53.417 2.594)"/>
            <path id="Path-10" d="M48.873 2l1.908 1.873-1.908 1.908L47 3.873z" class="cls-6" transform="translate(41.843 1.704)"/>
            <path id="Rectangle-5" d="M0 0h2.51v2.51H0z" class="cls-6" transform="rotate(-45 60.642 -110.369)"/>
            <path id="Path-11" d="M62.841 18L60 20.817l2.841 2.853 2.829-2.853z" class="cls-6" transform="translate(53.417 15.949)"/>
            <path id="Rectangle-6" d="M0 0l6.877.013.013 6.877-6.877-.013z" class="cls-6" transform="rotate(-45 64.432 -98.213)"/>
            <path id="Rectangle-7" d="M0 0l5.272.01.01 5.272-5.272-.01z" class="cls-6" transform="rotate(-45 87.775 -108.243)"/>
            <path id="Path-12" d="M93.832 1H58.4l1.565 1.538L58 4.472h2.258L62.873 1.9l2.615 2.571h28.344a4.09 4.09 0 0 1 2.906 1.22c1.2 1.143 1.241 2.252 1.241 3.681H65.712l4.247 4.175-2.146 2.109h30.165v13.755a4.154 4.154 0 0 1-4.146 4.076H67.2l2.178 2.113-1.341 1.318h25.806a7.573 7.573 0 0 0 7.634-7.5V8.548A7.612 7.612 0 0 0 93.832 1z" class="cls-6" transform="translate(51.636 .814)"/>
            <path id="Path-13" d="M63.842 6h-2.45l-.36.327-4.8 3.959.012-.03-.24.188 1.525 1.227h7.254l-2.294-1.9 2.966-2.444z" class="cls-6" transform="translate(49.856 5.265)"/>
            <path id="Rectangle-8" d="M0 0l4.017.008.008 4.017-4.017-.008z" class="cls-6" transform="rotate(-45 56.547 -123.58)"/>
            <path id="Rectangle-9" d="M0 0l5.272.01.01 5.272-5.272-.01z" class="cls-6" transform="rotate(-45 76.457 -113.33)"/>
            <path id="Rectangle-10" d="M0 0l3.515.007.007 3.515-3.515-.007z" class="cls-6" transform="rotate(-45 74.974 -130.78)"/>
            <g id="Group-4" transform="translate(21.246)">
                <path id="Shape-5" d="M35.025.584a33.357 33.357 0 0 1 24.312 9.993 32.419 32.419 0 0 1 10.012 23.929 32.4 32.4 0 0 1-10.012 23.929 33.339 33.339 0 0 1-24.312 9.993q-15.366 0-25.969-11.915c-.133-.251-.387-.317-.774-.2A.756.756 0 0 0 8 56.8v39.271L.8 92.827V34.036a31.771 31.771 0 0 1 10.013-23.547A33.185 33.185 0 0 1 35.025.584zm0 7.208a26.261 26.261 0 0 0-19.162 7.787 25.838 25.838 0 0 0-7.879 18.938 25.937 25.937 0 0 0 7.879 18.84 26.243 26.243 0 0 0 19.162 7.787 26.066 26.066 0 0 0 19.162-7.787 25.566 25.566 0 0 0 7.979-18.84 25.7 25.7 0 0 0-7.979-18.938 26.066 26.066 0 0 0-19.162-7.787z" class="cls-1" transform="translate(.26 .443)"/>
                <path id="Shape-6" d="M9.533 98.182L.24 93.988V34.52a32.866 32.866 0 0 1 10.332-24.279A34.331 34.331 0 0 1 35.525.04a34.512 34.512 0 0 1 25.052 10.3A33.547 33.547 0 0 1 70.9 35a33.529 33.529 0 0 1-10.323 24.661 34.512 34.512 0 0 1-25.052 10.3 34.426 34.426 0 0 1-25.98-11.424v39.645zm-7.194-5.526l5.094 2.294V57.291a1.779 1.779 0 0 1 .6-1.212l.177-.175.232-.076a1.594 1.594 0 0 1 1.967.568c6.818 7.623 15.261 11.49 25.108 11.49A32.515 32.515 0 0 0 59.085 58.2 31.564 31.564 0 0 0 68.8 35a31.564 31.564 0 0 0-9.714-23.2 32.472 32.472 0 0 0-23.572-9.684 32.318 32.318 0 0 0-23.472 9.6 30.914 30.914 0 0 0-9.714 22.815v58.125zm33.186-30a27.373 27.373 0 0 1-19.9-8.093A27.026 27.026 0 0 1 7.434 34.99a26.934 26.934 0 0 1 8.178-19.659 27.373 27.373 0 0 1 19.9-8.093 27.159 27.159 0 0 1 19.9 8.093 26.771 26.771 0 0 1 8.282 19.659 26.666 26.666 0 0 1-8.277 19.572 27.116 27.116 0 0 1-19.892 8.092zm0-53.341a25.289 25.289 0 0 0-18.411 7.481 24.951 24.951 0 0 0-7.57 18.2A25.026 25.026 0 0 0 17.125 53.1a25.305 25.305 0 0 0 18.411 7.47 25.094 25.094 0 0 0 18.411-7.481 24.659 24.659 0 0 0 7.669-18.108 24.746 24.746 0 0 0-7.669-18.2 25.23 25.23 0 0 0-18.422-7.468z" class="cls-5" transform="translate(-.24 -.04)"/>
            </g>
            <path id="Path-14" fill="#04044d" fill-rule="evenodd" d="M63.561 18h-3.528L56.5 21.308h.026l-.53.473h6.6l-1.551-1.454z" transform="translate(49.856 15.949)"/>
        </g>
    </g>
</svg>
