<?xml version="1.0" standalone="no"?>
<!DOCTYPE svg PUBLIC "-//W3C//DTD SVG 20010904//EN"
 "http://www.w3.org/TR/2001/REC-SVG-20010904/DTD/svg10.dtd">
<svg version="1.0" xmlns="http://www.w3.org/2000/svg"
 width="128.000000pt" height="128.000000pt" viewBox="0 0 128.000000 128.000000"
 preserveAspectRatio="xMidYMid meet">
<metadata>
Created by potrace 1.11, written by Peter Selinger 2001-2013
</metadata>
<g transform="translate(0.000000,128.000000) scale(0.100000,-0.100000)"
fill="#000000" stroke="none">
<path d="M203 1262 c-100 -35 -171 -114 -193 -216 -8 -34 -10 -178 -8 -436 3
-367 4 -387 24 -431 31 -66 78 -114 142 -146 l57 -28 415 0 c401 0 417 1 461
21 66 31 114 78 146 142 l28 57 0 415 0 415 -28 57 c-32 64 -80 111 -146 142
-44 20 -63 21 -446 23 -364 3 -405 1 -452 -15z m408 -355 c49 -26 109 -104
109 -142 0 -13 7 -30 15 -39 17 -16 20 -30 5 -21 -5 3 -13 -9 -18 -27 l-8 -33
44 -3 45 -3 -6 -50 c-13 -107 -85 -207 -186 -256 -75 -37 -200 -40 -274 -6
-73 34 -168 145 -167 195 0 7 9 -5 19 -28 19 -43 77 -114 92 -114 5 0 9 85 9
190 0 211 6 239 62 298 39 40 28 41 -39 2 -76 -43 -128 -120 -143 -209 -7 -42
-8 -43 -9 -11 -1 41 34 121 74 168 82 97 274 142 376 89z m219 3 c0 -5 -4 -10
-10 -10 -5 0 -10 5 -10 10 0 6 5 10 10 10 6 0 10 -4 10 -10z m270 -9 c16 -31
13 -153 -6 -179 -14 -20 -23 -22 -105 -22 -115 0 -117 18 -1 22 l87 3 3 53 3
52 -92 0 c-51 0 -89 3 -86 7 4 3 2 12 -4 20 -9 11 5 13 85 13 79 0 96 3 96 15
0 14 -57 19 -222 19 -9 0 -15 3 -12 8 3 4 59 8 124 8 108 0 120 -2 130 -19z
m-370 -1 c0 -5 -4 -10 -10 -10 -5 0 -10 5 -10 10 0 6 5 10 10 10 6 0 10 -4 10
-10z m150 -10 c0 -5 -5 -10 -11 -10 -5 0 -7 5 -4 10 3 6 8 10 11 10 2 0 4 -4
4 -10z m-110 -20 c0 -5 -5 -10 -11 -10 -5 0 -7 5 -4 10 3 6 8 10 11 10 2 0 4
-4 4 -10z m-21 -56 c-14 -14 -17 -14 -29 0 -10 13 -10 19 0 32 12 14 15 14 29
0 14 -15 14 -17 0 -32z m131 36 c8 -5 11 -12 7 -17 -5 -4 -12 -1 -17 7 -7 10
-10 11 -10 3 0 -7 -10 -13 -21 -13 -17 0 -19 -3 -10 -14 8 -10 8 -16 -2 -25
-15 -11 -27 -5 -27 14 0 15 38 55 53 55 7 0 19 -4 27 -10z m0 -63 c0 -8 -3
-17 -7 -20 -9 -9 -34 13 -27 24 8 14 34 11 34 -4z m-116 -18 c-3 -5 -10 -7
-15 -3 -5 3 -7 10 -3 15 3 5 10 7 15 3 5 -3 7 -10 3 -15z m66 -25 c0 -14 -21
-19 -33 -7 -9 9 13 34 24 27 5 -3 9 -12 9 -20z m230 16 c0 -6 -28 -10 -65 -10
-37 0 -65 4 -65 10 0 6 28 10 65 10 37 0 65 -4 65 -10z m-210 -50 c0 -5 -7
-10 -16 -10 -8 0 -12 5 -9 10 3 6 10 10 16 10 5 0 9 -4 9 -10z m40 2 c0 -13
-12 -22 -22 -16 -10 6 -1 24 13 24 5 0 9 -4 9 -8z m210 -133 c0 -60 -3 -80
-12 -77 -9 3 -14 31 -16 81 -2 64 0 77 13 77 12 0 15 -15 15 -81z m-57 23 c11
-10 17 -29 17 -57 l0 -42 -44 2 c-53 1 -76 18 -76 54 0 62 54 85 103 43z
m-131 1 c41 -37 3 -110 -53 -99 -24 5 -29 2 -29 -14 0 -11 -4 -20 -10 -20 -13
0 -13 106 0 131 13 24 66 26 92 2z m-745 -50 c-3 -10 -5 -2 -5 17 0 19 2 27 5
18 2 -10 2 -26 0 -35z"/>
<path d="M456 870 c-94 -30 -138 -158 -82 -241 80 -117 270 -75 293 64 9 55
-20 122 -66 152 -41 28 -103 38 -145 25z"/>
<path d="M659 566 c-75 -72 -160 -84 -253 -38 l-56 29 0 -98 0 -97 51 -12
c159 -38 325 66 354 223 7 36 6 37 -21 37 -20 0 -43 -14 -75 -44z"/>
<path d="M976 584 c-12 -12 -13 -20 -6 -35 11 -20 19 -23 44 -13 19 7 21 35 4
52 -16 16 -23 15 -42 -4z"/>
<path d="M846 585 c-20 -21 -5 -55 25 -55 24 0 36 27 22 48 -14 23 -29 25 -47
7z"/>
</g>
</svg>
